M48
;DRILL file {KiCad (2016-07-06 BZR 6969, Git 4ed346e)-product} date Wed Jul  6 14:07:56 2016
;FORMAT={-:-/ absolute / inch / decimal}
FMAT,2
INCH,TZ
T1C0.012
T2C0.020
T3C0.022
T4C0.036
T5C0.039
T6C0.059
T7C0.079
T8C0.091
%
G90
G05
M72
T1
X1.0224Y-0.7293
X1.0236Y-0.6142
X1.0236Y-0.7638
X1.0402Y-0.5893
X1.0433Y-0.6693
X1.0472Y-0.7299
X1.0472Y-0.7638
X1.0591Y-0.8199
X1.0628Y-0.6139
X1.0709Y-0.7638
X1.0748Y-0.5246
X1.0773Y-0.5878
X1.0925Y-0.6693
X1.1134Y-0.6907
X1.1157Y-0.8197
X1.1169Y-0.5248
X1.1235Y-0.6274
X1.1423Y-0.683
X1.1436Y-0.6039
X1.189Y-0.7717
X1.2126Y-0.7717
X1.2362Y-0.7717
X1.248Y-1.1102
X1.267Y-0.8261
X1.2795Y-0.7282
X1.2835Y-1.0551
X1.2894Y-0.5429
X1.2894Y-0.689
X1.2913Y-0.315
X1.3071Y-1.1949
X1.315Y-1.1654
X1.3287Y-0.5118
X1.3359Y-1.1868
X1.3484Y-0.937
X1.3598Y-0.689
X1.3598Y-0.7185
X1.3701Y-0.4173
X1.378Y-1.2063
X1.3848Y-0.968
X1.4016Y-0.7559
X1.4079Y-1.2063
X1.4094Y-0.874
X1.4094Y-0.9449
X1.4252Y-0.7559
X1.4409Y-0.874
X1.4488Y-0.7559
X1.4567Y-0.3248
X1.4567Y-0.4232
X1.4599Y-0.9661
X1.4882Y-0.7638
X1.5007Y-1.0032
X1.5132Y-0.5709
X1.5433Y-1.126
X1.5483Y-0.9866
X1.5512Y-1.0291
X1.5512Y-1.063
X1.5512Y-1.0945
X1.5542Y-0.3351
X1.565Y-0.502
X1.5669Y-0.8425
X1.5783Y-0.4506
X1.5873Y-0.6485
X1.6142Y-0.2067
X1.6142Y-0.4626
X1.6207Y-0.5374
X1.6353Y-0.5113
X1.6613Y-1.0629
X1.6732Y-0.5118
X1.6732Y-0.6176
X1.7028Y-0.8268
X1.7126Y-0.6004
X1.7323Y-0.8898
X1.7559Y-0.9787
X1.7618Y-0.7874
X1.7717Y-0.7638
X1.7913Y-0.8898
X1.811Y-0.6398
X1.8322Y-0.6186
X1.8504Y-0.2362
X1.8504Y-0.502
X1.8749Y-0.6251
X1.8996Y-0.3445
X1.8996Y-1.0335
X1.9094Y-0.2854
X1.9291Y-0.8661
X1.9685Y-1.1354
X1.9685Y-1.1654
X1.9803Y-1.1929
X1.9882Y-0.2795
X2.0079Y-1.122
X2.0177Y-0.2854
X2.0177Y-0.4823
X2.0374Y-0.2854
X2.0374Y-0.4823
X2.0571Y-0.2854
X2.0768Y-0.4429
X2.0768Y-0.6398
X2.0866Y-1.1122
X2.0886Y-0.8583
X2.0965Y-0.3346
X2.0965Y-0.4035
X2.0965Y-1.0728
X2.1358Y-1.1909
X2.1417Y-0.9449
X2.2371Y-0.8647
X2.3119Y-0.9048
X2.361Y-0.3674
X2.3733Y-0.9639
X2.3844Y-0.9227
X2.3937Y-1.189
X2.4114Y-1.0728
X2.5039Y-1.0236
X2.5197Y-0.8366
X2.5354Y-1.0236
X2.5492Y-0.8366
X2.5591Y-0.8858
X2.564Y-1.1052
X2.5669Y-1.189
X2.6772Y-0.9921
X2.685Y-0.9606
T4
X2.1803Y-0.3642
X2.1803Y-0.4626
X2.1803Y-0.5413
X2.1803Y-0.6398
X2.2835Y-0.3642
X2.2835Y-0.4626
X2.2835Y-0.5413
X2.2835Y-0.6398
T5
X1.6126Y-1.0417
X1.6126Y-1.1417
X1.7126Y-1.0417
X1.7126Y-1.1417
X1.8126Y-1.0417
X1.8126Y-1.1417
T6
X1.4173Y-1.0866
T7
X1.7323Y-0.3543
X2.2539Y-1.0728
T8
X2.1665Y-0.2433
X2.1665Y-0.7606
X2.3902Y-0.2433
X2.3902Y-0.7606
T2
X2.7234Y-0.9055G85X2.749Y-0.9055
G05
X2.7234Y-1.1811G85X2.749Y-1.1811
G05
T3
X2.6299Y-0.9508G85X2.6299Y-0.939
G05
X2.6299Y-1.1476G85X2.6299Y-1.1358
G05
T0
M30
