G04 #@! TF.FileFunction,Soldermask,Top*
%FSLAX46Y46*%
G04 Gerber Fmt 4.6, Leading zero omitted, Abs format (unit mm)*
G04 Created by KiCad (PCBNEW (2016-06-03 BZR 6882, Git b4ad18a)-product) date Fri Jun  3 13:11:24 2016*
%MOMM*%
%LPD*%
G01*
G04 APERTURE LIST*
%ADD10C,0.100000*%
%ADD11O,1.450000X0.700000*%
%ADD12O,0.700000X1.450000*%
%ADD13R,4.400000X4.400000*%
%ADD14O,0.700000X1.400000*%
%ADD15O,1.400000X0.700000*%
%ADD16R,2.650000X2.650000*%
%ADD17R,2.400000X0.660000*%
%ADD18R,2.400000X0.810000*%
%ADD19R,3.200000X0.975000*%
%ADD20R,2.700000X0.975000*%
%ADD21R,2.400000X1.900000*%
%ADD22R,3.200000X1.400000*%
%ADD23R,1.924000X2.686000*%
%ADD24O,1.924000X2.686000*%
%ADD25R,1.750000X0.800000*%
%ADD26O,1.950000X1.950000*%
%ADD27O,1.650000X1.650000*%
%ADD28C,1.800000*%
%ADD29C,2.400000*%
%ADD30O,2.400000X2.000000*%
%ADD31C,3.600000*%
%ADD32R,1.500000X1.700000*%
%ADD33R,1.300000X1.700000*%
%ADD34R,1.050000X1.250000*%
%ADD35R,1.000000X1.000000*%
%ADD36R,1.000000X1.050000*%
%ADD37R,1.050000X1.000000*%
%ADD38R,2.200000X1.600000*%
%ADD39R,1.500000X1.000000*%
%ADD40R,1.150000X0.800000*%
%ADD41R,1.250000X1.050000*%
%ADD42R,0.900000X1.100000*%
%ADD43R,1.100000X0.900000*%
%ADD44R,0.600000X1.200000*%
%ADD45R,1.200000X0.600000*%
%ADD46C,0.254000*%
G04 APERTURE END LIST*
D10*
D11*
X46850000Y-11000000D03*
X46850000Y-10500000D03*
X46850000Y-10000000D03*
X46850000Y-9500000D03*
X46850000Y-9000000D03*
X46850000Y-8500000D03*
X46850000Y-8000000D03*
X46850000Y-7500000D03*
X46850000Y-7000000D03*
D12*
X46000000Y-6150000D03*
X45500000Y-6150000D03*
X45000000Y-6150000D03*
X44500000Y-6150000D03*
X44000000Y-6150000D03*
X43500000Y-6150000D03*
X43000000Y-6150000D03*
X42500000Y-6150000D03*
X42000000Y-6150000D03*
D11*
X41150000Y-7000000D03*
X41150000Y-7500000D03*
X41150000Y-8000000D03*
X41150000Y-8500000D03*
X41150000Y-9000000D03*
X41150000Y-9500000D03*
X41150000Y-10000000D03*
X41150000Y-10500000D03*
X41150000Y-11000000D03*
D12*
X42000000Y-11850000D03*
X42500000Y-11850000D03*
X43000000Y-11850000D03*
X43500000Y-11850000D03*
X44000000Y-11850000D03*
X44500000Y-11850000D03*
X45000000Y-11850000D03*
X45500000Y-11850000D03*
X46000000Y-11850000D03*
D13*
X44000000Y-9000000D03*
D11*
X54400000Y-25250000D03*
X54400000Y-25750000D03*
X54400000Y-26250000D03*
X54400000Y-26750000D03*
X54400000Y-27250000D03*
X54400000Y-27750000D03*
X54400000Y-28250000D03*
X54400000Y-28750000D03*
X54400000Y-29250000D03*
D12*
X55250000Y-30100000D03*
X55750000Y-30100000D03*
X56250000Y-30100000D03*
X56750000Y-30100000D03*
X57250000Y-30100000D03*
X57750000Y-30100000D03*
X58250000Y-30100000D03*
X58750000Y-30100000D03*
X59250000Y-30100000D03*
D11*
X60100000Y-29250000D03*
X60100000Y-28750000D03*
X60100000Y-28250000D03*
X60100000Y-27750000D03*
X60100000Y-27250000D03*
X60100000Y-26750000D03*
X60100000Y-26250000D03*
X60100000Y-25750000D03*
X60100000Y-25250000D03*
D12*
X59250000Y-24400000D03*
X58750000Y-24400000D03*
X58250000Y-24400000D03*
X57750000Y-24400000D03*
X57250000Y-24400000D03*
X56750000Y-24400000D03*
X56250000Y-24400000D03*
X55750000Y-24400000D03*
X55250000Y-24400000D03*
D13*
X57250000Y-27250000D03*
D14*
X37000000Y-25150000D03*
X36500000Y-25150000D03*
X36000000Y-25150000D03*
X35500000Y-25150000D03*
X35000000Y-25150000D03*
D15*
X34150000Y-26000000D03*
X34150000Y-26500000D03*
X34150000Y-27000000D03*
X34150000Y-27500000D03*
X34150000Y-28000000D03*
D14*
X35000000Y-28850000D03*
X35500000Y-28850000D03*
X36000000Y-28850000D03*
X36500000Y-28850000D03*
X37000000Y-28850000D03*
D15*
X37850000Y-28000000D03*
X37850000Y-27500000D03*
X37850000Y-27000000D03*
X37850000Y-26500000D03*
X37850000Y-26000000D03*
D16*
X36000000Y-27000000D03*
D17*
X23950000Y-14750000D03*
X23950000Y-15250000D03*
X23950000Y-15750000D03*
X23950000Y-16250000D03*
X23950000Y-16750000D03*
X23950000Y-17250000D03*
X23950000Y-17750000D03*
X23950000Y-18250000D03*
X23950000Y-18750000D03*
X23950000Y-19250000D03*
D18*
X23950000Y-14175000D03*
X23950000Y-19825000D03*
D19*
X23400000Y-13487500D03*
D20*
X23150000Y-20512500D03*
D21*
X27300000Y-13325000D03*
D22*
X26900000Y-20825000D03*
D23*
X46040000Y-26206000D03*
D24*
X43500000Y-26206000D03*
X40960000Y-26206000D03*
X46040000Y-29254000D03*
X43500000Y-29254000D03*
X40960000Y-29254000D03*
D25*
X66800000Y-27800000D03*
X66800000Y-27150000D03*
X66800000Y-26500000D03*
X66800000Y-25850000D03*
X66800000Y-25200000D03*
D26*
X69500000Y-30000000D03*
X69500000Y-23000000D03*
D27*
X66800000Y-29000000D03*
X66800000Y-24000000D03*
D28*
X55380000Y-11750000D03*
X55380000Y-13750000D03*
X58000000Y-13750000D03*
X58000000Y-11750000D03*
D29*
X55380000Y-16250000D03*
X58000000Y-16250000D03*
X58000000Y-9250000D03*
D30*
X55380000Y-9250000D03*
D31*
X55030000Y-19320000D03*
X60710000Y-19320000D03*
X60710000Y-6180000D03*
X55030000Y-6180000D03*
D32*
X63950000Y-22400000D03*
D33*
X62250000Y-22400000D03*
X62250000Y-24600000D03*
X64150000Y-24600000D03*
D32*
X51750000Y-8400000D03*
D33*
X50050000Y-8400000D03*
X50050000Y-10600000D03*
X51950000Y-10600000D03*
D32*
X51750000Y-13400000D03*
D33*
X50050000Y-13400000D03*
X50050000Y-15600000D03*
X51950000Y-15600000D03*
D34*
X49175000Y-27775000D03*
X50825000Y-27775000D03*
X50825000Y-26225000D03*
X49175000Y-26225000D03*
D35*
X46450000Y-22000000D03*
X45550000Y-22000000D03*
X53800000Y-23000000D03*
X54700000Y-23000000D03*
X61750000Y-29300000D03*
X61750000Y-30200000D03*
X63300000Y-27500000D03*
X64200000Y-27500000D03*
X31700000Y-17750000D03*
X30800000Y-17750000D03*
X38450000Y-12000000D03*
X37550000Y-12000000D03*
X33950000Y-20250000D03*
X33050000Y-20250000D03*
X45550000Y-23400000D03*
X46450000Y-23400000D03*
X46500000Y-14950000D03*
X46500000Y-14050000D03*
X64250000Y-29300000D03*
X64250000Y-30200000D03*
X63000000Y-29300000D03*
X63000000Y-30200000D03*
X38450000Y-10750000D03*
X37550000Y-10750000D03*
X38450000Y-9500000D03*
X37550000Y-9500000D03*
X31700000Y-14000000D03*
X30800000Y-14000000D03*
X38450000Y-7000000D03*
X37550000Y-7000000D03*
X46650000Y-20600000D03*
X45750000Y-20600000D03*
D36*
X45250000Y-14950000D03*
X45250000Y-14050000D03*
D37*
X53800000Y-21750000D03*
X54700000Y-21750000D03*
X48800000Y-6250000D03*
X49700000Y-6250000D03*
D36*
X52500000Y-29300000D03*
X52500000Y-30200000D03*
X47750000Y-14900000D03*
X47750000Y-14000000D03*
D37*
X37550000Y-8250000D03*
X38450000Y-8250000D03*
X49950000Y-24750000D03*
X49050000Y-24750000D03*
D36*
X52250000Y-27900000D03*
X52250000Y-27000000D03*
X51000000Y-29300000D03*
X51000000Y-30200000D03*
X42500000Y-14900000D03*
X42500000Y-14000000D03*
D38*
X36250000Y-18300000D03*
X36250000Y-21200000D03*
D39*
X38650000Y-18550000D03*
X38650000Y-20450000D03*
X38650000Y-19500000D03*
X40850000Y-20450000D03*
X40850000Y-18550000D03*
D36*
X42500000Y-20950000D03*
X42500000Y-20050000D03*
X44000000Y-20950000D03*
X44000000Y-20050000D03*
D40*
X33700000Y-22500000D03*
X31800000Y-21850000D03*
X31800000Y-23150000D03*
X31800000Y-22500000D03*
X33700000Y-23150000D03*
X33700000Y-21850000D03*
D41*
X34300000Y-15350000D03*
X34300000Y-16650000D03*
X36200000Y-16000000D03*
D37*
X31550000Y-27500000D03*
X32450000Y-27500000D03*
D35*
X39750000Y-22300000D03*
X39750000Y-23200000D03*
X32450000Y-30500000D03*
X31550000Y-30500000D03*
X31550000Y-29050000D03*
X32450000Y-29050000D03*
X38250000Y-23200000D03*
X38250000Y-22300000D03*
D42*
X49000000Y-30350000D03*
X49000000Y-29250000D03*
D43*
X52300000Y-6250000D03*
X51200000Y-6250000D03*
D35*
X42800000Y-23450000D03*
X42800000Y-22550000D03*
X41200000Y-23250000D03*
X41200000Y-22350000D03*
X31550000Y-25750000D03*
X32450000Y-25750000D03*
D40*
X49950000Y-23150000D03*
X49950000Y-21850000D03*
X49950000Y-22500000D03*
X48050000Y-21850000D03*
X48050000Y-23150000D03*
D44*
X40450000Y-13800000D03*
X40050000Y-13800000D03*
X40050000Y-15200000D03*
X40450000Y-15200000D03*
D45*
X39350000Y-14100000D03*
X39350000Y-14500000D03*
X39350000Y-14900000D03*
X41150000Y-14500000D03*
X41150000Y-14100000D03*
X41150000Y-14900000D03*
D35*
X49450000Y-20600000D03*
X48550000Y-20600000D03*
D46*
G36*
X70123000Y-13123000D02*
X67877000Y-13123000D01*
X67877000Y-4877000D01*
X70123000Y-4877000D01*
X70123000Y-13123000D01*
X70123000Y-13123000D01*
G37*
X70123000Y-13123000D02*
X67877000Y-13123000D01*
X67877000Y-4877000D01*
X70123000Y-4877000D01*
X70123000Y-13123000D01*
M02*
