G04 #@! TF.FileFunction,Copper,L2,Inr,Signal*
%FSLAX46Y46*%
G04 Gerber Fmt 4.6, Leading zero omitted, Abs format (unit mm)*
G04 Created by KiCad (PCBNEW (2016-06-13 BZR 6931, Git 571206a)-product) date Monday, June 13, 2016 'PMt' 07:28:45 PM*
%MOMM*%
%LPD*%
G01*
G04 APERTURE LIST*
%ADD10C,0.100000*%
%ADD11C,0.300000*%
%ADD12R,2.250000X2.250000*%
%ADD13R,1.524000X2.286000*%
%ADD14O,1.524000X2.286000*%
%ADD15R,4.000000X4.000000*%
%ADD16O,1.550000X1.550000*%
%ADD17O,1.250000X1.250000*%
%ADD18C,1.400000*%
%ADD19C,2.000000*%
%ADD20O,2.000000X1.600000*%
%ADD21C,3.200000*%
%ADD22C,0.600000*%
%ADD23C,0.400000*%
%ADD24C,0.500000*%
%ADD25C,0.800000*%
%ADD26C,0.600000*%
%ADD27C,2.000000*%
%ADD28C,1.500000*%
G04 APERTURE END LIST*
D10*
D11*
X68321428Y-10428571D02*
X68250000Y-10357142D01*
X68178571Y-10214285D01*
X68178571Y-9857142D01*
X68250000Y-9714285D01*
X68321428Y-9642857D01*
X68464285Y-9571428D01*
X68607142Y-9571428D01*
X68821428Y-9642857D01*
X69678571Y-10500000D01*
X69678571Y-9571428D01*
D12*
X36000000Y-27600000D03*
D13*
X46040000Y-26206000D03*
D14*
X43500000Y-26206000D03*
X40960000Y-26206000D03*
X46040000Y-29254000D03*
X43500000Y-29254000D03*
X40960000Y-29254000D03*
D15*
X44000000Y-9000000D03*
X57250000Y-27250000D03*
D16*
X69500000Y-30000000D03*
X69500000Y-23000000D03*
D17*
X66800000Y-29000000D03*
X66800000Y-24000000D03*
D18*
X55380000Y-11750000D03*
X55380000Y-13750000D03*
X58000000Y-13750000D03*
X58000000Y-11750000D03*
D19*
X55380000Y-16250000D03*
X58000000Y-16250000D03*
X58000000Y-9250000D03*
D20*
X55380000Y-9250000D03*
D21*
X55030000Y-19320000D03*
X60710000Y-19320000D03*
X60710000Y-6180000D03*
X55030000Y-6180000D03*
D22*
X26500000Y-17000000D03*
X27750000Y-17000000D03*
X31700000Y-28200002D03*
X32181850Y-20981841D03*
X34800000Y-10600000D03*
X49000000Y-22000000D03*
X43250000Y-21000000D03*
X39800000Y-21400000D03*
X47622954Y-15877046D03*
X48500000Y-7250000D03*
X52250000Y-7250000D03*
X51250000Y-7250000D03*
X51750000Y-7250000D03*
X51250000Y-12250000D03*
X51750000Y-12250000D03*
X65000000Y-22500000D03*
X64750000Y-21250000D03*
X64000000Y-21250000D03*
X46537403Y-15712597D03*
X38434434Y-14500000D03*
X37000000Y-10750000D03*
X37000000Y-8250000D03*
X36600000Y-22200000D03*
X35800000Y-22200000D03*
X37800000Y-19400000D03*
X27200000Y-19400000D03*
X26600000Y-19400000D03*
X26000000Y-19400000D03*
X27364275Y-14929743D03*
X26421573Y-14967640D03*
X53050011Y-21800000D03*
X65200000Y-30200000D03*
X60800000Y-30200000D03*
X65124616Y-28071687D03*
X68200000Y-24400000D03*
X68000000Y-25200000D03*
X42500000Y-15687270D03*
X51000000Y-28500000D03*
X53000000Y-28250000D03*
X28370000Y-13330000D03*
X27300000Y-13325000D03*
X28340000Y-20820000D03*
X26900000Y-20825000D03*
X28538062Y-15936449D03*
X28280878Y-17543848D03*
X29015439Y-17348859D03*
X39200000Y-28600000D03*
X32600000Y-26800000D03*
X45000010Y-19400000D03*
X54400000Y-24000000D03*
X54250000Y-30250000D03*
X61250000Y-27250000D03*
X58722142Y-22980901D03*
X50300000Y-30300000D03*
X48250000Y-26250000D03*
X44750000Y-20000000D03*
X39476760Y-8511620D03*
X41000000Y-5250000D03*
X48250000Y-8750000D03*
X47000000Y-6000000D03*
X47000000Y-12750000D03*
X53250000Y-27250029D03*
X42500000Y-13000000D03*
X30200000Y-19600000D03*
X31400000Y-19600000D03*
X30800000Y-19600000D03*
X36800000Y-19200000D03*
X35600000Y-19200000D03*
X36200000Y-19200000D03*
X26600000Y-18540000D03*
X25968976Y-18523805D03*
X26994508Y-15593727D03*
X26000000Y-15600000D03*
X52750000Y-11250000D03*
X52750000Y-16250000D03*
X34540010Y-18249992D03*
X34540010Y-17500000D03*
X63600000Y-26000000D03*
X34250030Y-23800000D03*
X64400000Y-26000000D03*
X53250000Y-8500000D03*
X53250000Y-10250008D03*
X43500000Y-15250000D03*
X41537459Y-12987146D03*
X40316833Y-16471944D03*
X39750000Y-12750000D03*
X60562598Y-23437402D03*
X35800000Y-24000000D03*
X40089262Y-11446421D03*
X29047726Y-15339915D03*
X59968169Y-9331831D03*
X50000000Y-28840007D03*
X50000000Y-29600000D03*
X50500000Y-7100000D03*
X39400000Y-27000000D03*
X42198162Y-26998162D03*
X38118162Y-25481838D03*
X39325984Y-25060000D03*
X37081838Y-24540000D03*
X33199071Y-30350001D03*
X39400000Y-26140000D03*
X60281838Y-24481838D03*
X35174722Y-24586542D03*
X41000000Y-11750000D03*
X45500000Y-22600000D03*
X56822434Y-21963783D03*
X46000000Y-16250000D03*
X39400000Y-27800000D03*
X44600000Y-24860010D03*
X44000000Y-22600000D03*
X41165868Y-13650100D03*
X32750000Y-17500000D03*
X33400000Y-29600000D03*
X32800000Y-8000000D03*
X33750000Y-13000000D03*
X33930646Y-30144090D03*
X32499591Y-18497135D03*
X35000000Y-30640000D03*
X32750000Y-13790000D03*
X35760003Y-30640000D03*
D23*
X27364275Y-14929743D02*
X27364275Y-14614275D01*
X26421573Y-14967640D02*
X26421573Y-14671573D01*
D24*
X39600000Y-29800000D02*
X39200000Y-29800000D01*
X40400000Y-29000000D02*
X39600000Y-29800000D01*
X40960000Y-29000000D02*
X40400000Y-29000000D01*
X31700000Y-28200002D02*
X32399998Y-28200002D01*
D25*
X55380000Y-9250000D02*
X58000000Y-9250000D01*
D26*
X30939999Y-27645695D02*
X31600000Y-26985694D01*
X65420802Y-31400000D02*
X32200000Y-31400000D01*
X30939999Y-30139999D02*
X30939999Y-27645695D01*
X32200000Y-31400000D02*
X30939999Y-30139999D01*
X65610801Y-31210001D02*
X65420802Y-31400000D01*
D25*
X31600000Y-21800000D02*
X31600000Y-26985694D01*
X28340000Y-20820000D02*
X30620000Y-20820000D01*
X30620000Y-20820000D02*
X31600000Y-21800000D01*
X66800000Y-30020802D02*
X66800000Y-29000000D01*
X65610801Y-31210001D02*
X66800000Y-30020802D01*
X28340000Y-20820000D02*
X26905000Y-20820000D01*
X26905000Y-20820000D02*
X26900000Y-20825000D01*
X28370000Y-13330000D02*
X27305000Y-13330000D01*
X27305000Y-13330000D02*
X27300000Y-13325000D01*
D27*
X60710000Y-6180000D02*
X61500000Y-6970000D01*
X61500000Y-6970000D02*
X61500000Y-18530000D01*
X61500000Y-18530000D02*
X60710000Y-19320000D01*
D25*
X28370000Y-13330000D02*
X30470000Y-13330000D01*
X30470000Y-13330000D02*
X31200000Y-12600000D01*
D28*
X66800000Y-29000000D02*
X68500000Y-29000000D01*
X68500000Y-29000000D02*
X69500000Y-30000000D01*
X69500000Y-23000000D02*
X69510001Y-23010001D01*
X69510001Y-23010001D02*
X69510001Y-29989999D01*
X69510001Y-29989999D02*
X69500000Y-30000000D01*
D27*
X68120000Y-19320000D02*
X69500000Y-20700000D01*
X69500000Y-20700000D02*
X69500000Y-23000000D01*
X60710000Y-19320000D02*
X68120000Y-19320000D01*
X55030000Y-19320000D02*
X60710000Y-19320000D01*
X55030000Y-6180000D02*
X60710000Y-6180000D01*
D25*
X31200000Y-12600000D02*
X31200000Y-6600000D01*
X31200000Y-6600000D02*
X32600000Y-5200000D01*
X32600000Y-5200000D02*
X39400000Y-5200000D01*
X39400000Y-5200000D02*
X40410001Y-6210001D01*
X40410001Y-6210001D02*
X41989999Y-6210001D01*
X41989999Y-6210001D02*
X43160001Y-5039999D01*
X43160001Y-5039999D02*
X51839999Y-5039999D01*
X51839999Y-5039999D02*
X52980000Y-6180000D01*
X52980000Y-6180000D02*
X55030000Y-6180000D01*
D11*
G36*
X46149853Y-6168334D02*
X46278985Y-6480857D01*
X46517885Y-6720174D01*
X46830183Y-6849852D01*
X47168334Y-6850147D01*
X47480857Y-6721015D01*
X47720174Y-6482115D01*
X47849852Y-6169817D01*
X47850009Y-5989999D01*
X51446497Y-5989999D01*
X52308249Y-6851752D01*
X52616450Y-7057686D01*
X52676767Y-7069683D01*
X52980000Y-7130000D01*
X53096229Y-7130000D01*
X53206256Y-7396286D01*
X53487894Y-7678416D01*
X53419817Y-7650148D01*
X53081666Y-7649853D01*
X52769143Y-7778985D01*
X52529826Y-8017885D01*
X52400148Y-8330183D01*
X52399853Y-8668334D01*
X52528985Y-8980857D01*
X52767885Y-9220174D01*
X53080183Y-9349852D01*
X53418334Y-9350147D01*
X53730857Y-9221015D01*
X53902171Y-9050000D01*
X55180000Y-9050000D01*
X55180000Y-9030000D01*
X55580000Y-9030000D01*
X55580000Y-9050000D01*
X55600000Y-9050000D01*
X55600000Y-9450000D01*
X55580000Y-9450000D01*
X55580000Y-9470000D01*
X55180000Y-9470000D01*
X55180000Y-9450000D01*
X53902055Y-9450000D01*
X53816072Y-9613937D01*
X53732115Y-9529834D01*
X53419817Y-9400156D01*
X53081666Y-9399861D01*
X52769143Y-9528993D01*
X52529826Y-9767893D01*
X52400148Y-10080191D01*
X52399853Y-10418342D01*
X52419841Y-10466718D01*
X52269143Y-10528985D01*
X52029826Y-10767885D01*
X51900148Y-11080183D01*
X51899853Y-11418334D01*
X52028985Y-11730857D01*
X52267885Y-11970174D01*
X52580183Y-12099852D01*
X52918334Y-12100147D01*
X53230857Y-11971015D01*
X53470174Y-11732115D01*
X53599852Y-11419817D01*
X53600147Y-11081666D01*
X53580159Y-11033290D01*
X53730857Y-10971023D01*
X53970174Y-10732123D01*
X54099852Y-10419825D01*
X54100045Y-10199053D01*
X54418197Y-10493150D01*
X54804021Y-10635488D01*
X54672857Y-10689684D01*
X54320919Y-11041007D01*
X54130217Y-11500269D01*
X54129783Y-11997550D01*
X54319684Y-12457143D01*
X54612232Y-12750203D01*
X54320919Y-13041007D01*
X54130217Y-13500269D01*
X54129783Y-13997550D01*
X54319684Y-14457143D01*
X54671007Y-14809081D01*
X54739531Y-14837535D01*
X54503143Y-14935208D01*
X54066740Y-15370849D01*
X53830270Y-15940333D01*
X53829732Y-16556961D01*
X54065208Y-17126857D01*
X54252837Y-17314814D01*
X53813714Y-17496256D01*
X53208381Y-18100533D01*
X52880374Y-18890462D01*
X52879628Y-19745785D01*
X53206256Y-20536286D01*
X53810533Y-21141619D01*
X54600462Y-21469626D01*
X55455785Y-21470372D01*
X56246286Y-21143744D01*
X56520508Y-20870000D01*
X59219388Y-20870000D01*
X59490533Y-21141619D01*
X60280462Y-21469626D01*
X61135785Y-21470372D01*
X61926286Y-21143744D01*
X62200508Y-20870000D01*
X67477968Y-20870000D01*
X67950000Y-21342031D01*
X67950000Y-23000000D01*
X68067987Y-23593159D01*
X68210001Y-23805699D01*
X68210001Y-27700000D01*
X66800000Y-27700000D01*
X66302512Y-27798957D01*
X65880761Y-28080761D01*
X65598957Y-28502512D01*
X65500000Y-29000000D01*
X65598957Y-29497488D01*
X65751506Y-29725794D01*
X64939050Y-30538250D01*
X64931199Y-30550000D01*
X55045795Y-30550000D01*
X55099852Y-30419817D01*
X55100147Y-30081666D01*
X54971015Y-29769143D01*
X54732115Y-29529826D01*
X54419817Y-29400148D01*
X54081666Y-29399853D01*
X53769143Y-29528985D01*
X53529826Y-29767885D01*
X53400148Y-30080183D01*
X53399853Y-30418334D01*
X53454256Y-30550000D01*
X51116557Y-30550000D01*
X51149852Y-30469817D01*
X51150147Y-30131666D01*
X51021015Y-29819143D01*
X50849958Y-29647788D01*
X50850147Y-29431666D01*
X50762634Y-29219868D01*
X50849852Y-29009824D01*
X50850147Y-28671673D01*
X50721015Y-28359150D01*
X50482115Y-28119833D01*
X50169817Y-27990155D01*
X49831666Y-27989860D01*
X49519143Y-28118992D01*
X49279826Y-28357892D01*
X49150148Y-28670190D01*
X49149853Y-29008341D01*
X49237366Y-29220139D01*
X49150148Y-29430183D01*
X49149853Y-29768334D01*
X49278985Y-30080857D01*
X49450042Y-30252212D01*
X49449853Y-30468334D01*
X49483597Y-30550000D01*
X46998388Y-30550000D01*
X47252130Y-30170249D01*
X47352000Y-29668168D01*
X47352000Y-28839832D01*
X47252130Y-28337751D01*
X46967724Y-27912108D01*
X46927016Y-27884908D01*
X47016599Y-27867089D01*
X47198528Y-27745528D01*
X47320089Y-27563599D01*
X47348977Y-27418363D01*
X52399853Y-27418363D01*
X52528985Y-27730886D01*
X52767885Y-27970203D01*
X53080183Y-28099881D01*
X53418334Y-28100176D01*
X53730857Y-27971044D01*
X53970174Y-27732144D01*
X54099852Y-27419846D01*
X54099853Y-27418334D01*
X60399853Y-27418334D01*
X60528985Y-27730857D01*
X60767885Y-27970174D01*
X61080183Y-28099852D01*
X61418334Y-28100147D01*
X61730857Y-27971015D01*
X61970174Y-27732115D01*
X62099852Y-27419817D01*
X62100147Y-27081666D01*
X61971015Y-26769143D01*
X61732115Y-26529826D01*
X61419817Y-26400148D01*
X61081666Y-26399853D01*
X60769143Y-26528985D01*
X60529826Y-26767885D01*
X60400148Y-27080183D01*
X60399853Y-27418334D01*
X54099853Y-27418334D01*
X54100147Y-27081695D01*
X53971015Y-26769172D01*
X53732115Y-26529855D01*
X53419817Y-26400177D01*
X53081666Y-26399882D01*
X52769143Y-26529014D01*
X52529826Y-26767914D01*
X52400148Y-27080212D01*
X52399853Y-27418363D01*
X47348977Y-27418363D01*
X47362775Y-27349000D01*
X47362775Y-26418334D01*
X47399853Y-26418334D01*
X47528985Y-26730857D01*
X47767885Y-26970174D01*
X48080183Y-27099852D01*
X48418334Y-27100147D01*
X48730857Y-26971015D01*
X48970174Y-26732115D01*
X49099852Y-26419817D01*
X49100071Y-26168334D01*
X62749853Y-26168334D01*
X62878985Y-26480857D01*
X63117885Y-26720174D01*
X63430183Y-26849852D01*
X63768334Y-26850147D01*
X64000185Y-26754348D01*
X64230183Y-26849852D01*
X64568334Y-26850147D01*
X64880857Y-26721015D01*
X65120174Y-26482115D01*
X65249852Y-26169817D01*
X65250147Y-25831666D01*
X65121015Y-25519143D01*
X64882115Y-25279826D01*
X64569817Y-25150148D01*
X64231666Y-25149853D01*
X63999815Y-25245652D01*
X63769817Y-25150148D01*
X63431666Y-25149853D01*
X63119143Y-25278985D01*
X62879826Y-25517885D01*
X62750148Y-25830183D01*
X62749853Y-26168334D01*
X49100071Y-26168334D01*
X49100147Y-26081666D01*
X48971015Y-25769143D01*
X48732115Y-25529826D01*
X48419817Y-25400148D01*
X48081666Y-25399853D01*
X47769143Y-25528985D01*
X47529826Y-25767885D01*
X47400148Y-26080183D01*
X47399853Y-26418334D01*
X47362775Y-26418334D01*
X47362775Y-25063000D01*
X47320089Y-24848401D01*
X47198528Y-24666472D01*
X47016599Y-24544911D01*
X46802000Y-24502225D01*
X45371867Y-24502225D01*
X45321015Y-24379153D01*
X45110564Y-24168334D01*
X53549853Y-24168334D01*
X53678985Y-24480857D01*
X53917885Y-24720174D01*
X54230183Y-24849852D01*
X54568334Y-24850147D01*
X54880857Y-24721015D01*
X54951823Y-24650172D01*
X59431691Y-24650172D01*
X59560823Y-24962695D01*
X59799723Y-25202012D01*
X60112021Y-25331690D01*
X60450172Y-25331985D01*
X60762695Y-25202853D01*
X61002012Y-24963953D01*
X61131690Y-24651655D01*
X61131985Y-24313504D01*
X61060765Y-24141138D01*
X61225208Y-23976980D01*
X65625000Y-23976980D01*
X65625000Y-24023020D01*
X65714442Y-24472673D01*
X65969150Y-24853870D01*
X66350347Y-25108578D01*
X66800000Y-25198020D01*
X67249653Y-25108578D01*
X67630850Y-24853870D01*
X67885558Y-24472673D01*
X67975000Y-24023020D01*
X67975000Y-23976980D01*
X67885558Y-23527327D01*
X67630850Y-23146130D01*
X67249653Y-22891422D01*
X66800000Y-22801980D01*
X66350347Y-22891422D01*
X65969150Y-23146130D01*
X65714442Y-23527327D01*
X65625000Y-23976980D01*
X61225208Y-23976980D01*
X61282772Y-23919517D01*
X61412450Y-23607219D01*
X61412745Y-23269068D01*
X61283613Y-22956545D01*
X61044713Y-22717228D01*
X60732415Y-22587550D01*
X60394264Y-22587255D01*
X60081741Y-22716387D01*
X59842424Y-22955287D01*
X59712746Y-23267585D01*
X59712451Y-23605736D01*
X59783671Y-23778102D01*
X59561664Y-23999723D01*
X59431986Y-24312021D01*
X59431691Y-24650172D01*
X54951823Y-24650172D01*
X55120174Y-24482115D01*
X55249852Y-24169817D01*
X55250147Y-23831666D01*
X55121015Y-23519143D01*
X54882115Y-23279826D01*
X54569817Y-23150148D01*
X54231666Y-23149853D01*
X53919143Y-23278985D01*
X53679826Y-23517885D01*
X53550148Y-23830183D01*
X53549853Y-24168334D01*
X45110564Y-24168334D01*
X45082115Y-24139836D01*
X44769817Y-24010158D01*
X44431666Y-24009863D01*
X44119143Y-24138995D01*
X43879826Y-24377895D01*
X43811749Y-24541843D01*
X43500000Y-24479832D01*
X42997919Y-24579702D01*
X42572276Y-24864108D01*
X42287870Y-25289751D01*
X42230000Y-25580683D01*
X42172130Y-25289751D01*
X41887724Y-24864108D01*
X41462081Y-24579702D01*
X40960000Y-24479832D01*
X40457919Y-24579702D01*
X40136084Y-24794745D01*
X40046999Y-24579143D01*
X39808099Y-24339826D01*
X39495801Y-24210148D01*
X39157650Y-24209853D01*
X38845127Y-24338985D01*
X38605810Y-24577885D01*
X38539907Y-24736596D01*
X38287979Y-24631986D01*
X37949828Y-24631691D01*
X37931752Y-24639160D01*
X37931985Y-24371666D01*
X37802853Y-24059143D01*
X37563953Y-23819826D01*
X37251655Y-23690148D01*
X36913504Y-23689853D01*
X36638502Y-23803482D01*
X36521015Y-23519143D01*
X36282115Y-23279826D01*
X35969817Y-23150148D01*
X35631666Y-23149853D01*
X35319143Y-23278985D01*
X35079826Y-23517885D01*
X35066462Y-23550069D01*
X34971045Y-23319143D01*
X34732145Y-23079826D01*
X34419847Y-22950148D01*
X34081696Y-22949853D01*
X33769173Y-23078985D01*
X33529856Y-23317885D01*
X33400178Y-23630183D01*
X33399883Y-23968334D01*
X33529015Y-24280857D01*
X33767915Y-24520174D01*
X34080213Y-24649852D01*
X34324666Y-24650065D01*
X34324575Y-24754876D01*
X34453707Y-25067399D01*
X34692607Y-25306716D01*
X35004905Y-25436394D01*
X35343056Y-25436689D01*
X35655579Y-25307557D01*
X35894896Y-25068657D01*
X35989212Y-24841520D01*
X36243336Y-24736518D01*
X36360823Y-25020857D01*
X36599723Y-25260174D01*
X36912021Y-25389852D01*
X37250172Y-25390147D01*
X37268248Y-25382678D01*
X37268015Y-25650172D01*
X37353686Y-25857510D01*
X37255884Y-25817000D01*
X36268500Y-25817000D01*
X36104000Y-25981500D01*
X36104000Y-27496000D01*
X37618500Y-27496000D01*
X37783000Y-27331500D01*
X37783000Y-26344115D01*
X37742438Y-26246189D01*
X37948345Y-26331690D01*
X38286496Y-26331985D01*
X38549927Y-26223137D01*
X38549853Y-26308334D01*
X38658078Y-26570259D01*
X38550148Y-26830183D01*
X38549853Y-27168334D01*
X38645652Y-27400185D01*
X38550148Y-27630183D01*
X38549853Y-27968334D01*
X38573152Y-28024722D01*
X38479826Y-28117885D01*
X38350148Y-28430183D01*
X38349853Y-28768334D01*
X38478985Y-29080857D01*
X38717885Y-29320174D01*
X39030183Y-29449852D01*
X39368334Y-29450147D01*
X39540000Y-29379216D01*
X39540000Y-29604002D01*
X39700686Y-29604002D01*
X39548867Y-29827115D01*
X39729802Y-30352508D01*
X39904545Y-30550000D01*
X36610082Y-30550000D01*
X36610150Y-30471666D01*
X36481018Y-30159143D01*
X36242118Y-29919826D01*
X35929820Y-29790148D01*
X35591669Y-29789853D01*
X35379866Y-29877368D01*
X35169817Y-29790148D01*
X34831666Y-29789853D01*
X34722600Y-29834918D01*
X34651661Y-29663233D01*
X34412761Y-29423916D01*
X34212603Y-29340803D01*
X34121015Y-29119143D01*
X33882115Y-28879826D01*
X33569817Y-28750148D01*
X33231666Y-28749853D01*
X32919143Y-28878985D01*
X32679826Y-29117885D01*
X32550148Y-29430183D01*
X32549853Y-29768334D01*
X32558254Y-29788667D01*
X32478897Y-29867886D01*
X32349219Y-30180184D01*
X32349073Y-30346992D01*
X31789999Y-29787917D01*
X31789999Y-27997777D01*
X31914674Y-27873102D01*
X31937809Y-27868500D01*
X34217000Y-27868500D01*
X34217000Y-28855885D01*
X34317175Y-29097727D01*
X34502273Y-29282826D01*
X34744116Y-29383000D01*
X35731500Y-29383000D01*
X35896000Y-29218500D01*
X35896000Y-27704000D01*
X36104000Y-27704000D01*
X36104000Y-29218500D01*
X36268500Y-29383000D01*
X37255884Y-29383000D01*
X37497727Y-29282826D01*
X37682825Y-29097727D01*
X37783000Y-28855885D01*
X37783000Y-27868500D01*
X37618500Y-27704000D01*
X36104000Y-27704000D01*
X35896000Y-27704000D01*
X34381500Y-27704000D01*
X34217000Y-27868500D01*
X31937809Y-27868500D01*
X31963549Y-27863380D01*
X32271751Y-27657445D01*
X32310133Y-27600003D01*
X32430183Y-27649852D01*
X32768334Y-27650147D01*
X33080857Y-27521015D01*
X33320174Y-27282115D01*
X33449852Y-26969817D01*
X33450147Y-26631666D01*
X33331334Y-26344115D01*
X34217000Y-26344115D01*
X34217000Y-27331500D01*
X34381500Y-27496000D01*
X35896000Y-27496000D01*
X35896000Y-25981500D01*
X35731500Y-25817000D01*
X34744116Y-25817000D01*
X34502273Y-25917174D01*
X34317175Y-26102273D01*
X34217000Y-26344115D01*
X33331334Y-26344115D01*
X33321015Y-26319143D01*
X33082115Y-26079826D01*
X32769817Y-25950148D01*
X32550000Y-25949956D01*
X32550000Y-22768334D01*
X43149853Y-22768334D01*
X43278985Y-23080857D01*
X43517885Y-23320174D01*
X43830183Y-23449852D01*
X44168334Y-23450147D01*
X44480857Y-23321015D01*
X44720174Y-23082115D01*
X44749913Y-23010497D01*
X44778985Y-23080857D01*
X45017885Y-23320174D01*
X45330183Y-23449852D01*
X45668334Y-23450147D01*
X45980857Y-23321015D01*
X46152936Y-23149235D01*
X57871995Y-23149235D01*
X58001127Y-23461758D01*
X58240027Y-23701075D01*
X58552325Y-23830753D01*
X58890476Y-23831048D01*
X59202999Y-23701916D01*
X59442316Y-23463016D01*
X59571994Y-23150718D01*
X59572289Y-22812567D01*
X59443157Y-22500044D01*
X59204257Y-22260727D01*
X58891959Y-22131049D01*
X58553808Y-22130754D01*
X58241285Y-22259886D01*
X58001968Y-22498786D01*
X57872290Y-22811084D01*
X57871995Y-23149235D01*
X46152936Y-23149235D01*
X46220174Y-23082115D01*
X46349852Y-22769817D01*
X46350147Y-22431666D01*
X46226376Y-22132117D01*
X55972287Y-22132117D01*
X56101419Y-22444640D01*
X56340319Y-22683957D01*
X56652617Y-22813635D01*
X56990768Y-22813930D01*
X57303291Y-22684798D01*
X57542608Y-22445898D01*
X57672286Y-22133600D01*
X57672581Y-21795449D01*
X57543449Y-21482926D01*
X57304549Y-21243609D01*
X56992251Y-21113931D01*
X56654100Y-21113636D01*
X56341577Y-21242768D01*
X56102260Y-21481668D01*
X55972582Y-21793966D01*
X55972287Y-22132117D01*
X46226376Y-22132117D01*
X46221015Y-22119143D01*
X45982115Y-21879826D01*
X45669817Y-21750148D01*
X45331666Y-21749853D01*
X45019143Y-21878985D01*
X44779826Y-22117885D01*
X44750087Y-22189503D01*
X44721015Y-22119143D01*
X44482115Y-21879826D01*
X44169817Y-21750148D01*
X43831666Y-21749853D01*
X43519143Y-21878985D01*
X43279826Y-22117885D01*
X43150148Y-22430183D01*
X43149853Y-22768334D01*
X32550000Y-22768334D01*
X32550000Y-21800000D01*
X32477686Y-21436451D01*
X32391266Y-21307115D01*
X32271751Y-21128248D01*
X31586248Y-20442745D01*
X31880857Y-20321015D01*
X32033804Y-20168334D01*
X43899853Y-20168334D01*
X44028985Y-20480857D01*
X44267885Y-20720174D01*
X44580183Y-20849852D01*
X44918334Y-20850147D01*
X45230857Y-20721015D01*
X45470174Y-20482115D01*
X45599852Y-20169817D01*
X45599998Y-20002091D01*
X45720184Y-19882115D01*
X45849862Y-19569817D01*
X45850157Y-19231666D01*
X45721025Y-18919143D01*
X45482125Y-18679826D01*
X45169827Y-18550148D01*
X44831676Y-18549853D01*
X44519153Y-18678985D01*
X44279836Y-18917885D01*
X44150158Y-19230183D01*
X44150012Y-19397909D01*
X44029826Y-19517885D01*
X43900148Y-19830183D01*
X43899853Y-20168334D01*
X32033804Y-20168334D01*
X32120174Y-20082115D01*
X32249852Y-19769817D01*
X32250147Y-19431666D01*
X32191421Y-19289537D01*
X32329774Y-19346987D01*
X32667925Y-19347282D01*
X32980448Y-19218150D01*
X33219765Y-18979250D01*
X33349443Y-18666952D01*
X33349738Y-18328801D01*
X33283491Y-18168472D01*
X33470174Y-17982115D01*
X33599852Y-17669817D01*
X33599853Y-17668334D01*
X33689863Y-17668334D01*
X33775305Y-17875119D01*
X33690158Y-18080175D01*
X33689863Y-18418326D01*
X33818995Y-18730849D01*
X34057895Y-18970166D01*
X34370193Y-19099844D01*
X34708344Y-19100139D01*
X34750102Y-19082885D01*
X34749853Y-19368334D01*
X34878985Y-19680857D01*
X35117885Y-19920174D01*
X35430183Y-20049852D01*
X35768334Y-20050147D01*
X35899938Y-19995769D01*
X36030183Y-20049852D01*
X36368334Y-20050147D01*
X36499938Y-19995769D01*
X36630183Y-20049852D01*
X36968334Y-20050147D01*
X37280857Y-19921015D01*
X37520174Y-19682115D01*
X37649852Y-19369817D01*
X37650147Y-19031666D01*
X37521015Y-18719143D01*
X37282115Y-18479826D01*
X36969817Y-18350148D01*
X36631666Y-18349853D01*
X36500062Y-18404231D01*
X36369817Y-18350148D01*
X36031666Y-18349853D01*
X35900062Y-18404231D01*
X35769817Y-18350148D01*
X35431666Y-18349853D01*
X35389908Y-18367107D01*
X35390157Y-18081658D01*
X35304715Y-17874873D01*
X35389862Y-17669817D01*
X35390157Y-17331666D01*
X35261025Y-17019143D01*
X35022125Y-16779826D01*
X34709827Y-16650148D01*
X34371676Y-16649853D01*
X34059153Y-16778985D01*
X33819836Y-17017885D01*
X33690158Y-17330183D01*
X33689863Y-17668334D01*
X33599853Y-17668334D01*
X33600147Y-17331666D01*
X33471015Y-17019143D01*
X33232115Y-16779826D01*
X32919817Y-16650148D01*
X32581666Y-16649853D01*
X32269143Y-16778985D01*
X32029826Y-17017885D01*
X31900148Y-17330183D01*
X31899853Y-17668334D01*
X31966100Y-17828663D01*
X31779417Y-18015020D01*
X31649739Y-18327318D01*
X31649444Y-18665469D01*
X31708170Y-18807598D01*
X31569817Y-18750148D01*
X31231666Y-18749853D01*
X31100062Y-18804231D01*
X30969817Y-18750148D01*
X30631666Y-18749853D01*
X30500062Y-18804231D01*
X30369817Y-18750148D01*
X30031666Y-18749853D01*
X29719143Y-18878985D01*
X29479826Y-19117885D01*
X29350148Y-19430183D01*
X29349853Y-19768334D01*
X29391861Y-19870000D01*
X26905000Y-19870000D01*
X26601767Y-19930317D01*
X26541450Y-19942314D01*
X26233249Y-20148249D01*
X26228249Y-20153249D01*
X26022314Y-20461450D01*
X25950001Y-20825000D01*
X25954974Y-20850000D01*
X25711834Y-20850000D01*
X25678790Y-20770224D01*
X25650000Y-20700718D01*
X25650000Y-19311721D01*
X25799159Y-19373657D01*
X26137310Y-19373952D01*
X26264915Y-19321227D01*
X26430183Y-19389852D01*
X26768334Y-19390147D01*
X27080857Y-19261015D01*
X27320174Y-19022115D01*
X27449852Y-18709817D01*
X27450147Y-18371666D01*
X27321015Y-18059143D01*
X27082115Y-17819826D01*
X26912336Y-17749327D01*
X26980857Y-17721015D01*
X27125042Y-17577081D01*
X27267885Y-17720174D01*
X27468444Y-17803454D01*
X27559863Y-18024705D01*
X27798763Y-18264022D01*
X28111061Y-18393700D01*
X28449212Y-18393995D01*
X28761735Y-18264863D01*
X28833179Y-18193544D01*
X28845622Y-18198711D01*
X29183773Y-18199006D01*
X29496296Y-18069874D01*
X29735613Y-17830974D01*
X29865291Y-17518676D01*
X29865586Y-17180525D01*
X29736454Y-16868002D01*
X29509127Y-16640278D01*
X39466686Y-16640278D01*
X39595818Y-16952801D01*
X39834718Y-17192118D01*
X40147016Y-17321796D01*
X40485167Y-17322091D01*
X40797690Y-17192959D01*
X41037007Y-16954059D01*
X41166685Y-16641761D01*
X41166879Y-16418334D01*
X45149853Y-16418334D01*
X45278985Y-16730857D01*
X45517885Y-16970174D01*
X45830183Y-17099852D01*
X46168334Y-17100147D01*
X46480857Y-16971015D01*
X46720174Y-16732115D01*
X46849852Y-16419817D01*
X46849853Y-16418334D01*
X51899853Y-16418334D01*
X52028985Y-16730857D01*
X52267885Y-16970174D01*
X52580183Y-17099852D01*
X52918334Y-17100147D01*
X53230857Y-16971015D01*
X53470174Y-16732115D01*
X53599852Y-16419817D01*
X53600147Y-16081666D01*
X53471015Y-15769143D01*
X53232115Y-15529826D01*
X52919817Y-15400148D01*
X52581666Y-15399853D01*
X52269143Y-15528985D01*
X52029826Y-15767885D01*
X51900148Y-16080183D01*
X51899853Y-16418334D01*
X46849853Y-16418334D01*
X46850147Y-16081666D01*
X46721015Y-15769143D01*
X46482115Y-15529826D01*
X46169817Y-15400148D01*
X45831666Y-15399853D01*
X45519143Y-15528985D01*
X45279826Y-15767885D01*
X45150148Y-16080183D01*
X45149853Y-16418334D01*
X41166879Y-16418334D01*
X41166980Y-16303610D01*
X41037848Y-15991087D01*
X40798948Y-15751770D01*
X40486650Y-15622092D01*
X40148499Y-15621797D01*
X39835976Y-15750929D01*
X39596659Y-15989829D01*
X39466981Y-16302127D01*
X39466686Y-16640278D01*
X29509127Y-16640278D01*
X29497554Y-16628685D01*
X29185256Y-16499007D01*
X29177659Y-16499000D01*
X29258236Y-16418564D01*
X29381505Y-16121702D01*
X29528583Y-16060930D01*
X29767900Y-15822030D01*
X29897578Y-15509732D01*
X29897657Y-15418334D01*
X42649853Y-15418334D01*
X42778985Y-15730857D01*
X43017885Y-15970174D01*
X43330183Y-16099852D01*
X43668334Y-16100147D01*
X43980857Y-15971015D01*
X44220174Y-15732115D01*
X44349852Y-15419817D01*
X44350147Y-15081666D01*
X44221015Y-14769143D01*
X43982115Y-14529826D01*
X43669817Y-14400148D01*
X43331666Y-14399853D01*
X43019143Y-14528985D01*
X42779826Y-14767885D01*
X42650148Y-15080183D01*
X42649853Y-15418334D01*
X29897657Y-15418334D01*
X29897873Y-15171581D01*
X29768741Y-14859058D01*
X29529841Y-14619741D01*
X29217543Y-14490063D01*
X28879392Y-14489768D01*
X28566869Y-14618900D01*
X28327552Y-14857800D01*
X28204283Y-15154662D01*
X28057205Y-15215434D01*
X27844653Y-15427616D01*
X27844655Y-15425393D01*
X27715523Y-15112870D01*
X27476623Y-14873553D01*
X27164325Y-14743875D01*
X26826174Y-14743580D01*
X26513651Y-14872712D01*
X26494299Y-14892031D01*
X26482115Y-14879826D01*
X26169817Y-14750148D01*
X25831666Y-14749853D01*
X25650000Y-14824916D01*
X25650000Y-13450000D01*
X25900000Y-13450000D01*
X25960374Y-13437991D01*
X26021930Y-13437991D01*
X26098467Y-13422767D01*
X26098469Y-13422766D01*
X26098475Y-13422766D01*
X26206432Y-13378047D01*
X26323767Y-13329446D01*
X26323771Y-13329442D01*
X26323773Y-13329441D01*
X26353002Y-13309910D01*
X26350001Y-13325000D01*
X26422314Y-13688550D01*
X26628249Y-13996751D01*
X26633249Y-14001751D01*
X26941450Y-14207686D01*
X27001767Y-14219683D01*
X27305000Y-14280000D01*
X30470000Y-14280000D01*
X30773233Y-14219683D01*
X30833550Y-14207686D01*
X31141751Y-14001751D01*
X31185168Y-13958334D01*
X31899853Y-13958334D01*
X32028985Y-14270857D01*
X32267885Y-14510174D01*
X32580183Y-14639852D01*
X32918334Y-14640147D01*
X33230857Y-14511015D01*
X33470174Y-14272115D01*
X33599852Y-13959817D01*
X33599948Y-13849869D01*
X33918334Y-13850147D01*
X34230857Y-13721015D01*
X34470174Y-13482115D01*
X34599852Y-13169817D01*
X34600071Y-12918334D01*
X38899853Y-12918334D01*
X39028985Y-13230857D01*
X39267885Y-13470174D01*
X39580183Y-13599852D01*
X39918334Y-13600147D01*
X40230857Y-13471015D01*
X40382880Y-13319257D01*
X40316016Y-13480283D01*
X40315721Y-13818434D01*
X40444853Y-14130957D01*
X40683753Y-14370274D01*
X40996051Y-14499952D01*
X41334202Y-14500247D01*
X41646725Y-14371115D01*
X41886042Y-14132215D01*
X42015720Y-13819917D01*
X42015809Y-13718094D01*
X42017885Y-13720174D01*
X42330183Y-13849852D01*
X42668334Y-13850147D01*
X42980857Y-13721015D01*
X43220174Y-13482115D01*
X43349852Y-13169817D01*
X43350071Y-12918334D01*
X46149853Y-12918334D01*
X46278985Y-13230857D01*
X46517885Y-13470174D01*
X46830183Y-13599852D01*
X47168334Y-13600147D01*
X47480857Y-13471015D01*
X47720174Y-13232115D01*
X47849852Y-12919817D01*
X47850147Y-12581666D01*
X47721015Y-12269143D01*
X47482115Y-12029826D01*
X47169817Y-11900148D01*
X46831666Y-11899853D01*
X46519143Y-12028985D01*
X46279826Y-12267885D01*
X46150148Y-12580183D01*
X46149853Y-12918334D01*
X43350071Y-12918334D01*
X43350147Y-12831666D01*
X43221015Y-12519143D01*
X42982115Y-12279826D01*
X42669817Y-12150148D01*
X42331666Y-12149853D01*
X42027938Y-12275351D01*
X42019574Y-12266972D01*
X41751860Y-12155807D01*
X41849852Y-11919817D01*
X41850147Y-11581666D01*
X41721015Y-11269143D01*
X41482115Y-11029826D01*
X41169817Y-10900148D01*
X40831666Y-10899853D01*
X40770082Y-10925299D01*
X40571377Y-10726247D01*
X40259079Y-10596569D01*
X39920928Y-10596274D01*
X39608405Y-10725406D01*
X39369088Y-10964306D01*
X39239410Y-11276604D01*
X39239115Y-11614755D01*
X39368247Y-11927278D01*
X39411187Y-11970293D01*
X39269143Y-12028985D01*
X39029826Y-12267885D01*
X38900148Y-12580183D01*
X38899853Y-12918334D01*
X34600071Y-12918334D01*
X34600147Y-12831666D01*
X34471015Y-12519143D01*
X34232115Y-12279826D01*
X33919817Y-12150148D01*
X33581666Y-12149853D01*
X33269143Y-12278985D01*
X33029826Y-12517885D01*
X32900148Y-12830183D01*
X32900052Y-12940131D01*
X32581666Y-12939853D01*
X32269143Y-13068985D01*
X32029826Y-13307885D01*
X31900148Y-13620183D01*
X31899853Y-13958334D01*
X31185168Y-13958334D01*
X31871752Y-13271751D01*
X32077686Y-12963550D01*
X32089716Y-12903070D01*
X32150000Y-12600000D01*
X32150000Y-8551996D01*
X32317885Y-8720174D01*
X32630183Y-8849852D01*
X32968334Y-8850147D01*
X33280857Y-8721015D01*
X33321989Y-8679954D01*
X38626613Y-8679954D01*
X38755745Y-8992477D01*
X38994645Y-9231794D01*
X39306943Y-9361472D01*
X39645094Y-9361767D01*
X39957617Y-9232635D01*
X40196934Y-8993735D01*
X40228243Y-8918334D01*
X47399853Y-8918334D01*
X47528985Y-9230857D01*
X47767885Y-9470174D01*
X48080183Y-9599852D01*
X48418334Y-9600147D01*
X48730857Y-9471015D01*
X48970174Y-9232115D01*
X49099852Y-8919817D01*
X49100147Y-8581666D01*
X48971015Y-8269143D01*
X48732115Y-8029826D01*
X48419817Y-7900148D01*
X48081666Y-7899853D01*
X47769143Y-8028985D01*
X47529826Y-8267885D01*
X47400148Y-8580183D01*
X47399853Y-8918334D01*
X40228243Y-8918334D01*
X40326612Y-8681437D01*
X40326907Y-8343286D01*
X40197775Y-8030763D01*
X39958875Y-7791446D01*
X39646577Y-7661768D01*
X39308426Y-7661473D01*
X38995903Y-7790605D01*
X38756586Y-8029505D01*
X38626908Y-8341803D01*
X38626613Y-8679954D01*
X33321989Y-8679954D01*
X33520174Y-8482115D01*
X33649852Y-8169817D01*
X33650147Y-7831666D01*
X33521015Y-7519143D01*
X33282115Y-7279826D01*
X33254440Y-7268334D01*
X49649853Y-7268334D01*
X49778985Y-7580857D01*
X50017885Y-7820174D01*
X50330183Y-7949852D01*
X50668334Y-7950147D01*
X50980857Y-7821015D01*
X51220174Y-7582115D01*
X51349852Y-7269817D01*
X51350147Y-6931666D01*
X51221015Y-6619143D01*
X50982115Y-6379826D01*
X50669817Y-6250148D01*
X50331666Y-6249853D01*
X50019143Y-6378985D01*
X49779826Y-6617885D01*
X49650148Y-6930183D01*
X49649853Y-7268334D01*
X33254440Y-7268334D01*
X32969817Y-7150148D01*
X32631666Y-7149853D01*
X32319143Y-7278985D01*
X32150000Y-7447833D01*
X32150000Y-6993502D01*
X32993502Y-6150000D01*
X39006498Y-6150000D01*
X39738249Y-6881752D01*
X40046451Y-7087687D01*
X40106768Y-7099684D01*
X40410001Y-7160001D01*
X41989999Y-7160001D01*
X42293232Y-7099684D01*
X42353549Y-7087687D01*
X42661750Y-6881752D01*
X43553504Y-5989999D01*
X46150009Y-5989999D01*
X46149853Y-6168334D01*
X46149853Y-6168334D01*
G37*
X46149853Y-6168334D02*
X46278985Y-6480857D01*
X46517885Y-6720174D01*
X46830183Y-6849852D01*
X47168334Y-6850147D01*
X47480857Y-6721015D01*
X47720174Y-6482115D01*
X47849852Y-6169817D01*
X47850009Y-5989999D01*
X51446497Y-5989999D01*
X52308249Y-6851752D01*
X52616450Y-7057686D01*
X52676767Y-7069683D01*
X52980000Y-7130000D01*
X53096229Y-7130000D01*
X53206256Y-7396286D01*
X53487894Y-7678416D01*
X53419817Y-7650148D01*
X53081666Y-7649853D01*
X52769143Y-7778985D01*
X52529826Y-8017885D01*
X52400148Y-8330183D01*
X52399853Y-8668334D01*
X52528985Y-8980857D01*
X52767885Y-9220174D01*
X53080183Y-9349852D01*
X53418334Y-9350147D01*
X53730857Y-9221015D01*
X53902171Y-9050000D01*
X55180000Y-9050000D01*
X55180000Y-9030000D01*
X55580000Y-9030000D01*
X55580000Y-9050000D01*
X55600000Y-9050000D01*
X55600000Y-9450000D01*
X55580000Y-9450000D01*
X55580000Y-9470000D01*
X55180000Y-9470000D01*
X55180000Y-9450000D01*
X53902055Y-9450000D01*
X53816072Y-9613937D01*
X53732115Y-9529834D01*
X53419817Y-9400156D01*
X53081666Y-9399861D01*
X52769143Y-9528993D01*
X52529826Y-9767893D01*
X52400148Y-10080191D01*
X52399853Y-10418342D01*
X52419841Y-10466718D01*
X52269143Y-10528985D01*
X52029826Y-10767885D01*
X51900148Y-11080183D01*
X51899853Y-11418334D01*
X52028985Y-11730857D01*
X52267885Y-11970174D01*
X52580183Y-12099852D01*
X52918334Y-12100147D01*
X53230857Y-11971015D01*
X53470174Y-11732115D01*
X53599852Y-11419817D01*
X53600147Y-11081666D01*
X53580159Y-11033290D01*
X53730857Y-10971023D01*
X53970174Y-10732123D01*
X54099852Y-10419825D01*
X54100045Y-10199053D01*
X54418197Y-10493150D01*
X54804021Y-10635488D01*
X54672857Y-10689684D01*
X54320919Y-11041007D01*
X54130217Y-11500269D01*
X54129783Y-11997550D01*
X54319684Y-12457143D01*
X54612232Y-12750203D01*
X54320919Y-13041007D01*
X54130217Y-13500269D01*
X54129783Y-13997550D01*
X54319684Y-14457143D01*
X54671007Y-14809081D01*
X54739531Y-14837535D01*
X54503143Y-14935208D01*
X54066740Y-15370849D01*
X53830270Y-15940333D01*
X53829732Y-16556961D01*
X54065208Y-17126857D01*
X54252837Y-17314814D01*
X53813714Y-17496256D01*
X53208381Y-18100533D01*
X52880374Y-18890462D01*
X52879628Y-19745785D01*
X53206256Y-20536286D01*
X53810533Y-21141619D01*
X54600462Y-21469626D01*
X55455785Y-21470372D01*
X56246286Y-21143744D01*
X56520508Y-20870000D01*
X59219388Y-20870000D01*
X59490533Y-21141619D01*
X60280462Y-21469626D01*
X61135785Y-21470372D01*
X61926286Y-21143744D01*
X62200508Y-20870000D01*
X67477968Y-20870000D01*
X67950000Y-21342031D01*
X67950000Y-23000000D01*
X68067987Y-23593159D01*
X68210001Y-23805699D01*
X68210001Y-27700000D01*
X66800000Y-27700000D01*
X66302512Y-27798957D01*
X65880761Y-28080761D01*
X65598957Y-28502512D01*
X65500000Y-29000000D01*
X65598957Y-29497488D01*
X65751506Y-29725794D01*
X64939050Y-30538250D01*
X64931199Y-30550000D01*
X55045795Y-30550000D01*
X55099852Y-30419817D01*
X55100147Y-30081666D01*
X54971015Y-29769143D01*
X54732115Y-29529826D01*
X54419817Y-29400148D01*
X54081666Y-29399853D01*
X53769143Y-29528985D01*
X53529826Y-29767885D01*
X53400148Y-30080183D01*
X53399853Y-30418334D01*
X53454256Y-30550000D01*
X51116557Y-30550000D01*
X51149852Y-30469817D01*
X51150147Y-30131666D01*
X51021015Y-29819143D01*
X50849958Y-29647788D01*
X50850147Y-29431666D01*
X50762634Y-29219868D01*
X50849852Y-29009824D01*
X50850147Y-28671673D01*
X50721015Y-28359150D01*
X50482115Y-28119833D01*
X50169817Y-27990155D01*
X49831666Y-27989860D01*
X49519143Y-28118992D01*
X49279826Y-28357892D01*
X49150148Y-28670190D01*
X49149853Y-29008341D01*
X49237366Y-29220139D01*
X49150148Y-29430183D01*
X49149853Y-29768334D01*
X49278985Y-30080857D01*
X49450042Y-30252212D01*
X49449853Y-30468334D01*
X49483597Y-30550000D01*
X46998388Y-30550000D01*
X47252130Y-30170249D01*
X47352000Y-29668168D01*
X47352000Y-28839832D01*
X47252130Y-28337751D01*
X46967724Y-27912108D01*
X46927016Y-27884908D01*
X47016599Y-27867089D01*
X47198528Y-27745528D01*
X47320089Y-27563599D01*
X47348977Y-27418363D01*
X52399853Y-27418363D01*
X52528985Y-27730886D01*
X52767885Y-27970203D01*
X53080183Y-28099881D01*
X53418334Y-28100176D01*
X53730857Y-27971044D01*
X53970174Y-27732144D01*
X54099852Y-27419846D01*
X54099853Y-27418334D01*
X60399853Y-27418334D01*
X60528985Y-27730857D01*
X60767885Y-27970174D01*
X61080183Y-28099852D01*
X61418334Y-28100147D01*
X61730857Y-27971015D01*
X61970174Y-27732115D01*
X62099852Y-27419817D01*
X62100147Y-27081666D01*
X61971015Y-26769143D01*
X61732115Y-26529826D01*
X61419817Y-26400148D01*
X61081666Y-26399853D01*
X60769143Y-26528985D01*
X60529826Y-26767885D01*
X60400148Y-27080183D01*
X60399853Y-27418334D01*
X54099853Y-27418334D01*
X54100147Y-27081695D01*
X53971015Y-26769172D01*
X53732115Y-26529855D01*
X53419817Y-26400177D01*
X53081666Y-26399882D01*
X52769143Y-26529014D01*
X52529826Y-26767914D01*
X52400148Y-27080212D01*
X52399853Y-27418363D01*
X47348977Y-27418363D01*
X47362775Y-27349000D01*
X47362775Y-26418334D01*
X47399853Y-26418334D01*
X47528985Y-26730857D01*
X47767885Y-26970174D01*
X48080183Y-27099852D01*
X48418334Y-27100147D01*
X48730857Y-26971015D01*
X48970174Y-26732115D01*
X49099852Y-26419817D01*
X49100071Y-26168334D01*
X62749853Y-26168334D01*
X62878985Y-26480857D01*
X63117885Y-26720174D01*
X63430183Y-26849852D01*
X63768334Y-26850147D01*
X64000185Y-26754348D01*
X64230183Y-26849852D01*
X64568334Y-26850147D01*
X64880857Y-26721015D01*
X65120174Y-26482115D01*
X65249852Y-26169817D01*
X65250147Y-25831666D01*
X65121015Y-25519143D01*
X64882115Y-25279826D01*
X64569817Y-25150148D01*
X64231666Y-25149853D01*
X63999815Y-25245652D01*
X63769817Y-25150148D01*
X63431666Y-25149853D01*
X63119143Y-25278985D01*
X62879826Y-25517885D01*
X62750148Y-25830183D01*
X62749853Y-26168334D01*
X49100071Y-26168334D01*
X49100147Y-26081666D01*
X48971015Y-25769143D01*
X48732115Y-25529826D01*
X48419817Y-25400148D01*
X48081666Y-25399853D01*
X47769143Y-25528985D01*
X47529826Y-25767885D01*
X47400148Y-26080183D01*
X47399853Y-26418334D01*
X47362775Y-26418334D01*
X47362775Y-25063000D01*
X47320089Y-24848401D01*
X47198528Y-24666472D01*
X47016599Y-24544911D01*
X46802000Y-24502225D01*
X45371867Y-24502225D01*
X45321015Y-24379153D01*
X45110564Y-24168334D01*
X53549853Y-24168334D01*
X53678985Y-24480857D01*
X53917885Y-24720174D01*
X54230183Y-24849852D01*
X54568334Y-24850147D01*
X54880857Y-24721015D01*
X54951823Y-24650172D01*
X59431691Y-24650172D01*
X59560823Y-24962695D01*
X59799723Y-25202012D01*
X60112021Y-25331690D01*
X60450172Y-25331985D01*
X60762695Y-25202853D01*
X61002012Y-24963953D01*
X61131690Y-24651655D01*
X61131985Y-24313504D01*
X61060765Y-24141138D01*
X61225208Y-23976980D01*
X65625000Y-23976980D01*
X65625000Y-24023020D01*
X65714442Y-24472673D01*
X65969150Y-24853870D01*
X66350347Y-25108578D01*
X66800000Y-25198020D01*
X67249653Y-25108578D01*
X67630850Y-24853870D01*
X67885558Y-24472673D01*
X67975000Y-24023020D01*
X67975000Y-23976980D01*
X67885558Y-23527327D01*
X67630850Y-23146130D01*
X67249653Y-22891422D01*
X66800000Y-22801980D01*
X66350347Y-22891422D01*
X65969150Y-23146130D01*
X65714442Y-23527327D01*
X65625000Y-23976980D01*
X61225208Y-23976980D01*
X61282772Y-23919517D01*
X61412450Y-23607219D01*
X61412745Y-23269068D01*
X61283613Y-22956545D01*
X61044713Y-22717228D01*
X60732415Y-22587550D01*
X60394264Y-22587255D01*
X60081741Y-22716387D01*
X59842424Y-22955287D01*
X59712746Y-23267585D01*
X59712451Y-23605736D01*
X59783671Y-23778102D01*
X59561664Y-23999723D01*
X59431986Y-24312021D01*
X59431691Y-24650172D01*
X54951823Y-24650172D01*
X55120174Y-24482115D01*
X55249852Y-24169817D01*
X55250147Y-23831666D01*
X55121015Y-23519143D01*
X54882115Y-23279826D01*
X54569817Y-23150148D01*
X54231666Y-23149853D01*
X53919143Y-23278985D01*
X53679826Y-23517885D01*
X53550148Y-23830183D01*
X53549853Y-24168334D01*
X45110564Y-24168334D01*
X45082115Y-24139836D01*
X44769817Y-24010158D01*
X44431666Y-24009863D01*
X44119143Y-24138995D01*
X43879826Y-24377895D01*
X43811749Y-24541843D01*
X43500000Y-24479832D01*
X42997919Y-24579702D01*
X42572276Y-24864108D01*
X42287870Y-25289751D01*
X42230000Y-25580683D01*
X42172130Y-25289751D01*
X41887724Y-24864108D01*
X41462081Y-24579702D01*
X40960000Y-24479832D01*
X40457919Y-24579702D01*
X40136084Y-24794745D01*
X40046999Y-24579143D01*
X39808099Y-24339826D01*
X39495801Y-24210148D01*
X39157650Y-24209853D01*
X38845127Y-24338985D01*
X38605810Y-24577885D01*
X38539907Y-24736596D01*
X38287979Y-24631986D01*
X37949828Y-24631691D01*
X37931752Y-24639160D01*
X37931985Y-24371666D01*
X37802853Y-24059143D01*
X37563953Y-23819826D01*
X37251655Y-23690148D01*
X36913504Y-23689853D01*
X36638502Y-23803482D01*
X36521015Y-23519143D01*
X36282115Y-23279826D01*
X35969817Y-23150148D01*
X35631666Y-23149853D01*
X35319143Y-23278985D01*
X35079826Y-23517885D01*
X35066462Y-23550069D01*
X34971045Y-23319143D01*
X34732145Y-23079826D01*
X34419847Y-22950148D01*
X34081696Y-22949853D01*
X33769173Y-23078985D01*
X33529856Y-23317885D01*
X33400178Y-23630183D01*
X33399883Y-23968334D01*
X33529015Y-24280857D01*
X33767915Y-24520174D01*
X34080213Y-24649852D01*
X34324666Y-24650065D01*
X34324575Y-24754876D01*
X34453707Y-25067399D01*
X34692607Y-25306716D01*
X35004905Y-25436394D01*
X35343056Y-25436689D01*
X35655579Y-25307557D01*
X35894896Y-25068657D01*
X35989212Y-24841520D01*
X36243336Y-24736518D01*
X36360823Y-25020857D01*
X36599723Y-25260174D01*
X36912021Y-25389852D01*
X37250172Y-25390147D01*
X37268248Y-25382678D01*
X37268015Y-25650172D01*
X37353686Y-25857510D01*
X37255884Y-25817000D01*
X36268500Y-25817000D01*
X36104000Y-25981500D01*
X36104000Y-27496000D01*
X37618500Y-27496000D01*
X37783000Y-27331500D01*
X37783000Y-26344115D01*
X37742438Y-26246189D01*
X37948345Y-26331690D01*
X38286496Y-26331985D01*
X38549927Y-26223137D01*
X38549853Y-26308334D01*
X38658078Y-26570259D01*
X38550148Y-26830183D01*
X38549853Y-27168334D01*
X38645652Y-27400185D01*
X38550148Y-27630183D01*
X38549853Y-27968334D01*
X38573152Y-28024722D01*
X38479826Y-28117885D01*
X38350148Y-28430183D01*
X38349853Y-28768334D01*
X38478985Y-29080857D01*
X38717885Y-29320174D01*
X39030183Y-29449852D01*
X39368334Y-29450147D01*
X39540000Y-29379216D01*
X39540000Y-29604002D01*
X39700686Y-29604002D01*
X39548867Y-29827115D01*
X39729802Y-30352508D01*
X39904545Y-30550000D01*
X36610082Y-30550000D01*
X36610150Y-30471666D01*
X36481018Y-30159143D01*
X36242118Y-29919826D01*
X35929820Y-29790148D01*
X35591669Y-29789853D01*
X35379866Y-29877368D01*
X35169817Y-29790148D01*
X34831666Y-29789853D01*
X34722600Y-29834918D01*
X34651661Y-29663233D01*
X34412761Y-29423916D01*
X34212603Y-29340803D01*
X34121015Y-29119143D01*
X33882115Y-28879826D01*
X33569817Y-28750148D01*
X33231666Y-28749853D01*
X32919143Y-28878985D01*
X32679826Y-29117885D01*
X32550148Y-29430183D01*
X32549853Y-29768334D01*
X32558254Y-29788667D01*
X32478897Y-29867886D01*
X32349219Y-30180184D01*
X32349073Y-30346992D01*
X31789999Y-29787917D01*
X31789999Y-27997777D01*
X31914674Y-27873102D01*
X31937809Y-27868500D01*
X34217000Y-27868500D01*
X34217000Y-28855885D01*
X34317175Y-29097727D01*
X34502273Y-29282826D01*
X34744116Y-29383000D01*
X35731500Y-29383000D01*
X35896000Y-29218500D01*
X35896000Y-27704000D01*
X36104000Y-27704000D01*
X36104000Y-29218500D01*
X36268500Y-29383000D01*
X37255884Y-29383000D01*
X37497727Y-29282826D01*
X37682825Y-29097727D01*
X37783000Y-28855885D01*
X37783000Y-27868500D01*
X37618500Y-27704000D01*
X36104000Y-27704000D01*
X35896000Y-27704000D01*
X34381500Y-27704000D01*
X34217000Y-27868500D01*
X31937809Y-27868500D01*
X31963549Y-27863380D01*
X32271751Y-27657445D01*
X32310133Y-27600003D01*
X32430183Y-27649852D01*
X32768334Y-27650147D01*
X33080857Y-27521015D01*
X33320174Y-27282115D01*
X33449852Y-26969817D01*
X33450147Y-26631666D01*
X33331334Y-26344115D01*
X34217000Y-26344115D01*
X34217000Y-27331500D01*
X34381500Y-27496000D01*
X35896000Y-27496000D01*
X35896000Y-25981500D01*
X35731500Y-25817000D01*
X34744116Y-25817000D01*
X34502273Y-25917174D01*
X34317175Y-26102273D01*
X34217000Y-26344115D01*
X33331334Y-26344115D01*
X33321015Y-26319143D01*
X33082115Y-26079826D01*
X32769817Y-25950148D01*
X32550000Y-25949956D01*
X32550000Y-22768334D01*
X43149853Y-22768334D01*
X43278985Y-23080857D01*
X43517885Y-23320174D01*
X43830183Y-23449852D01*
X44168334Y-23450147D01*
X44480857Y-23321015D01*
X44720174Y-23082115D01*
X44749913Y-23010497D01*
X44778985Y-23080857D01*
X45017885Y-23320174D01*
X45330183Y-23449852D01*
X45668334Y-23450147D01*
X45980857Y-23321015D01*
X46152936Y-23149235D01*
X57871995Y-23149235D01*
X58001127Y-23461758D01*
X58240027Y-23701075D01*
X58552325Y-23830753D01*
X58890476Y-23831048D01*
X59202999Y-23701916D01*
X59442316Y-23463016D01*
X59571994Y-23150718D01*
X59572289Y-22812567D01*
X59443157Y-22500044D01*
X59204257Y-22260727D01*
X58891959Y-22131049D01*
X58553808Y-22130754D01*
X58241285Y-22259886D01*
X58001968Y-22498786D01*
X57872290Y-22811084D01*
X57871995Y-23149235D01*
X46152936Y-23149235D01*
X46220174Y-23082115D01*
X46349852Y-22769817D01*
X46350147Y-22431666D01*
X46226376Y-22132117D01*
X55972287Y-22132117D01*
X56101419Y-22444640D01*
X56340319Y-22683957D01*
X56652617Y-22813635D01*
X56990768Y-22813930D01*
X57303291Y-22684798D01*
X57542608Y-22445898D01*
X57672286Y-22133600D01*
X57672581Y-21795449D01*
X57543449Y-21482926D01*
X57304549Y-21243609D01*
X56992251Y-21113931D01*
X56654100Y-21113636D01*
X56341577Y-21242768D01*
X56102260Y-21481668D01*
X55972582Y-21793966D01*
X55972287Y-22132117D01*
X46226376Y-22132117D01*
X46221015Y-22119143D01*
X45982115Y-21879826D01*
X45669817Y-21750148D01*
X45331666Y-21749853D01*
X45019143Y-21878985D01*
X44779826Y-22117885D01*
X44750087Y-22189503D01*
X44721015Y-22119143D01*
X44482115Y-21879826D01*
X44169817Y-21750148D01*
X43831666Y-21749853D01*
X43519143Y-21878985D01*
X43279826Y-22117885D01*
X43150148Y-22430183D01*
X43149853Y-22768334D01*
X32550000Y-22768334D01*
X32550000Y-21800000D01*
X32477686Y-21436451D01*
X32391266Y-21307115D01*
X32271751Y-21128248D01*
X31586248Y-20442745D01*
X31880857Y-20321015D01*
X32033804Y-20168334D01*
X43899853Y-20168334D01*
X44028985Y-20480857D01*
X44267885Y-20720174D01*
X44580183Y-20849852D01*
X44918334Y-20850147D01*
X45230857Y-20721015D01*
X45470174Y-20482115D01*
X45599852Y-20169817D01*
X45599998Y-20002091D01*
X45720184Y-19882115D01*
X45849862Y-19569817D01*
X45850157Y-19231666D01*
X45721025Y-18919143D01*
X45482125Y-18679826D01*
X45169827Y-18550148D01*
X44831676Y-18549853D01*
X44519153Y-18678985D01*
X44279836Y-18917885D01*
X44150158Y-19230183D01*
X44150012Y-19397909D01*
X44029826Y-19517885D01*
X43900148Y-19830183D01*
X43899853Y-20168334D01*
X32033804Y-20168334D01*
X32120174Y-20082115D01*
X32249852Y-19769817D01*
X32250147Y-19431666D01*
X32191421Y-19289537D01*
X32329774Y-19346987D01*
X32667925Y-19347282D01*
X32980448Y-19218150D01*
X33219765Y-18979250D01*
X33349443Y-18666952D01*
X33349738Y-18328801D01*
X33283491Y-18168472D01*
X33470174Y-17982115D01*
X33599852Y-17669817D01*
X33599853Y-17668334D01*
X33689863Y-17668334D01*
X33775305Y-17875119D01*
X33690158Y-18080175D01*
X33689863Y-18418326D01*
X33818995Y-18730849D01*
X34057895Y-18970166D01*
X34370193Y-19099844D01*
X34708344Y-19100139D01*
X34750102Y-19082885D01*
X34749853Y-19368334D01*
X34878985Y-19680857D01*
X35117885Y-19920174D01*
X35430183Y-20049852D01*
X35768334Y-20050147D01*
X35899938Y-19995769D01*
X36030183Y-20049852D01*
X36368334Y-20050147D01*
X36499938Y-19995769D01*
X36630183Y-20049852D01*
X36968334Y-20050147D01*
X37280857Y-19921015D01*
X37520174Y-19682115D01*
X37649852Y-19369817D01*
X37650147Y-19031666D01*
X37521015Y-18719143D01*
X37282115Y-18479826D01*
X36969817Y-18350148D01*
X36631666Y-18349853D01*
X36500062Y-18404231D01*
X36369817Y-18350148D01*
X36031666Y-18349853D01*
X35900062Y-18404231D01*
X35769817Y-18350148D01*
X35431666Y-18349853D01*
X35389908Y-18367107D01*
X35390157Y-18081658D01*
X35304715Y-17874873D01*
X35389862Y-17669817D01*
X35390157Y-17331666D01*
X35261025Y-17019143D01*
X35022125Y-16779826D01*
X34709827Y-16650148D01*
X34371676Y-16649853D01*
X34059153Y-16778985D01*
X33819836Y-17017885D01*
X33690158Y-17330183D01*
X33689863Y-17668334D01*
X33599853Y-17668334D01*
X33600147Y-17331666D01*
X33471015Y-17019143D01*
X33232115Y-16779826D01*
X32919817Y-16650148D01*
X32581666Y-16649853D01*
X32269143Y-16778985D01*
X32029826Y-17017885D01*
X31900148Y-17330183D01*
X31899853Y-17668334D01*
X31966100Y-17828663D01*
X31779417Y-18015020D01*
X31649739Y-18327318D01*
X31649444Y-18665469D01*
X31708170Y-18807598D01*
X31569817Y-18750148D01*
X31231666Y-18749853D01*
X31100062Y-18804231D01*
X30969817Y-18750148D01*
X30631666Y-18749853D01*
X30500062Y-18804231D01*
X30369817Y-18750148D01*
X30031666Y-18749853D01*
X29719143Y-18878985D01*
X29479826Y-19117885D01*
X29350148Y-19430183D01*
X29349853Y-19768334D01*
X29391861Y-19870000D01*
X26905000Y-19870000D01*
X26601767Y-19930317D01*
X26541450Y-19942314D01*
X26233249Y-20148249D01*
X26228249Y-20153249D01*
X26022314Y-20461450D01*
X25950001Y-20825000D01*
X25954974Y-20850000D01*
X25711834Y-20850000D01*
X25678790Y-20770224D01*
X25650000Y-20700718D01*
X25650000Y-19311721D01*
X25799159Y-19373657D01*
X26137310Y-19373952D01*
X26264915Y-19321227D01*
X26430183Y-19389852D01*
X26768334Y-19390147D01*
X27080857Y-19261015D01*
X27320174Y-19022115D01*
X27449852Y-18709817D01*
X27450147Y-18371666D01*
X27321015Y-18059143D01*
X27082115Y-17819826D01*
X26912336Y-17749327D01*
X26980857Y-17721015D01*
X27125042Y-17577081D01*
X27267885Y-17720174D01*
X27468444Y-17803454D01*
X27559863Y-18024705D01*
X27798763Y-18264022D01*
X28111061Y-18393700D01*
X28449212Y-18393995D01*
X28761735Y-18264863D01*
X28833179Y-18193544D01*
X28845622Y-18198711D01*
X29183773Y-18199006D01*
X29496296Y-18069874D01*
X29735613Y-17830974D01*
X29865291Y-17518676D01*
X29865586Y-17180525D01*
X29736454Y-16868002D01*
X29509127Y-16640278D01*
X39466686Y-16640278D01*
X39595818Y-16952801D01*
X39834718Y-17192118D01*
X40147016Y-17321796D01*
X40485167Y-17322091D01*
X40797690Y-17192959D01*
X41037007Y-16954059D01*
X41166685Y-16641761D01*
X41166879Y-16418334D01*
X45149853Y-16418334D01*
X45278985Y-16730857D01*
X45517885Y-16970174D01*
X45830183Y-17099852D01*
X46168334Y-17100147D01*
X46480857Y-16971015D01*
X46720174Y-16732115D01*
X46849852Y-16419817D01*
X46849853Y-16418334D01*
X51899853Y-16418334D01*
X52028985Y-16730857D01*
X52267885Y-16970174D01*
X52580183Y-17099852D01*
X52918334Y-17100147D01*
X53230857Y-16971015D01*
X53470174Y-16732115D01*
X53599852Y-16419817D01*
X53600147Y-16081666D01*
X53471015Y-15769143D01*
X53232115Y-15529826D01*
X52919817Y-15400148D01*
X52581666Y-15399853D01*
X52269143Y-15528985D01*
X52029826Y-15767885D01*
X51900148Y-16080183D01*
X51899853Y-16418334D01*
X46849853Y-16418334D01*
X46850147Y-16081666D01*
X46721015Y-15769143D01*
X46482115Y-15529826D01*
X46169817Y-15400148D01*
X45831666Y-15399853D01*
X45519143Y-15528985D01*
X45279826Y-15767885D01*
X45150148Y-16080183D01*
X45149853Y-16418334D01*
X41166879Y-16418334D01*
X41166980Y-16303610D01*
X41037848Y-15991087D01*
X40798948Y-15751770D01*
X40486650Y-15622092D01*
X40148499Y-15621797D01*
X39835976Y-15750929D01*
X39596659Y-15989829D01*
X39466981Y-16302127D01*
X39466686Y-16640278D01*
X29509127Y-16640278D01*
X29497554Y-16628685D01*
X29185256Y-16499007D01*
X29177659Y-16499000D01*
X29258236Y-16418564D01*
X29381505Y-16121702D01*
X29528583Y-16060930D01*
X29767900Y-15822030D01*
X29897578Y-15509732D01*
X29897657Y-15418334D01*
X42649853Y-15418334D01*
X42778985Y-15730857D01*
X43017885Y-15970174D01*
X43330183Y-16099852D01*
X43668334Y-16100147D01*
X43980857Y-15971015D01*
X44220174Y-15732115D01*
X44349852Y-15419817D01*
X44350147Y-15081666D01*
X44221015Y-14769143D01*
X43982115Y-14529826D01*
X43669817Y-14400148D01*
X43331666Y-14399853D01*
X43019143Y-14528985D01*
X42779826Y-14767885D01*
X42650148Y-15080183D01*
X42649853Y-15418334D01*
X29897657Y-15418334D01*
X29897873Y-15171581D01*
X29768741Y-14859058D01*
X29529841Y-14619741D01*
X29217543Y-14490063D01*
X28879392Y-14489768D01*
X28566869Y-14618900D01*
X28327552Y-14857800D01*
X28204283Y-15154662D01*
X28057205Y-15215434D01*
X27844653Y-15427616D01*
X27844655Y-15425393D01*
X27715523Y-15112870D01*
X27476623Y-14873553D01*
X27164325Y-14743875D01*
X26826174Y-14743580D01*
X26513651Y-14872712D01*
X26494299Y-14892031D01*
X26482115Y-14879826D01*
X26169817Y-14750148D01*
X25831666Y-14749853D01*
X25650000Y-14824916D01*
X25650000Y-13450000D01*
X25900000Y-13450000D01*
X25960374Y-13437991D01*
X26021930Y-13437991D01*
X26098467Y-13422767D01*
X26098469Y-13422766D01*
X26098475Y-13422766D01*
X26206432Y-13378047D01*
X26323767Y-13329446D01*
X26323771Y-13329442D01*
X26323773Y-13329441D01*
X26353002Y-13309910D01*
X26350001Y-13325000D01*
X26422314Y-13688550D01*
X26628249Y-13996751D01*
X26633249Y-14001751D01*
X26941450Y-14207686D01*
X27001767Y-14219683D01*
X27305000Y-14280000D01*
X30470000Y-14280000D01*
X30773233Y-14219683D01*
X30833550Y-14207686D01*
X31141751Y-14001751D01*
X31185168Y-13958334D01*
X31899853Y-13958334D01*
X32028985Y-14270857D01*
X32267885Y-14510174D01*
X32580183Y-14639852D01*
X32918334Y-14640147D01*
X33230857Y-14511015D01*
X33470174Y-14272115D01*
X33599852Y-13959817D01*
X33599948Y-13849869D01*
X33918334Y-13850147D01*
X34230857Y-13721015D01*
X34470174Y-13482115D01*
X34599852Y-13169817D01*
X34600071Y-12918334D01*
X38899853Y-12918334D01*
X39028985Y-13230857D01*
X39267885Y-13470174D01*
X39580183Y-13599852D01*
X39918334Y-13600147D01*
X40230857Y-13471015D01*
X40382880Y-13319257D01*
X40316016Y-13480283D01*
X40315721Y-13818434D01*
X40444853Y-14130957D01*
X40683753Y-14370274D01*
X40996051Y-14499952D01*
X41334202Y-14500247D01*
X41646725Y-14371115D01*
X41886042Y-14132215D01*
X42015720Y-13819917D01*
X42015809Y-13718094D01*
X42017885Y-13720174D01*
X42330183Y-13849852D01*
X42668334Y-13850147D01*
X42980857Y-13721015D01*
X43220174Y-13482115D01*
X43349852Y-13169817D01*
X43350071Y-12918334D01*
X46149853Y-12918334D01*
X46278985Y-13230857D01*
X46517885Y-13470174D01*
X46830183Y-13599852D01*
X47168334Y-13600147D01*
X47480857Y-13471015D01*
X47720174Y-13232115D01*
X47849852Y-12919817D01*
X47850147Y-12581666D01*
X47721015Y-12269143D01*
X47482115Y-12029826D01*
X47169817Y-11900148D01*
X46831666Y-11899853D01*
X46519143Y-12028985D01*
X46279826Y-12267885D01*
X46150148Y-12580183D01*
X46149853Y-12918334D01*
X43350071Y-12918334D01*
X43350147Y-12831666D01*
X43221015Y-12519143D01*
X42982115Y-12279826D01*
X42669817Y-12150148D01*
X42331666Y-12149853D01*
X42027938Y-12275351D01*
X42019574Y-12266972D01*
X41751860Y-12155807D01*
X41849852Y-11919817D01*
X41850147Y-11581666D01*
X41721015Y-11269143D01*
X41482115Y-11029826D01*
X41169817Y-10900148D01*
X40831666Y-10899853D01*
X40770082Y-10925299D01*
X40571377Y-10726247D01*
X40259079Y-10596569D01*
X39920928Y-10596274D01*
X39608405Y-10725406D01*
X39369088Y-10964306D01*
X39239410Y-11276604D01*
X39239115Y-11614755D01*
X39368247Y-11927278D01*
X39411187Y-11970293D01*
X39269143Y-12028985D01*
X39029826Y-12267885D01*
X38900148Y-12580183D01*
X38899853Y-12918334D01*
X34600071Y-12918334D01*
X34600147Y-12831666D01*
X34471015Y-12519143D01*
X34232115Y-12279826D01*
X33919817Y-12150148D01*
X33581666Y-12149853D01*
X33269143Y-12278985D01*
X33029826Y-12517885D01*
X32900148Y-12830183D01*
X32900052Y-12940131D01*
X32581666Y-12939853D01*
X32269143Y-13068985D01*
X32029826Y-13307885D01*
X31900148Y-13620183D01*
X31899853Y-13958334D01*
X31185168Y-13958334D01*
X31871752Y-13271751D01*
X32077686Y-12963550D01*
X32089716Y-12903070D01*
X32150000Y-12600000D01*
X32150000Y-8551996D01*
X32317885Y-8720174D01*
X32630183Y-8849852D01*
X32968334Y-8850147D01*
X33280857Y-8721015D01*
X33321989Y-8679954D01*
X38626613Y-8679954D01*
X38755745Y-8992477D01*
X38994645Y-9231794D01*
X39306943Y-9361472D01*
X39645094Y-9361767D01*
X39957617Y-9232635D01*
X40196934Y-8993735D01*
X40228243Y-8918334D01*
X47399853Y-8918334D01*
X47528985Y-9230857D01*
X47767885Y-9470174D01*
X48080183Y-9599852D01*
X48418334Y-9600147D01*
X48730857Y-9471015D01*
X48970174Y-9232115D01*
X49099852Y-8919817D01*
X49100147Y-8581666D01*
X48971015Y-8269143D01*
X48732115Y-8029826D01*
X48419817Y-7900148D01*
X48081666Y-7899853D01*
X47769143Y-8028985D01*
X47529826Y-8267885D01*
X47400148Y-8580183D01*
X47399853Y-8918334D01*
X40228243Y-8918334D01*
X40326612Y-8681437D01*
X40326907Y-8343286D01*
X40197775Y-8030763D01*
X39958875Y-7791446D01*
X39646577Y-7661768D01*
X39308426Y-7661473D01*
X38995903Y-7790605D01*
X38756586Y-8029505D01*
X38626908Y-8341803D01*
X38626613Y-8679954D01*
X33321989Y-8679954D01*
X33520174Y-8482115D01*
X33649852Y-8169817D01*
X33650147Y-7831666D01*
X33521015Y-7519143D01*
X33282115Y-7279826D01*
X33254440Y-7268334D01*
X49649853Y-7268334D01*
X49778985Y-7580857D01*
X50017885Y-7820174D01*
X50330183Y-7949852D01*
X50668334Y-7950147D01*
X50980857Y-7821015D01*
X51220174Y-7582115D01*
X51349852Y-7269817D01*
X51350147Y-6931666D01*
X51221015Y-6619143D01*
X50982115Y-6379826D01*
X50669817Y-6250148D01*
X50331666Y-6249853D01*
X50019143Y-6378985D01*
X49779826Y-6617885D01*
X49650148Y-6930183D01*
X49649853Y-7268334D01*
X33254440Y-7268334D01*
X32969817Y-7150148D01*
X32631666Y-7149853D01*
X32319143Y-7278985D01*
X32150000Y-7447833D01*
X32150000Y-6993502D01*
X32993502Y-6150000D01*
X39006498Y-6150000D01*
X39738249Y-6881752D01*
X40046451Y-7087687D01*
X40106768Y-7099684D01*
X40410001Y-7160001D01*
X41989999Y-7160001D01*
X42293232Y-7099684D01*
X42353549Y-7087687D01*
X42661750Y-6881752D01*
X43553504Y-5989999D01*
X46150009Y-5989999D01*
X46149853Y-6168334D01*
G36*
X41310000Y-28904000D02*
X41330000Y-28904000D01*
X41330000Y-29604000D01*
X41310000Y-29604000D01*
X41310000Y-29624000D01*
X40610000Y-29624000D01*
X40610000Y-29604000D01*
X40590000Y-29604000D01*
X40590000Y-28904000D01*
X40610000Y-28904000D01*
X40610000Y-28884000D01*
X41310000Y-28884000D01*
X41310000Y-28904000D01*
X41310000Y-28904000D01*
G37*
X41310000Y-28904000D02*
X41330000Y-28904000D01*
X41330000Y-29604000D01*
X41310000Y-29604000D01*
X41310000Y-29624000D01*
X40610000Y-29624000D01*
X40610000Y-29604000D01*
X40590000Y-29604000D01*
X40590000Y-28904000D01*
X40610000Y-28904000D01*
X40610000Y-28884000D01*
X41310000Y-28884000D01*
X41310000Y-28904000D01*
G36*
X57175142Y-7774419D02*
X57071697Y-8038854D01*
X58000000Y-8967157D01*
X58928303Y-8038854D01*
X58824858Y-7774419D01*
X58687788Y-7730000D01*
X59219388Y-7730000D01*
X59490533Y-8001619D01*
X59950000Y-8192406D01*
X59950000Y-8481815D01*
X59799835Y-8481684D01*
X59542965Y-8587821D01*
X59475581Y-8425142D01*
X59211146Y-8321697D01*
X58282843Y-9250000D01*
X59211146Y-10178303D01*
X59475581Y-10074858D01*
X59483738Y-10049685D01*
X59486054Y-10052005D01*
X59798352Y-10181683D01*
X59950000Y-10181815D01*
X59950000Y-17307723D01*
X59493714Y-17496256D01*
X59219492Y-17770000D01*
X58380215Y-17770000D01*
X58876857Y-17564792D01*
X59313260Y-17129151D01*
X59549730Y-16559667D01*
X59550268Y-15943039D01*
X59314792Y-15373143D01*
X58879151Y-14936740D01*
X58640752Y-14837748D01*
X58707143Y-14810316D01*
X59059081Y-14458993D01*
X59249783Y-13999731D01*
X59250217Y-13502450D01*
X59060316Y-13042857D01*
X58767768Y-12749797D01*
X59059081Y-12458993D01*
X59249783Y-11999731D01*
X59250217Y-11502450D01*
X59060316Y-11042857D01*
X58767367Y-10749395D01*
X58824858Y-10725581D01*
X58928303Y-10461146D01*
X58000000Y-9532843D01*
X57071697Y-10461146D01*
X57175142Y-10725581D01*
X57236861Y-10745582D01*
X56940919Y-11041007D01*
X56750217Y-11500269D01*
X56749783Y-11997550D01*
X56939684Y-12457143D01*
X57232232Y-12750203D01*
X56940919Y-13041007D01*
X56750217Y-13500269D01*
X56749783Y-13997550D01*
X56939684Y-14457143D01*
X57291007Y-14809081D01*
X57359531Y-14837535D01*
X57123143Y-14935208D01*
X56689626Y-15367968D01*
X56259151Y-14936740D01*
X56020752Y-14837748D01*
X56087143Y-14810316D01*
X56439081Y-14458993D01*
X56629783Y-13999731D01*
X56630217Y-13502450D01*
X56440316Y-13042857D01*
X56147768Y-12749797D01*
X56439081Y-12458993D01*
X56629783Y-11999731D01*
X56630217Y-11502450D01*
X56440316Y-11042857D01*
X56088993Y-10690919D01*
X55955725Y-10635581D01*
X56341803Y-10493150D01*
X56714056Y-10149043D01*
X56788854Y-10178303D01*
X57717157Y-9250000D01*
X56788854Y-8321697D01*
X56714056Y-8350957D01*
X56341803Y-8006850D01*
X56269788Y-7980283D01*
X56520508Y-7730000D01*
X57282379Y-7730000D01*
X57175142Y-7774419D01*
X57175142Y-7774419D01*
G37*
X57175142Y-7774419D02*
X57071697Y-8038854D01*
X58000000Y-8967157D01*
X58928303Y-8038854D01*
X58824858Y-7774419D01*
X58687788Y-7730000D01*
X59219388Y-7730000D01*
X59490533Y-8001619D01*
X59950000Y-8192406D01*
X59950000Y-8481815D01*
X59799835Y-8481684D01*
X59542965Y-8587821D01*
X59475581Y-8425142D01*
X59211146Y-8321697D01*
X58282843Y-9250000D01*
X59211146Y-10178303D01*
X59475581Y-10074858D01*
X59483738Y-10049685D01*
X59486054Y-10052005D01*
X59798352Y-10181683D01*
X59950000Y-10181815D01*
X59950000Y-17307723D01*
X59493714Y-17496256D01*
X59219492Y-17770000D01*
X58380215Y-17770000D01*
X58876857Y-17564792D01*
X59313260Y-17129151D01*
X59549730Y-16559667D01*
X59550268Y-15943039D01*
X59314792Y-15373143D01*
X58879151Y-14936740D01*
X58640752Y-14837748D01*
X58707143Y-14810316D01*
X59059081Y-14458993D01*
X59249783Y-13999731D01*
X59250217Y-13502450D01*
X59060316Y-13042857D01*
X58767768Y-12749797D01*
X59059081Y-12458993D01*
X59249783Y-11999731D01*
X59250217Y-11502450D01*
X59060316Y-11042857D01*
X58767367Y-10749395D01*
X58824858Y-10725581D01*
X58928303Y-10461146D01*
X58000000Y-9532843D01*
X57071697Y-10461146D01*
X57175142Y-10725581D01*
X57236861Y-10745582D01*
X56940919Y-11041007D01*
X56750217Y-11500269D01*
X56749783Y-11997550D01*
X56939684Y-12457143D01*
X57232232Y-12750203D01*
X56940919Y-13041007D01*
X56750217Y-13500269D01*
X56749783Y-13997550D01*
X56939684Y-14457143D01*
X57291007Y-14809081D01*
X57359531Y-14837535D01*
X57123143Y-14935208D01*
X56689626Y-15367968D01*
X56259151Y-14936740D01*
X56020752Y-14837748D01*
X56087143Y-14810316D01*
X56439081Y-14458993D01*
X56629783Y-13999731D01*
X56630217Y-13502450D01*
X56440316Y-13042857D01*
X56147768Y-12749797D01*
X56439081Y-12458993D01*
X56629783Y-11999731D01*
X56630217Y-11502450D01*
X56440316Y-11042857D01*
X56088993Y-10690919D01*
X55955725Y-10635581D01*
X56341803Y-10493150D01*
X56714056Y-10149043D01*
X56788854Y-10178303D01*
X57717157Y-9250000D01*
X56788854Y-8321697D01*
X56714056Y-8350957D01*
X56341803Y-8006850D01*
X56269788Y-7980283D01*
X56520508Y-7730000D01*
X57282379Y-7730000D01*
X57175142Y-7774419D01*
M02*
