G04 #@! TF.FileFunction,Copper,L1,Top,Signal*
%FSLAX46Y46*%
G04 Gerber Fmt 4.6, Leading zero omitted, Abs format (unit mm)*
G04 Created by KiCad (PCBNEW (2016-06-21 BZR 6945, Git e9c5c27)-product) date Tue Jun 21 16:19:42 2016*
%MOMM*%
%LPD*%
G01*
G04 APERTURE LIST*
%ADD10C,0.100000*%
%ADD11C,0.300000*%
%ADD12C,0.200000*%
%ADD13R,0.600000X0.600000*%
%ADD14R,2.250000X2.250000*%
%ADD15O,0.800000X0.250000*%
%ADD16O,0.250000X0.800000*%
%ADD17R,1.524000X2.286000*%
%ADD18O,1.524000X2.286000*%
%ADD19R,0.950000X1.450000*%
%ADD20O,1.050000X0.300000*%
%ADD21O,0.300000X1.050000*%
%ADD22R,4.000000X4.000000*%
%ADD23R,2.000000X0.260000*%
%ADD24R,2.000000X0.410000*%
%ADD25R,2.800000X0.575000*%
%ADD26R,2.300000X0.575000*%
%ADD27R,2.000000X1.500000*%
%ADD28R,2.800000X1.000000*%
%ADD29R,1.350000X0.400000*%
%ADD30O,1.550000X1.550000*%
%ADD31O,1.250000X1.250000*%
%ADD32C,1.400000*%
%ADD33C,2.000000*%
%ADD34O,2.000000X1.600000*%
%ADD35C,3.200000*%
%ADD36R,1.100000X1.300000*%
%ADD37R,0.900000X1.300000*%
%ADD38R,0.650000X0.850000*%
%ADD39R,0.600000X0.650000*%
%ADD40R,0.650000X0.600000*%
%ADD41R,1.800000X1.200000*%
%ADD42R,1.100000X0.600000*%
%ADD43R,0.750000X0.400000*%
%ADD44R,0.850000X0.650000*%
%ADD45R,0.500000X0.700000*%
%ADD46R,0.700000X0.500000*%
%ADD47R,0.200000X0.800000*%
%ADD48R,0.800000X0.200000*%
%ADD49C,0.600000*%
%ADD50C,0.160000*%
%ADD51C,0.400000*%
%ADD52C,0.500000*%
%ADD53C,0.250000*%
%ADD54C,0.600000*%
%ADD55C,0.260000*%
%ADD56C,0.800000*%
%ADD57C,1.000000*%
G04 APERTURE END LIST*
D10*
D11*
X69678571Y-11571428D02*
X69678571Y-12428571D01*
X69678571Y-12000000D02*
X68178571Y-12000000D01*
X68392857Y-12142857D01*
X68535714Y-12285714D01*
X68607142Y-12428571D01*
D12*
X34800000Y-11800000D02*
X32800000Y-11800000D01*
D13*
X31700000Y-13500000D03*
X30800000Y-13500000D03*
D14*
X36000000Y-27600000D03*
D15*
X34000000Y-26250000D03*
X34000000Y-26700000D03*
X34000000Y-27150000D03*
X34000000Y-27600000D03*
X34000000Y-28050000D03*
X34000000Y-28500000D03*
X34000000Y-28950000D03*
X38000000Y-28950000D03*
X38000000Y-28500000D03*
X38000000Y-28050000D03*
X38000000Y-27600000D03*
X38000000Y-27150000D03*
X38000000Y-26700000D03*
X38000000Y-26250000D03*
D16*
X34650000Y-29600000D03*
X35100000Y-29600000D03*
X35550000Y-29600000D03*
X36000000Y-29600000D03*
X36450000Y-29600000D03*
X36900000Y-29600000D03*
X37350000Y-29600000D03*
X37350000Y-25600000D03*
X36900000Y-25600000D03*
X36450000Y-25600000D03*
X36000000Y-25600000D03*
X35550000Y-25600000D03*
X35100000Y-25600000D03*
X34650000Y-25600000D03*
D17*
X46040000Y-26206000D03*
D18*
X43500000Y-26206000D03*
X40960000Y-26206000D03*
X46040000Y-29254000D03*
X43500000Y-29254000D03*
X40960000Y-29254000D03*
D19*
X34800000Y-11800000D03*
X32800000Y-11800000D03*
D20*
X46850000Y-11000000D03*
X46850000Y-10500000D03*
X46850000Y-10000000D03*
X46850000Y-9500000D03*
X46850000Y-9000000D03*
X46850000Y-8500000D03*
X46850000Y-8000000D03*
X46850000Y-7500000D03*
X46850000Y-7000000D03*
D21*
X46000000Y-6150000D03*
X45500000Y-6150000D03*
X45000000Y-6150000D03*
X44500000Y-6150000D03*
X44000000Y-6150000D03*
X43500000Y-6150000D03*
X43000000Y-6150000D03*
X42500000Y-6150000D03*
X42000000Y-6150000D03*
D20*
X41150000Y-7000000D03*
X41150000Y-7500000D03*
X41150000Y-8000000D03*
X41150000Y-8500000D03*
X41150000Y-9000000D03*
X41150000Y-9500000D03*
X41150000Y-10000000D03*
X41150000Y-10500000D03*
X41150000Y-11000000D03*
D21*
X42000000Y-11850000D03*
X42500000Y-11850000D03*
X43000000Y-11850000D03*
X43500000Y-11850000D03*
X44000000Y-11850000D03*
X44500000Y-11850000D03*
X45000000Y-11850000D03*
X45500000Y-11850000D03*
X46000000Y-11850000D03*
D22*
X44000000Y-9000000D03*
D20*
X54400000Y-25250000D03*
X54400000Y-25750000D03*
X54400000Y-26250000D03*
X54400000Y-26750000D03*
X54400000Y-27250000D03*
X54400000Y-27750000D03*
X54400000Y-28250000D03*
X54400000Y-28750000D03*
X54400000Y-29250000D03*
D21*
X55250000Y-30100000D03*
X55750000Y-30100000D03*
X56250000Y-30100000D03*
X56750000Y-30100000D03*
X57250000Y-30100000D03*
X57750000Y-30100000D03*
X58250000Y-30100000D03*
X58750000Y-30100000D03*
X59250000Y-30100000D03*
D20*
X60100000Y-29250000D03*
X60100000Y-28750000D03*
X60100000Y-28250000D03*
X60100000Y-27750000D03*
X60100000Y-27250000D03*
X60100000Y-26750000D03*
X60100000Y-26250000D03*
X60100000Y-25750000D03*
X60100000Y-25250000D03*
D21*
X59250000Y-24400000D03*
X58750000Y-24400000D03*
X58250000Y-24400000D03*
X57750000Y-24400000D03*
X57250000Y-24400000D03*
X56750000Y-24400000D03*
X56250000Y-24400000D03*
X55750000Y-24400000D03*
X55250000Y-24400000D03*
D22*
X57250000Y-27250000D03*
D23*
X23950000Y-14750000D03*
X23950000Y-15250000D03*
X23950000Y-15750000D03*
X23950000Y-16250000D03*
X23950000Y-16750000D03*
X23950000Y-17250000D03*
X23950000Y-17750000D03*
X23950000Y-18250000D03*
X23950000Y-18750000D03*
X23950000Y-19250000D03*
D24*
X23950000Y-14175000D03*
X23950000Y-19825000D03*
D25*
X23400000Y-13487500D03*
D26*
X23150000Y-20512500D03*
D27*
X27300000Y-13325000D03*
D28*
X26900000Y-20825000D03*
D29*
X66800000Y-27800000D03*
X66800000Y-27150000D03*
X66800000Y-26500000D03*
X66800000Y-25850000D03*
X66800000Y-25200000D03*
D30*
X69500000Y-30000000D03*
X69500000Y-23000000D03*
D31*
X66800000Y-29000000D03*
X66800000Y-24000000D03*
D32*
X55380000Y-11750000D03*
X55380000Y-13750000D03*
X58000000Y-13750000D03*
X58000000Y-11750000D03*
D33*
X55380000Y-16250000D03*
X58000000Y-16250000D03*
X58000000Y-9250000D03*
D34*
X55380000Y-9250000D03*
D35*
X55030000Y-19320000D03*
X60710000Y-19320000D03*
X60710000Y-6180000D03*
X55030000Y-6180000D03*
D36*
X63950000Y-22400000D03*
D37*
X62250000Y-22400000D03*
X62250000Y-24600000D03*
X64150000Y-24600000D03*
D36*
X51750000Y-8400000D03*
D37*
X50050000Y-8400000D03*
X50050000Y-10600000D03*
X51950000Y-10600000D03*
D36*
X51750000Y-13400000D03*
D37*
X50050000Y-13400000D03*
X50050000Y-15600000D03*
X51950000Y-15600000D03*
D38*
X49175000Y-27775000D03*
X50825000Y-27775000D03*
X50825000Y-26225000D03*
X49175000Y-26225000D03*
D13*
X46450000Y-22000000D03*
X45550000Y-22000000D03*
X53800000Y-23000000D03*
X54700000Y-23000000D03*
X61750000Y-29300000D03*
X61750000Y-30200000D03*
X63300000Y-27500000D03*
X64200000Y-27500000D03*
X31700000Y-17500000D03*
X30800000Y-17500000D03*
X38450000Y-12000000D03*
X37550000Y-12000000D03*
X33950000Y-20250000D03*
X33050000Y-20250000D03*
X45550000Y-23400000D03*
X46450000Y-23400000D03*
X46500000Y-14950000D03*
X46500000Y-14050000D03*
X64250000Y-29300000D03*
X64250000Y-30200000D03*
X63000000Y-29300000D03*
X63000000Y-30200000D03*
X38450000Y-10750000D03*
X37550000Y-10750000D03*
X38450000Y-9500000D03*
X37550000Y-9500000D03*
X38450000Y-7000000D03*
X37550000Y-7000000D03*
X46650000Y-20600000D03*
X45750000Y-20600000D03*
D39*
X45250000Y-14950000D03*
X45250000Y-14050000D03*
D40*
X53800000Y-21750000D03*
X54700000Y-21750000D03*
X48800000Y-6250000D03*
X49700000Y-6250000D03*
D39*
X52500000Y-29300000D03*
X52500000Y-30200000D03*
X47750000Y-14900000D03*
X47750000Y-14000000D03*
D40*
X37550000Y-8250000D03*
X38450000Y-8250000D03*
X49950000Y-24750000D03*
X49050000Y-24750000D03*
D39*
X52250000Y-27900000D03*
X52250000Y-27000000D03*
X51000000Y-29300000D03*
X51000000Y-30200000D03*
X42500000Y-14900000D03*
X42500000Y-14000000D03*
D41*
X36250000Y-18300000D03*
X36250000Y-21200000D03*
D42*
X38650000Y-18550000D03*
X38650000Y-20450000D03*
X38650000Y-19500000D03*
X40850000Y-20450000D03*
X40850000Y-18550000D03*
D39*
X42500000Y-20950000D03*
X42500000Y-20050000D03*
X44000000Y-20950000D03*
X44000000Y-20050000D03*
D43*
X33700000Y-22500000D03*
X31800000Y-21850000D03*
X31800000Y-23150000D03*
X31800000Y-22500000D03*
X33700000Y-23150000D03*
X33700000Y-21850000D03*
D44*
X34800000Y-15350000D03*
X34800000Y-16650000D03*
X36700000Y-16000000D03*
D40*
X31550000Y-27500000D03*
X32450000Y-27500000D03*
D13*
X39750000Y-22300000D03*
X39750000Y-23200000D03*
X32450000Y-30500000D03*
X31550000Y-30500000D03*
X31550000Y-29050000D03*
X32450000Y-29050000D03*
X38250000Y-23200000D03*
X38250000Y-22300000D03*
D45*
X49000000Y-30350000D03*
X49000000Y-29250000D03*
D46*
X52300000Y-6250000D03*
X51200000Y-6250000D03*
D13*
X42800000Y-23450000D03*
X42800000Y-22550000D03*
X41200000Y-23250000D03*
X41200000Y-22350000D03*
X31550000Y-25750000D03*
X32450000Y-25750000D03*
D43*
X49950000Y-23150000D03*
X49950000Y-21850000D03*
X49950000Y-22500000D03*
X48050000Y-21850000D03*
X48050000Y-23150000D03*
D47*
X40450000Y-13800000D03*
X40050000Y-13800000D03*
X40050000Y-15200000D03*
X40450000Y-15200000D03*
D48*
X39350000Y-14100000D03*
X39350000Y-14500000D03*
X39350000Y-14900000D03*
X41150000Y-14500000D03*
X41150000Y-14100000D03*
X41150000Y-14900000D03*
D13*
X49450000Y-20600000D03*
X48550000Y-20600000D03*
D19*
X34800000Y-9400000D03*
X32800000Y-9400000D03*
D13*
X31700000Y-18750000D03*
X30800000Y-18750000D03*
X31700000Y-14750000D03*
X30800000Y-14750000D03*
D49*
X26500000Y-17000000D03*
X27750000Y-17000000D03*
X31700000Y-28200002D03*
X32181850Y-20981841D03*
X34800000Y-10600000D03*
X49000000Y-22000000D03*
X43250000Y-21000000D03*
X39800000Y-21400000D03*
X47622954Y-15877046D03*
X48500000Y-7250000D03*
X52250000Y-7250000D03*
X51250000Y-7250000D03*
X51750000Y-7250000D03*
X51250000Y-12250000D03*
X51750000Y-12250000D03*
X65000000Y-22500000D03*
X64750000Y-21250000D03*
X64000000Y-21250000D03*
X46537403Y-15712597D03*
X38434434Y-14500000D03*
X37000000Y-10750000D03*
X37000000Y-8250000D03*
X36600000Y-22200000D03*
X35800000Y-22200000D03*
X37800000Y-19400000D03*
X27200000Y-19400000D03*
X26600000Y-19400000D03*
X26000000Y-19400000D03*
X27364275Y-14929743D03*
X26421573Y-14967640D03*
X53050011Y-21800000D03*
X65200000Y-30200000D03*
X60800000Y-30200000D03*
X65124616Y-28071687D03*
X68200000Y-24400000D03*
X68000000Y-25200000D03*
X42500000Y-15687270D03*
X51000000Y-28500000D03*
X53000000Y-28250000D03*
X28370000Y-13330000D03*
X27300000Y-13325000D03*
X28340000Y-20820000D03*
X26900000Y-20825000D03*
X28538062Y-15936449D03*
X28280878Y-17543848D03*
X29015439Y-17348859D03*
X39200000Y-28600000D03*
X32600000Y-26800000D03*
X45000010Y-19400000D03*
X54400000Y-24000000D03*
X54250000Y-30250000D03*
X61250000Y-27250000D03*
X58722142Y-22980901D03*
X50300000Y-30300000D03*
X48250000Y-26250000D03*
X44750000Y-20000000D03*
X39476760Y-8511620D03*
X41000000Y-5250000D03*
X48250000Y-8750000D03*
X47000000Y-6000000D03*
X47000000Y-12750000D03*
X53250000Y-27250029D03*
X42500000Y-13000000D03*
X30200000Y-19600000D03*
X31400000Y-19600000D03*
X30800000Y-19600000D03*
X36800000Y-19200000D03*
X35600000Y-19200000D03*
X36200000Y-19200000D03*
X26600000Y-18540000D03*
X25968976Y-18523805D03*
X26994508Y-15593727D03*
X26000000Y-15600000D03*
X52750000Y-11250000D03*
X52750000Y-16250000D03*
X34540010Y-18249992D03*
X34540010Y-17500000D03*
X63600000Y-26000000D03*
X34250030Y-23800000D03*
X64400000Y-26000000D03*
X53250000Y-8500000D03*
X53250000Y-10250008D03*
X43500000Y-15250000D03*
X41537459Y-12987146D03*
X40316833Y-16471944D03*
X39750000Y-12750000D03*
X60562598Y-23437402D03*
X35800000Y-24000000D03*
X40089262Y-11446421D03*
X29047726Y-15339915D03*
X59968169Y-9331831D03*
X50000000Y-28840007D03*
X50000000Y-29600000D03*
X50500000Y-7100000D03*
X39400000Y-27000000D03*
X42198162Y-26998162D03*
X38118162Y-25481838D03*
X39325984Y-25060000D03*
X37081838Y-24540000D03*
X33199071Y-30350001D03*
X39400000Y-26140000D03*
X60281838Y-24481838D03*
X35174722Y-24586542D03*
X41000000Y-11750000D03*
X45500000Y-22600000D03*
X56822434Y-21963783D03*
X46000000Y-16250000D03*
X39400000Y-27800000D03*
X44600000Y-24860010D03*
X44000000Y-22600000D03*
X41165868Y-13650100D03*
X32750000Y-17500000D03*
X33400000Y-29600000D03*
X32800000Y-8000000D03*
X33750000Y-13000000D03*
X33930646Y-30144090D03*
X32499591Y-18497135D03*
X35000000Y-30640000D03*
X32750000Y-13790000D03*
X35760003Y-30640000D03*
D50*
X26500000Y-17000000D02*
X26802798Y-17000000D01*
X28250000Y-16500000D02*
X28773726Y-16500000D01*
X26802798Y-17000000D02*
X27442799Y-16359999D01*
X32410001Y-15589999D02*
X32680090Y-15319910D01*
X27442799Y-16359999D02*
X28109999Y-16359999D01*
X28109999Y-16359999D02*
X28250000Y-16500000D01*
X28773726Y-16500000D02*
X29683726Y-15589999D01*
X29683726Y-15589999D02*
X32410001Y-15589999D01*
X32680090Y-15319910D02*
X32680090Y-14712649D01*
X32680090Y-14712649D02*
X33712740Y-13679999D01*
X33712740Y-13679999D02*
X38377201Y-13679999D01*
X38377201Y-13679999D02*
X38797202Y-14100000D01*
X38797202Y-14100000D02*
X39350000Y-14100000D01*
X26250000Y-16750000D02*
X26500000Y-17000000D01*
X23950000Y-16750000D02*
X26250000Y-16750000D01*
X39350000Y-14900000D02*
X39210099Y-15039901D01*
X39210099Y-15039901D02*
X38194745Y-15039901D01*
X38194745Y-15039901D02*
X37154844Y-14000000D01*
X37154844Y-14000000D02*
X33845159Y-14000000D01*
X33845159Y-14000000D02*
X33000000Y-14845159D01*
X33000000Y-14845159D02*
X33000000Y-15500000D01*
X33000000Y-15500000D02*
X32590000Y-15910000D01*
X29816274Y-15910000D02*
X28906264Y-16820010D01*
X28179990Y-16820010D02*
X28000000Y-17000000D01*
X32590000Y-15910000D02*
X29816274Y-15910000D01*
X28906264Y-16820010D02*
X28179990Y-16820010D01*
X28000000Y-17000000D02*
X27750000Y-17000000D01*
X23950000Y-17250000D02*
X25802798Y-17250000D01*
X26192799Y-17640001D02*
X27109999Y-17640001D01*
X25802798Y-17250000D02*
X26192799Y-17640001D01*
X27109999Y-17640001D02*
X27750000Y-17000000D01*
X31550000Y-28050002D02*
X31700000Y-28200002D01*
X31550000Y-29050000D02*
X31550000Y-28350002D01*
X31550000Y-27500000D02*
X31550000Y-28050002D01*
X31550000Y-28350002D02*
X31700000Y-28200002D01*
D51*
X31800000Y-21363691D02*
X32181850Y-20981841D01*
X31800000Y-21850000D02*
X31800000Y-21363691D01*
D50*
X34000000Y-27600000D02*
X36000000Y-27600000D01*
X38000000Y-27600000D02*
X36000000Y-27600000D01*
X31550000Y-25750000D02*
X31550000Y-27500000D01*
X34800000Y-11800000D02*
X34800000Y-10600000D01*
X34800000Y-9400000D02*
X34800000Y-10600000D01*
D11*
X48800000Y-22500000D02*
X49000000Y-22300000D01*
X49000000Y-22300000D02*
X49000000Y-22000000D01*
X47400000Y-22500000D02*
X48800000Y-22500000D01*
X46500000Y-23400000D02*
X47400000Y-22500000D01*
X46450000Y-23400000D02*
X46500000Y-23400000D01*
D52*
X43250000Y-21000000D02*
X43950000Y-21000000D01*
X43950000Y-21000000D02*
X44000000Y-20950000D01*
D50*
X41150000Y-14900000D02*
X42500000Y-14900000D01*
D51*
X40850000Y-20450000D02*
X40850000Y-20900000D01*
X40850000Y-20900000D02*
X40350000Y-21400000D01*
X40350000Y-21400000D02*
X39800000Y-21400000D01*
D53*
X49150000Y-21850000D02*
X49000000Y-22000000D01*
X49950000Y-21850000D02*
X49150000Y-21850000D01*
D54*
X42550000Y-21000000D02*
X43250000Y-21000000D01*
X42500000Y-20950000D02*
X42550000Y-21000000D01*
D50*
X39750000Y-22300000D02*
X39750000Y-21450000D01*
X39750000Y-21450000D02*
X39800000Y-21400000D01*
X47750000Y-14900000D02*
X47750000Y-15750000D01*
X47750000Y-15750000D02*
X47622954Y-15877046D01*
X48800000Y-6250000D02*
X48800000Y-6950000D01*
X48800000Y-6950000D02*
X48500000Y-7250000D01*
X51750000Y-7250000D02*
X52250000Y-7250000D01*
X51750000Y-7250000D02*
X51250000Y-7250000D01*
X51750000Y-8400000D02*
X51750000Y-7250000D01*
X51750000Y-12250000D02*
X51250000Y-12250000D01*
X51750000Y-13400000D02*
X51750000Y-12250000D01*
X63950000Y-22400000D02*
X64900000Y-22400000D01*
X64900000Y-22400000D02*
X65000000Y-22500000D01*
X64000000Y-21250000D02*
X64750000Y-21250000D01*
X63950000Y-22400000D02*
X63950000Y-21300000D01*
X63950000Y-21300000D02*
X64000000Y-21250000D01*
D53*
X46500000Y-14950000D02*
X46500000Y-15675194D01*
X46500000Y-15675194D02*
X46537403Y-15712597D01*
D50*
X39350000Y-14500000D02*
X38434434Y-14500000D01*
D51*
X37550000Y-10750000D02*
X37000000Y-10750000D01*
X37550000Y-8250000D02*
X37000000Y-8250000D01*
D52*
X35800000Y-22200000D02*
X36600000Y-22200000D01*
X36250000Y-21750000D02*
X35800000Y-22200000D01*
X36250000Y-21200000D02*
X36250000Y-21750000D01*
X38650000Y-19500000D02*
X37900000Y-19500000D01*
X37900000Y-19500000D02*
X37800000Y-19400000D01*
D55*
X26600000Y-19400000D02*
X27200000Y-19400000D01*
X26000000Y-19400000D02*
X26600000Y-19400000D01*
X23950000Y-19825000D02*
X25575000Y-19825000D01*
X25575000Y-19825000D02*
X26000000Y-19400000D01*
X26421573Y-14967640D02*
X27326378Y-14967640D01*
X27326378Y-14967640D02*
X27364275Y-14929743D01*
X25375000Y-14175000D02*
X26167640Y-14967640D01*
X26167640Y-14967640D02*
X26421573Y-14967640D01*
X23950000Y-14175000D02*
X25375000Y-14175000D01*
D51*
X53800000Y-21750000D02*
X53100011Y-21750000D01*
X53100011Y-21750000D02*
X53050011Y-21800000D01*
X53800000Y-23000000D02*
X53800000Y-21750000D01*
X64250000Y-30200000D02*
X65200000Y-30200000D01*
X64250000Y-30200000D02*
X63000000Y-30200000D01*
X61750000Y-30200000D02*
X63000000Y-30200000D01*
X61750000Y-30200000D02*
X60800000Y-30200000D01*
X64200000Y-27500000D02*
X64552929Y-27500000D01*
X64552929Y-27500000D02*
X65124616Y-28071687D01*
X68000000Y-25200000D02*
X68000000Y-24600000D01*
X68000000Y-24600000D02*
X68200000Y-24400000D01*
X66800000Y-25200000D02*
X68000000Y-25200000D01*
X37550000Y-10750000D02*
X37550000Y-12000000D01*
X37550000Y-9500000D02*
X37550000Y-10750000D01*
X37550000Y-8250000D02*
X37550000Y-9500000D01*
X37550000Y-7000000D02*
X37550000Y-8250000D01*
D50*
X45250000Y-14950000D02*
X46500000Y-14950000D01*
X47750000Y-14900000D02*
X46550000Y-14900000D01*
X46550000Y-14900000D02*
X46500000Y-14950000D01*
X42500000Y-14900000D02*
X42500000Y-15687270D01*
X47700000Y-14950000D02*
X47750000Y-14900000D01*
D11*
X49950000Y-24750000D02*
X49950000Y-26900000D01*
X49950000Y-26900000D02*
X50825000Y-27775000D01*
D50*
X50825000Y-27775000D02*
X50825000Y-28325000D01*
X50825000Y-28325000D02*
X51000000Y-28500000D01*
X51000000Y-29300000D02*
X51000000Y-28500000D01*
X52500000Y-28750000D02*
X52250000Y-28500000D01*
X52250000Y-28500000D02*
X52250000Y-27900000D01*
X52500000Y-29300000D02*
X52500000Y-28750000D01*
X52250000Y-27900000D02*
X52650000Y-27900000D01*
X52650000Y-27900000D02*
X53000000Y-28250000D01*
D55*
X24150000Y-20350000D02*
X26425000Y-20350000D01*
X26425000Y-20350000D02*
X26900000Y-20825000D01*
X23150000Y-20512500D02*
X23987500Y-20512500D01*
X23987500Y-20512500D02*
X24150000Y-20350000D01*
D53*
X23400000Y-13487500D02*
X27137500Y-13487500D01*
X27137500Y-13487500D02*
X27300000Y-13325000D01*
D56*
X27300000Y-13325000D02*
X28365000Y-13325000D01*
X28365000Y-13325000D02*
X28370000Y-13330000D01*
X26900000Y-20825000D02*
X28335000Y-20825000D01*
X28335000Y-20825000D02*
X28340000Y-20820000D01*
D50*
X53133730Y-26610019D02*
X51589989Y-25066278D01*
X54400000Y-26750000D02*
X53725000Y-26750000D01*
X53725000Y-26750000D02*
X53585019Y-26610019D01*
X53585019Y-26610019D02*
X53133730Y-26610019D01*
X43079954Y-18750000D02*
X42250000Y-17920046D01*
X34090000Y-14660000D02*
X33750000Y-15000000D01*
X51589989Y-25066278D02*
X51589989Y-23816277D01*
X33750000Y-15000000D02*
X33750000Y-16250000D01*
X29615699Y-17547801D02*
X29274640Y-17888860D01*
X28625890Y-17888860D02*
X28280878Y-17543848D01*
X39127482Y-17920044D02*
X38750000Y-17542562D01*
X49773712Y-18750000D02*
X43079954Y-18750000D01*
X51589989Y-23816277D02*
X51089989Y-23316278D01*
X51089989Y-23316278D02*
X51089989Y-20066277D01*
X51089989Y-20066277D02*
X49773712Y-18750000D01*
X42250000Y-17920046D02*
X39800000Y-17920046D01*
X39800000Y-17920046D02*
X39127482Y-17920044D01*
X38750000Y-17542562D02*
X38750000Y-16500000D01*
X36910000Y-14660000D02*
X34090000Y-14660000D01*
X29971387Y-16660011D02*
X29615699Y-17015699D01*
X38750000Y-16500000D02*
X36910000Y-14660000D01*
X33750000Y-16250000D02*
X33339989Y-16660011D01*
X33339989Y-16660011D02*
X29971387Y-16660011D01*
X29615699Y-17015699D02*
X29615699Y-17547801D01*
X29274640Y-17888860D02*
X28625890Y-17888860D01*
X26866282Y-16133718D02*
X27216532Y-16133718D01*
X27216532Y-16133718D02*
X27310251Y-16039999D01*
X27310251Y-16039999D02*
X28434512Y-16039999D01*
X28434512Y-16039999D02*
X28538062Y-15936449D01*
X23950000Y-16250000D02*
X26750000Y-16250000D01*
X26750000Y-16250000D02*
X26866282Y-16133718D01*
X51427331Y-21209655D02*
X51448180Y-21242836D01*
X29015439Y-17348859D02*
X29015439Y-17163397D01*
X50798251Y-18690589D02*
X50784548Y-18750626D01*
X39069911Y-17409911D02*
X39260035Y-17600035D01*
X48961376Y-17891365D02*
X49021303Y-17898117D01*
X51623942Y-21313113D02*
X51660930Y-21326056D01*
X39069911Y-16367489D02*
X39069911Y-17409911D01*
X29015439Y-17163397D02*
X29838836Y-16340000D01*
X49237440Y-18220605D02*
X49257358Y-18277528D01*
X29838836Y-16340000D02*
X33160000Y-16340000D01*
X33160000Y-16340000D02*
X33430090Y-16069910D01*
X50784548Y-18568972D02*
X50798251Y-18629009D01*
X50684080Y-18429990D02*
X50719435Y-18465345D01*
X48529289Y-18371234D02*
X48571932Y-18328591D01*
X50191545Y-18495103D02*
X50247026Y-18468383D01*
X33430090Y-14867489D02*
X33957579Y-14340000D01*
X51509071Y-21291395D02*
X51546059Y-21304338D01*
X49078226Y-17918035D02*
X49129289Y-17950120D01*
X53226274Y-26250000D02*
X54400000Y-26250000D01*
X33430090Y-16069910D02*
X33430090Y-14867489D01*
X51660930Y-20691395D02*
X51623942Y-20704338D01*
X48421303Y-18423237D02*
X48478226Y-18403319D01*
X51910000Y-24933726D02*
X53226274Y-26250000D01*
X33957579Y-14340000D02*
X37042422Y-14340000D01*
X49332086Y-18371234D02*
X49383149Y-18403319D01*
X51660930Y-20126056D02*
X51694111Y-20146905D01*
X37042422Y-14340000D02*
X39069911Y-16367489D01*
X49223935Y-18100749D02*
X49237440Y-18220605D01*
X48840072Y-17898117D02*
X48900000Y-17891365D01*
X49204017Y-18043826D02*
X49223935Y-18100749D01*
X50398798Y-18364875D02*
X50458835Y-18351172D01*
X51475890Y-20070546D02*
X51509071Y-20091395D01*
X39260035Y-17600035D02*
X42000000Y-17600035D01*
X50654321Y-19139535D02*
X50681039Y-19195016D01*
X50131508Y-18508806D02*
X50191545Y-18495103D01*
X48478226Y-18403319D02*
X48529289Y-18371234D01*
X51475890Y-21946905D02*
X51448180Y-21974615D01*
X42000000Y-17600035D02*
X42382553Y-17600037D01*
X51448180Y-21242836D02*
X51475890Y-21270546D01*
X51414388Y-19972667D02*
X51427331Y-20009655D01*
X50719435Y-18465345D02*
X50757830Y-18513490D01*
X51414388Y-22044784D02*
X51410000Y-22083726D01*
X51742670Y-21407796D02*
X51755613Y-21444784D01*
X48900000Y-17891365D02*
X48961376Y-17891365D01*
X42382553Y-17600037D02*
X43212506Y-18429990D01*
X51475890Y-20746905D02*
X51448180Y-20774615D01*
X51546059Y-20104338D02*
X51623942Y-20113113D01*
X43212506Y-18429990D02*
X48361376Y-18429990D01*
X48361376Y-18429990D02*
X48421303Y-18423237D01*
X48732086Y-17950120D02*
X48783149Y-17918035D01*
X50520415Y-18351172D02*
X50580452Y-18364875D01*
X48571932Y-18328591D02*
X48604017Y-18277528D01*
X51448180Y-20042836D02*
X51475890Y-20070546D01*
X48604017Y-18277528D02*
X48623935Y-18220605D01*
X48623935Y-18220605D02*
X48637440Y-18100749D01*
X51760000Y-20283726D02*
X51760000Y-20533726D01*
X49289443Y-18328591D02*
X49332086Y-18371234D01*
X48637440Y-18100749D02*
X48657358Y-18043826D01*
X50784548Y-18750626D02*
X50757830Y-18806108D01*
X48657358Y-18043826D02*
X48689443Y-17992763D01*
X50009891Y-18495103D02*
X50069928Y-18508806D01*
X48689443Y-17992763D02*
X48732086Y-17950120D01*
X48783149Y-17918035D02*
X48840072Y-17898117D01*
X50295172Y-18429990D02*
X50343317Y-18391595D01*
X49440072Y-18423237D02*
X49500000Y-18429990D01*
X49021303Y-17898117D02*
X49078226Y-17918035D01*
X49129289Y-17950120D02*
X49171932Y-17992763D01*
X50798251Y-18629009D02*
X50798251Y-18690589D01*
X49171932Y-17992763D02*
X49204017Y-18043826D01*
X49257358Y-18277528D02*
X49289443Y-18328591D01*
X49383149Y-18403319D02*
X49440072Y-18423237D01*
X49500000Y-18429990D02*
X49906264Y-18429990D01*
X50343317Y-18391595D02*
X50398798Y-18364875D01*
X50635935Y-18391595D02*
X50684080Y-18429990D01*
X49906264Y-18429990D02*
X49954408Y-18468383D01*
X49954408Y-18468383D02*
X50009891Y-18495103D01*
X51721821Y-21374615D02*
X51742670Y-21407796D01*
X50069928Y-18508806D02*
X50131508Y-18508806D01*
X50640618Y-19017918D02*
X50640618Y-19079498D01*
X51623942Y-20704338D02*
X51546059Y-20713113D01*
X50247026Y-18468383D02*
X50295172Y-18429990D01*
X50458835Y-18351172D02*
X50520415Y-18351172D01*
X50681039Y-18902398D02*
X50654321Y-18957881D01*
X50580452Y-18364875D02*
X50635935Y-18391595D01*
X50757830Y-18513490D02*
X50784548Y-18568972D01*
X51509071Y-20091395D02*
X51546059Y-20104338D01*
X50757830Y-18806108D02*
X50681039Y-18902398D01*
X50681039Y-19195016D02*
X50719434Y-19243161D01*
X50654321Y-18957881D02*
X50640618Y-19017918D01*
X50640618Y-19079498D02*
X50654321Y-19139535D01*
X51410000Y-19933726D02*
X51414388Y-19972667D01*
X50719434Y-19243161D02*
X51410000Y-19933726D01*
X51427331Y-20009655D02*
X51448180Y-20042836D01*
X51623942Y-20113113D02*
X51660930Y-20126056D01*
X51448180Y-21974615D02*
X51427331Y-22007796D01*
X51694111Y-20146905D02*
X51721821Y-20174615D01*
X51694111Y-21346905D02*
X51721821Y-21374615D01*
X51721821Y-20174615D02*
X51742670Y-20207796D01*
X51410000Y-23183726D02*
X51910000Y-23683726D01*
X51742670Y-20207796D02*
X51755613Y-20244784D01*
X51755613Y-20244784D02*
X51760000Y-20283726D01*
X51546059Y-21304338D02*
X51623942Y-21313113D01*
X51760000Y-20533726D02*
X51755613Y-20572667D01*
X51755613Y-20572667D02*
X51742670Y-20609655D01*
X51742670Y-20609655D02*
X51721821Y-20642836D01*
X51721821Y-20642836D02*
X51694111Y-20670546D01*
X51660930Y-21326056D02*
X51694111Y-21346905D01*
X51694111Y-20670546D02*
X51660930Y-20691395D01*
X51760000Y-21733726D02*
X51755613Y-21772667D01*
X51546059Y-20713113D02*
X51509071Y-20726056D01*
X51509071Y-20726056D02*
X51475890Y-20746905D01*
X51448180Y-20774615D02*
X51427331Y-20807796D01*
X51509071Y-21926056D02*
X51475890Y-21946905D01*
X51427331Y-20807796D02*
X51414388Y-20844784D01*
X51414388Y-20844784D02*
X51410000Y-20883726D01*
X51410000Y-20883726D02*
X51410000Y-21133726D01*
X51721821Y-21842836D02*
X51694111Y-21870546D01*
X51410000Y-21133726D02*
X51414388Y-21172667D01*
X51414388Y-21172667D02*
X51427331Y-21209655D01*
X51475890Y-21270546D02*
X51509071Y-21291395D01*
X51755613Y-21444784D02*
X51760000Y-21483726D01*
X51760000Y-21483726D02*
X51760000Y-21733726D01*
X51546059Y-21913113D02*
X51509071Y-21926056D01*
X51410000Y-22083726D02*
X51410000Y-23183726D01*
X51755613Y-21772667D02*
X51742670Y-21809655D01*
X51742670Y-21809655D02*
X51721821Y-21842836D01*
X51694111Y-21870546D02*
X51660930Y-21891395D01*
X51660930Y-21891395D02*
X51623942Y-21904338D01*
X51623942Y-21904338D02*
X51546059Y-21913113D01*
X51427331Y-22007796D02*
X51414388Y-22044784D01*
X51910000Y-23683726D02*
X51910000Y-24933726D01*
X33250000Y-27150000D02*
X32900000Y-27500000D01*
X32900000Y-27500000D02*
X32450000Y-27500000D01*
X34000000Y-27150000D02*
X33250000Y-27150000D01*
X39100000Y-28500000D02*
X39200000Y-28600000D01*
X38000000Y-28500000D02*
X39100000Y-28500000D01*
D53*
X32450000Y-26950000D02*
X32600000Y-26800000D01*
X32450000Y-27500000D02*
X32450000Y-26950000D01*
X45000010Y-19749990D02*
X45000010Y-19400000D01*
X44750000Y-20000000D02*
X45000010Y-19749990D01*
D50*
X41200000Y-22350000D02*
X41750000Y-21800000D01*
X41750000Y-21800000D02*
X43547452Y-21800000D01*
X43547452Y-21800000D02*
X43607443Y-21740009D01*
X43607443Y-21740009D02*
X44659991Y-21740009D01*
X44659991Y-21740009D02*
X44800000Y-21600000D01*
X44800000Y-21600000D02*
X44800000Y-20050000D01*
X44800000Y-20050000D02*
X44750000Y-20000000D01*
X42500000Y-14000000D02*
X42250000Y-14000000D01*
X42250000Y-14000000D02*
X41750000Y-14500000D01*
X41750000Y-14500000D02*
X41150000Y-14500000D01*
D53*
X48050000Y-23150000D02*
X48050000Y-23750000D01*
X48050000Y-23750000D02*
X49050000Y-24750000D01*
D50*
X54800000Y-24400000D02*
X54400000Y-24000000D01*
X55250000Y-24400000D02*
X54800000Y-24400000D01*
D11*
X55250000Y-30100000D02*
X54400000Y-30100000D01*
X54400000Y-30100000D02*
X54250000Y-30250000D01*
D50*
X60100000Y-27250000D02*
X61250000Y-27250000D01*
D53*
X58750000Y-24400000D02*
X58750000Y-23008759D01*
X58750000Y-23008759D02*
X58722142Y-22980901D01*
D11*
X51000000Y-30200000D02*
X50400000Y-30200000D01*
X50400000Y-30200000D02*
X50300000Y-30300000D01*
D53*
X49175000Y-26225000D02*
X48275000Y-26225000D01*
X48275000Y-26225000D02*
X48250000Y-26250000D01*
D52*
X44000000Y-20050000D02*
X44700000Y-20050000D01*
X44700000Y-20050000D02*
X44750000Y-20000000D01*
D53*
X38450000Y-8250000D02*
X39215140Y-8250000D01*
X39215140Y-8250000D02*
X39476760Y-8511620D01*
X41150000Y-9000000D02*
X39965140Y-9000000D01*
X39965140Y-9000000D02*
X39476760Y-8511620D01*
D52*
X43514999Y-19314999D02*
X44000000Y-19800000D01*
X44000000Y-19800000D02*
X44000000Y-20050000D01*
X40850000Y-18550000D02*
X42186976Y-18550000D01*
X42951975Y-19314999D02*
X43514999Y-19314999D01*
X42186976Y-18550000D02*
X42951975Y-19314999D01*
D51*
X49175000Y-25575000D02*
X49050000Y-25450000D01*
X49050000Y-25450000D02*
X49050000Y-24750000D01*
X49175000Y-26225000D02*
X49175000Y-25575000D01*
D50*
X42500000Y-13000000D02*
X42500000Y-14000000D01*
D53*
X43250000Y-5000000D02*
X41250000Y-5000000D01*
X41250000Y-5000000D02*
X41000000Y-5250000D01*
X43500000Y-5250000D02*
X43250000Y-5000000D01*
X43500000Y-6150000D02*
X43500000Y-5250000D01*
D50*
X46850000Y-9000000D02*
X48000000Y-9000000D01*
X48000000Y-9000000D02*
X48250000Y-8750000D01*
X46000000Y-6150000D02*
X46850000Y-6150000D01*
X46850000Y-6150000D02*
X47000000Y-6000000D01*
D53*
X47750000Y-13000000D02*
X47500000Y-12750000D01*
X47500000Y-12750000D02*
X47000000Y-12750000D01*
X47750000Y-14000000D02*
X47750000Y-13000000D01*
X46000000Y-12420160D02*
X46329840Y-12750000D01*
X46329840Y-12750000D02*
X47000000Y-12750000D01*
X46000000Y-11850000D02*
X46000000Y-12420160D01*
D50*
X52999971Y-27000000D02*
X53250000Y-27250029D01*
X52250000Y-27000000D02*
X52999971Y-27000000D01*
X54400000Y-27250000D02*
X53250029Y-27250000D01*
X53250029Y-27250000D02*
X53250000Y-27250029D01*
X42500000Y-11850000D02*
X42500000Y-13000000D01*
X51570010Y-31320010D02*
X51000000Y-30750000D01*
X51000000Y-30750000D02*
X51000000Y-30200000D01*
X57132552Y-31320010D02*
X51570010Y-31320010D01*
X57750000Y-30100000D02*
X57750000Y-30702562D01*
X57750000Y-30702562D02*
X57132552Y-31320010D01*
D52*
X35600000Y-19200000D02*
X32600000Y-19200000D01*
X32600000Y-19200000D02*
X32200000Y-19600000D01*
X32200000Y-19600000D02*
X31400000Y-19600000D01*
X35750000Y-15750000D02*
X35350000Y-15350000D01*
X35350000Y-15350000D02*
X34800000Y-15350000D01*
X35750000Y-17000000D02*
X35750000Y-15750000D01*
X36250000Y-17500000D02*
X35750000Y-17000000D01*
X36250000Y-18300000D02*
X36250000Y-17500000D01*
D51*
X30800000Y-19600000D02*
X30200000Y-19600000D01*
X30800000Y-19600000D02*
X31400000Y-19600000D01*
X30800000Y-22400000D02*
X30800000Y-19600000D01*
X31800000Y-22825000D02*
X31225000Y-22825000D01*
X31225000Y-22825000D02*
X30800000Y-22400000D01*
D50*
X37600000Y-21000000D02*
X38250000Y-21650000D01*
X38250000Y-21650000D02*
X38250000Y-22300000D01*
X37600000Y-20200000D02*
X37600000Y-21000000D01*
X36800000Y-19400000D02*
X37600000Y-20200000D01*
X36800000Y-19200000D02*
X36800000Y-19400000D01*
D52*
X36200000Y-19200000D02*
X36800000Y-19200000D01*
X36200000Y-19200000D02*
X35600000Y-19200000D01*
X36250000Y-18300000D02*
X36250000Y-19150000D01*
X36250000Y-19150000D02*
X36200000Y-19200000D01*
D55*
X25968976Y-18523805D02*
X26583805Y-18523805D01*
X26583805Y-18523805D02*
X26600000Y-18540000D01*
X23950000Y-18250000D02*
X25695171Y-18250000D01*
X25695171Y-18250000D02*
X25968976Y-18523805D01*
X26000000Y-15600000D02*
X26988235Y-15600000D01*
X26988235Y-15600000D02*
X26994508Y-15593727D01*
X25280383Y-15750000D02*
X25850000Y-15750000D01*
X25850000Y-15750000D02*
X26000000Y-15600000D01*
D51*
X31800000Y-22825000D02*
X31800000Y-23150000D01*
X31800000Y-22500000D02*
X31800000Y-22825000D01*
D57*
X51950000Y-10600000D02*
X52100000Y-10600000D01*
X52100000Y-10600000D02*
X52750000Y-11250000D01*
X52100000Y-15600000D02*
X52750000Y-16250000D01*
X51950000Y-15600000D02*
X52100000Y-15600000D01*
D54*
X36500000Y-18550000D02*
X36250000Y-18300000D01*
D55*
X23950000Y-15750000D02*
X25280383Y-15750000D01*
D50*
X31250000Y-24750000D02*
X30750000Y-25250000D01*
X30750000Y-30250000D02*
X31000000Y-30500000D01*
X31000000Y-30500000D02*
X31550000Y-30500000D01*
X30750000Y-25250000D02*
X30750000Y-30250000D01*
X33700000Y-23150000D02*
X33000000Y-23150000D01*
X33000000Y-23150000D02*
X32850000Y-23300000D01*
X32850000Y-23300000D02*
X32850000Y-23750000D01*
X32850000Y-23750000D02*
X31850000Y-24750000D01*
X31850000Y-24750000D02*
X31250000Y-24750000D01*
D52*
X34540010Y-16909990D02*
X34540010Y-17500000D01*
X34800000Y-16650000D02*
X34540010Y-16909990D01*
D51*
X34540010Y-18249992D02*
X34540010Y-17500000D01*
D54*
X64400000Y-26000000D02*
X63600000Y-26000000D01*
D51*
X34150000Y-23150000D02*
X34250030Y-23250030D01*
X34250030Y-23250030D02*
X34250030Y-23800000D01*
X33700000Y-23150000D02*
X34150000Y-23150000D01*
X34284415Y-23834385D02*
X34250030Y-23800000D01*
D50*
X32750000Y-22750000D02*
X33150000Y-23150000D01*
X33150000Y-23150000D02*
X33700000Y-23150000D01*
X32750000Y-21250000D02*
X32750000Y-22750000D01*
X33050000Y-20950000D02*
X32750000Y-21250000D01*
X33050000Y-20250000D02*
X33050000Y-20950000D01*
D51*
X64150000Y-24600000D02*
X64150000Y-25750000D01*
X64150000Y-25750000D02*
X64400000Y-26000000D01*
X64800000Y-26672268D02*
X64800000Y-26400000D01*
X64800000Y-26400000D02*
X64400000Y-26000000D01*
X66800000Y-27800000D02*
X65927732Y-27800000D01*
X65927732Y-27800000D02*
X64800000Y-26672268D01*
D50*
X46000000Y-19800000D02*
X47750000Y-19800000D01*
X47750000Y-19800000D02*
X48550000Y-20600000D01*
X45750000Y-20050000D02*
X46000000Y-19800000D01*
X45750000Y-20600000D02*
X45750000Y-20050000D01*
X46300000Y-21250000D02*
X46450000Y-21400000D01*
X46450000Y-21400000D02*
X46450000Y-22000000D01*
X45850000Y-21250000D02*
X46300000Y-21250000D01*
X45750000Y-21150000D02*
X45850000Y-21250000D01*
X45750000Y-20600000D02*
X45750000Y-21150000D01*
X48050000Y-21850000D02*
X47900000Y-21850000D01*
X47900000Y-21850000D02*
X46650000Y-20600000D01*
D53*
X40250000Y-10000000D02*
X39500000Y-10750000D01*
X39500000Y-10750000D02*
X38450000Y-10750000D01*
X41150000Y-10000000D02*
X40250000Y-10000000D01*
X41150000Y-9500000D02*
X38450000Y-9500000D01*
D50*
X61390001Y-27890001D02*
X61750000Y-28250000D01*
X61750000Y-28250000D02*
X61750000Y-29300000D01*
X60942799Y-27890001D02*
X61390001Y-27890001D01*
X60100000Y-27750000D02*
X60802798Y-27750000D01*
X60802798Y-27750000D02*
X60942799Y-27890001D01*
X59250000Y-24400000D02*
X59250000Y-23342795D01*
X59250000Y-23342795D02*
X59942799Y-22649996D01*
X59942799Y-22649996D02*
X60557201Y-22649996D01*
X60557201Y-22649996D02*
X61210011Y-23302806D01*
X61210011Y-23302806D02*
X61210011Y-24210011D01*
X61210011Y-24210011D02*
X61400000Y-24400000D01*
X61400000Y-24400000D02*
X61400000Y-25400000D01*
X61400000Y-25400000D02*
X62500000Y-26500000D01*
X62500000Y-26500000D02*
X63000000Y-26500000D01*
X63000000Y-26500000D02*
X63300000Y-26800000D01*
X63300000Y-26800000D02*
X63300000Y-27500000D01*
X64000000Y-28250000D02*
X64250000Y-28500000D01*
X64250000Y-28500000D02*
X64250000Y-29300000D01*
X62952562Y-28250000D02*
X64000000Y-28250000D01*
X62320010Y-27617448D02*
X62952562Y-28250000D01*
X62320010Y-26920246D02*
X62320010Y-27617448D01*
X60100000Y-26250000D02*
X61649764Y-26250000D01*
X61649764Y-26250000D02*
X62320010Y-26920246D01*
X62000000Y-27750000D02*
X63000000Y-28750000D01*
X63000000Y-28750000D02*
X63000000Y-29300000D01*
X62000000Y-27052798D02*
X62000000Y-27750000D01*
X60100000Y-26750000D02*
X60526557Y-26750000D01*
X60526557Y-26750000D02*
X60666558Y-26609999D01*
X60666558Y-26609999D02*
X61557201Y-26609999D01*
X61557201Y-26609999D02*
X62000000Y-27052798D01*
X57250000Y-30100000D02*
X57250000Y-30750000D01*
X57250000Y-30750000D02*
X57000000Y-31000000D01*
X57000000Y-31000000D02*
X54000000Y-31000000D01*
X54000000Y-31000000D02*
X53200000Y-30200000D01*
X53200000Y-30200000D02*
X52500000Y-30200000D01*
X55750000Y-21750000D02*
X56250000Y-22250000D01*
X56250000Y-22250000D02*
X56250000Y-24400000D01*
X54700000Y-21750000D02*
X55750000Y-21750000D01*
X49500000Y-5000000D02*
X49700000Y-5200000D01*
X49700000Y-5200000D02*
X49700000Y-6250000D01*
X44250000Y-5000000D02*
X49500000Y-5000000D01*
X44000000Y-5250000D02*
X44250000Y-5000000D01*
X44000000Y-6150000D02*
X44000000Y-5250000D01*
D53*
X45250000Y-13250000D02*
X45000000Y-13000000D01*
X45000000Y-13000000D02*
X45000000Y-11850000D01*
X45250000Y-14050000D02*
X45250000Y-13250000D01*
D50*
X55500000Y-23000000D02*
X55750000Y-23250000D01*
X55750000Y-23250000D02*
X55750000Y-24400000D01*
X54700000Y-23000000D02*
X55500000Y-23000000D01*
X39836422Y-12086422D02*
X39750000Y-12000000D01*
X39750000Y-12000000D02*
X38450000Y-12000000D01*
X42000000Y-12250000D02*
X41447202Y-12250000D01*
X41447202Y-12250000D02*
X41307201Y-12390001D01*
X41307201Y-12390001D02*
X40390001Y-12390001D01*
X40086422Y-12086422D02*
X39836422Y-12086422D01*
X40390001Y-12390001D02*
X40086422Y-12086422D01*
X42000000Y-11850000D02*
X42000000Y-12250000D01*
D53*
X45500000Y-12500000D02*
X46500000Y-13500000D01*
X46500000Y-13500000D02*
X46500000Y-14050000D01*
X45500000Y-11850000D02*
X45500000Y-12500000D01*
X39000000Y-7000000D02*
X40000000Y-8000000D01*
X40000000Y-8000000D02*
X40000000Y-8250000D01*
X40000000Y-8250000D02*
X40250000Y-8500000D01*
X40250000Y-8500000D02*
X41150000Y-8500000D01*
X38450000Y-7000000D02*
X39000000Y-7000000D01*
D50*
X50050000Y-8400000D02*
X51039989Y-9389989D01*
X51039989Y-9389989D02*
X52610011Y-9389989D01*
X52610011Y-9389989D02*
X53250000Y-8750000D01*
X53250000Y-8750000D02*
X53250000Y-8500000D01*
X48683726Y-9340000D02*
X48433726Y-9590000D01*
X48433726Y-9590000D02*
X47615000Y-9590000D01*
X47615000Y-9590000D02*
X47525000Y-9500000D01*
X47525000Y-9500000D02*
X46850000Y-9500000D01*
X50050000Y-8400000D02*
X49850000Y-8400000D01*
X49850000Y-8400000D02*
X48910000Y-9340000D01*
X48910000Y-9340000D02*
X48683726Y-9340000D01*
X52709991Y-9709999D02*
X53250000Y-10250008D01*
X50940001Y-9709999D02*
X52709991Y-9709999D01*
X50050000Y-10600000D02*
X50940001Y-9709999D01*
X48816274Y-9660000D02*
X48566274Y-9910000D01*
X48566274Y-9910000D02*
X47615000Y-9910000D01*
X47615000Y-9910000D02*
X47525000Y-10000000D01*
X47525000Y-10000000D02*
X46850000Y-10000000D01*
X49850000Y-10600000D02*
X48910000Y-9660000D01*
X50050000Y-10600000D02*
X49850000Y-10600000D01*
X48910000Y-9660000D02*
X48816274Y-9660000D01*
X54183725Y-12590001D02*
X54539999Y-12590001D01*
X54539999Y-12590001D02*
X55380000Y-11750000D01*
X53590000Y-13183726D02*
X54183725Y-12590001D01*
X50050000Y-13400000D02*
X51039989Y-14389989D01*
X51039989Y-14389989D02*
X53157449Y-14389989D01*
X53157449Y-14389989D02*
X53590000Y-13957438D01*
X53590000Y-13957438D02*
X53590000Y-13183726D01*
X48910000Y-13933726D02*
X49316274Y-14340000D01*
X47525000Y-10500000D02*
X47615000Y-10590000D01*
X46850000Y-10500000D02*
X47525000Y-10500000D01*
X47615000Y-10590000D02*
X48066274Y-10590000D01*
X48066274Y-10590000D02*
X48910000Y-11433726D01*
X48910000Y-11433726D02*
X48910000Y-13933726D01*
X49316274Y-14340000D02*
X50050000Y-14340000D01*
X50050000Y-14340000D02*
X50050000Y-13400000D01*
X50050000Y-15600000D02*
X50050000Y-15550000D01*
X50050000Y-15550000D02*
X50890001Y-14709999D01*
X53290001Y-14709999D02*
X53910000Y-14090000D01*
X54316275Y-12909999D02*
X54539999Y-12909999D01*
X50890001Y-14709999D02*
X53290001Y-14709999D01*
X53910000Y-13316274D02*
X54316275Y-12909999D01*
X54539999Y-12909999D02*
X55380000Y-13750000D01*
X53910000Y-14090000D02*
X53910000Y-13316274D01*
X47525000Y-11000000D02*
X47615000Y-10910000D01*
X47933726Y-10910000D02*
X48590000Y-11566274D01*
X49183726Y-14660000D02*
X50050000Y-14660000D01*
X47615000Y-10910000D02*
X47933726Y-10910000D01*
X50050000Y-14660000D02*
X50050000Y-15600000D01*
X46850000Y-11000000D02*
X47525000Y-11000000D01*
X48590000Y-11566274D02*
X48590000Y-14066274D01*
X48590000Y-14066274D02*
X49183726Y-14660000D01*
X43000000Y-11850000D02*
X43000000Y-12552798D01*
X43750000Y-14500000D02*
X43750000Y-15000000D01*
X43000000Y-12552798D02*
X43500000Y-13052798D01*
X43500000Y-13052798D02*
X43500000Y-13250000D01*
X43750000Y-13500000D02*
X43750000Y-13750000D01*
X43500000Y-14250000D02*
X43750000Y-14500000D01*
X43500000Y-13250000D02*
X43750000Y-13500000D01*
X43750000Y-13750000D02*
X43500000Y-14000000D01*
X43500000Y-14000000D02*
X43500000Y-14250000D01*
X43750000Y-15000000D02*
X43500000Y-15250000D01*
X40450000Y-13800000D02*
X40450000Y-13300000D01*
X40762854Y-12987146D02*
X41537459Y-12987146D01*
X40450000Y-13300000D02*
X40762854Y-12987146D01*
X40316833Y-16471944D02*
X40804902Y-16960013D01*
X40804902Y-16960013D02*
X50186302Y-16960013D01*
X50186302Y-16960013D02*
X52410011Y-19183722D01*
X52410011Y-19183722D02*
X52410011Y-22683723D01*
X52410011Y-22683723D02*
X52843735Y-23117448D01*
X52843735Y-23117448D02*
X52843735Y-24593735D01*
X52843735Y-24593735D02*
X53500000Y-25250000D01*
X53500000Y-25250000D02*
X54400000Y-25250000D01*
X40050000Y-13800000D02*
X40050000Y-13050000D01*
X40050000Y-13050000D02*
X39750000Y-12750000D01*
X40050000Y-15200000D02*
X40050000Y-15626831D01*
X44807521Y-17747893D02*
X44829709Y-17811302D01*
X47687046Y-17915686D02*
X47734549Y-17868183D01*
X45569834Y-17309733D02*
X45633243Y-17287545D01*
X40050000Y-15626831D02*
X39676831Y-16000000D01*
X45887046Y-17345474D02*
X45934549Y-17392977D01*
X44630165Y-17309733D02*
X44687046Y-17345474D01*
X39676831Y-16000000D02*
X39676831Y-16779146D01*
X44792478Y-17513267D02*
X44800000Y-17580024D01*
X44687046Y-17345474D02*
X44734549Y-17392977D01*
X39676831Y-16779146D02*
X40177709Y-17280024D01*
X45166756Y-17973615D02*
X45230165Y-17951427D01*
X40177709Y-17280024D02*
X44500000Y-17280024D01*
X44500000Y-17280024D02*
X44566756Y-17287545D01*
X45429709Y-17449858D02*
X45465450Y-17392977D01*
X44566756Y-17287545D02*
X44630165Y-17309733D01*
X47800000Y-17580024D02*
X47807521Y-17513267D01*
X46169834Y-17951427D02*
X46233243Y-17973615D01*
X44734549Y-17392977D02*
X44770290Y-17449858D01*
X44770290Y-17449858D02*
X44792478Y-17513267D01*
X44800000Y-17580024D02*
X44800000Y-17681137D01*
X45512953Y-17345474D02*
X45569834Y-17309733D01*
X44829709Y-17811302D02*
X44865450Y-17868183D01*
X45100000Y-17981137D02*
X45166756Y-17973615D01*
X44800000Y-17681137D02*
X44807521Y-17747893D01*
X45287046Y-17915686D02*
X45334549Y-17868183D01*
X45465450Y-17392977D02*
X45512953Y-17345474D01*
X46665450Y-17392977D02*
X46712953Y-17345474D01*
X46366756Y-17973615D02*
X46430165Y-17951427D01*
X44865450Y-17868183D02*
X44912953Y-17915686D01*
X44912953Y-17915686D02*
X44969834Y-17951427D01*
X46900000Y-17280024D02*
X46966756Y-17287545D01*
X45370290Y-17811302D02*
X45392478Y-17747893D01*
X44969834Y-17951427D02*
X45033243Y-17973615D01*
X45033243Y-17973615D02*
X45100000Y-17981137D01*
X45230165Y-17951427D02*
X45287046Y-17915686D01*
X46029709Y-17811302D02*
X46065450Y-17868183D01*
X45334549Y-17868183D02*
X45370290Y-17811302D01*
X46430165Y-17951427D02*
X46487046Y-17915686D01*
X45392478Y-17747893D02*
X45400000Y-17681137D01*
X45400000Y-17681137D02*
X45400000Y-17580024D01*
X45400000Y-17580024D02*
X45407521Y-17513267D01*
X45407521Y-17513267D02*
X45429709Y-17449858D01*
X52090000Y-19316274D02*
X52090000Y-22816275D01*
X45633243Y-17287545D02*
X45700000Y-17280024D01*
X46769834Y-17309733D02*
X46833243Y-17287545D01*
X46007521Y-17747893D02*
X46029709Y-17811302D01*
X46629709Y-17449858D02*
X46665450Y-17392977D01*
X45700000Y-17280024D02*
X45766756Y-17287545D01*
X45766756Y-17287545D02*
X45830165Y-17309733D01*
X48100000Y-17280024D02*
X50053750Y-17280024D01*
X45830165Y-17309733D02*
X45887046Y-17345474D01*
X47912953Y-17345474D02*
X47969834Y-17309733D01*
X45934549Y-17392977D02*
X45970290Y-17449858D01*
X46534549Y-17868183D02*
X46570290Y-17811302D01*
X47566756Y-17973615D02*
X47630165Y-17951427D01*
X45970290Y-17449858D02*
X45992478Y-17513267D01*
X47030165Y-17309733D02*
X47087046Y-17345474D01*
X47229709Y-17811302D02*
X47265450Y-17868183D01*
X47734549Y-17868183D02*
X47770290Y-17811302D01*
X45992478Y-17513267D02*
X46000000Y-17580024D01*
X46065450Y-17868183D02*
X46112953Y-17915686D01*
X46000000Y-17580024D02*
X46000000Y-17681137D01*
X48033243Y-17287545D02*
X48100000Y-17280024D01*
X46487046Y-17915686D02*
X46534549Y-17868183D01*
X46000000Y-17681137D02*
X46007521Y-17747893D01*
X46112953Y-17915686D02*
X46169834Y-17951427D01*
X46233243Y-17973615D02*
X46300000Y-17981137D01*
X46300000Y-17981137D02*
X46366756Y-17973615D01*
X46600000Y-17681137D02*
X46600000Y-17580024D01*
X46570290Y-17811302D02*
X46592478Y-17747893D01*
X46592478Y-17747893D02*
X46600000Y-17681137D01*
X47792478Y-17747893D02*
X47800000Y-17681137D01*
X46600000Y-17580024D02*
X46607521Y-17513267D01*
X46607521Y-17513267D02*
X46629709Y-17449858D01*
X46712953Y-17345474D02*
X46769834Y-17309733D01*
X47630165Y-17951427D02*
X47687046Y-17915686D01*
X47969834Y-17309733D02*
X48033243Y-17287545D01*
X46833243Y-17287545D02*
X46900000Y-17280024D01*
X46966756Y-17287545D02*
X47030165Y-17309733D01*
X47087046Y-17345474D02*
X47134549Y-17392977D01*
X47134549Y-17392977D02*
X47170290Y-17449858D01*
X47170290Y-17449858D02*
X47192478Y-17513267D01*
X47192478Y-17513267D02*
X47200000Y-17580024D01*
X47200000Y-17580024D02*
X47200000Y-17681137D01*
X47200000Y-17681137D02*
X47207521Y-17747893D01*
X47207521Y-17747893D02*
X47229709Y-17811302D01*
X47265450Y-17868183D02*
X47312953Y-17915686D01*
X47312953Y-17915686D02*
X47369834Y-17951427D01*
X47369834Y-17951427D02*
X47433243Y-17973615D01*
X47433243Y-17973615D02*
X47500000Y-17981137D01*
X47500000Y-17981137D02*
X47566756Y-17973615D01*
X47770290Y-17811302D02*
X47792478Y-17747893D01*
X47800000Y-17681137D02*
X47800000Y-17580024D01*
X47807521Y-17513267D02*
X47829709Y-17449858D01*
X47829709Y-17449858D02*
X47865450Y-17392977D01*
X47865450Y-17392977D02*
X47912953Y-17345474D01*
X50053750Y-17280024D02*
X52090000Y-19316274D01*
X52090000Y-22816275D02*
X52523725Y-23250000D01*
X52523725Y-23250000D02*
X52523725Y-24773725D01*
X52523725Y-24773725D02*
X53500000Y-25750000D01*
X53500000Y-25750000D02*
X54400000Y-25750000D01*
X40450000Y-15700000D02*
X40450000Y-15200000D01*
X41077270Y-16327270D02*
X40450000Y-15700000D01*
X44210012Y-13210012D02*
X44210012Y-15487192D01*
X43369934Y-16327270D02*
X41077270Y-16327270D01*
X44210012Y-15487192D02*
X43369934Y-16327270D01*
X43500000Y-11850000D02*
X43500000Y-12500000D01*
X43500000Y-12500000D02*
X44210012Y-13210012D01*
X57762131Y-24387869D02*
X57762132Y-22541147D01*
X58706255Y-21451528D02*
X58763137Y-21415787D01*
X57750000Y-24400000D02*
X57762131Y-24387869D01*
X59127851Y-21499030D02*
X59163592Y-21555912D01*
X59258752Y-21897024D02*
X59306255Y-21944527D01*
X57762132Y-22541147D02*
X58293304Y-22009977D01*
X58293304Y-22009977D02*
X58360060Y-22002456D01*
X59163592Y-21555912D02*
X59185780Y-21619321D01*
X58763137Y-21415787D02*
X58826546Y-21393599D01*
X58360060Y-22002456D02*
X58423469Y-21980268D01*
X58527853Y-21897024D02*
X58563594Y-21840143D01*
X58585782Y-21776734D02*
X58593303Y-21709977D01*
X58423469Y-21980268D02*
X58480350Y-21944527D01*
X58480350Y-21944527D02*
X58527853Y-21897024D01*
X59023467Y-21415787D02*
X59080348Y-21451528D01*
X58826546Y-21393599D02*
X58893302Y-21386077D01*
X58563594Y-21840143D02*
X58585782Y-21776734D01*
X59493301Y-22009977D02*
X60822307Y-22009978D01*
X58623012Y-21555912D02*
X58658753Y-21499031D01*
X58658753Y-21499031D02*
X58706255Y-21451528D01*
X58600824Y-21619321D02*
X58623012Y-21555912D01*
X58593303Y-21709977D02*
X58593302Y-21686078D01*
X58593302Y-21686078D02*
X58600824Y-21619321D01*
X59200823Y-21776734D02*
X59223011Y-21840143D01*
X59193302Y-21709977D02*
X59200823Y-21776734D01*
X58893302Y-21386077D02*
X58960058Y-21393599D01*
X59306255Y-21944527D02*
X59363136Y-21980268D01*
X58960058Y-21393599D02*
X59023467Y-21415787D01*
X59080348Y-21451528D02*
X59127851Y-21499030D01*
X59185780Y-21619321D02*
X59193302Y-21686077D01*
X61212329Y-22400000D02*
X62250000Y-22400000D01*
X59363136Y-21980268D02*
X59426545Y-22002456D01*
X59193302Y-21686077D02*
X59193302Y-21709977D01*
X59223011Y-21840143D02*
X59258752Y-21897024D01*
X59426545Y-22002456D02*
X59493301Y-22009977D01*
X60822307Y-22009978D02*
X61212329Y-22400000D01*
X65092551Y-23389989D02*
X63239989Y-23389989D01*
X63239989Y-23389989D02*
X62250000Y-22400000D01*
X65570010Y-26320010D02*
X65570009Y-23867447D01*
X65570009Y-23867447D02*
X65092551Y-23389989D01*
X66800000Y-26500000D02*
X65750000Y-26500000D01*
X65750000Y-26500000D02*
X65570010Y-26320010D01*
X66800000Y-27150000D02*
X65900000Y-27150000D01*
X63090001Y-23709999D02*
X62250000Y-24550000D01*
X65900000Y-27150000D02*
X65250000Y-26500000D01*
X65250000Y-26500000D02*
X65250000Y-24000000D01*
X65250000Y-24000000D02*
X64959999Y-23709999D01*
X64959999Y-23709999D02*
X63090001Y-23709999D01*
X62250000Y-24550000D02*
X62250000Y-24600000D01*
X61530021Y-23170254D02*
X61530021Y-23880021D01*
X61530021Y-23880021D02*
X62250000Y-24600000D01*
X58250000Y-24400000D02*
X58250000Y-23455961D01*
X58250000Y-23455961D02*
X58082141Y-23288102D01*
X60689754Y-22329987D02*
X61530021Y-23170254D01*
X58082141Y-23288102D02*
X58082141Y-22673700D01*
X58082141Y-22673700D02*
X58425855Y-22329986D01*
X58425855Y-22329986D02*
X60689754Y-22329987D01*
X62250000Y-24134873D02*
X62250000Y-24600000D01*
X33950000Y-21050000D02*
X33700000Y-21300000D01*
X33700000Y-21300000D02*
X33700000Y-21850000D01*
X33950000Y-20250000D02*
X33950000Y-21050000D01*
X37350000Y-30350000D02*
X37350000Y-29600000D01*
X37800000Y-30800000D02*
X37350000Y-30350000D01*
X41600000Y-30800000D02*
X37800000Y-30800000D01*
X42200000Y-30200000D02*
X41600000Y-30800000D01*
X46040000Y-26460000D02*
X44700000Y-27800000D01*
X44700000Y-27800000D02*
X42800000Y-27800000D01*
X42800000Y-27800000D02*
X42200000Y-28400000D01*
X42200000Y-28400000D02*
X42200000Y-30200000D01*
X46040000Y-25840000D02*
X46040000Y-26460000D01*
X60562598Y-23437402D02*
X60890001Y-23764805D01*
X60890002Y-24342564D02*
X61079990Y-24532552D01*
X60890001Y-23764805D02*
X60890002Y-24342564D01*
X60850000Y-25750000D02*
X60100000Y-25750000D01*
X61079990Y-24532552D02*
X61079990Y-25520010D01*
X61079990Y-25520010D02*
X60850000Y-25750000D01*
X35800000Y-24000000D02*
X35800000Y-24400000D01*
X35800000Y-24400000D02*
X35714723Y-24485277D01*
X35714723Y-24485277D02*
X35714723Y-24885277D01*
X35550000Y-25050000D02*
X35550000Y-25600000D01*
X35714723Y-24885277D02*
X35550000Y-25050000D01*
X41150000Y-10500000D02*
X40500000Y-10500000D01*
X40500000Y-10500000D02*
X40089262Y-10910738D01*
X40089262Y-10910738D02*
X40089262Y-11446421D01*
X30800000Y-14750000D02*
X29637641Y-14750000D01*
X29637641Y-14750000D02*
X29047726Y-15339915D01*
X30800000Y-14750000D02*
X30800000Y-13500000D01*
X29047726Y-15339915D02*
X29187641Y-15200000D01*
X23950000Y-17750000D02*
X25850236Y-17750000D01*
X25850236Y-17750000D02*
X26100236Y-18000000D01*
X26100236Y-18000000D02*
X27500000Y-18000000D01*
X27500000Y-18000000D02*
X27938771Y-18438771D01*
X27938771Y-18438771D02*
X29938771Y-18438771D01*
X29938771Y-18438771D02*
X30250000Y-18750000D01*
X30250000Y-18750000D02*
X30800000Y-18750000D01*
X30800000Y-18750000D02*
X30800000Y-17500000D01*
D52*
X38250000Y-16750000D02*
X38250000Y-18150000D01*
X38250000Y-18150000D02*
X38650000Y-18550000D01*
X37500000Y-16000000D02*
X38250000Y-16750000D01*
X36700000Y-16000000D02*
X37500000Y-16000000D01*
D51*
X39750000Y-20250000D02*
X39750000Y-19500000D01*
X39750000Y-19500000D02*
X39750000Y-18750000D01*
X39550000Y-18550000D02*
X38650000Y-18550000D01*
X39750000Y-18750000D02*
X39550000Y-18550000D01*
D52*
X41950000Y-19500000D02*
X39750000Y-19500000D01*
X42500000Y-20050000D02*
X41950000Y-19500000D01*
D51*
X39550000Y-20450000D02*
X39750000Y-20250000D01*
X38650000Y-20450000D02*
X39550000Y-20450000D01*
D50*
X49000000Y-29250000D02*
X48250000Y-29250000D01*
X48250000Y-29250000D02*
X47710009Y-28710009D01*
X47710009Y-28710009D02*
X47710009Y-25210009D01*
X47710009Y-25210009D02*
X47000000Y-24500000D01*
X45600000Y-24500000D02*
X44600000Y-23500000D01*
X44260009Y-22060009D02*
X43739991Y-22060009D01*
X47000000Y-24500000D02*
X45600000Y-24500000D01*
X44600000Y-23500000D02*
X44600000Y-22400000D01*
X44600000Y-22400000D02*
X44260009Y-22060009D01*
X43739991Y-22060009D02*
X43250000Y-22550000D01*
X43250000Y-22550000D02*
X42800000Y-22550000D01*
X53349188Y-7800000D02*
X53299188Y-7750000D01*
X56800000Y-8100000D02*
X53649188Y-8100000D01*
X53649188Y-8100000D02*
X53349188Y-7800000D01*
X57400000Y-7500000D02*
X56800000Y-8100000D01*
X58900000Y-7500000D02*
X57400000Y-7500000D01*
X59968169Y-8568169D02*
X58900000Y-7500000D01*
X59968169Y-9331831D02*
X59968169Y-8568169D01*
X49450000Y-29250000D02*
X49859993Y-28840007D01*
X49859993Y-28840007D02*
X50000000Y-28840007D01*
X49000000Y-29250000D02*
X49450000Y-29250000D01*
X53299188Y-7750000D02*
X53299188Y-7249188D01*
X53299188Y-7249188D02*
X52300000Y-6250000D01*
X33700000Y-22500000D02*
X34122268Y-22500000D01*
X34122268Y-22500000D02*
X34824416Y-23202148D01*
X34824416Y-23202148D02*
X34824416Y-24024816D01*
X34824416Y-24024816D02*
X34400000Y-24449232D01*
X34400000Y-24449232D02*
X34400000Y-24750000D01*
X34400000Y-24750000D02*
X34650000Y-25000000D01*
X34650000Y-25000000D02*
X34650000Y-25600000D01*
X33400000Y-25600000D02*
X33250000Y-25750000D01*
X33250000Y-25750000D02*
X32450000Y-25750000D01*
X34650000Y-25600000D02*
X33400000Y-25600000D01*
X49000000Y-30350000D02*
X47650000Y-30350000D01*
X47650000Y-30350000D02*
X46800000Y-31200000D01*
X36450000Y-30450000D02*
X36450000Y-29600000D01*
X46800000Y-31200000D02*
X42105110Y-31200000D01*
X42105110Y-31200000D02*
X41865102Y-31440008D01*
X37440008Y-31440008D02*
X36450000Y-30450000D01*
X41865102Y-31440008D02*
X37440008Y-31440008D01*
X49000000Y-30350000D02*
X49450000Y-30350000D01*
X49450000Y-30350000D02*
X50000000Y-29800000D01*
X50000000Y-29800000D02*
X50000000Y-29600000D01*
X51200000Y-6250000D02*
X51200000Y-6400000D01*
X51200000Y-6400000D02*
X50500000Y-7100000D01*
X38000000Y-27150000D02*
X39250000Y-27150000D01*
X39250000Y-27150000D02*
X39400000Y-27000000D01*
X42200000Y-25200000D02*
X42200000Y-26996324D01*
X42200000Y-26996324D02*
X42198162Y-26998162D01*
X42800000Y-24600000D02*
X42200000Y-25200000D01*
X42800000Y-23450000D02*
X42800000Y-24600000D01*
X36000000Y-25600000D02*
X36000000Y-25052562D01*
X36000000Y-25052562D02*
X36034732Y-25017830D01*
X36034732Y-25017830D02*
X36034732Y-24765268D01*
X36800000Y-24000000D02*
X37400000Y-24000000D01*
X36034732Y-24765268D02*
X36800000Y-24000000D01*
X37400000Y-24000000D02*
X39000000Y-25600000D01*
X39000000Y-25600000D02*
X40100000Y-25600000D01*
X40100000Y-25600000D02*
X40960000Y-26460000D01*
X41200000Y-24200000D02*
X40960000Y-24440000D01*
X40960000Y-24440000D02*
X40960000Y-26460000D01*
X41200000Y-23250000D02*
X41200000Y-24200000D01*
X37350000Y-25600000D02*
X38000000Y-25600000D01*
X38000000Y-25600000D02*
X38118162Y-25481838D01*
X38250000Y-23200000D02*
X38250000Y-23984016D01*
X38250000Y-23984016D02*
X39325984Y-25060000D01*
X38250000Y-23200000D02*
X38182552Y-23132552D01*
X39750000Y-23200000D02*
X38250000Y-23200000D01*
X36900000Y-25600000D02*
X36900000Y-24721838D01*
X36900000Y-24721838D02*
X37081838Y-24540000D01*
X32450000Y-30500000D02*
X33049072Y-30500000D01*
X33049072Y-30500000D02*
X33199071Y-30350001D01*
X32450000Y-29050000D02*
X32450000Y-30500000D01*
X38000000Y-26250000D02*
X39290000Y-26250000D01*
X39290000Y-26250000D02*
X39400000Y-26140000D01*
X60100000Y-25250000D02*
X60100000Y-24663676D01*
X60100000Y-24663676D02*
X60281838Y-24481838D01*
X35100000Y-25600000D02*
X35100000Y-24661264D01*
X35100000Y-24661264D02*
X35174722Y-24586542D01*
X41150000Y-11000000D02*
X41150000Y-11600000D01*
X41150000Y-11600000D02*
X41000000Y-11750000D01*
X45550000Y-22550000D02*
X45500000Y-22600000D01*
X45550000Y-22000000D02*
X45550000Y-22550000D01*
X45550000Y-22650000D02*
X45500000Y-22600000D01*
X45550000Y-23400000D02*
X45550000Y-22650000D01*
X56750000Y-24400000D02*
X56750000Y-22036217D01*
X56750000Y-22036217D02*
X56822434Y-21963783D01*
X45000000Y-16250000D02*
X46000000Y-16250000D01*
X44530023Y-15780023D02*
X45000000Y-16250000D01*
X44530023Y-11880023D02*
X44530023Y-15780023D01*
X44500000Y-11850000D02*
X44530023Y-11880023D01*
X50750000Y-20950000D02*
X50400000Y-20600000D01*
X50400000Y-20600000D02*
X49450000Y-20600000D01*
X50750000Y-22800000D02*
X50750000Y-25250000D01*
X50750000Y-22500000D02*
X50750000Y-22800000D01*
X50750000Y-22800000D02*
X50750000Y-20950000D01*
X49950000Y-22500000D02*
X50750000Y-22500000D01*
X50750000Y-25250000D02*
X50825000Y-25325000D01*
X50825000Y-25325000D02*
X50825000Y-26225000D01*
X38000000Y-28050000D02*
X39150000Y-28050000D01*
X39150000Y-28050000D02*
X39400000Y-27800000D01*
X44000000Y-23800000D02*
X44000000Y-24260010D01*
X44000000Y-24260010D02*
X44600000Y-24860010D01*
X44000000Y-22600000D02*
X44000000Y-23800000D01*
X41165868Y-13650100D02*
X41165868Y-14084132D01*
X41165868Y-14084132D02*
X41150000Y-14100000D01*
X39000000Y-29200000D02*
X39399188Y-29200000D01*
X39399188Y-29200000D02*
X39800000Y-28799188D01*
X39800000Y-28799188D02*
X39800000Y-28200000D01*
X39800000Y-28200000D02*
X40200000Y-27800000D01*
X42160000Y-27800000D02*
X43500000Y-26460000D01*
X40200000Y-27800000D02*
X42160000Y-27800000D01*
X39000000Y-29199188D02*
X39000000Y-29200000D01*
X38750812Y-28950000D02*
X39000000Y-29199188D01*
X38000000Y-28950000D02*
X38750812Y-28950000D01*
X36900000Y-29600000D02*
X36900000Y-30352548D01*
X36900000Y-30352548D02*
X37667452Y-31120000D01*
X37667452Y-31120000D02*
X41732549Y-31119999D01*
X41732549Y-31119999D02*
X43500000Y-29352548D01*
X43500000Y-29352548D02*
X43500000Y-29000000D01*
X31700000Y-17500000D02*
X32750000Y-17500000D01*
X32480010Y-17519990D02*
X32500000Y-17500000D01*
X32500000Y-17500000D02*
X32750000Y-17500000D01*
X33359990Y-28798808D02*
X33359990Y-29559990D01*
X33658798Y-28500000D02*
X33359990Y-28798808D01*
X34000000Y-28500000D02*
X33658798Y-28500000D01*
X33359990Y-29559990D02*
X33400000Y-29600000D01*
X32800000Y-8000000D02*
X32800000Y-9400000D01*
X31700000Y-13500000D02*
X31950000Y-13250000D01*
X31950000Y-13250000D02*
X33500000Y-13250000D01*
X33500000Y-13250000D02*
X33750000Y-13000000D01*
X32800000Y-11800000D02*
X32800000Y-12050000D01*
X32800000Y-12050000D02*
X33750000Y-13000000D01*
X34000000Y-28950000D02*
X34080347Y-29030347D01*
X34080347Y-29030347D02*
X34080347Y-29994389D01*
X34080347Y-29994389D02*
X33930646Y-30144090D01*
X31700000Y-18750000D02*
X32246726Y-18750000D01*
X32246726Y-18750000D02*
X32499591Y-18497135D01*
X35100000Y-29600000D02*
X35100000Y-30540000D01*
X35100000Y-30540000D02*
X35000000Y-30640000D01*
X31700000Y-14750000D02*
X31790000Y-14750000D01*
X31790000Y-14750000D02*
X32750000Y-13790000D01*
X31700000Y-14750000D02*
X31789900Y-14750000D01*
X36000000Y-29600000D02*
X36000000Y-30400003D01*
X36000000Y-30400003D02*
X35760003Y-30640000D01*
D53*
G36*
X67375000Y-13500000D02*
X67384515Y-13547835D01*
X67411612Y-13588388D01*
X67452165Y-13615485D01*
X67500000Y-13625000D01*
X70375000Y-13625000D01*
X70375000Y-22167581D01*
X70348528Y-22127963D01*
X69959220Y-21867836D01*
X69500000Y-21776491D01*
X69040780Y-21867836D01*
X68651472Y-22127963D01*
X68391345Y-22517271D01*
X68300000Y-22976491D01*
X68300000Y-23023509D01*
X68391345Y-23482729D01*
X68651472Y-23872037D01*
X69040780Y-24132164D01*
X69500000Y-24223509D01*
X69959220Y-24132164D01*
X70348528Y-23872037D01*
X70375000Y-23832419D01*
X70375000Y-29167581D01*
X70348528Y-29127963D01*
X69959220Y-28867836D01*
X69500000Y-28776491D01*
X69040780Y-28867836D01*
X68651472Y-29127963D01*
X68391345Y-29517271D01*
X68300000Y-29976491D01*
X68300000Y-30023509D01*
X68391345Y-30482729D01*
X68651472Y-30872037D01*
X69040780Y-31132164D01*
X69500000Y-31223509D01*
X69959220Y-31132164D01*
X70348528Y-30872037D01*
X70375000Y-30832419D01*
X70375000Y-31375000D01*
X57791740Y-31375000D01*
X58107089Y-31059651D01*
X58118570Y-31042469D01*
X58250000Y-31068612D01*
X58470043Y-31024843D01*
X58500000Y-31004826D01*
X58529957Y-31024843D01*
X58750000Y-31068612D01*
X58970043Y-31024843D01*
X59000000Y-31004826D01*
X59029957Y-31024843D01*
X59250000Y-31068612D01*
X59470043Y-31024843D01*
X59656586Y-30900198D01*
X59781231Y-30713655D01*
X59825000Y-30493612D01*
X59825000Y-30487250D01*
X60817000Y-30487250D01*
X60817000Y-30625911D01*
X60913368Y-30858565D01*
X61091434Y-31036631D01*
X61324088Y-31133000D01*
X61462750Y-31133000D01*
X61621000Y-30974750D01*
X61621000Y-30329000D01*
X61879000Y-30329000D01*
X61879000Y-30974750D01*
X62037250Y-31133000D01*
X62175912Y-31133000D01*
X62375000Y-31050535D01*
X62574088Y-31133000D01*
X62712750Y-31133000D01*
X62871000Y-30974750D01*
X62871000Y-30329000D01*
X63129000Y-30329000D01*
X63129000Y-30974750D01*
X63287250Y-31133000D01*
X63425912Y-31133000D01*
X63625000Y-31050535D01*
X63824088Y-31133000D01*
X63962750Y-31133000D01*
X64121000Y-30974750D01*
X64121000Y-30329000D01*
X64379000Y-30329000D01*
X64379000Y-30974750D01*
X64537250Y-31133000D01*
X64675912Y-31133000D01*
X64908566Y-31036631D01*
X65086632Y-30858565D01*
X65183000Y-30625911D01*
X65183000Y-30487250D01*
X65024750Y-30329000D01*
X64379000Y-30329000D01*
X64121000Y-30329000D01*
X63129000Y-30329000D01*
X62871000Y-30329000D01*
X61879000Y-30329000D01*
X61621000Y-30329000D01*
X60975250Y-30329000D01*
X60817000Y-30487250D01*
X59825000Y-30487250D01*
X59825000Y-29825000D01*
X60493612Y-29825000D01*
X60713655Y-29781231D01*
X60852458Y-29688485D01*
X60817000Y-29774089D01*
X60817000Y-29912750D01*
X60975250Y-30071000D01*
X61621000Y-30071000D01*
X61621000Y-30051000D01*
X61879000Y-30051000D01*
X61879000Y-30071000D01*
X62871000Y-30071000D01*
X62871000Y-30051000D01*
X63129000Y-30051000D01*
X63129000Y-30071000D01*
X64121000Y-30071000D01*
X64121000Y-30051000D01*
X64379000Y-30051000D01*
X64379000Y-30071000D01*
X65024750Y-30071000D01*
X65183000Y-29912750D01*
X65183000Y-29774089D01*
X65086632Y-29541435D01*
X64983326Y-29438129D01*
X64983326Y-29000000D01*
X64950341Y-28834173D01*
X64856408Y-28693592D01*
X64755000Y-28625834D01*
X64755000Y-28500000D01*
X64732861Y-28388700D01*
X64858565Y-28336632D01*
X65036631Y-28158566D01*
X65133000Y-27925912D01*
X65133000Y-27889152D01*
X65485790Y-28241942D01*
X65688555Y-28377425D01*
X65927732Y-28425000D01*
X65931898Y-28425000D01*
X65829926Y-28577611D01*
X65750000Y-28979429D01*
X65750000Y-29020571D01*
X65829926Y-29422389D01*
X66057538Y-29763033D01*
X66398182Y-29990645D01*
X66800000Y-30070571D01*
X67201818Y-29990645D01*
X67542462Y-29763033D01*
X67770074Y-29422389D01*
X67850000Y-29020571D01*
X67850000Y-28979429D01*
X67770074Y-28577611D01*
X67648292Y-28395353D01*
X67781408Y-28306408D01*
X67875341Y-28165827D01*
X67908326Y-28000000D01*
X67908326Y-27600000D01*
X67883462Y-27475000D01*
X67908326Y-27350000D01*
X67908326Y-26950000D01*
X67883462Y-26825000D01*
X67908326Y-26700000D01*
X67908326Y-26300000D01*
X67883462Y-26175000D01*
X67908326Y-26050000D01*
X67908326Y-25861871D01*
X68011632Y-25758565D01*
X68108000Y-25525911D01*
X68108000Y-25458250D01*
X67949750Y-25300000D01*
X67716168Y-25300000D01*
X67640827Y-25249659D01*
X67475000Y-25216674D01*
X66651000Y-25216674D01*
X66651000Y-25100000D01*
X66671000Y-25100000D01*
X66671000Y-25051000D01*
X66701611Y-25051000D01*
X66800000Y-25070571D01*
X66898389Y-25051000D01*
X66929000Y-25051000D01*
X66929000Y-25100000D01*
X67949750Y-25100000D01*
X68108000Y-24941750D01*
X68108000Y-24874089D01*
X68011632Y-24641435D01*
X67833566Y-24463369D01*
X67762391Y-24433887D01*
X67770074Y-24422389D01*
X67850000Y-24020571D01*
X67850000Y-23979429D01*
X67770074Y-23577611D01*
X67542462Y-23236967D01*
X67201818Y-23009355D01*
X66800000Y-22929429D01*
X66398182Y-23009355D01*
X66057538Y-23236967D01*
X65895786Y-23479046D01*
X65449640Y-23032900D01*
X65285806Y-22923430D01*
X65133000Y-22893035D01*
X65133000Y-22687250D01*
X64974750Y-22529000D01*
X64079000Y-22529000D01*
X64079000Y-22549000D01*
X63821000Y-22549000D01*
X63821000Y-22529000D01*
X63801000Y-22529000D01*
X63801000Y-22271000D01*
X63821000Y-22271000D01*
X63821000Y-21275250D01*
X64079000Y-21275250D01*
X64079000Y-22271000D01*
X64974750Y-22271000D01*
X65133000Y-22112750D01*
X65133000Y-21624089D01*
X65036632Y-21391435D01*
X64858566Y-21213369D01*
X64625912Y-21117000D01*
X64237250Y-21117000D01*
X64079000Y-21275250D01*
X63821000Y-21275250D01*
X63662750Y-21117000D01*
X63274088Y-21117000D01*
X63041434Y-21213369D01*
X62889396Y-21365407D01*
X62865827Y-21349659D01*
X62700000Y-21316674D01*
X61800000Y-21316674D01*
X61634173Y-21349659D01*
X61493592Y-21443592D01*
X61399659Y-21584173D01*
X61366674Y-21750000D01*
X61366674Y-21840167D01*
X61179396Y-21652889D01*
X61015562Y-21543419D01*
X60822307Y-21504978D01*
X59669845Y-21504977D01*
X59662441Y-21452529D01*
X59640253Y-21389120D01*
X59611423Y-21340247D01*
X59591189Y-21287238D01*
X59555448Y-21230356D01*
X59516462Y-21189119D01*
X59484936Y-21141938D01*
X59437433Y-21094435D01*
X59390256Y-21062913D01*
X59349026Y-21023933D01*
X59292145Y-20988192D01*
X59239134Y-20967957D01*
X59190260Y-20939126D01*
X59126850Y-20916938D01*
X59070663Y-20909006D01*
X59016603Y-20891775D01*
X58949847Y-20884253D01*
X58893301Y-20889022D01*
X58836756Y-20884253D01*
X58770001Y-20891775D01*
X58715941Y-20909006D01*
X58659754Y-20916938D01*
X58596345Y-20939126D01*
X58547472Y-20967956D01*
X58494463Y-20988190D01*
X58437581Y-21023931D01*
X58396344Y-21062917D01*
X58349163Y-21094443D01*
X58301660Y-21141946D01*
X58270138Y-21189123D01*
X58231158Y-21230353D01*
X58195417Y-21287234D01*
X58175182Y-21340245D01*
X58146351Y-21389119D01*
X58124163Y-21452529D01*
X58116231Y-21508717D01*
X58105517Y-21542331D01*
X58100050Y-21543418D01*
X58076276Y-21559303D01*
X58049030Y-21567987D01*
X57995003Y-21613608D01*
X57936216Y-21652888D01*
X57547366Y-22041735D01*
X57547560Y-21820204D01*
X57437418Y-21553640D01*
X57233650Y-21349516D01*
X56967278Y-21238909D01*
X56678855Y-21238657D01*
X56412291Y-21348799D01*
X56237482Y-21523304D01*
X56107089Y-21392911D01*
X55943255Y-21283441D01*
X55750000Y-21245000D01*
X55673898Y-21245000D01*
X56175572Y-21037712D01*
X56745710Y-20468568D01*
X57054648Y-19724565D01*
X57054651Y-19721030D01*
X58684649Y-19721030D01*
X58992288Y-20465572D01*
X59561432Y-21035710D01*
X60305435Y-21344648D01*
X61111030Y-21345351D01*
X61855572Y-21037712D01*
X62425710Y-20468568D01*
X62734648Y-19724565D01*
X62735351Y-18918970D01*
X62427712Y-18174428D01*
X61858568Y-17604290D01*
X61114565Y-17295352D01*
X60308970Y-17294649D01*
X59564428Y-17602288D01*
X58994290Y-18171432D01*
X58685352Y-18915435D01*
X58684649Y-19721030D01*
X57054651Y-19721030D01*
X57055351Y-18918970D01*
X56747712Y-18174428D01*
X56178568Y-17604290D01*
X56006676Y-17532914D01*
X56186143Y-17458760D01*
X56587351Y-17058251D01*
X56689984Y-16811084D01*
X56791240Y-17056143D01*
X57191749Y-17457351D01*
X57715307Y-17674752D01*
X58282206Y-17675246D01*
X58806143Y-17458760D01*
X59207351Y-17058251D01*
X59424752Y-16534693D01*
X59425246Y-15967794D01*
X59208760Y-15443857D01*
X58808251Y-15042649D01*
X58314112Y-14837464D01*
X58636429Y-14704285D01*
X58953172Y-14388093D01*
X59124804Y-13974758D01*
X59125195Y-13527205D01*
X58954285Y-13113571D01*
X58638093Y-12796828D01*
X58525554Y-12750098D01*
X58636429Y-12704285D01*
X58953172Y-12388093D01*
X59124804Y-11974758D01*
X59125195Y-11527205D01*
X58954285Y-11113571D01*
X58638093Y-10796828D01*
X58616420Y-10787828D01*
X58787651Y-10716902D01*
X58894383Y-10462581D01*
X58000000Y-9568198D01*
X57105617Y-10462581D01*
X57212349Y-10716902D01*
X57408974Y-10776955D01*
X57363571Y-10795715D01*
X57046828Y-11111907D01*
X56875196Y-11525242D01*
X56874805Y-11972795D01*
X57045715Y-12386429D01*
X57361907Y-12703172D01*
X57474446Y-12749902D01*
X57363571Y-12795715D01*
X57046828Y-13111907D01*
X56875196Y-13525242D01*
X56874805Y-13972795D01*
X57045715Y-14386429D01*
X57361907Y-14703172D01*
X57686173Y-14837819D01*
X57193857Y-15041240D01*
X56792649Y-15441749D01*
X56690016Y-15688916D01*
X56588760Y-15443857D01*
X56188251Y-15042649D01*
X55694112Y-14837464D01*
X56016429Y-14704285D01*
X56333172Y-14388093D01*
X56504804Y-13974758D01*
X56505195Y-13527205D01*
X56334285Y-13113571D01*
X56018093Y-12796828D01*
X55905554Y-12750098D01*
X56016429Y-12704285D01*
X56333172Y-12388093D01*
X56504804Y-11974758D01*
X56505195Y-11527205D01*
X56334285Y-11113571D01*
X56018093Y-10796828D01*
X55605002Y-10625297D01*
X55605002Y-10522789D01*
X55828556Y-10659509D01*
X56349032Y-10457098D01*
X56709741Y-10111783D01*
X56787419Y-10144383D01*
X57681802Y-9250000D01*
X57667660Y-9235858D01*
X57985858Y-8917660D01*
X58000000Y-8931802D01*
X58014143Y-8917660D01*
X58332341Y-9235858D01*
X58318198Y-9250000D01*
X59212581Y-10144383D01*
X59466902Y-10037651D01*
X59509410Y-9898472D01*
X59556953Y-9946098D01*
X59823325Y-10056705D01*
X60111748Y-10056957D01*
X60378312Y-9946815D01*
X60582436Y-9743047D01*
X60693043Y-9476675D01*
X60693295Y-9188252D01*
X60583153Y-8921688D01*
X60473169Y-8811512D01*
X60473169Y-8568169D01*
X60434728Y-8374914D01*
X60325258Y-8211080D01*
X60318838Y-8204660D01*
X61111030Y-8205351D01*
X61855572Y-7897712D01*
X62425710Y-7328568D01*
X62734648Y-6584565D01*
X62735351Y-5778970D01*
X62427712Y-5034428D01*
X62018998Y-4625000D01*
X67375000Y-4625000D01*
X67375000Y-13500000D01*
X67375000Y-13500000D01*
G37*
X67375000Y-13500000D02*
X67384515Y-13547835D01*
X67411612Y-13588388D01*
X67452165Y-13615485D01*
X67500000Y-13625000D01*
X70375000Y-13625000D01*
X70375000Y-22167581D01*
X70348528Y-22127963D01*
X69959220Y-21867836D01*
X69500000Y-21776491D01*
X69040780Y-21867836D01*
X68651472Y-22127963D01*
X68391345Y-22517271D01*
X68300000Y-22976491D01*
X68300000Y-23023509D01*
X68391345Y-23482729D01*
X68651472Y-23872037D01*
X69040780Y-24132164D01*
X69500000Y-24223509D01*
X69959220Y-24132164D01*
X70348528Y-23872037D01*
X70375000Y-23832419D01*
X70375000Y-29167581D01*
X70348528Y-29127963D01*
X69959220Y-28867836D01*
X69500000Y-28776491D01*
X69040780Y-28867836D01*
X68651472Y-29127963D01*
X68391345Y-29517271D01*
X68300000Y-29976491D01*
X68300000Y-30023509D01*
X68391345Y-30482729D01*
X68651472Y-30872037D01*
X69040780Y-31132164D01*
X69500000Y-31223509D01*
X69959220Y-31132164D01*
X70348528Y-30872037D01*
X70375000Y-30832419D01*
X70375000Y-31375000D01*
X57791740Y-31375000D01*
X58107089Y-31059651D01*
X58118570Y-31042469D01*
X58250000Y-31068612D01*
X58470043Y-31024843D01*
X58500000Y-31004826D01*
X58529957Y-31024843D01*
X58750000Y-31068612D01*
X58970043Y-31024843D01*
X59000000Y-31004826D01*
X59029957Y-31024843D01*
X59250000Y-31068612D01*
X59470043Y-31024843D01*
X59656586Y-30900198D01*
X59781231Y-30713655D01*
X59825000Y-30493612D01*
X59825000Y-30487250D01*
X60817000Y-30487250D01*
X60817000Y-30625911D01*
X60913368Y-30858565D01*
X61091434Y-31036631D01*
X61324088Y-31133000D01*
X61462750Y-31133000D01*
X61621000Y-30974750D01*
X61621000Y-30329000D01*
X61879000Y-30329000D01*
X61879000Y-30974750D01*
X62037250Y-31133000D01*
X62175912Y-31133000D01*
X62375000Y-31050535D01*
X62574088Y-31133000D01*
X62712750Y-31133000D01*
X62871000Y-30974750D01*
X62871000Y-30329000D01*
X63129000Y-30329000D01*
X63129000Y-30974750D01*
X63287250Y-31133000D01*
X63425912Y-31133000D01*
X63625000Y-31050535D01*
X63824088Y-31133000D01*
X63962750Y-31133000D01*
X64121000Y-30974750D01*
X64121000Y-30329000D01*
X64379000Y-30329000D01*
X64379000Y-30974750D01*
X64537250Y-31133000D01*
X64675912Y-31133000D01*
X64908566Y-31036631D01*
X65086632Y-30858565D01*
X65183000Y-30625911D01*
X65183000Y-30487250D01*
X65024750Y-30329000D01*
X64379000Y-30329000D01*
X64121000Y-30329000D01*
X63129000Y-30329000D01*
X62871000Y-30329000D01*
X61879000Y-30329000D01*
X61621000Y-30329000D01*
X60975250Y-30329000D01*
X60817000Y-30487250D01*
X59825000Y-30487250D01*
X59825000Y-29825000D01*
X60493612Y-29825000D01*
X60713655Y-29781231D01*
X60852458Y-29688485D01*
X60817000Y-29774089D01*
X60817000Y-29912750D01*
X60975250Y-30071000D01*
X61621000Y-30071000D01*
X61621000Y-30051000D01*
X61879000Y-30051000D01*
X61879000Y-30071000D01*
X62871000Y-30071000D01*
X62871000Y-30051000D01*
X63129000Y-30051000D01*
X63129000Y-30071000D01*
X64121000Y-30071000D01*
X64121000Y-30051000D01*
X64379000Y-30051000D01*
X64379000Y-30071000D01*
X65024750Y-30071000D01*
X65183000Y-29912750D01*
X65183000Y-29774089D01*
X65086632Y-29541435D01*
X64983326Y-29438129D01*
X64983326Y-29000000D01*
X64950341Y-28834173D01*
X64856408Y-28693592D01*
X64755000Y-28625834D01*
X64755000Y-28500000D01*
X64732861Y-28388700D01*
X64858565Y-28336632D01*
X65036631Y-28158566D01*
X65133000Y-27925912D01*
X65133000Y-27889152D01*
X65485790Y-28241942D01*
X65688555Y-28377425D01*
X65927732Y-28425000D01*
X65931898Y-28425000D01*
X65829926Y-28577611D01*
X65750000Y-28979429D01*
X65750000Y-29020571D01*
X65829926Y-29422389D01*
X66057538Y-29763033D01*
X66398182Y-29990645D01*
X66800000Y-30070571D01*
X67201818Y-29990645D01*
X67542462Y-29763033D01*
X67770074Y-29422389D01*
X67850000Y-29020571D01*
X67850000Y-28979429D01*
X67770074Y-28577611D01*
X67648292Y-28395353D01*
X67781408Y-28306408D01*
X67875341Y-28165827D01*
X67908326Y-28000000D01*
X67908326Y-27600000D01*
X67883462Y-27475000D01*
X67908326Y-27350000D01*
X67908326Y-26950000D01*
X67883462Y-26825000D01*
X67908326Y-26700000D01*
X67908326Y-26300000D01*
X67883462Y-26175000D01*
X67908326Y-26050000D01*
X67908326Y-25861871D01*
X68011632Y-25758565D01*
X68108000Y-25525911D01*
X68108000Y-25458250D01*
X67949750Y-25300000D01*
X67716168Y-25300000D01*
X67640827Y-25249659D01*
X67475000Y-25216674D01*
X66651000Y-25216674D01*
X66651000Y-25100000D01*
X66671000Y-25100000D01*
X66671000Y-25051000D01*
X66701611Y-25051000D01*
X66800000Y-25070571D01*
X66898389Y-25051000D01*
X66929000Y-25051000D01*
X66929000Y-25100000D01*
X67949750Y-25100000D01*
X68108000Y-24941750D01*
X68108000Y-24874089D01*
X68011632Y-24641435D01*
X67833566Y-24463369D01*
X67762391Y-24433887D01*
X67770074Y-24422389D01*
X67850000Y-24020571D01*
X67850000Y-23979429D01*
X67770074Y-23577611D01*
X67542462Y-23236967D01*
X67201818Y-23009355D01*
X66800000Y-22929429D01*
X66398182Y-23009355D01*
X66057538Y-23236967D01*
X65895786Y-23479046D01*
X65449640Y-23032900D01*
X65285806Y-22923430D01*
X65133000Y-22893035D01*
X65133000Y-22687250D01*
X64974750Y-22529000D01*
X64079000Y-22529000D01*
X64079000Y-22549000D01*
X63821000Y-22549000D01*
X63821000Y-22529000D01*
X63801000Y-22529000D01*
X63801000Y-22271000D01*
X63821000Y-22271000D01*
X63821000Y-21275250D01*
X64079000Y-21275250D01*
X64079000Y-22271000D01*
X64974750Y-22271000D01*
X65133000Y-22112750D01*
X65133000Y-21624089D01*
X65036632Y-21391435D01*
X64858566Y-21213369D01*
X64625912Y-21117000D01*
X64237250Y-21117000D01*
X64079000Y-21275250D01*
X63821000Y-21275250D01*
X63662750Y-21117000D01*
X63274088Y-21117000D01*
X63041434Y-21213369D01*
X62889396Y-21365407D01*
X62865827Y-21349659D01*
X62700000Y-21316674D01*
X61800000Y-21316674D01*
X61634173Y-21349659D01*
X61493592Y-21443592D01*
X61399659Y-21584173D01*
X61366674Y-21750000D01*
X61366674Y-21840167D01*
X61179396Y-21652889D01*
X61015562Y-21543419D01*
X60822307Y-21504978D01*
X59669845Y-21504977D01*
X59662441Y-21452529D01*
X59640253Y-21389120D01*
X59611423Y-21340247D01*
X59591189Y-21287238D01*
X59555448Y-21230356D01*
X59516462Y-21189119D01*
X59484936Y-21141938D01*
X59437433Y-21094435D01*
X59390256Y-21062913D01*
X59349026Y-21023933D01*
X59292145Y-20988192D01*
X59239134Y-20967957D01*
X59190260Y-20939126D01*
X59126850Y-20916938D01*
X59070663Y-20909006D01*
X59016603Y-20891775D01*
X58949847Y-20884253D01*
X58893301Y-20889022D01*
X58836756Y-20884253D01*
X58770001Y-20891775D01*
X58715941Y-20909006D01*
X58659754Y-20916938D01*
X58596345Y-20939126D01*
X58547472Y-20967956D01*
X58494463Y-20988190D01*
X58437581Y-21023931D01*
X58396344Y-21062917D01*
X58349163Y-21094443D01*
X58301660Y-21141946D01*
X58270138Y-21189123D01*
X58231158Y-21230353D01*
X58195417Y-21287234D01*
X58175182Y-21340245D01*
X58146351Y-21389119D01*
X58124163Y-21452529D01*
X58116231Y-21508717D01*
X58105517Y-21542331D01*
X58100050Y-21543418D01*
X58076276Y-21559303D01*
X58049030Y-21567987D01*
X57995003Y-21613608D01*
X57936216Y-21652888D01*
X57547366Y-22041735D01*
X57547560Y-21820204D01*
X57437418Y-21553640D01*
X57233650Y-21349516D01*
X56967278Y-21238909D01*
X56678855Y-21238657D01*
X56412291Y-21348799D01*
X56237482Y-21523304D01*
X56107089Y-21392911D01*
X55943255Y-21283441D01*
X55750000Y-21245000D01*
X55673898Y-21245000D01*
X56175572Y-21037712D01*
X56745710Y-20468568D01*
X57054648Y-19724565D01*
X57054651Y-19721030D01*
X58684649Y-19721030D01*
X58992288Y-20465572D01*
X59561432Y-21035710D01*
X60305435Y-21344648D01*
X61111030Y-21345351D01*
X61855572Y-21037712D01*
X62425710Y-20468568D01*
X62734648Y-19724565D01*
X62735351Y-18918970D01*
X62427712Y-18174428D01*
X61858568Y-17604290D01*
X61114565Y-17295352D01*
X60308970Y-17294649D01*
X59564428Y-17602288D01*
X58994290Y-18171432D01*
X58685352Y-18915435D01*
X58684649Y-19721030D01*
X57054651Y-19721030D01*
X57055351Y-18918970D01*
X56747712Y-18174428D01*
X56178568Y-17604290D01*
X56006676Y-17532914D01*
X56186143Y-17458760D01*
X56587351Y-17058251D01*
X56689984Y-16811084D01*
X56791240Y-17056143D01*
X57191749Y-17457351D01*
X57715307Y-17674752D01*
X58282206Y-17675246D01*
X58806143Y-17458760D01*
X59207351Y-17058251D01*
X59424752Y-16534693D01*
X59425246Y-15967794D01*
X59208760Y-15443857D01*
X58808251Y-15042649D01*
X58314112Y-14837464D01*
X58636429Y-14704285D01*
X58953172Y-14388093D01*
X59124804Y-13974758D01*
X59125195Y-13527205D01*
X58954285Y-13113571D01*
X58638093Y-12796828D01*
X58525554Y-12750098D01*
X58636429Y-12704285D01*
X58953172Y-12388093D01*
X59124804Y-11974758D01*
X59125195Y-11527205D01*
X58954285Y-11113571D01*
X58638093Y-10796828D01*
X58616420Y-10787828D01*
X58787651Y-10716902D01*
X58894383Y-10462581D01*
X58000000Y-9568198D01*
X57105617Y-10462581D01*
X57212349Y-10716902D01*
X57408974Y-10776955D01*
X57363571Y-10795715D01*
X57046828Y-11111907D01*
X56875196Y-11525242D01*
X56874805Y-11972795D01*
X57045715Y-12386429D01*
X57361907Y-12703172D01*
X57474446Y-12749902D01*
X57363571Y-12795715D01*
X57046828Y-13111907D01*
X56875196Y-13525242D01*
X56874805Y-13972795D01*
X57045715Y-14386429D01*
X57361907Y-14703172D01*
X57686173Y-14837819D01*
X57193857Y-15041240D01*
X56792649Y-15441749D01*
X56690016Y-15688916D01*
X56588760Y-15443857D01*
X56188251Y-15042649D01*
X55694112Y-14837464D01*
X56016429Y-14704285D01*
X56333172Y-14388093D01*
X56504804Y-13974758D01*
X56505195Y-13527205D01*
X56334285Y-13113571D01*
X56018093Y-12796828D01*
X55905554Y-12750098D01*
X56016429Y-12704285D01*
X56333172Y-12388093D01*
X56504804Y-11974758D01*
X56505195Y-11527205D01*
X56334285Y-11113571D01*
X56018093Y-10796828D01*
X55605002Y-10625297D01*
X55605002Y-10522789D01*
X55828556Y-10659509D01*
X56349032Y-10457098D01*
X56709741Y-10111783D01*
X56787419Y-10144383D01*
X57681802Y-9250000D01*
X57667660Y-9235858D01*
X57985858Y-8917660D01*
X58000000Y-8931802D01*
X58014143Y-8917660D01*
X58332341Y-9235858D01*
X58318198Y-9250000D01*
X59212581Y-10144383D01*
X59466902Y-10037651D01*
X59509410Y-9898472D01*
X59556953Y-9946098D01*
X59823325Y-10056705D01*
X60111748Y-10056957D01*
X60378312Y-9946815D01*
X60582436Y-9743047D01*
X60693043Y-9476675D01*
X60693295Y-9188252D01*
X60583153Y-8921688D01*
X60473169Y-8811512D01*
X60473169Y-8568169D01*
X60434728Y-8374914D01*
X60325258Y-8211080D01*
X60318838Y-8204660D01*
X61111030Y-8205351D01*
X61855572Y-7897712D01*
X62425710Y-7328568D01*
X62734648Y-6584565D01*
X62735351Y-5778970D01*
X62427712Y-5034428D01*
X62018998Y-4625000D01*
X67375000Y-4625000D01*
X67375000Y-13500000D01*
G36*
X53475157Y-27970043D02*
X53495174Y-28000000D01*
X53475157Y-28029957D01*
X53431388Y-28250000D01*
X53475157Y-28470043D01*
X53495174Y-28500000D01*
X53475157Y-28529957D01*
X53431388Y-28750000D01*
X53475157Y-28970043D01*
X53495174Y-29000000D01*
X53475157Y-29029957D01*
X53431388Y-29250000D01*
X53475157Y-29470043D01*
X53599802Y-29656586D01*
X53730660Y-29744023D01*
X53635733Y-29838784D01*
X53611448Y-29897270D01*
X53557089Y-29842911D01*
X53430052Y-29758028D01*
X53433000Y-29750911D01*
X53433000Y-29587250D01*
X53274750Y-29429000D01*
X52629000Y-29429000D01*
X52629000Y-29441674D01*
X52371000Y-29441674D01*
X52371000Y-29429000D01*
X51129000Y-29429000D01*
X51129000Y-29441674D01*
X50871000Y-29441674D01*
X50871000Y-29429000D01*
X50851000Y-29429000D01*
X50851000Y-29171000D01*
X50871000Y-29171000D01*
X50871000Y-29151000D01*
X51129000Y-29151000D01*
X51129000Y-29171000D01*
X52371000Y-29171000D01*
X52371000Y-29151000D01*
X52629000Y-29151000D01*
X52629000Y-29171000D01*
X53274750Y-29171000D01*
X53433000Y-29012750D01*
X53433000Y-28849089D01*
X53336632Y-28616435D01*
X53158566Y-28438369D01*
X53148501Y-28434200D01*
X53183000Y-28350911D01*
X53183000Y-28187250D01*
X53024752Y-28029002D01*
X53183000Y-28029002D01*
X53183000Y-27974971D01*
X53393579Y-27975155D01*
X53469901Y-27943619D01*
X53475157Y-27970043D01*
X53475157Y-27970043D01*
G37*
X53475157Y-27970043D02*
X53495174Y-28000000D01*
X53475157Y-28029957D01*
X53431388Y-28250000D01*
X53475157Y-28470043D01*
X53495174Y-28500000D01*
X53475157Y-28529957D01*
X53431388Y-28750000D01*
X53475157Y-28970043D01*
X53495174Y-29000000D01*
X53475157Y-29029957D01*
X53431388Y-29250000D01*
X53475157Y-29470043D01*
X53599802Y-29656586D01*
X53730660Y-29744023D01*
X53635733Y-29838784D01*
X53611448Y-29897270D01*
X53557089Y-29842911D01*
X53430052Y-29758028D01*
X53433000Y-29750911D01*
X53433000Y-29587250D01*
X53274750Y-29429000D01*
X52629000Y-29429000D01*
X52629000Y-29441674D01*
X52371000Y-29441674D01*
X52371000Y-29429000D01*
X51129000Y-29429000D01*
X51129000Y-29441674D01*
X50871000Y-29441674D01*
X50871000Y-29429000D01*
X50851000Y-29429000D01*
X50851000Y-29171000D01*
X50871000Y-29171000D01*
X50871000Y-29151000D01*
X51129000Y-29151000D01*
X51129000Y-29171000D01*
X52371000Y-29171000D01*
X52371000Y-29151000D01*
X52629000Y-29151000D01*
X52629000Y-29171000D01*
X53274750Y-29171000D01*
X53433000Y-29012750D01*
X53433000Y-28849089D01*
X53336632Y-28616435D01*
X53158566Y-28438369D01*
X53148501Y-28434200D01*
X53183000Y-28350911D01*
X53183000Y-28187250D01*
X53024752Y-28029002D01*
X53183000Y-28029002D01*
X53183000Y-27974971D01*
X53393579Y-27975155D01*
X53469901Y-27943619D01*
X53475157Y-27970043D01*
G36*
X41335000Y-28879000D02*
X41355000Y-28879000D01*
X41355000Y-29629000D01*
X41335000Y-29629000D01*
X41335000Y-29649000D01*
X40585000Y-29649000D01*
X40585000Y-29629000D01*
X40565000Y-29629000D01*
X40565000Y-28879000D01*
X40585000Y-28879000D01*
X40585000Y-28859000D01*
X41335000Y-28859000D01*
X41335000Y-28879000D01*
X41335000Y-28879000D01*
G37*
X41335000Y-28879000D02*
X41355000Y-28879000D01*
X41355000Y-29629000D01*
X41335000Y-29629000D01*
X41335000Y-29649000D01*
X40585000Y-29649000D01*
X40585000Y-29629000D01*
X40565000Y-29629000D01*
X40565000Y-28879000D01*
X40585000Y-28879000D01*
X40585000Y-28859000D01*
X41335000Y-28859000D01*
X41335000Y-28879000D01*
G36*
X31679000Y-25621000D02*
X31699000Y-25621000D01*
X31699000Y-25879000D01*
X31679000Y-25879000D01*
X31679000Y-26524750D01*
X31779250Y-26625000D01*
X31679000Y-26725250D01*
X31679000Y-27371000D01*
X31691674Y-27371000D01*
X31691674Y-27629000D01*
X31679000Y-27629000D01*
X31679000Y-28274750D01*
X31679250Y-28275000D01*
X31679000Y-28275250D01*
X31679000Y-28921000D01*
X31699000Y-28921000D01*
X31699000Y-29179000D01*
X31679000Y-29179000D01*
X31679000Y-29199000D01*
X31421000Y-29199000D01*
X31421000Y-29179000D01*
X31401000Y-29179000D01*
X31401000Y-28921000D01*
X31421000Y-28921000D01*
X31421000Y-28275250D01*
X31420750Y-28275000D01*
X31421000Y-28274750D01*
X31421000Y-27629000D01*
X31401000Y-27629000D01*
X31401000Y-27371000D01*
X31421000Y-27371000D01*
X31421000Y-26725250D01*
X31320750Y-26625000D01*
X31421000Y-26524750D01*
X31421000Y-25879000D01*
X31401000Y-25879000D01*
X31401000Y-25621000D01*
X31421000Y-25621000D01*
X31421000Y-25601000D01*
X31679000Y-25601000D01*
X31679000Y-25621000D01*
X31679000Y-25621000D01*
G37*
X31679000Y-25621000D02*
X31699000Y-25621000D01*
X31699000Y-25879000D01*
X31679000Y-25879000D01*
X31679000Y-26524750D01*
X31779250Y-26625000D01*
X31679000Y-26725250D01*
X31679000Y-27371000D01*
X31691674Y-27371000D01*
X31691674Y-27629000D01*
X31679000Y-27629000D01*
X31679000Y-28274750D01*
X31679250Y-28275000D01*
X31679000Y-28275250D01*
X31679000Y-28921000D01*
X31699000Y-28921000D01*
X31699000Y-29179000D01*
X31679000Y-29179000D01*
X31679000Y-29199000D01*
X31421000Y-29199000D01*
X31421000Y-29179000D01*
X31401000Y-29179000D01*
X31401000Y-28921000D01*
X31421000Y-28921000D01*
X31421000Y-28275250D01*
X31420750Y-28275000D01*
X31421000Y-28274750D01*
X31421000Y-27629000D01*
X31401000Y-27629000D01*
X31401000Y-27371000D01*
X31421000Y-27371000D01*
X31421000Y-26725250D01*
X31320750Y-26625000D01*
X31421000Y-26524750D01*
X31421000Y-25879000D01*
X31401000Y-25879000D01*
X31401000Y-25621000D01*
X31421000Y-25621000D01*
X31421000Y-25601000D01*
X31679000Y-25601000D01*
X31679000Y-25621000D01*
G36*
X59029957Y-25324843D02*
X59151067Y-25348933D01*
X59175157Y-25470043D01*
X59195174Y-25500000D01*
X59175157Y-25529957D01*
X59131388Y-25750000D01*
X59175157Y-25970043D01*
X59195174Y-26000000D01*
X59175157Y-26029957D01*
X59131388Y-26250000D01*
X59175157Y-26470043D01*
X59195174Y-26500000D01*
X59175157Y-26529957D01*
X59131388Y-26750000D01*
X59175157Y-26970043D01*
X59195174Y-27000000D01*
X59175157Y-27029957D01*
X59131388Y-27250000D01*
X59175157Y-27470043D01*
X59195174Y-27500000D01*
X59175157Y-27529957D01*
X59131388Y-27750000D01*
X59175157Y-27970043D01*
X59195174Y-28000000D01*
X59175157Y-28029957D01*
X59131388Y-28250000D01*
X59175157Y-28470043D01*
X59195174Y-28500000D01*
X59175157Y-28529957D01*
X59131388Y-28750000D01*
X59175157Y-28970043D01*
X59195174Y-29000000D01*
X59175157Y-29029957D01*
X59151067Y-29151067D01*
X59029957Y-29175157D01*
X59000000Y-29195174D01*
X58970043Y-29175157D01*
X58750000Y-29131388D01*
X58529957Y-29175157D01*
X58500000Y-29195174D01*
X58470043Y-29175157D01*
X58250000Y-29131388D01*
X58029957Y-29175157D01*
X58000000Y-29195174D01*
X57970043Y-29175157D01*
X57750000Y-29131388D01*
X57529957Y-29175157D01*
X57500000Y-29195174D01*
X57470043Y-29175157D01*
X57250000Y-29131388D01*
X57029957Y-29175157D01*
X57000000Y-29195174D01*
X56970043Y-29175157D01*
X56750000Y-29131388D01*
X56529957Y-29175157D01*
X56500000Y-29195174D01*
X56470043Y-29175157D01*
X56250000Y-29131388D01*
X56029957Y-29175157D01*
X56000000Y-29195174D01*
X55970043Y-29175157D01*
X55750000Y-29131388D01*
X55529957Y-29175157D01*
X55500000Y-29195174D01*
X55470043Y-29175157D01*
X55348933Y-29151067D01*
X55324843Y-29029957D01*
X55304826Y-29000000D01*
X55324843Y-28970043D01*
X55368612Y-28750000D01*
X55324843Y-28529957D01*
X55304826Y-28500000D01*
X55324843Y-28470043D01*
X55368612Y-28250000D01*
X55324843Y-28029957D01*
X55304826Y-28000000D01*
X55324843Y-27970043D01*
X55368612Y-27750000D01*
X55324843Y-27529957D01*
X55304826Y-27500000D01*
X55324843Y-27470043D01*
X55368612Y-27250000D01*
X55324843Y-27029957D01*
X55304826Y-27000000D01*
X55324843Y-26970043D01*
X55368612Y-26750000D01*
X55324843Y-26529957D01*
X55304826Y-26500000D01*
X55324843Y-26470043D01*
X55368612Y-26250000D01*
X55324843Y-26029957D01*
X55304826Y-26000000D01*
X55324843Y-25970043D01*
X55368612Y-25750000D01*
X55324843Y-25529957D01*
X55304826Y-25500000D01*
X55324843Y-25470043D01*
X55348933Y-25348933D01*
X55470043Y-25324843D01*
X55500000Y-25304826D01*
X55529957Y-25324843D01*
X55750000Y-25368612D01*
X55970043Y-25324843D01*
X56000000Y-25304826D01*
X56029957Y-25324843D01*
X56250000Y-25368612D01*
X56470043Y-25324843D01*
X56500000Y-25304826D01*
X56529957Y-25324843D01*
X56750000Y-25368612D01*
X56970043Y-25324843D01*
X57000000Y-25304826D01*
X57029957Y-25324843D01*
X57250000Y-25368612D01*
X57470043Y-25324843D01*
X57500000Y-25304826D01*
X57529957Y-25324843D01*
X57750000Y-25368612D01*
X57970043Y-25324843D01*
X58000000Y-25304826D01*
X58029957Y-25324843D01*
X58250000Y-25368612D01*
X58470043Y-25324843D01*
X58500000Y-25304826D01*
X58529957Y-25324843D01*
X58750000Y-25368612D01*
X58970043Y-25324843D01*
X59000000Y-25304826D01*
X59029957Y-25324843D01*
X59029957Y-25324843D01*
G37*
X59029957Y-25324843D02*
X59151067Y-25348933D01*
X59175157Y-25470043D01*
X59195174Y-25500000D01*
X59175157Y-25529957D01*
X59131388Y-25750000D01*
X59175157Y-25970043D01*
X59195174Y-26000000D01*
X59175157Y-26029957D01*
X59131388Y-26250000D01*
X59175157Y-26470043D01*
X59195174Y-26500000D01*
X59175157Y-26529957D01*
X59131388Y-26750000D01*
X59175157Y-26970043D01*
X59195174Y-27000000D01*
X59175157Y-27029957D01*
X59131388Y-27250000D01*
X59175157Y-27470043D01*
X59195174Y-27500000D01*
X59175157Y-27529957D01*
X59131388Y-27750000D01*
X59175157Y-27970043D01*
X59195174Y-28000000D01*
X59175157Y-28029957D01*
X59131388Y-28250000D01*
X59175157Y-28470043D01*
X59195174Y-28500000D01*
X59175157Y-28529957D01*
X59131388Y-28750000D01*
X59175157Y-28970043D01*
X59195174Y-29000000D01*
X59175157Y-29029957D01*
X59151067Y-29151067D01*
X59029957Y-29175157D01*
X59000000Y-29195174D01*
X58970043Y-29175157D01*
X58750000Y-29131388D01*
X58529957Y-29175157D01*
X58500000Y-29195174D01*
X58470043Y-29175157D01*
X58250000Y-29131388D01*
X58029957Y-29175157D01*
X58000000Y-29195174D01*
X57970043Y-29175157D01*
X57750000Y-29131388D01*
X57529957Y-29175157D01*
X57500000Y-29195174D01*
X57470043Y-29175157D01*
X57250000Y-29131388D01*
X57029957Y-29175157D01*
X57000000Y-29195174D01*
X56970043Y-29175157D01*
X56750000Y-29131388D01*
X56529957Y-29175157D01*
X56500000Y-29195174D01*
X56470043Y-29175157D01*
X56250000Y-29131388D01*
X56029957Y-29175157D01*
X56000000Y-29195174D01*
X55970043Y-29175157D01*
X55750000Y-29131388D01*
X55529957Y-29175157D01*
X55500000Y-29195174D01*
X55470043Y-29175157D01*
X55348933Y-29151067D01*
X55324843Y-29029957D01*
X55304826Y-29000000D01*
X55324843Y-28970043D01*
X55368612Y-28750000D01*
X55324843Y-28529957D01*
X55304826Y-28500000D01*
X55324843Y-28470043D01*
X55368612Y-28250000D01*
X55324843Y-28029957D01*
X55304826Y-28000000D01*
X55324843Y-27970043D01*
X55368612Y-27750000D01*
X55324843Y-27529957D01*
X55304826Y-27500000D01*
X55324843Y-27470043D01*
X55368612Y-27250000D01*
X55324843Y-27029957D01*
X55304826Y-27000000D01*
X55324843Y-26970043D01*
X55368612Y-26750000D01*
X55324843Y-26529957D01*
X55304826Y-26500000D01*
X55324843Y-26470043D01*
X55368612Y-26250000D01*
X55324843Y-26029957D01*
X55304826Y-26000000D01*
X55324843Y-25970043D01*
X55368612Y-25750000D01*
X55324843Y-25529957D01*
X55304826Y-25500000D01*
X55324843Y-25470043D01*
X55348933Y-25348933D01*
X55470043Y-25324843D01*
X55500000Y-25304826D01*
X55529957Y-25324843D01*
X55750000Y-25368612D01*
X55970043Y-25324843D01*
X56000000Y-25304826D01*
X56029957Y-25324843D01*
X56250000Y-25368612D01*
X56470043Y-25324843D01*
X56500000Y-25304826D01*
X56529957Y-25324843D01*
X56750000Y-25368612D01*
X56970043Y-25324843D01*
X57000000Y-25304826D01*
X57029957Y-25324843D01*
X57250000Y-25368612D01*
X57470043Y-25324843D01*
X57500000Y-25304826D01*
X57529957Y-25324843D01*
X57750000Y-25368612D01*
X57970043Y-25324843D01*
X58000000Y-25304826D01*
X58029957Y-25324843D01*
X58250000Y-25368612D01*
X58470043Y-25324843D01*
X58500000Y-25304826D01*
X58529957Y-25324843D01*
X58750000Y-25368612D01*
X58970043Y-25324843D01*
X59000000Y-25304826D01*
X59029957Y-25324843D01*
G36*
X50954000Y-27646000D02*
X51350250Y-27646000D01*
X51475250Y-27771000D01*
X52121000Y-27771000D01*
X52121000Y-27758326D01*
X52379000Y-27758326D01*
X52379000Y-27771000D01*
X52399000Y-27771000D01*
X52399000Y-28029000D01*
X52379000Y-28029000D01*
X52379000Y-28049000D01*
X52121000Y-28049000D01*
X52121000Y-28029000D01*
X51749750Y-28029000D01*
X51624750Y-27904000D01*
X50954000Y-27904000D01*
X50954000Y-27924000D01*
X50696000Y-27924000D01*
X50696000Y-27904000D01*
X50676000Y-27904000D01*
X50676000Y-27646000D01*
X50696000Y-27646000D01*
X50696000Y-27626000D01*
X50954000Y-27626000D01*
X50954000Y-27646000D01*
X50954000Y-27646000D01*
G37*
X50954000Y-27646000D02*
X51350250Y-27646000D01*
X51475250Y-27771000D01*
X52121000Y-27771000D01*
X52121000Y-27758326D01*
X52379000Y-27758326D01*
X52379000Y-27771000D01*
X52399000Y-27771000D01*
X52399000Y-28029000D01*
X52379000Y-28029000D01*
X52379000Y-28049000D01*
X52121000Y-28049000D01*
X52121000Y-28029000D01*
X51749750Y-28029000D01*
X51624750Y-27904000D01*
X50954000Y-27904000D01*
X50954000Y-27924000D01*
X50696000Y-27924000D01*
X50696000Y-27904000D01*
X50676000Y-27904000D01*
X50676000Y-27646000D01*
X50696000Y-27646000D01*
X50696000Y-27626000D01*
X50954000Y-27626000D01*
X50954000Y-27646000D01*
G36*
X36129000Y-27471000D02*
X36149000Y-27471000D01*
X36149000Y-27729000D01*
X36129000Y-27729000D01*
X36129000Y-27749000D01*
X35871000Y-27749000D01*
X35871000Y-27729000D01*
X35851000Y-27729000D01*
X35851000Y-27471000D01*
X35871000Y-27471000D01*
X35871000Y-27451000D01*
X36129000Y-27451000D01*
X36129000Y-27471000D01*
X36129000Y-27471000D01*
G37*
X36129000Y-27471000D02*
X36149000Y-27471000D01*
X36149000Y-27729000D01*
X36129000Y-27729000D01*
X36129000Y-27749000D01*
X35871000Y-27749000D01*
X35871000Y-27729000D01*
X35851000Y-27729000D01*
X35851000Y-27471000D01*
X35871000Y-27471000D01*
X35871000Y-27451000D01*
X36129000Y-27451000D01*
X36129000Y-27471000D01*
G36*
X64329000Y-27371000D02*
X64349000Y-27371000D01*
X64349000Y-27629000D01*
X64329000Y-27629000D01*
X64329000Y-27649000D01*
X64071000Y-27649000D01*
X64071000Y-27629000D01*
X64051000Y-27629000D01*
X64051000Y-27371000D01*
X64071000Y-27371000D01*
X64071000Y-27351000D01*
X64329000Y-27351000D01*
X64329000Y-27371000D01*
X64329000Y-27371000D01*
G37*
X64329000Y-27371000D02*
X64349000Y-27371000D01*
X64349000Y-27629000D01*
X64329000Y-27629000D01*
X64329000Y-27649000D01*
X64071000Y-27649000D01*
X64071000Y-27629000D01*
X64051000Y-27629000D01*
X64051000Y-27371000D01*
X64071000Y-27371000D01*
X64071000Y-27351000D01*
X64329000Y-27351000D01*
X64329000Y-27371000D01*
G36*
X49030835Y-21309623D02*
X48942000Y-21524088D01*
X48942000Y-21591750D01*
X49100250Y-21750000D01*
X49821000Y-21750000D01*
X49821000Y-21701000D01*
X50079000Y-21701000D01*
X50079000Y-21750000D01*
X50099000Y-21750000D01*
X50099000Y-21866674D01*
X49575000Y-21866674D01*
X49409173Y-21899659D01*
X49333832Y-21950000D01*
X49100250Y-21950000D01*
X48942000Y-22108250D01*
X48942000Y-22175912D01*
X49038369Y-22408566D01*
X49141674Y-22511871D01*
X49141674Y-22700000D01*
X49166538Y-22825000D01*
X49141674Y-22950000D01*
X49141674Y-23350000D01*
X49174659Y-23515827D01*
X49268592Y-23656408D01*
X49409173Y-23750341D01*
X49575000Y-23783326D01*
X50245000Y-23783326D01*
X50245000Y-23817000D01*
X50237250Y-23817000D01*
X50079000Y-23975250D01*
X50079000Y-24621000D01*
X50099000Y-24621000D01*
X50099000Y-24879000D01*
X50079000Y-24879000D01*
X50079000Y-25524750D01*
X50135213Y-25580963D01*
X50099659Y-25634173D01*
X50066674Y-25800000D01*
X50066674Y-26650000D01*
X50099659Y-26815827D01*
X50115407Y-26839396D01*
X49963369Y-26991434D01*
X49889965Y-27168645D01*
X49806408Y-27043592D01*
X49741168Y-27000000D01*
X49806408Y-26956408D01*
X49900341Y-26815827D01*
X49933326Y-26650000D01*
X49933326Y-25800000D01*
X49900341Y-25634173D01*
X49821000Y-25515431D01*
X49821000Y-24879000D01*
X49808326Y-24879000D01*
X49808326Y-24621000D01*
X49821000Y-24621000D01*
X49821000Y-23975250D01*
X49662750Y-23817000D01*
X49499089Y-23817000D01*
X49266435Y-23913368D01*
X49163129Y-24016674D01*
X49094491Y-24016674D01*
X48732537Y-23654719D01*
X48825341Y-23515827D01*
X48858326Y-23350000D01*
X48858326Y-22950000D01*
X48825341Y-22784173D01*
X48731408Y-22643592D01*
X48590827Y-22549659D01*
X48425000Y-22516674D01*
X47675000Y-22516674D01*
X47509173Y-22549659D01*
X47368592Y-22643592D01*
X47292978Y-22756757D01*
X47286631Y-22741434D01*
X47108565Y-22563368D01*
X47090239Y-22555777D01*
X47150341Y-22465827D01*
X47183326Y-22300000D01*
X47183326Y-21847504D01*
X47241674Y-21905852D01*
X47241674Y-22050000D01*
X47274659Y-22215827D01*
X47368592Y-22356408D01*
X47509173Y-22450341D01*
X47675000Y-22483326D01*
X48425000Y-22483326D01*
X48590827Y-22450341D01*
X48731408Y-22356408D01*
X48825341Y-22215827D01*
X48858326Y-22050000D01*
X48858326Y-21650000D01*
X48825341Y-21484173D01*
X48731408Y-21343592D01*
X48716044Y-21333326D01*
X48850000Y-21333326D01*
X49000000Y-21303489D01*
X49030835Y-21309623D01*
X49030835Y-21309623D01*
G37*
X49030835Y-21309623D02*
X48942000Y-21524088D01*
X48942000Y-21591750D01*
X49100250Y-21750000D01*
X49821000Y-21750000D01*
X49821000Y-21701000D01*
X50079000Y-21701000D01*
X50079000Y-21750000D01*
X50099000Y-21750000D01*
X50099000Y-21866674D01*
X49575000Y-21866674D01*
X49409173Y-21899659D01*
X49333832Y-21950000D01*
X49100250Y-21950000D01*
X48942000Y-22108250D01*
X48942000Y-22175912D01*
X49038369Y-22408566D01*
X49141674Y-22511871D01*
X49141674Y-22700000D01*
X49166538Y-22825000D01*
X49141674Y-22950000D01*
X49141674Y-23350000D01*
X49174659Y-23515827D01*
X49268592Y-23656408D01*
X49409173Y-23750341D01*
X49575000Y-23783326D01*
X50245000Y-23783326D01*
X50245000Y-23817000D01*
X50237250Y-23817000D01*
X50079000Y-23975250D01*
X50079000Y-24621000D01*
X50099000Y-24621000D01*
X50099000Y-24879000D01*
X50079000Y-24879000D01*
X50079000Y-25524750D01*
X50135213Y-25580963D01*
X50099659Y-25634173D01*
X50066674Y-25800000D01*
X50066674Y-26650000D01*
X50099659Y-26815827D01*
X50115407Y-26839396D01*
X49963369Y-26991434D01*
X49889965Y-27168645D01*
X49806408Y-27043592D01*
X49741168Y-27000000D01*
X49806408Y-26956408D01*
X49900341Y-26815827D01*
X49933326Y-26650000D01*
X49933326Y-25800000D01*
X49900341Y-25634173D01*
X49821000Y-25515431D01*
X49821000Y-24879000D01*
X49808326Y-24879000D01*
X49808326Y-24621000D01*
X49821000Y-24621000D01*
X49821000Y-23975250D01*
X49662750Y-23817000D01*
X49499089Y-23817000D01*
X49266435Y-23913368D01*
X49163129Y-24016674D01*
X49094491Y-24016674D01*
X48732537Y-23654719D01*
X48825341Y-23515827D01*
X48858326Y-23350000D01*
X48858326Y-22950000D01*
X48825341Y-22784173D01*
X48731408Y-22643592D01*
X48590827Y-22549659D01*
X48425000Y-22516674D01*
X47675000Y-22516674D01*
X47509173Y-22549659D01*
X47368592Y-22643592D01*
X47292978Y-22756757D01*
X47286631Y-22741434D01*
X47108565Y-22563368D01*
X47090239Y-22555777D01*
X47150341Y-22465827D01*
X47183326Y-22300000D01*
X47183326Y-21847504D01*
X47241674Y-21905852D01*
X47241674Y-22050000D01*
X47274659Y-22215827D01*
X47368592Y-22356408D01*
X47509173Y-22450341D01*
X47675000Y-22483326D01*
X48425000Y-22483326D01*
X48590827Y-22450341D01*
X48731408Y-22356408D01*
X48825341Y-22215827D01*
X48858326Y-22050000D01*
X48858326Y-21650000D01*
X48825341Y-21484173D01*
X48731408Y-21343592D01*
X48716044Y-21333326D01*
X48850000Y-21333326D01*
X49000000Y-21303489D01*
X49030835Y-21309623D01*
G36*
X35455156Y-19924874D02*
X35743579Y-19925126D01*
X35864893Y-19875000D01*
X35935046Y-19875000D01*
X36055156Y-19924874D01*
X36343579Y-19925126D01*
X36464893Y-19875000D01*
X36535046Y-19875000D01*
X36579125Y-19893303D01*
X36652822Y-19967000D01*
X36537250Y-19967000D01*
X36379000Y-20125250D01*
X36379000Y-21071000D01*
X36399000Y-21071000D01*
X36399000Y-21329000D01*
X36379000Y-21329000D01*
X36379000Y-22274750D01*
X36537250Y-22433000D01*
X37275912Y-22433000D01*
X37508566Y-22336631D01*
X37516674Y-22328523D01*
X37516674Y-22600000D01*
X37546511Y-22750000D01*
X37516674Y-22900000D01*
X37516674Y-23500000D01*
X37520445Y-23518958D01*
X37400000Y-23495000D01*
X36800000Y-23495000D01*
X36606745Y-23533441D01*
X36442911Y-23642911D01*
X36438661Y-23647161D01*
X36414984Y-23589857D01*
X36211216Y-23385733D01*
X35944844Y-23275126D01*
X35656421Y-23274874D01*
X35389857Y-23385016D01*
X35329416Y-23445352D01*
X35329416Y-23202148D01*
X35290975Y-23008893D01*
X35181505Y-22845059D01*
X34488105Y-22151659D01*
X34508326Y-22050000D01*
X34508326Y-21650000D01*
X34475954Y-21487250D01*
X34717000Y-21487250D01*
X34717000Y-21925911D01*
X34813368Y-22158565D01*
X34991434Y-22336631D01*
X35224088Y-22433000D01*
X35962750Y-22433000D01*
X36121000Y-22274750D01*
X36121000Y-21329000D01*
X34875250Y-21329000D01*
X34717000Y-21487250D01*
X34475954Y-21487250D01*
X34475341Y-21484173D01*
X34381408Y-21343592D01*
X34359360Y-21328860D01*
X34416559Y-21243255D01*
X34455000Y-21050000D01*
X34455000Y-20924166D01*
X34556408Y-20856408D01*
X34650341Y-20715827D01*
X34683326Y-20550000D01*
X34683326Y-20474089D01*
X34717000Y-20474089D01*
X34717000Y-20912750D01*
X34875250Y-21071000D01*
X36121000Y-21071000D01*
X36121000Y-20125250D01*
X35962750Y-19967000D01*
X35224088Y-19967000D01*
X34991434Y-20063369D01*
X34813368Y-20241435D01*
X34717000Y-20474089D01*
X34683326Y-20474089D01*
X34683326Y-19950000D01*
X34668408Y-19875000D01*
X35335046Y-19875000D01*
X35455156Y-19924874D01*
X35455156Y-19924874D01*
G37*
X35455156Y-19924874D02*
X35743579Y-19925126D01*
X35864893Y-19875000D01*
X35935046Y-19875000D01*
X36055156Y-19924874D01*
X36343579Y-19925126D01*
X36464893Y-19875000D01*
X36535046Y-19875000D01*
X36579125Y-19893303D01*
X36652822Y-19967000D01*
X36537250Y-19967000D01*
X36379000Y-20125250D01*
X36379000Y-21071000D01*
X36399000Y-21071000D01*
X36399000Y-21329000D01*
X36379000Y-21329000D01*
X36379000Y-22274750D01*
X36537250Y-22433000D01*
X37275912Y-22433000D01*
X37508566Y-22336631D01*
X37516674Y-22328523D01*
X37516674Y-22600000D01*
X37546511Y-22750000D01*
X37516674Y-22900000D01*
X37516674Y-23500000D01*
X37520445Y-23518958D01*
X37400000Y-23495000D01*
X36800000Y-23495000D01*
X36606745Y-23533441D01*
X36442911Y-23642911D01*
X36438661Y-23647161D01*
X36414984Y-23589857D01*
X36211216Y-23385733D01*
X35944844Y-23275126D01*
X35656421Y-23274874D01*
X35389857Y-23385016D01*
X35329416Y-23445352D01*
X35329416Y-23202148D01*
X35290975Y-23008893D01*
X35181505Y-22845059D01*
X34488105Y-22151659D01*
X34508326Y-22050000D01*
X34508326Y-21650000D01*
X34475954Y-21487250D01*
X34717000Y-21487250D01*
X34717000Y-21925911D01*
X34813368Y-22158565D01*
X34991434Y-22336631D01*
X35224088Y-22433000D01*
X35962750Y-22433000D01*
X36121000Y-22274750D01*
X36121000Y-21329000D01*
X34875250Y-21329000D01*
X34717000Y-21487250D01*
X34475954Y-21487250D01*
X34475341Y-21484173D01*
X34381408Y-21343592D01*
X34359360Y-21328860D01*
X34416559Y-21243255D01*
X34455000Y-21050000D01*
X34455000Y-20924166D01*
X34556408Y-20856408D01*
X34650341Y-20715827D01*
X34683326Y-20550000D01*
X34683326Y-20474089D01*
X34717000Y-20474089D01*
X34717000Y-20912750D01*
X34875250Y-21071000D01*
X36121000Y-21071000D01*
X36121000Y-20125250D01*
X35962750Y-19967000D01*
X35224088Y-19967000D01*
X34991434Y-20063369D01*
X34813368Y-20241435D01*
X34717000Y-20474089D01*
X34683326Y-20474089D01*
X34683326Y-19950000D01*
X34668408Y-19875000D01*
X35335046Y-19875000D01*
X35455156Y-19924874D01*
G36*
X46579000Y-23271000D02*
X46599000Y-23271000D01*
X46599000Y-23529000D01*
X46579000Y-23529000D01*
X46579000Y-23549000D01*
X46321000Y-23549000D01*
X46321000Y-23529000D01*
X46301000Y-23529000D01*
X46301000Y-23271000D01*
X46321000Y-23271000D01*
X46321000Y-23251000D01*
X46579000Y-23251000D01*
X46579000Y-23271000D01*
X46579000Y-23271000D01*
G37*
X46579000Y-23271000D02*
X46599000Y-23271000D01*
X46599000Y-23529000D01*
X46579000Y-23529000D01*
X46579000Y-23549000D01*
X46321000Y-23549000D01*
X46321000Y-23529000D01*
X46301000Y-23529000D01*
X46301000Y-23271000D01*
X46321000Y-23271000D01*
X46321000Y-23251000D01*
X46579000Y-23251000D01*
X46579000Y-23271000D01*
G36*
X53929000Y-21621000D02*
X53941674Y-21621000D01*
X53941674Y-21879000D01*
X53929000Y-21879000D01*
X53929000Y-22871000D01*
X53949000Y-22871000D01*
X53949000Y-23129000D01*
X53929000Y-23129000D01*
X53929000Y-23149000D01*
X53671000Y-23149000D01*
X53671000Y-23129000D01*
X53651000Y-23129000D01*
X53651000Y-22871000D01*
X53671000Y-22871000D01*
X53671000Y-21879000D01*
X53651000Y-21879000D01*
X53651000Y-21621000D01*
X53671000Y-21621000D01*
X53671000Y-21601000D01*
X53929000Y-21601000D01*
X53929000Y-21621000D01*
X53929000Y-21621000D01*
G37*
X53929000Y-21621000D02*
X53941674Y-21621000D01*
X53941674Y-21879000D01*
X53929000Y-21879000D01*
X53929000Y-22871000D01*
X53949000Y-22871000D01*
X53949000Y-23129000D01*
X53929000Y-23129000D01*
X53929000Y-23149000D01*
X53671000Y-23149000D01*
X53671000Y-23129000D01*
X53651000Y-23129000D01*
X53651000Y-22871000D01*
X53671000Y-22871000D01*
X53671000Y-21879000D01*
X53651000Y-21879000D01*
X53651000Y-21621000D01*
X53671000Y-21621000D01*
X53671000Y-21601000D01*
X53929000Y-21601000D01*
X53929000Y-21621000D01*
G36*
X39763369Y-21108566D02*
X39941435Y-21286632D01*
X40135461Y-21367000D01*
X40037250Y-21367000D01*
X39879000Y-21525250D01*
X39879000Y-22171000D01*
X39899000Y-22171000D01*
X39899000Y-22429000D01*
X39879000Y-22429000D01*
X39879000Y-22449000D01*
X39621000Y-22449000D01*
X39621000Y-22429000D01*
X39601000Y-22429000D01*
X39601000Y-22171000D01*
X39621000Y-22171000D01*
X39621000Y-21525250D01*
X39462750Y-21367000D01*
X39324088Y-21367000D01*
X39091434Y-21463369D01*
X38913368Y-21641435D01*
X38878234Y-21726257D01*
X38856408Y-21693592D01*
X38749456Y-21622129D01*
X38716559Y-21456745D01*
X38607089Y-21292911D01*
X38497504Y-21183326D01*
X39200000Y-21183326D01*
X39365827Y-21150341D01*
X39478583Y-21075000D01*
X39550000Y-21075000D01*
X39734282Y-21038344D01*
X39763369Y-21108566D01*
X39763369Y-21108566D01*
G37*
X39763369Y-21108566D02*
X39941435Y-21286632D01*
X40135461Y-21367000D01*
X40037250Y-21367000D01*
X39879000Y-21525250D01*
X39879000Y-22171000D01*
X39899000Y-22171000D01*
X39899000Y-22429000D01*
X39879000Y-22429000D01*
X39879000Y-22449000D01*
X39621000Y-22449000D01*
X39621000Y-22429000D01*
X39601000Y-22429000D01*
X39601000Y-22171000D01*
X39621000Y-22171000D01*
X39621000Y-21525250D01*
X39462750Y-21367000D01*
X39324088Y-21367000D01*
X39091434Y-21463369D01*
X38913368Y-21641435D01*
X38878234Y-21726257D01*
X38856408Y-21693592D01*
X38749456Y-21622129D01*
X38716559Y-21456745D01*
X38607089Y-21292911D01*
X38497504Y-21183326D01*
X39200000Y-21183326D01*
X39365827Y-21150341D01*
X39478583Y-21075000D01*
X39550000Y-21075000D01*
X39734282Y-21038344D01*
X39763369Y-21108566D01*
G36*
X32316674Y-20550000D02*
X32349659Y-20715827D01*
X32437913Y-20847909D01*
X32392911Y-20892911D01*
X32308028Y-21019948D01*
X32300911Y-21017000D01*
X32087250Y-21017000D01*
X31929000Y-21175250D01*
X31929000Y-21750000D01*
X31949000Y-21750000D01*
X31949000Y-21866674D01*
X31651000Y-21866674D01*
X31651000Y-21750000D01*
X31671000Y-21750000D01*
X31671000Y-21175250D01*
X31512750Y-21017000D01*
X31425000Y-21017000D01*
X31425000Y-20325022D01*
X31543579Y-20325126D01*
X31664893Y-20275000D01*
X32200000Y-20275000D01*
X32316674Y-20251792D01*
X32316674Y-20550000D01*
X32316674Y-20550000D01*
G37*
X32316674Y-20550000D02*
X32349659Y-20715827D01*
X32437913Y-20847909D01*
X32392911Y-20892911D01*
X32308028Y-21019948D01*
X32300911Y-21017000D01*
X32087250Y-21017000D01*
X31929000Y-21175250D01*
X31929000Y-21750000D01*
X31949000Y-21750000D01*
X31949000Y-21866674D01*
X31651000Y-21866674D01*
X31651000Y-21750000D01*
X31671000Y-21750000D01*
X31671000Y-21175250D01*
X31512750Y-21017000D01*
X31425000Y-21017000D01*
X31425000Y-20325022D01*
X31543579Y-20325126D01*
X31664893Y-20275000D01*
X32200000Y-20275000D01*
X32316674Y-20251792D01*
X32316674Y-20550000D01*
G36*
X40979000Y-20321000D02*
X40999000Y-20321000D01*
X40999000Y-20579000D01*
X40979000Y-20579000D01*
X40979000Y-21224750D01*
X41137250Y-21383000D01*
X41482574Y-21383000D01*
X41392911Y-21442911D01*
X41219148Y-21616674D01*
X40900000Y-21616674D01*
X40734173Y-21649659D01*
X40621283Y-21725090D01*
X40586632Y-21641435D01*
X40408566Y-21463369D01*
X40214539Y-21383000D01*
X40562750Y-21383000D01*
X40721000Y-21224750D01*
X40721000Y-20579000D01*
X40701000Y-20579000D01*
X40701000Y-20321000D01*
X40721000Y-20321000D01*
X40721000Y-20301000D01*
X40979000Y-20301000D01*
X40979000Y-20321000D01*
X40979000Y-20321000D01*
G37*
X40979000Y-20321000D02*
X40999000Y-20321000D01*
X40999000Y-20579000D01*
X40979000Y-20579000D01*
X40979000Y-21224750D01*
X41137250Y-21383000D01*
X41482574Y-21383000D01*
X41392911Y-21442911D01*
X41219148Y-21616674D01*
X40900000Y-21616674D01*
X40734173Y-21649659D01*
X40621283Y-21725090D01*
X40586632Y-21641435D01*
X40408566Y-21463369D01*
X40214539Y-21383000D01*
X40562750Y-21383000D01*
X40721000Y-21224750D01*
X40721000Y-20579000D01*
X40701000Y-20579000D01*
X40701000Y-20321000D01*
X40721000Y-20321000D01*
X40721000Y-20301000D01*
X40979000Y-20301000D01*
X40979000Y-20321000D01*
G36*
X42629000Y-20821000D02*
X43871000Y-20821000D01*
X43871000Y-20808326D01*
X44129000Y-20808326D01*
X44129000Y-20821000D01*
X44149000Y-20821000D01*
X44149000Y-21079000D01*
X44129000Y-21079000D01*
X44129000Y-21099000D01*
X43871000Y-21099000D01*
X43871000Y-21079000D01*
X42629000Y-21079000D01*
X42629000Y-21099000D01*
X42371000Y-21099000D01*
X42371000Y-21079000D01*
X42351000Y-21079000D01*
X42351000Y-20821000D01*
X42371000Y-20821000D01*
X42371000Y-20808326D01*
X42629000Y-20808326D01*
X42629000Y-20821000D01*
X42629000Y-20821000D01*
G37*
X42629000Y-20821000D02*
X43871000Y-20821000D01*
X43871000Y-20808326D01*
X44129000Y-20808326D01*
X44129000Y-20821000D01*
X44149000Y-20821000D01*
X44149000Y-21079000D01*
X44129000Y-21079000D01*
X44129000Y-21099000D01*
X43871000Y-21099000D01*
X43871000Y-21079000D01*
X42629000Y-21079000D01*
X42629000Y-21099000D01*
X42371000Y-21099000D01*
X42371000Y-21079000D01*
X42351000Y-21079000D01*
X42351000Y-20821000D01*
X42371000Y-20821000D01*
X42371000Y-20808326D01*
X42629000Y-20808326D01*
X42629000Y-20821000D01*
G36*
X27581682Y-18795860D02*
X27745516Y-18905330D01*
X27938771Y-18943771D01*
X29729593Y-18943771D01*
X29780339Y-18994517D01*
X29585733Y-19188784D01*
X29475126Y-19455156D01*
X29474874Y-19743579D01*
X29585016Y-20010143D01*
X29788784Y-20214267D01*
X30055156Y-20324874D01*
X30175000Y-20324979D01*
X30175000Y-20875000D01*
X29154060Y-20875000D01*
X29165000Y-20820000D01*
X29102201Y-20504286D01*
X28923363Y-20236637D01*
X28655714Y-20057799D01*
X28629063Y-20052498D01*
X28606408Y-20018592D01*
X28465827Y-19924659D01*
X28300000Y-19891674D01*
X26718845Y-19891674D01*
X26637389Y-19837247D01*
X26425000Y-19795000D01*
X25625000Y-19795000D01*
X25625000Y-19165992D01*
X25824132Y-19248679D01*
X26112555Y-19248931D01*
X26265033Y-19185928D01*
X26455156Y-19264874D01*
X26743579Y-19265126D01*
X27010143Y-19154984D01*
X27214267Y-18951216D01*
X27324874Y-18684844D01*
X27325001Y-18539179D01*
X27581682Y-18795860D01*
X27581682Y-18795860D01*
G37*
X27581682Y-18795860D02*
X27745516Y-18905330D01*
X27938771Y-18943771D01*
X29729593Y-18943771D01*
X29780339Y-18994517D01*
X29585733Y-19188784D01*
X29475126Y-19455156D01*
X29474874Y-19743579D01*
X29585016Y-20010143D01*
X29788784Y-20214267D01*
X30055156Y-20324874D01*
X30175000Y-20324979D01*
X30175000Y-20875000D01*
X29154060Y-20875000D01*
X29165000Y-20820000D01*
X29102201Y-20504286D01*
X28923363Y-20236637D01*
X28655714Y-20057799D01*
X28629063Y-20052498D01*
X28606408Y-20018592D01*
X28465827Y-19924659D01*
X28300000Y-19891674D01*
X26718845Y-19891674D01*
X26637389Y-19837247D01*
X26425000Y-19795000D01*
X25625000Y-19795000D01*
X25625000Y-19165992D01*
X25824132Y-19248679D01*
X26112555Y-19248931D01*
X26265033Y-19185928D01*
X26455156Y-19264874D01*
X26743579Y-19265126D01*
X27010143Y-19154984D01*
X27214267Y-18951216D01*
X27324874Y-18684844D01*
X27325001Y-18539179D01*
X27581682Y-18795860D01*
G36*
X38779000Y-19371000D02*
X38799000Y-19371000D01*
X38799000Y-19629000D01*
X38779000Y-19629000D01*
X38779000Y-19649000D01*
X38521000Y-19649000D01*
X38521000Y-19629000D01*
X38501000Y-19629000D01*
X38501000Y-19371000D01*
X38521000Y-19371000D01*
X38521000Y-19351000D01*
X38779000Y-19351000D01*
X38779000Y-19371000D01*
X38779000Y-19371000D01*
G37*
X38779000Y-19371000D02*
X38799000Y-19371000D01*
X38799000Y-19629000D01*
X38779000Y-19629000D01*
X38779000Y-19649000D01*
X38521000Y-19649000D01*
X38521000Y-19629000D01*
X38501000Y-19629000D01*
X38501000Y-19371000D01*
X38521000Y-19371000D01*
X38521000Y-19351000D01*
X38779000Y-19351000D01*
X38779000Y-19371000D01*
G36*
X48826637Y-15017089D02*
X48990471Y-15126559D01*
X49166674Y-15161608D01*
X49166674Y-16250000D01*
X49199659Y-16415827D01*
X49225842Y-16455013D01*
X46699890Y-16455013D01*
X46724874Y-16394844D01*
X46725126Y-16106421D01*
X46629002Y-15873783D01*
X46629002Y-15724752D01*
X46787250Y-15883000D01*
X46925912Y-15883000D01*
X47155177Y-15788035D01*
X47324088Y-15858000D01*
X47462750Y-15858000D01*
X47621000Y-15699750D01*
X47621000Y-15029000D01*
X47879000Y-15029000D01*
X47879000Y-15699750D01*
X48037250Y-15858000D01*
X48175912Y-15858000D01*
X48408566Y-15761631D01*
X48586632Y-15583565D01*
X48683000Y-15350911D01*
X48683000Y-15187250D01*
X48524750Y-15029000D01*
X47879000Y-15029000D01*
X47621000Y-15029000D01*
X46975250Y-15029000D01*
X46925250Y-15079000D01*
X46629000Y-15079000D01*
X46629000Y-15099000D01*
X46371000Y-15099000D01*
X46371000Y-15079000D01*
X45379000Y-15079000D01*
X45379000Y-15099000D01*
X45121000Y-15099000D01*
X45121000Y-15079000D01*
X45101000Y-15079000D01*
X45101000Y-14821000D01*
X45121000Y-14821000D01*
X45121000Y-14808326D01*
X45379000Y-14808326D01*
X45379000Y-14821000D01*
X46371000Y-14821000D01*
X46371000Y-14801000D01*
X46629000Y-14801000D01*
X46629000Y-14821000D01*
X47274750Y-14821000D01*
X47324750Y-14771000D01*
X47621000Y-14771000D01*
X47621000Y-14758326D01*
X47879000Y-14758326D01*
X47879000Y-14771000D01*
X48524750Y-14771000D01*
X48552649Y-14743101D01*
X48826637Y-15017089D01*
X48826637Y-15017089D01*
G37*
X48826637Y-15017089D02*
X48990471Y-15126559D01*
X49166674Y-15161608D01*
X49166674Y-16250000D01*
X49199659Y-16415827D01*
X49225842Y-16455013D01*
X46699890Y-16455013D01*
X46724874Y-16394844D01*
X46725126Y-16106421D01*
X46629002Y-15873783D01*
X46629002Y-15724752D01*
X46787250Y-15883000D01*
X46925912Y-15883000D01*
X47155177Y-15788035D01*
X47324088Y-15858000D01*
X47462750Y-15858000D01*
X47621000Y-15699750D01*
X47621000Y-15029000D01*
X47879000Y-15029000D01*
X47879000Y-15699750D01*
X48037250Y-15858000D01*
X48175912Y-15858000D01*
X48408566Y-15761631D01*
X48586632Y-15583565D01*
X48683000Y-15350911D01*
X48683000Y-15187250D01*
X48524750Y-15029000D01*
X47879000Y-15029000D01*
X47621000Y-15029000D01*
X46975250Y-15029000D01*
X46925250Y-15079000D01*
X46629000Y-15079000D01*
X46629000Y-15099000D01*
X46371000Y-15099000D01*
X46371000Y-15079000D01*
X45379000Y-15079000D01*
X45379000Y-15099000D01*
X45121000Y-15099000D01*
X45121000Y-15079000D01*
X45101000Y-15079000D01*
X45101000Y-14821000D01*
X45121000Y-14821000D01*
X45121000Y-14808326D01*
X45379000Y-14808326D01*
X45379000Y-14821000D01*
X46371000Y-14821000D01*
X46371000Y-14801000D01*
X46629000Y-14801000D01*
X46629000Y-14821000D01*
X47274750Y-14821000D01*
X47324750Y-14771000D01*
X47621000Y-14771000D01*
X47621000Y-14758326D01*
X47879000Y-14758326D01*
X47879000Y-14771000D01*
X48524750Y-14771000D01*
X48552649Y-14743101D01*
X48826637Y-15017089D01*
G36*
X30066674Y-13200000D02*
X30066674Y-13800000D01*
X30099659Y-13965827D01*
X30193592Y-14106408D01*
X30221417Y-14125000D01*
X30193592Y-14143592D01*
X30125834Y-14245000D01*
X29637641Y-14245000D01*
X29444386Y-14283441D01*
X29280552Y-14392911D01*
X29058539Y-14614924D01*
X28904147Y-14614789D01*
X28637583Y-14724931D01*
X28433459Y-14928699D01*
X28322852Y-15195071D01*
X28322812Y-15240937D01*
X28127919Y-15321465D01*
X27923795Y-15525233D01*
X27919740Y-15534999D01*
X27719560Y-15534999D01*
X27719634Y-15450148D01*
X27609492Y-15183584D01*
X27405724Y-14979460D01*
X27139352Y-14868853D01*
X26850929Y-14868601D01*
X26584365Y-14978743D01*
X26517992Y-15045000D01*
X26470380Y-15045000D01*
X26411216Y-14985733D01*
X26144844Y-14875126D01*
X25856421Y-14874874D01*
X25625000Y-14970495D01*
X25625000Y-14037500D01*
X25866674Y-14037500D01*
X25866674Y-14075000D01*
X25899659Y-14240827D01*
X25993592Y-14381408D01*
X26134173Y-14475341D01*
X26300000Y-14508326D01*
X28300000Y-14508326D01*
X28465827Y-14475341D01*
X28606408Y-14381408D01*
X28700341Y-14240827D01*
X28733326Y-14075000D01*
X28733326Y-14060388D01*
X28953363Y-13913363D01*
X29132201Y-13645714D01*
X29195000Y-13330000D01*
X29154223Y-13125000D01*
X30081592Y-13125000D01*
X30066674Y-13200000D01*
X30066674Y-13200000D01*
G37*
X30066674Y-13200000D02*
X30066674Y-13800000D01*
X30099659Y-13965827D01*
X30193592Y-14106408D01*
X30221417Y-14125000D01*
X30193592Y-14143592D01*
X30125834Y-14245000D01*
X29637641Y-14245000D01*
X29444386Y-14283441D01*
X29280552Y-14392911D01*
X29058539Y-14614924D01*
X28904147Y-14614789D01*
X28637583Y-14724931D01*
X28433459Y-14928699D01*
X28322852Y-15195071D01*
X28322812Y-15240937D01*
X28127919Y-15321465D01*
X27923795Y-15525233D01*
X27919740Y-15534999D01*
X27719560Y-15534999D01*
X27719634Y-15450148D01*
X27609492Y-15183584D01*
X27405724Y-14979460D01*
X27139352Y-14868853D01*
X26850929Y-14868601D01*
X26584365Y-14978743D01*
X26517992Y-15045000D01*
X26470380Y-15045000D01*
X26411216Y-14985733D01*
X26144844Y-14875126D01*
X25856421Y-14874874D01*
X25625000Y-14970495D01*
X25625000Y-14037500D01*
X25866674Y-14037500D01*
X25866674Y-14075000D01*
X25899659Y-14240827D01*
X25993592Y-14381408D01*
X26134173Y-14475341D01*
X26300000Y-14508326D01*
X28300000Y-14508326D01*
X28465827Y-14475341D01*
X28606408Y-14381408D01*
X28700341Y-14240827D01*
X28733326Y-14075000D01*
X28733326Y-14060388D01*
X28953363Y-13913363D01*
X29132201Y-13645714D01*
X29195000Y-13330000D01*
X29154223Y-13125000D01*
X30081592Y-13125000D01*
X30066674Y-13200000D01*
G36*
X42629000Y-14771000D02*
X42649000Y-14771000D01*
X42649000Y-15029000D01*
X42629000Y-15029000D01*
X42629000Y-15049000D01*
X42371000Y-15049000D01*
X42371000Y-15029000D01*
X42351000Y-15029000D01*
X42351000Y-14771000D01*
X42371000Y-14771000D01*
X42371000Y-14758326D01*
X42629000Y-14758326D01*
X42629000Y-14771000D01*
X42629000Y-14771000D01*
G37*
X42629000Y-14771000D02*
X42649000Y-14771000D01*
X42649000Y-15029000D01*
X42629000Y-15029000D01*
X42629000Y-15049000D01*
X42371000Y-15049000D01*
X42371000Y-15029000D01*
X42351000Y-15029000D01*
X42351000Y-14771000D01*
X42371000Y-14771000D01*
X42371000Y-14758326D01*
X42629000Y-14758326D01*
X42629000Y-14771000D01*
G36*
X53925264Y-9025000D02*
X55155000Y-9025000D01*
X55155000Y-9005000D01*
X55605000Y-9005000D01*
X55605000Y-9025000D01*
X55625000Y-9025000D01*
X55625000Y-9475000D01*
X55605000Y-9475000D01*
X55605000Y-9495000D01*
X55155000Y-9495000D01*
X55155000Y-9475000D01*
X53925264Y-9475000D01*
X53817396Y-9693620D01*
X54007571Y-10070917D01*
X54410968Y-10457098D01*
X54931444Y-10659509D01*
X55154998Y-10522789D01*
X55154998Y-10625717D01*
X54743571Y-10795715D01*
X54426828Y-11111907D01*
X54255196Y-11525242D01*
X54254805Y-11972795D01*
X54301168Y-12085001D01*
X54183725Y-12085001D01*
X53990470Y-12123442D01*
X53826636Y-12232912D01*
X53232911Y-12826637D01*
X53123441Y-12990471D01*
X53085000Y-13183726D01*
X53085000Y-13748260D01*
X52948271Y-13884989D01*
X52933000Y-13884989D01*
X52933000Y-13687250D01*
X52774750Y-13529000D01*
X51879000Y-13529000D01*
X51879000Y-13549000D01*
X51621000Y-13549000D01*
X51621000Y-13529000D01*
X51601000Y-13529000D01*
X51601000Y-13271000D01*
X51621000Y-13271000D01*
X51621000Y-12275250D01*
X51879000Y-12275250D01*
X51879000Y-13271000D01*
X52774750Y-13271000D01*
X52933000Y-13112750D01*
X52933000Y-12624089D01*
X52836632Y-12391435D01*
X52658566Y-12213369D01*
X52425912Y-12117000D01*
X52037250Y-12117000D01*
X51879000Y-12275250D01*
X51621000Y-12275250D01*
X51462750Y-12117000D01*
X51074088Y-12117000D01*
X50841434Y-12213369D01*
X50689396Y-12365407D01*
X50665827Y-12349659D01*
X50500000Y-12316674D01*
X49600000Y-12316674D01*
X49434173Y-12349659D01*
X49415000Y-12362470D01*
X49415000Y-11637530D01*
X49434173Y-11650341D01*
X49600000Y-11683326D01*
X50500000Y-11683326D01*
X50665827Y-11650341D01*
X50806408Y-11556408D01*
X50900341Y-11415827D01*
X50933326Y-11250000D01*
X50933326Y-10430852D01*
X51066674Y-10297504D01*
X51066674Y-10390489D01*
X51025000Y-10600000D01*
X51066674Y-10809511D01*
X51066674Y-11250000D01*
X51099659Y-11415827D01*
X51193592Y-11556408D01*
X51334173Y-11650341D01*
X51500000Y-11683326D01*
X51875178Y-11683326D01*
X52095926Y-11904074D01*
X52396018Y-12104589D01*
X52750000Y-12175000D01*
X53103983Y-12104589D01*
X53404074Y-11904074D01*
X53604589Y-11603983D01*
X53675000Y-11250000D01*
X53604589Y-10896018D01*
X53600363Y-10889693D01*
X53660143Y-10864992D01*
X53864267Y-10661224D01*
X53974874Y-10394852D01*
X53975126Y-10106429D01*
X53864984Y-9839865D01*
X53661216Y-9635741D01*
X53394844Y-9525134D01*
X53239168Y-9524998D01*
X53214174Y-9500004D01*
X53556278Y-9157900D01*
X53660143Y-9114984D01*
X53864267Y-8911216D01*
X53866486Y-8905872D01*
X53925264Y-9025000D01*
X53925264Y-9025000D01*
G37*
X53925264Y-9025000D02*
X55155000Y-9025000D01*
X55155000Y-9005000D01*
X55605000Y-9005000D01*
X55605000Y-9025000D01*
X55625000Y-9025000D01*
X55625000Y-9475000D01*
X55605000Y-9475000D01*
X55605000Y-9495000D01*
X55155000Y-9495000D01*
X55155000Y-9475000D01*
X53925264Y-9475000D01*
X53817396Y-9693620D01*
X54007571Y-10070917D01*
X54410968Y-10457098D01*
X54931444Y-10659509D01*
X55154998Y-10522789D01*
X55154998Y-10625717D01*
X54743571Y-10795715D01*
X54426828Y-11111907D01*
X54255196Y-11525242D01*
X54254805Y-11972795D01*
X54301168Y-12085001D01*
X54183725Y-12085001D01*
X53990470Y-12123442D01*
X53826636Y-12232912D01*
X53232911Y-12826637D01*
X53123441Y-12990471D01*
X53085000Y-13183726D01*
X53085000Y-13748260D01*
X52948271Y-13884989D01*
X52933000Y-13884989D01*
X52933000Y-13687250D01*
X52774750Y-13529000D01*
X51879000Y-13529000D01*
X51879000Y-13549000D01*
X51621000Y-13549000D01*
X51621000Y-13529000D01*
X51601000Y-13529000D01*
X51601000Y-13271000D01*
X51621000Y-13271000D01*
X51621000Y-12275250D01*
X51879000Y-12275250D01*
X51879000Y-13271000D01*
X52774750Y-13271000D01*
X52933000Y-13112750D01*
X52933000Y-12624089D01*
X52836632Y-12391435D01*
X52658566Y-12213369D01*
X52425912Y-12117000D01*
X52037250Y-12117000D01*
X51879000Y-12275250D01*
X51621000Y-12275250D01*
X51462750Y-12117000D01*
X51074088Y-12117000D01*
X50841434Y-12213369D01*
X50689396Y-12365407D01*
X50665827Y-12349659D01*
X50500000Y-12316674D01*
X49600000Y-12316674D01*
X49434173Y-12349659D01*
X49415000Y-12362470D01*
X49415000Y-11637530D01*
X49434173Y-11650341D01*
X49600000Y-11683326D01*
X50500000Y-11683326D01*
X50665827Y-11650341D01*
X50806408Y-11556408D01*
X50900341Y-11415827D01*
X50933326Y-11250000D01*
X50933326Y-10430852D01*
X51066674Y-10297504D01*
X51066674Y-10390489D01*
X51025000Y-10600000D01*
X51066674Y-10809511D01*
X51066674Y-11250000D01*
X51099659Y-11415827D01*
X51193592Y-11556408D01*
X51334173Y-11650341D01*
X51500000Y-11683326D01*
X51875178Y-11683326D01*
X52095926Y-11904074D01*
X52396018Y-12104589D01*
X52750000Y-12175000D01*
X53103983Y-12104589D01*
X53404074Y-11904074D01*
X53604589Y-11603983D01*
X53675000Y-11250000D01*
X53604589Y-10896018D01*
X53600363Y-10889693D01*
X53660143Y-10864992D01*
X53864267Y-10661224D01*
X53974874Y-10394852D01*
X53975126Y-10106429D01*
X53864984Y-9839865D01*
X53661216Y-9635741D01*
X53394844Y-9525134D01*
X53239168Y-9524998D01*
X53214174Y-9500004D01*
X53556278Y-9157900D01*
X53660143Y-9114984D01*
X53864267Y-8911216D01*
X53866486Y-8905872D01*
X53925264Y-9025000D01*
G36*
X40589857Y-4635016D02*
X40385733Y-4838784D01*
X40275126Y-5105156D01*
X40274874Y-5393579D01*
X40385016Y-5660143D01*
X40588784Y-5864267D01*
X40855156Y-5974874D01*
X41143579Y-5975126D01*
X41410143Y-5864984D01*
X41425000Y-5850153D01*
X41425000Y-6425000D01*
X40756388Y-6425000D01*
X40536345Y-6468769D01*
X40349802Y-6593414D01*
X40225157Y-6779957D01*
X40181388Y-7000000D01*
X40225157Y-7220043D01*
X40245174Y-7250000D01*
X40225157Y-7279957D01*
X40197387Y-7419569D01*
X39388909Y-6611091D01*
X39210476Y-6491866D01*
X39108522Y-6471586D01*
X39056408Y-6393592D01*
X38915827Y-6299659D01*
X38750000Y-6266674D01*
X38311871Y-6266674D01*
X38208565Y-6163368D01*
X37975911Y-6067000D01*
X37837250Y-6067000D01*
X37679000Y-6225250D01*
X37679000Y-6871000D01*
X37699000Y-6871000D01*
X37699000Y-7129000D01*
X37679000Y-7129000D01*
X37679000Y-8121000D01*
X37691674Y-8121000D01*
X37691674Y-8379000D01*
X37679000Y-8379000D01*
X37679000Y-9371000D01*
X37699000Y-9371000D01*
X37699000Y-9629000D01*
X37679000Y-9629000D01*
X37679000Y-10621000D01*
X37699000Y-10621000D01*
X37699000Y-10879000D01*
X37679000Y-10879000D01*
X37679000Y-11871000D01*
X37699000Y-11871000D01*
X37699000Y-12129000D01*
X37679000Y-12129000D01*
X37679000Y-12774750D01*
X37837250Y-12933000D01*
X37975911Y-12933000D01*
X38208565Y-12836632D01*
X38311871Y-12733326D01*
X38750000Y-12733326D01*
X38915827Y-12700341D01*
X39025107Y-12627323D01*
X39024874Y-12893579D01*
X39135016Y-13160143D01*
X39338784Y-13364267D01*
X39516674Y-13438133D01*
X39516674Y-13566674D01*
X38978054Y-13566674D01*
X38734290Y-13322910D01*
X38570456Y-13213440D01*
X38377201Y-13174999D01*
X34462353Y-13174999D01*
X34469411Y-13158000D01*
X34512750Y-13158000D01*
X34671000Y-12999750D01*
X34671000Y-12325000D01*
X34800000Y-12325000D01*
X34929000Y-12299340D01*
X34929000Y-12999750D01*
X35087250Y-13158000D01*
X35400911Y-13158000D01*
X35633565Y-13061632D01*
X35811631Y-12883566D01*
X35908000Y-12650912D01*
X35908000Y-12287250D01*
X36617000Y-12287250D01*
X36617000Y-12425912D01*
X36713369Y-12658566D01*
X36891435Y-12836632D01*
X37124089Y-12933000D01*
X37262750Y-12933000D01*
X37421000Y-12774750D01*
X37421000Y-12129000D01*
X36775250Y-12129000D01*
X36617000Y-12287250D01*
X35908000Y-12287250D01*
X35908000Y-12087250D01*
X35749750Y-11929000D01*
X35299340Y-11929000D01*
X35325000Y-11800000D01*
X35299340Y-11671000D01*
X35749750Y-11671000D01*
X35908000Y-11512750D01*
X35908000Y-11037250D01*
X36617000Y-11037250D01*
X36617000Y-11175912D01*
X36699465Y-11375000D01*
X36617000Y-11574088D01*
X36617000Y-11712750D01*
X36775250Y-11871000D01*
X37421000Y-11871000D01*
X37421000Y-10879000D01*
X36775250Y-10879000D01*
X36617000Y-11037250D01*
X35908000Y-11037250D01*
X35908000Y-10949088D01*
X35811631Y-10716434D01*
X35695197Y-10600000D01*
X35811631Y-10483566D01*
X35908000Y-10250912D01*
X35908000Y-9787250D01*
X36617000Y-9787250D01*
X36617000Y-9925912D01*
X36699465Y-10125000D01*
X36617000Y-10324088D01*
X36617000Y-10462750D01*
X36775250Y-10621000D01*
X37421000Y-10621000D01*
X37421000Y-9629000D01*
X36775250Y-9629000D01*
X36617000Y-9787250D01*
X35908000Y-9787250D01*
X35908000Y-9687250D01*
X35749750Y-9529000D01*
X34929000Y-9529000D01*
X34929000Y-10599750D01*
X34929250Y-10600000D01*
X34929000Y-10600250D01*
X34929000Y-11300660D01*
X34800000Y-11275000D01*
X34671000Y-11275000D01*
X34671000Y-10600250D01*
X34670750Y-10600000D01*
X34671000Y-10599750D01*
X34671000Y-9529000D01*
X34651000Y-9529000D01*
X34651000Y-9271000D01*
X34671000Y-9271000D01*
X34671000Y-8200250D01*
X34929000Y-8200250D01*
X34929000Y-9271000D01*
X35749750Y-9271000D01*
X35908000Y-9112750D01*
X35908000Y-8549088D01*
X35903097Y-8537250D01*
X36592000Y-8537250D01*
X36592000Y-8675912D01*
X36686965Y-8905177D01*
X36617000Y-9074088D01*
X36617000Y-9212750D01*
X36775250Y-9371000D01*
X37421000Y-9371000D01*
X37421000Y-8379000D01*
X36750250Y-8379000D01*
X36592000Y-8537250D01*
X35903097Y-8537250D01*
X35811631Y-8316434D01*
X35633565Y-8138368D01*
X35400911Y-8042000D01*
X35087250Y-8042000D01*
X34929000Y-8200250D01*
X34671000Y-8200250D01*
X34512750Y-8042000D01*
X34199089Y-8042000D01*
X33966435Y-8138368D01*
X33788369Y-8316434D01*
X33692000Y-8549088D01*
X33692000Y-8592924D01*
X33675341Y-8509173D01*
X33581408Y-8368592D01*
X33464423Y-8290426D01*
X33524874Y-8144844D01*
X33525126Y-7856421D01*
X33511767Y-7824088D01*
X36592000Y-7824088D01*
X36592000Y-7962750D01*
X36750250Y-8121000D01*
X37421000Y-8121000D01*
X37421000Y-7129000D01*
X36775250Y-7129000D01*
X36617000Y-7287250D01*
X36617000Y-7425912D01*
X36686965Y-7594823D01*
X36592000Y-7824088D01*
X33511767Y-7824088D01*
X33414984Y-7589857D01*
X33211216Y-7385733D01*
X32944844Y-7275126D01*
X32656421Y-7274874D01*
X32389857Y-7385016D01*
X32185733Y-7588784D01*
X32075126Y-7855156D01*
X32074874Y-8143579D01*
X32135556Y-8290440D01*
X32018592Y-8368592D01*
X31924659Y-8509173D01*
X31891674Y-8675000D01*
X31891674Y-10125000D01*
X31924659Y-10290827D01*
X32018592Y-10431408D01*
X32159173Y-10525341D01*
X32325000Y-10558326D01*
X33275000Y-10558326D01*
X33440827Y-10525341D01*
X33581408Y-10431408D01*
X33675341Y-10290827D01*
X33692000Y-10207076D01*
X33692000Y-10250912D01*
X33788369Y-10483566D01*
X33904803Y-10600000D01*
X33788369Y-10716434D01*
X33692000Y-10949088D01*
X33692000Y-10992924D01*
X33675341Y-10909173D01*
X33581408Y-10768592D01*
X33440827Y-10674659D01*
X33275000Y-10641674D01*
X32325000Y-10641674D01*
X32159173Y-10674659D01*
X32018592Y-10768592D01*
X31924659Y-10909173D01*
X31891674Y-11075000D01*
X31891674Y-12525000D01*
X31924659Y-12690827D01*
X31960856Y-12745000D01*
X31950000Y-12745000D01*
X31841038Y-12766674D01*
X31400000Y-12766674D01*
X31250000Y-12796511D01*
X31100000Y-12766674D01*
X30625000Y-12766674D01*
X30625000Y-6574088D01*
X36617000Y-6574088D01*
X36617000Y-6712750D01*
X36775250Y-6871000D01*
X37421000Y-6871000D01*
X37421000Y-6225250D01*
X37262750Y-6067000D01*
X37124089Y-6067000D01*
X36891435Y-6163368D01*
X36713369Y-6341434D01*
X36617000Y-6574088D01*
X30625000Y-6574088D01*
X30625000Y-4695836D01*
X30653373Y-4653373D01*
X30695836Y-4625000D01*
X40614098Y-4625000D01*
X40589857Y-4635016D01*
X40589857Y-4635016D01*
G37*
X40589857Y-4635016D02*
X40385733Y-4838784D01*
X40275126Y-5105156D01*
X40274874Y-5393579D01*
X40385016Y-5660143D01*
X40588784Y-5864267D01*
X40855156Y-5974874D01*
X41143579Y-5975126D01*
X41410143Y-5864984D01*
X41425000Y-5850153D01*
X41425000Y-6425000D01*
X40756388Y-6425000D01*
X40536345Y-6468769D01*
X40349802Y-6593414D01*
X40225157Y-6779957D01*
X40181388Y-7000000D01*
X40225157Y-7220043D01*
X40245174Y-7250000D01*
X40225157Y-7279957D01*
X40197387Y-7419569D01*
X39388909Y-6611091D01*
X39210476Y-6491866D01*
X39108522Y-6471586D01*
X39056408Y-6393592D01*
X38915827Y-6299659D01*
X38750000Y-6266674D01*
X38311871Y-6266674D01*
X38208565Y-6163368D01*
X37975911Y-6067000D01*
X37837250Y-6067000D01*
X37679000Y-6225250D01*
X37679000Y-6871000D01*
X37699000Y-6871000D01*
X37699000Y-7129000D01*
X37679000Y-7129000D01*
X37679000Y-8121000D01*
X37691674Y-8121000D01*
X37691674Y-8379000D01*
X37679000Y-8379000D01*
X37679000Y-9371000D01*
X37699000Y-9371000D01*
X37699000Y-9629000D01*
X37679000Y-9629000D01*
X37679000Y-10621000D01*
X37699000Y-10621000D01*
X37699000Y-10879000D01*
X37679000Y-10879000D01*
X37679000Y-11871000D01*
X37699000Y-11871000D01*
X37699000Y-12129000D01*
X37679000Y-12129000D01*
X37679000Y-12774750D01*
X37837250Y-12933000D01*
X37975911Y-12933000D01*
X38208565Y-12836632D01*
X38311871Y-12733326D01*
X38750000Y-12733326D01*
X38915827Y-12700341D01*
X39025107Y-12627323D01*
X39024874Y-12893579D01*
X39135016Y-13160143D01*
X39338784Y-13364267D01*
X39516674Y-13438133D01*
X39516674Y-13566674D01*
X38978054Y-13566674D01*
X38734290Y-13322910D01*
X38570456Y-13213440D01*
X38377201Y-13174999D01*
X34462353Y-13174999D01*
X34469411Y-13158000D01*
X34512750Y-13158000D01*
X34671000Y-12999750D01*
X34671000Y-12325000D01*
X34800000Y-12325000D01*
X34929000Y-12299340D01*
X34929000Y-12999750D01*
X35087250Y-13158000D01*
X35400911Y-13158000D01*
X35633565Y-13061632D01*
X35811631Y-12883566D01*
X35908000Y-12650912D01*
X35908000Y-12287250D01*
X36617000Y-12287250D01*
X36617000Y-12425912D01*
X36713369Y-12658566D01*
X36891435Y-12836632D01*
X37124089Y-12933000D01*
X37262750Y-12933000D01*
X37421000Y-12774750D01*
X37421000Y-12129000D01*
X36775250Y-12129000D01*
X36617000Y-12287250D01*
X35908000Y-12287250D01*
X35908000Y-12087250D01*
X35749750Y-11929000D01*
X35299340Y-11929000D01*
X35325000Y-11800000D01*
X35299340Y-11671000D01*
X35749750Y-11671000D01*
X35908000Y-11512750D01*
X35908000Y-11037250D01*
X36617000Y-11037250D01*
X36617000Y-11175912D01*
X36699465Y-11375000D01*
X36617000Y-11574088D01*
X36617000Y-11712750D01*
X36775250Y-11871000D01*
X37421000Y-11871000D01*
X37421000Y-10879000D01*
X36775250Y-10879000D01*
X36617000Y-11037250D01*
X35908000Y-11037250D01*
X35908000Y-10949088D01*
X35811631Y-10716434D01*
X35695197Y-10600000D01*
X35811631Y-10483566D01*
X35908000Y-10250912D01*
X35908000Y-9787250D01*
X36617000Y-9787250D01*
X36617000Y-9925912D01*
X36699465Y-10125000D01*
X36617000Y-10324088D01*
X36617000Y-10462750D01*
X36775250Y-10621000D01*
X37421000Y-10621000D01*
X37421000Y-9629000D01*
X36775250Y-9629000D01*
X36617000Y-9787250D01*
X35908000Y-9787250D01*
X35908000Y-9687250D01*
X35749750Y-9529000D01*
X34929000Y-9529000D01*
X34929000Y-10599750D01*
X34929250Y-10600000D01*
X34929000Y-10600250D01*
X34929000Y-11300660D01*
X34800000Y-11275000D01*
X34671000Y-11275000D01*
X34671000Y-10600250D01*
X34670750Y-10600000D01*
X34671000Y-10599750D01*
X34671000Y-9529000D01*
X34651000Y-9529000D01*
X34651000Y-9271000D01*
X34671000Y-9271000D01*
X34671000Y-8200250D01*
X34929000Y-8200250D01*
X34929000Y-9271000D01*
X35749750Y-9271000D01*
X35908000Y-9112750D01*
X35908000Y-8549088D01*
X35903097Y-8537250D01*
X36592000Y-8537250D01*
X36592000Y-8675912D01*
X36686965Y-8905177D01*
X36617000Y-9074088D01*
X36617000Y-9212750D01*
X36775250Y-9371000D01*
X37421000Y-9371000D01*
X37421000Y-8379000D01*
X36750250Y-8379000D01*
X36592000Y-8537250D01*
X35903097Y-8537250D01*
X35811631Y-8316434D01*
X35633565Y-8138368D01*
X35400911Y-8042000D01*
X35087250Y-8042000D01*
X34929000Y-8200250D01*
X34671000Y-8200250D01*
X34512750Y-8042000D01*
X34199089Y-8042000D01*
X33966435Y-8138368D01*
X33788369Y-8316434D01*
X33692000Y-8549088D01*
X33692000Y-8592924D01*
X33675341Y-8509173D01*
X33581408Y-8368592D01*
X33464423Y-8290426D01*
X33524874Y-8144844D01*
X33525126Y-7856421D01*
X33511767Y-7824088D01*
X36592000Y-7824088D01*
X36592000Y-7962750D01*
X36750250Y-8121000D01*
X37421000Y-8121000D01*
X37421000Y-7129000D01*
X36775250Y-7129000D01*
X36617000Y-7287250D01*
X36617000Y-7425912D01*
X36686965Y-7594823D01*
X36592000Y-7824088D01*
X33511767Y-7824088D01*
X33414984Y-7589857D01*
X33211216Y-7385733D01*
X32944844Y-7275126D01*
X32656421Y-7274874D01*
X32389857Y-7385016D01*
X32185733Y-7588784D01*
X32075126Y-7855156D01*
X32074874Y-8143579D01*
X32135556Y-8290440D01*
X32018592Y-8368592D01*
X31924659Y-8509173D01*
X31891674Y-8675000D01*
X31891674Y-10125000D01*
X31924659Y-10290827D01*
X32018592Y-10431408D01*
X32159173Y-10525341D01*
X32325000Y-10558326D01*
X33275000Y-10558326D01*
X33440827Y-10525341D01*
X33581408Y-10431408D01*
X33675341Y-10290827D01*
X33692000Y-10207076D01*
X33692000Y-10250912D01*
X33788369Y-10483566D01*
X33904803Y-10600000D01*
X33788369Y-10716434D01*
X33692000Y-10949088D01*
X33692000Y-10992924D01*
X33675341Y-10909173D01*
X33581408Y-10768592D01*
X33440827Y-10674659D01*
X33275000Y-10641674D01*
X32325000Y-10641674D01*
X32159173Y-10674659D01*
X32018592Y-10768592D01*
X31924659Y-10909173D01*
X31891674Y-11075000D01*
X31891674Y-12525000D01*
X31924659Y-12690827D01*
X31960856Y-12745000D01*
X31950000Y-12745000D01*
X31841038Y-12766674D01*
X31400000Y-12766674D01*
X31250000Y-12796511D01*
X31100000Y-12766674D01*
X30625000Y-12766674D01*
X30625000Y-6574088D01*
X36617000Y-6574088D01*
X36617000Y-6712750D01*
X36775250Y-6871000D01*
X37421000Y-6871000D01*
X37421000Y-6225250D01*
X37262750Y-6067000D01*
X37124089Y-6067000D01*
X36891435Y-6163368D01*
X36713369Y-6341434D01*
X36617000Y-6574088D01*
X30625000Y-6574088D01*
X30625000Y-4695836D01*
X30653373Y-4653373D01*
X30695836Y-4625000D01*
X40614098Y-4625000D01*
X40589857Y-4635016D01*
G36*
X45779957Y-7074843D02*
X45901067Y-7098933D01*
X45925157Y-7220043D01*
X45945174Y-7250000D01*
X45925157Y-7279957D01*
X45881388Y-7500000D01*
X45925157Y-7720043D01*
X45945174Y-7750000D01*
X45925157Y-7779957D01*
X45881388Y-8000000D01*
X45925157Y-8220043D01*
X45945174Y-8250000D01*
X45925157Y-8279957D01*
X45881388Y-8500000D01*
X45925157Y-8720043D01*
X45945174Y-8750000D01*
X45925157Y-8779957D01*
X45881388Y-9000000D01*
X45925157Y-9220043D01*
X45945174Y-9250000D01*
X45925157Y-9279957D01*
X45881388Y-9500000D01*
X45925157Y-9720043D01*
X45945174Y-9750000D01*
X45925157Y-9779957D01*
X45881388Y-10000000D01*
X45925157Y-10220043D01*
X45945174Y-10250000D01*
X45925157Y-10279957D01*
X45881388Y-10500000D01*
X45925157Y-10720043D01*
X45945174Y-10750000D01*
X45925157Y-10779957D01*
X45901067Y-10901067D01*
X45779957Y-10925157D01*
X45750000Y-10945174D01*
X45720043Y-10925157D01*
X45500000Y-10881388D01*
X45279957Y-10925157D01*
X45250000Y-10945174D01*
X45220043Y-10925157D01*
X45000000Y-10881388D01*
X44779957Y-10925157D01*
X44750000Y-10945174D01*
X44720043Y-10925157D01*
X44500000Y-10881388D01*
X44279957Y-10925157D01*
X44250000Y-10945174D01*
X44220043Y-10925157D01*
X44000000Y-10881388D01*
X43779957Y-10925157D01*
X43750000Y-10945174D01*
X43720043Y-10925157D01*
X43500000Y-10881388D01*
X43279957Y-10925157D01*
X43250000Y-10945174D01*
X43220043Y-10925157D01*
X43000000Y-10881388D01*
X42779957Y-10925157D01*
X42750000Y-10945174D01*
X42720043Y-10925157D01*
X42500000Y-10881388D01*
X42279957Y-10925157D01*
X42250000Y-10945174D01*
X42220043Y-10925157D01*
X42098933Y-10901067D01*
X42074843Y-10779957D01*
X42054826Y-10750000D01*
X42074843Y-10720043D01*
X42118612Y-10500000D01*
X42074843Y-10279957D01*
X42054826Y-10250000D01*
X42074843Y-10220043D01*
X42118612Y-10000000D01*
X42074843Y-9779957D01*
X42054826Y-9750000D01*
X42074843Y-9720043D01*
X42118612Y-9500000D01*
X42074843Y-9279957D01*
X42054826Y-9250000D01*
X42074843Y-9220043D01*
X42118612Y-9000000D01*
X42074843Y-8779957D01*
X42054826Y-8750000D01*
X42074843Y-8720043D01*
X42118612Y-8500000D01*
X42074843Y-8279957D01*
X42054826Y-8250000D01*
X42074843Y-8220043D01*
X42118612Y-8000000D01*
X42074843Y-7779957D01*
X42054826Y-7750000D01*
X42074843Y-7720043D01*
X42118612Y-7500000D01*
X42074843Y-7279957D01*
X42054826Y-7250000D01*
X42074843Y-7220043D01*
X42098933Y-7098933D01*
X42220043Y-7074843D01*
X42250000Y-7054826D01*
X42279957Y-7074843D01*
X42500000Y-7118612D01*
X42720043Y-7074843D01*
X42750000Y-7054826D01*
X42779957Y-7074843D01*
X43000000Y-7118612D01*
X43220043Y-7074843D01*
X43250000Y-7054826D01*
X43279957Y-7074843D01*
X43500000Y-7118612D01*
X43720043Y-7074843D01*
X43750000Y-7054826D01*
X43779957Y-7074843D01*
X44000000Y-7118612D01*
X44220043Y-7074843D01*
X44250000Y-7054826D01*
X44279957Y-7074843D01*
X44500000Y-7118612D01*
X44720043Y-7074843D01*
X44750000Y-7054826D01*
X44779957Y-7074843D01*
X45000000Y-7118612D01*
X45220043Y-7074843D01*
X45250000Y-7054826D01*
X45279957Y-7074843D01*
X45500000Y-7118612D01*
X45720043Y-7074843D01*
X45750000Y-7054826D01*
X45779957Y-7074843D01*
X45779957Y-7074843D01*
G37*
X45779957Y-7074843D02*
X45901067Y-7098933D01*
X45925157Y-7220043D01*
X45945174Y-7250000D01*
X45925157Y-7279957D01*
X45881388Y-7500000D01*
X45925157Y-7720043D01*
X45945174Y-7750000D01*
X45925157Y-7779957D01*
X45881388Y-8000000D01*
X45925157Y-8220043D01*
X45945174Y-8250000D01*
X45925157Y-8279957D01*
X45881388Y-8500000D01*
X45925157Y-8720043D01*
X45945174Y-8750000D01*
X45925157Y-8779957D01*
X45881388Y-9000000D01*
X45925157Y-9220043D01*
X45945174Y-9250000D01*
X45925157Y-9279957D01*
X45881388Y-9500000D01*
X45925157Y-9720043D01*
X45945174Y-9750000D01*
X45925157Y-9779957D01*
X45881388Y-10000000D01*
X45925157Y-10220043D01*
X45945174Y-10250000D01*
X45925157Y-10279957D01*
X45881388Y-10500000D01*
X45925157Y-10720043D01*
X45945174Y-10750000D01*
X45925157Y-10779957D01*
X45901067Y-10901067D01*
X45779957Y-10925157D01*
X45750000Y-10945174D01*
X45720043Y-10925157D01*
X45500000Y-10881388D01*
X45279957Y-10925157D01*
X45250000Y-10945174D01*
X45220043Y-10925157D01*
X45000000Y-10881388D01*
X44779957Y-10925157D01*
X44750000Y-10945174D01*
X44720043Y-10925157D01*
X44500000Y-10881388D01*
X44279957Y-10925157D01*
X44250000Y-10945174D01*
X44220043Y-10925157D01*
X44000000Y-10881388D01*
X43779957Y-10925157D01*
X43750000Y-10945174D01*
X43720043Y-10925157D01*
X43500000Y-10881388D01*
X43279957Y-10925157D01*
X43250000Y-10945174D01*
X43220043Y-10925157D01*
X43000000Y-10881388D01*
X42779957Y-10925157D01*
X42750000Y-10945174D01*
X42720043Y-10925157D01*
X42500000Y-10881388D01*
X42279957Y-10925157D01*
X42250000Y-10945174D01*
X42220043Y-10925157D01*
X42098933Y-10901067D01*
X42074843Y-10779957D01*
X42054826Y-10750000D01*
X42074843Y-10720043D01*
X42118612Y-10500000D01*
X42074843Y-10279957D01*
X42054826Y-10250000D01*
X42074843Y-10220043D01*
X42118612Y-10000000D01*
X42074843Y-9779957D01*
X42054826Y-9750000D01*
X42074843Y-9720043D01*
X42118612Y-9500000D01*
X42074843Y-9279957D01*
X42054826Y-9250000D01*
X42074843Y-9220043D01*
X42118612Y-9000000D01*
X42074843Y-8779957D01*
X42054826Y-8750000D01*
X42074843Y-8720043D01*
X42118612Y-8500000D01*
X42074843Y-8279957D01*
X42054826Y-8250000D01*
X42074843Y-8220043D01*
X42118612Y-8000000D01*
X42074843Y-7779957D01*
X42054826Y-7750000D01*
X42074843Y-7720043D01*
X42118612Y-7500000D01*
X42074843Y-7279957D01*
X42054826Y-7250000D01*
X42074843Y-7220043D01*
X42098933Y-7098933D01*
X42220043Y-7074843D01*
X42250000Y-7054826D01*
X42279957Y-7074843D01*
X42500000Y-7118612D01*
X42720043Y-7074843D01*
X42750000Y-7054826D01*
X42779957Y-7074843D01*
X43000000Y-7118612D01*
X43220043Y-7074843D01*
X43250000Y-7054826D01*
X43279957Y-7074843D01*
X43500000Y-7118612D01*
X43720043Y-7074843D01*
X43750000Y-7054826D01*
X43779957Y-7074843D01*
X44000000Y-7118612D01*
X44220043Y-7074843D01*
X44250000Y-7054826D01*
X44279957Y-7074843D01*
X44500000Y-7118612D01*
X44720043Y-7074843D01*
X44750000Y-7054826D01*
X44779957Y-7074843D01*
X45000000Y-7118612D01*
X45220043Y-7074843D01*
X45250000Y-7054826D01*
X45279957Y-7074843D01*
X45500000Y-7118612D01*
X45720043Y-7074843D01*
X45750000Y-7054826D01*
X45779957Y-7074843D01*
G36*
X47938369Y-5591434D02*
X47842000Y-5824088D01*
X47842000Y-5962750D01*
X48000250Y-6121000D01*
X48671000Y-6121000D01*
X48671000Y-6101000D01*
X48929000Y-6101000D01*
X48929000Y-6121000D01*
X48941674Y-6121000D01*
X48941674Y-6379000D01*
X48929000Y-6379000D01*
X48929000Y-7024750D01*
X49087250Y-7183000D01*
X49250911Y-7183000D01*
X49483565Y-7086632D01*
X49586871Y-6983326D01*
X49775101Y-6983326D01*
X49774874Y-7243579D01*
X49805076Y-7316674D01*
X49600000Y-7316674D01*
X49434173Y-7349659D01*
X49293592Y-7443592D01*
X49199659Y-7584173D01*
X49166674Y-7750000D01*
X49166674Y-8369148D01*
X48961757Y-8574065D01*
X48864984Y-8339857D01*
X48661216Y-8135733D01*
X48394844Y-8025126D01*
X48106421Y-8024874D01*
X47839857Y-8135016D01*
X47779838Y-8194930D01*
X47818612Y-8000000D01*
X47774843Y-7779957D01*
X47754826Y-7750000D01*
X47774843Y-7720043D01*
X47818612Y-7500000D01*
X47774843Y-7279957D01*
X47754826Y-7250000D01*
X47774843Y-7220043D01*
X47818612Y-7000000D01*
X47774843Y-6779957D01*
X47650198Y-6593414D01*
X47566144Y-6537250D01*
X47842000Y-6537250D01*
X47842000Y-6675912D01*
X47938369Y-6908566D01*
X48116435Y-7086632D01*
X48349089Y-7183000D01*
X48512750Y-7183000D01*
X48671000Y-7024750D01*
X48671000Y-6379000D01*
X48000250Y-6379000D01*
X47842000Y-6537250D01*
X47566144Y-6537250D01*
X47519340Y-6505977D01*
X47614267Y-6411216D01*
X47724874Y-6144844D01*
X47725126Y-5856421D01*
X47614984Y-5589857D01*
X47530275Y-5505000D01*
X48024803Y-5505000D01*
X47938369Y-5591434D01*
X47938369Y-5591434D01*
G37*
X47938369Y-5591434D02*
X47842000Y-5824088D01*
X47842000Y-5962750D01*
X48000250Y-6121000D01*
X48671000Y-6121000D01*
X48671000Y-6101000D01*
X48929000Y-6101000D01*
X48929000Y-6121000D01*
X48941674Y-6121000D01*
X48941674Y-6379000D01*
X48929000Y-6379000D01*
X48929000Y-7024750D01*
X49087250Y-7183000D01*
X49250911Y-7183000D01*
X49483565Y-7086632D01*
X49586871Y-6983326D01*
X49775101Y-6983326D01*
X49774874Y-7243579D01*
X49805076Y-7316674D01*
X49600000Y-7316674D01*
X49434173Y-7349659D01*
X49293592Y-7443592D01*
X49199659Y-7584173D01*
X49166674Y-7750000D01*
X49166674Y-8369148D01*
X48961757Y-8574065D01*
X48864984Y-8339857D01*
X48661216Y-8135733D01*
X48394844Y-8025126D01*
X48106421Y-8024874D01*
X47839857Y-8135016D01*
X47779838Y-8194930D01*
X47818612Y-8000000D01*
X47774843Y-7779957D01*
X47754826Y-7750000D01*
X47774843Y-7720043D01*
X47818612Y-7500000D01*
X47774843Y-7279957D01*
X47754826Y-7250000D01*
X47774843Y-7220043D01*
X47818612Y-7000000D01*
X47774843Y-6779957D01*
X47650198Y-6593414D01*
X47566144Y-6537250D01*
X47842000Y-6537250D01*
X47842000Y-6675912D01*
X47938369Y-6908566D01*
X48116435Y-7086632D01*
X48349089Y-7183000D01*
X48512750Y-7183000D01*
X48671000Y-7024750D01*
X48671000Y-6379000D01*
X48000250Y-6379000D01*
X47842000Y-6537250D01*
X47566144Y-6537250D01*
X47519340Y-6505977D01*
X47614267Y-6411216D01*
X47724874Y-6144844D01*
X47725126Y-5856421D01*
X47614984Y-5589857D01*
X47530275Y-5505000D01*
X48024803Y-5505000D01*
X47938369Y-5591434D01*
G36*
X51784173Y-6900341D02*
X51950000Y-6933326D01*
X52269148Y-6933326D01*
X52471850Y-7136028D01*
X52425912Y-7117000D01*
X52037250Y-7117000D01*
X51879000Y-7275250D01*
X51879000Y-8271000D01*
X51899000Y-8271000D01*
X51899000Y-8529000D01*
X51879000Y-8529000D01*
X51879000Y-8549000D01*
X51621000Y-8549000D01*
X51621000Y-8529000D01*
X51601000Y-8529000D01*
X51601000Y-8271000D01*
X51621000Y-8271000D01*
X51621000Y-7275250D01*
X51462750Y-7117000D01*
X51224986Y-7117000D01*
X51225010Y-7089168D01*
X51380852Y-6933326D01*
X51550000Y-6933326D01*
X51715827Y-6900341D01*
X51750000Y-6877507D01*
X51784173Y-6900341D01*
X51784173Y-6900341D01*
G37*
X51784173Y-6900341D02*
X51950000Y-6933326D01*
X52269148Y-6933326D01*
X52471850Y-7136028D01*
X52425912Y-7117000D01*
X52037250Y-7117000D01*
X51879000Y-7275250D01*
X51879000Y-8271000D01*
X51899000Y-8271000D01*
X51899000Y-8529000D01*
X51879000Y-8529000D01*
X51879000Y-8549000D01*
X51621000Y-8549000D01*
X51621000Y-8529000D01*
X51601000Y-8529000D01*
X51601000Y-8271000D01*
X51621000Y-8271000D01*
X51621000Y-7275250D01*
X51462750Y-7117000D01*
X51224986Y-7117000D01*
X51225010Y-7089168D01*
X51380852Y-6933326D01*
X51550000Y-6933326D01*
X51715827Y-6900341D01*
X51750000Y-6877507D01*
X51784173Y-6900341D01*
M02*
