G04 #@! TF.FileFunction,Legend,Top*
%FSLAX46Y46*%
G04 Gerber Fmt 4.6, Leading zero omitted, Abs format (unit mm)*
G04 Created by KiCad (PCBNEW (2016-07-06 BZR 6969, Git 4ed346e)-product) date Wed Jul  6 14:07:54 2016*
%MOMM*%
%LPD*%
G01*
G04 APERTURE LIST*
%ADD10C,0.100000*%
%ADD11C,0.200000*%
%ADD12C,0.175000*%
%ADD13C,0.150000*%
%ADD14C,0.350000*%
%ADD15C,0.010000*%
%ADD16C,0.300000*%
%ADD17C,0.250000*%
%ADD18C,0.800000*%
%ADD19R,1.000000X1.000000*%
%ADD20R,2.650000X2.650000*%
%ADD21O,1.200000X0.650000*%
%ADD22O,0.650000X1.200000*%
%ADD23R,1.924000X2.686000*%
%ADD24O,1.924000X2.686000*%
%ADD25R,1.350000X1.850000*%
%ADD26O,1.450000X0.700000*%
%ADD27O,0.700000X1.450000*%
%ADD28R,4.400000X4.400000*%
%ADD29R,2.400000X0.660000*%
%ADD30R,2.400000X0.810000*%
%ADD31R,3.200000X0.975000*%
%ADD32R,2.700000X0.975000*%
%ADD33R,2.400000X1.900000*%
%ADD34R,3.200000X1.400000*%
%ADD35R,1.750000X0.800000*%
%ADD36O,1.950000X1.950000*%
%ADD37O,1.650000X1.650000*%
%ADD38C,1.800000*%
%ADD39C,2.400000*%
%ADD40O,2.400000X2.000000*%
%ADD41C,3.600000*%
%ADD42R,1.500000X1.700000*%
%ADD43R,1.300000X1.700000*%
%ADD44R,1.050000X1.250000*%
%ADD45R,1.000000X1.050000*%
%ADD46R,1.050000X1.000000*%
%ADD47R,2.200000X1.600000*%
%ADD48R,1.500000X1.000000*%
%ADD49R,1.150000X0.800000*%
%ADD50R,1.250000X1.050000*%
%ADD51R,0.900000X1.100000*%
%ADD52R,1.100000X0.900000*%
%ADD53R,0.600000X1.200000*%
%ADD54R,1.200000X0.600000*%
%ADD55C,0.254000*%
G04 APERTURE END LIST*
D10*
D11*
X31171428Y-11438095D02*
X31209523Y-11400000D01*
X31285714Y-11361904D01*
X31476190Y-11361904D01*
X31552380Y-11400000D01*
X31590476Y-11438095D01*
X31628571Y-11514285D01*
X31628571Y-11590476D01*
X31590476Y-11704761D01*
X31133333Y-12161904D01*
X31628571Y-12161904D01*
X31628571Y-9761904D02*
X31171428Y-9761904D01*
X31400000Y-9761904D02*
X31400000Y-8961904D01*
X31323809Y-9076190D01*
X31247619Y-9152380D01*
X31171428Y-9190476D01*
X50750000Y-23250000D02*
X51500000Y-23250000D01*
X51500000Y-23500000D02*
X51500000Y-23000000D01*
X50750000Y-23250000D02*
X51500000Y-23500000D01*
X50750000Y-23250000D02*
X51500000Y-23000000D01*
X44612132Y-24112132D02*
X44187868Y-23687868D01*
X44329289Y-23546447D02*
X44612132Y-24112132D01*
X44046447Y-23829289D02*
X44329289Y-23546447D01*
X44612132Y-24112132D02*
X44046447Y-23829289D01*
X52300000Y-5600000D02*
X52300000Y-5200000D01*
X52400000Y-5200000D02*
X52300000Y-5600000D01*
X52200000Y-5200000D02*
X52400000Y-5200000D01*
X52300000Y-5600000D02*
X52200000Y-5200000D01*
X49800000Y-30800000D02*
X50100000Y-31100000D01*
X50000000Y-31200000D02*
X49800000Y-30800000D01*
X50300000Y-30900000D02*
X50000000Y-31200000D01*
X49800000Y-30800000D02*
X50300000Y-30900000D01*
X53200000Y-25200000D02*
X52600000Y-25200000D01*
X52600000Y-25400000D02*
X53200000Y-25200000D01*
X52600000Y-25000000D02*
X52600000Y-25400000D01*
X53200000Y-25200000D02*
X52600000Y-25000000D01*
X48000000Y-11600000D02*
X48600000Y-11600000D01*
X48600000Y-11800000D02*
X48000000Y-11600000D01*
X48600000Y-11400000D02*
X48600000Y-11800000D01*
X48000000Y-11600000D02*
X48600000Y-11400000D01*
X33750000Y-25250000D02*
X33750000Y-24650000D01*
X33950000Y-24650000D02*
X33750000Y-25250000D01*
X33550000Y-24650000D02*
X33950000Y-24650000D01*
X33750000Y-25250000D02*
X33550000Y-24650000D01*
X31400000Y-21200000D02*
X31400000Y-20600000D01*
X31600000Y-20600000D02*
X31400000Y-21200000D01*
X31200000Y-20600000D02*
X31600000Y-20600000D01*
X31400000Y-21200000D02*
X31200000Y-20600000D01*
D12*
X32616666Y-6704166D02*
X32616666Y-6004166D01*
X32850000Y-6504166D01*
X33083333Y-6004166D01*
X33083333Y-6704166D01*
X33416666Y-6704166D02*
X33416666Y-6004166D01*
X33583333Y-6004166D01*
X33683333Y-6037500D01*
X33750000Y-6104166D01*
X33783333Y-6170833D01*
X33816666Y-6304166D01*
X33816666Y-6404166D01*
X33783333Y-6537500D01*
X33750000Y-6604166D01*
X33683333Y-6670833D01*
X33583333Y-6704166D01*
X33416666Y-6704166D01*
X34083333Y-6670833D02*
X34183333Y-6704166D01*
X34350000Y-6704166D01*
X34416666Y-6670833D01*
X34450000Y-6637500D01*
X34483333Y-6570833D01*
X34483333Y-6504166D01*
X34450000Y-6437500D01*
X34416666Y-6404166D01*
X34350000Y-6370833D01*
X34216666Y-6337500D01*
X34150000Y-6304166D01*
X34116666Y-6270833D01*
X34083333Y-6204166D01*
X34083333Y-6137500D01*
X34116666Y-6070833D01*
X34150000Y-6037500D01*
X34216666Y-6004166D01*
X34383333Y-6004166D01*
X34483333Y-6037500D01*
X35283333Y-5970833D02*
X34683333Y-6870833D01*
X35916666Y-6637500D02*
X35883333Y-6670833D01*
X35783333Y-6704166D01*
X35716666Y-6704166D01*
X35616666Y-6670833D01*
X35550000Y-6604166D01*
X35516666Y-6537500D01*
X35483333Y-6404166D01*
X35483333Y-6304166D01*
X35516666Y-6170833D01*
X35550000Y-6104166D01*
X35616666Y-6037500D01*
X35716666Y-6004166D01*
X35783333Y-6004166D01*
X35883333Y-6037500D01*
X35916666Y-6070833D01*
X36216666Y-6704166D02*
X36216666Y-6004166D01*
X36483333Y-6004166D01*
X36550000Y-6037500D01*
X36583333Y-6070833D01*
X36616666Y-6137500D01*
X36616666Y-6237500D01*
X36583333Y-6304166D01*
X36550000Y-6337500D01*
X36483333Y-6370833D01*
X36216666Y-6370833D01*
X33983333Y-7929166D02*
X33750000Y-7595833D01*
X33583333Y-7929166D02*
X33583333Y-7229166D01*
X33850000Y-7229166D01*
X33916666Y-7262500D01*
X33950000Y-7295833D01*
X33983333Y-7362500D01*
X33983333Y-7462500D01*
X33950000Y-7529166D01*
X33916666Y-7562500D01*
X33850000Y-7595833D01*
X33583333Y-7595833D01*
X34250000Y-7295833D02*
X34283333Y-7262500D01*
X34350000Y-7229166D01*
X34516666Y-7229166D01*
X34583333Y-7262500D01*
X34616666Y-7295833D01*
X34650000Y-7362500D01*
X34650000Y-7429166D01*
X34616666Y-7529166D01*
X34216666Y-7929166D01*
X34650000Y-7929166D01*
X34950000Y-7862500D02*
X34983333Y-7895833D01*
X34950000Y-7929166D01*
X34916666Y-7895833D01*
X34950000Y-7862500D01*
X34950000Y-7929166D01*
X35650000Y-7929166D02*
X35250000Y-7929166D01*
X35450000Y-7929166D02*
X35450000Y-7229166D01*
X35383333Y-7329166D01*
X35316666Y-7395833D01*
X35250000Y-7429166D01*
X31000000Y-5516666D02*
X31000000Y-4816666D01*
X31266666Y-4816666D01*
X31333333Y-4850000D01*
X31366666Y-4883333D01*
X31400000Y-4950000D01*
X31400000Y-5050000D01*
X31366666Y-5116666D01*
X31333333Y-5150000D01*
X31266666Y-5183333D01*
X31000000Y-5183333D01*
X31700000Y-5516666D02*
X31700000Y-5050000D01*
X31700000Y-4816666D02*
X31666666Y-4850000D01*
X31700000Y-4883333D01*
X31733333Y-4850000D01*
X31700000Y-4816666D01*
X31700000Y-4883333D01*
X31966666Y-5516666D02*
X32333333Y-5050000D01*
X31966666Y-5050000D02*
X32333333Y-5516666D01*
X32866666Y-5483333D02*
X32800000Y-5516666D01*
X32666666Y-5516666D01*
X32600000Y-5483333D01*
X32566666Y-5416666D01*
X32566666Y-5150000D01*
X32600000Y-5083333D01*
X32666666Y-5050000D01*
X32800000Y-5050000D01*
X32866666Y-5083333D01*
X32900000Y-5150000D01*
X32900000Y-5216666D01*
X32566666Y-5283333D01*
X33300000Y-5516666D02*
X33233333Y-5483333D01*
X33200000Y-5416666D01*
X33200000Y-4816666D01*
X34500000Y-5450000D02*
X34466666Y-5483333D01*
X34366666Y-5516666D01*
X34300000Y-5516666D01*
X34200000Y-5483333D01*
X34133333Y-5416666D01*
X34100000Y-5350000D01*
X34066666Y-5216666D01*
X34066666Y-5116666D01*
X34100000Y-4983333D01*
X34133333Y-4916666D01*
X34200000Y-4850000D01*
X34300000Y-4816666D01*
X34366666Y-4816666D01*
X34466666Y-4850000D01*
X34500000Y-4883333D01*
X35333333Y-5516666D02*
X35333333Y-4816666D01*
X35500000Y-4816666D01*
X35600000Y-4850000D01*
X35666666Y-4916666D01*
X35700000Y-4983333D01*
X35733333Y-5116666D01*
X35733333Y-5216666D01*
X35700000Y-5350000D01*
X35666666Y-5416666D01*
X35600000Y-5483333D01*
X35500000Y-5516666D01*
X35333333Y-5516666D01*
X36300000Y-5483333D02*
X36233333Y-5516666D01*
X36100000Y-5516666D01*
X36033333Y-5483333D01*
X36000000Y-5416666D01*
X36000000Y-5150000D01*
X36033333Y-5083333D01*
X36100000Y-5050000D01*
X36233333Y-5050000D01*
X36300000Y-5083333D01*
X36333333Y-5150000D01*
X36333333Y-5216666D01*
X36000000Y-5283333D01*
X36633333Y-5516666D02*
X36633333Y-4816666D01*
X36633333Y-5083333D02*
X36700000Y-5050000D01*
X36833333Y-5050000D01*
X36900000Y-5083333D01*
X36933333Y-5116666D01*
X36966666Y-5183333D01*
X36966666Y-5383333D01*
X36933333Y-5450000D01*
X36900000Y-5483333D01*
X36833333Y-5516666D01*
X36700000Y-5516666D01*
X36633333Y-5483333D01*
X37566666Y-5050000D02*
X37566666Y-5516666D01*
X37266666Y-5050000D02*
X37266666Y-5416666D01*
X37300000Y-5483333D01*
X37366666Y-5516666D01*
X37466666Y-5516666D01*
X37533333Y-5483333D01*
X37566666Y-5450000D01*
X38200000Y-5050000D02*
X38200000Y-5616666D01*
X38166666Y-5683333D01*
X38133333Y-5716666D01*
X38066666Y-5750000D01*
X37966666Y-5750000D01*
X37900000Y-5716666D01*
X38200000Y-5483333D02*
X38133333Y-5516666D01*
X38000000Y-5516666D01*
X37933333Y-5483333D01*
X37900000Y-5450000D01*
X37866666Y-5383333D01*
X37866666Y-5183333D01*
X37900000Y-5116666D01*
X37933333Y-5083333D01*
X38000000Y-5050000D01*
X38133333Y-5050000D01*
X38200000Y-5083333D01*
D13*
X33800000Y-25400000D02*
X33800000Y-25700000D01*
X33700000Y-25700000D02*
X33700000Y-25400000D01*
X33600000Y-25400000D02*
X33600000Y-25700000D01*
X33900000Y-25400000D02*
X33600000Y-25400000D01*
X33900000Y-25700000D02*
X33900000Y-25400000D01*
X33600000Y-25700000D02*
X33900000Y-25700000D01*
D14*
X47945000Y-30905000D02*
X39055000Y-30905000D01*
X39055000Y-30905000D02*
X39055000Y-24555000D01*
X39055000Y-24555000D02*
X47945000Y-24555000D01*
X47945000Y-24555000D02*
X47945000Y-30905000D01*
X47945000Y-27730000D02*
X44770000Y-27730000D01*
X44770000Y-27730000D02*
X44770000Y-24555000D01*
X47127000Y-11404000D02*
X47127000Y-12127000D01*
X47127000Y-12127000D02*
X46404000Y-12127000D01*
X41596000Y-12127000D02*
X40873000Y-12127000D01*
X40873000Y-12127000D02*
X40873000Y-11404000D01*
X47127000Y-6596000D02*
X47127000Y-5873000D01*
X47127000Y-5873000D02*
X46404000Y-5873000D01*
X41596000Y-5873000D02*
X40873000Y-5873000D01*
X40873000Y-5873000D02*
X40873000Y-6596000D01*
X47635000Y-11658000D02*
X47508000Y-11785000D01*
X47508000Y-11785000D02*
X47381000Y-11658000D01*
X47381000Y-11658000D02*
X47508000Y-11531000D01*
X47508000Y-11531000D02*
X47635000Y-11658000D01*
X54123000Y-24846000D02*
X54123000Y-24123000D01*
X54123000Y-24123000D02*
X54846000Y-24123000D01*
X59654000Y-24123000D02*
X60377000Y-24123000D01*
X60377000Y-24123000D02*
X60377000Y-24846000D01*
X54123000Y-29654000D02*
X54123000Y-30377000D01*
X54123000Y-30377000D02*
X54846000Y-30377000D01*
X59654000Y-30377000D02*
X60377000Y-30377000D01*
X60377000Y-30377000D02*
X60377000Y-29654000D01*
X53615000Y-24592000D02*
X53742000Y-24465000D01*
X53742000Y-24465000D02*
X53869000Y-24592000D01*
X53869000Y-24592000D02*
X53742000Y-24719000D01*
X53742000Y-24719000D02*
X53615000Y-24592000D01*
D15*
G36*
X45577600Y-19905000D02*
X45514100Y-19905000D01*
X45514100Y-16145800D01*
X45577600Y-16145800D01*
X45577600Y-19905000D01*
X45577600Y-19905000D01*
G37*
X45577600Y-19905000D02*
X45514100Y-19905000D01*
X45514100Y-16145800D01*
X45577600Y-16145800D01*
X45577600Y-19905000D01*
G36*
X47047907Y-16890942D02*
X47088597Y-16894555D01*
X47245787Y-16917564D01*
X47381786Y-16954349D01*
X47496876Y-17005115D01*
X47591338Y-17070070D01*
X47665455Y-17149421D01*
X47719508Y-17243376D01*
X47753780Y-17352141D01*
X47760365Y-17388461D01*
X47763030Y-17417659D01*
X47765777Y-17469462D01*
X47768532Y-17541075D01*
X47771220Y-17629703D01*
X47773767Y-17732552D01*
X47776097Y-17846826D01*
X47778136Y-17969732D01*
X47779809Y-18098473D01*
X47780117Y-18127000D01*
X47781919Y-18287506D01*
X47783855Y-18424943D01*
X47786114Y-18541638D01*
X47788888Y-18639920D01*
X47792367Y-18722119D01*
X47796741Y-18790565D01*
X47802202Y-18847585D01*
X47808939Y-18895511D01*
X47817144Y-18936670D01*
X47827007Y-18973392D01*
X47838718Y-19008006D01*
X47852469Y-19042841D01*
X47855692Y-19050542D01*
X47872503Y-19091382D01*
X47884475Y-19122323D01*
X47889000Y-19136598D01*
X47877029Y-19138820D01*
X47844019Y-19140297D01*
X47794322Y-19140948D01*
X47732288Y-19140694D01*
X47695325Y-19140155D01*
X47501650Y-19136650D01*
X47474106Y-19047750D01*
X47458710Y-18997204D01*
X47444979Y-18950642D01*
X47436006Y-18918588D01*
X47425450Y-18878326D01*
X47330200Y-18948865D01*
X47232463Y-19013487D01*
X47123698Y-19072294D01*
X47013001Y-19120848D01*
X46909473Y-19154715D01*
X46906416Y-19155498D01*
X46829443Y-19170524D01*
X46738721Y-19181256D01*
X46643323Y-19187184D01*
X46552324Y-19187796D01*
X46474794Y-19182583D01*
X46460250Y-19180574D01*
X46318659Y-19148632D01*
X46196028Y-19099788D01*
X46092353Y-19034041D01*
X46007633Y-18951389D01*
X45941863Y-18851830D01*
X45931884Y-18831794D01*
X45889771Y-18715313D01*
X45871541Y-18596588D01*
X45873604Y-18544609D01*
X46271914Y-18544609D01*
X46280280Y-18626351D01*
X46308265Y-18703280D01*
X46355770Y-18770387D01*
X46374742Y-18788675D01*
X46452253Y-18840487D01*
X46545681Y-18875610D01*
X46651447Y-18893635D01*
X46765971Y-18894154D01*
X46885673Y-18876757D01*
X46963634Y-18855942D01*
X47082391Y-18806664D01*
X47184241Y-18739637D01*
X47267893Y-18655916D01*
X47332057Y-18556558D01*
X47334115Y-18552446D01*
X47355909Y-18502287D01*
X47372519Y-18448143D01*
X47384926Y-18384841D01*
X47394110Y-18307210D01*
X47401054Y-18210077D01*
X47401876Y-18195121D01*
X47405244Y-18128864D01*
X47406714Y-18084120D01*
X47405889Y-18057045D01*
X47402373Y-18043798D01*
X47395771Y-18040535D01*
X47386225Y-18043204D01*
X47323563Y-18064166D01*
X47241135Y-18086729D01*
X47144406Y-18109576D01*
X47038842Y-18131391D01*
X46961900Y-18145465D01*
X46834481Y-18167699D01*
X46729422Y-18186709D01*
X46644004Y-18203294D01*
X46575508Y-18218253D01*
X46521215Y-18232384D01*
X46478405Y-18246486D01*
X46444358Y-18261358D01*
X46416357Y-18277798D01*
X46391680Y-18296604D01*
X46367610Y-18318576D01*
X46365513Y-18320607D01*
X46314432Y-18386728D01*
X46283265Y-18463066D01*
X46271914Y-18544609D01*
X45873604Y-18544609D01*
X45876225Y-18478600D01*
X45902849Y-18364334D01*
X45950442Y-18256770D01*
X46018032Y-18158893D01*
X46104648Y-18073684D01*
X46199900Y-18009268D01*
X46268926Y-17975756D01*
X46349055Y-17946497D01*
X46443483Y-17920674D01*
X46555404Y-17897469D01*
X46688015Y-17876066D01*
X46758700Y-17866357D01*
X46876724Y-17849955D01*
X46990309Y-17832408D01*
X47095898Y-17814385D01*
X47189935Y-17796553D01*
X47268864Y-17779582D01*
X47329130Y-17764141D01*
X47363082Y-17752695D01*
X47388189Y-17740604D01*
X47401058Y-17726147D01*
X47405767Y-17701205D01*
X47406400Y-17666430D01*
X47399123Y-17558868D01*
X47378001Y-17464403D01*
X47344094Y-17386317D01*
X47298461Y-17327892D01*
X47296438Y-17326038D01*
X47245070Y-17284457D01*
X47192315Y-17253247D01*
X47133545Y-17231142D01*
X47064132Y-17216876D01*
X46979448Y-17209185D01*
X46874865Y-17206804D01*
X46860300Y-17206816D01*
X46782495Y-17207413D01*
X46724653Y-17209090D01*
X46681341Y-17212453D01*
X46647127Y-17218107D01*
X46616577Y-17226656D01*
X46588281Y-17237106D01*
X46499744Y-17285522D01*
X46424391Y-17354903D01*
X46363422Y-17443819D01*
X46318031Y-17550842D01*
X46313704Y-17564780D01*
X46301460Y-17598417D01*
X46288558Y-17612462D01*
X46270987Y-17612570D01*
X46248308Y-17608609D01*
X46206483Y-17602266D01*
X46151556Y-17594428D01*
X46091950Y-17586298D01*
X46033030Y-17578263D01*
X45984250Y-17571280D01*
X45950567Y-17566083D01*
X45936944Y-17563405D01*
X45936892Y-17563367D01*
X45936889Y-17548155D01*
X45944692Y-17515281D01*
X45958372Y-17470542D01*
X45976005Y-17419739D01*
X45995664Y-17368670D01*
X46015422Y-17323134D01*
X46019568Y-17314481D01*
X46086102Y-17206453D01*
X46172226Y-17114155D01*
X46278056Y-17037524D01*
X46403708Y-16976494D01*
X46549299Y-16931001D01*
X46714944Y-16900980D01*
X46774855Y-16894379D01*
X46871556Y-16887308D01*
X46957819Y-16886160D01*
X47047907Y-16890942D01*
X47047907Y-16890942D01*
G37*
X47047907Y-16890942D02*
X47088597Y-16894555D01*
X47245787Y-16917564D01*
X47381786Y-16954349D01*
X47496876Y-17005115D01*
X47591338Y-17070070D01*
X47665455Y-17149421D01*
X47719508Y-17243376D01*
X47753780Y-17352141D01*
X47760365Y-17388461D01*
X47763030Y-17417659D01*
X47765777Y-17469462D01*
X47768532Y-17541075D01*
X47771220Y-17629703D01*
X47773767Y-17732552D01*
X47776097Y-17846826D01*
X47778136Y-17969732D01*
X47779809Y-18098473D01*
X47780117Y-18127000D01*
X47781919Y-18287506D01*
X47783855Y-18424943D01*
X47786114Y-18541638D01*
X47788888Y-18639920D01*
X47792367Y-18722119D01*
X47796741Y-18790565D01*
X47802202Y-18847585D01*
X47808939Y-18895511D01*
X47817144Y-18936670D01*
X47827007Y-18973392D01*
X47838718Y-19008006D01*
X47852469Y-19042841D01*
X47855692Y-19050542D01*
X47872503Y-19091382D01*
X47884475Y-19122323D01*
X47889000Y-19136598D01*
X47877029Y-19138820D01*
X47844019Y-19140297D01*
X47794322Y-19140948D01*
X47732288Y-19140694D01*
X47695325Y-19140155D01*
X47501650Y-19136650D01*
X47474106Y-19047750D01*
X47458710Y-18997204D01*
X47444979Y-18950642D01*
X47436006Y-18918588D01*
X47425450Y-18878326D01*
X47330200Y-18948865D01*
X47232463Y-19013487D01*
X47123698Y-19072294D01*
X47013001Y-19120848D01*
X46909473Y-19154715D01*
X46906416Y-19155498D01*
X46829443Y-19170524D01*
X46738721Y-19181256D01*
X46643323Y-19187184D01*
X46552324Y-19187796D01*
X46474794Y-19182583D01*
X46460250Y-19180574D01*
X46318659Y-19148632D01*
X46196028Y-19099788D01*
X46092353Y-19034041D01*
X46007633Y-18951389D01*
X45941863Y-18851830D01*
X45931884Y-18831794D01*
X45889771Y-18715313D01*
X45871541Y-18596588D01*
X45873604Y-18544609D01*
X46271914Y-18544609D01*
X46280280Y-18626351D01*
X46308265Y-18703280D01*
X46355770Y-18770387D01*
X46374742Y-18788675D01*
X46452253Y-18840487D01*
X46545681Y-18875610D01*
X46651447Y-18893635D01*
X46765971Y-18894154D01*
X46885673Y-18876757D01*
X46963634Y-18855942D01*
X47082391Y-18806664D01*
X47184241Y-18739637D01*
X47267893Y-18655916D01*
X47332057Y-18556558D01*
X47334115Y-18552446D01*
X47355909Y-18502287D01*
X47372519Y-18448143D01*
X47384926Y-18384841D01*
X47394110Y-18307210D01*
X47401054Y-18210077D01*
X47401876Y-18195121D01*
X47405244Y-18128864D01*
X47406714Y-18084120D01*
X47405889Y-18057045D01*
X47402373Y-18043798D01*
X47395771Y-18040535D01*
X47386225Y-18043204D01*
X47323563Y-18064166D01*
X47241135Y-18086729D01*
X47144406Y-18109576D01*
X47038842Y-18131391D01*
X46961900Y-18145465D01*
X46834481Y-18167699D01*
X46729422Y-18186709D01*
X46644004Y-18203294D01*
X46575508Y-18218253D01*
X46521215Y-18232384D01*
X46478405Y-18246486D01*
X46444358Y-18261358D01*
X46416357Y-18277798D01*
X46391680Y-18296604D01*
X46367610Y-18318576D01*
X46365513Y-18320607D01*
X46314432Y-18386728D01*
X46283265Y-18463066D01*
X46271914Y-18544609D01*
X45873604Y-18544609D01*
X45876225Y-18478600D01*
X45902849Y-18364334D01*
X45950442Y-18256770D01*
X46018032Y-18158893D01*
X46104648Y-18073684D01*
X46199900Y-18009268D01*
X46268926Y-17975756D01*
X46349055Y-17946497D01*
X46443483Y-17920674D01*
X46555404Y-17897469D01*
X46688015Y-17876066D01*
X46758700Y-17866357D01*
X46876724Y-17849955D01*
X46990309Y-17832408D01*
X47095898Y-17814385D01*
X47189935Y-17796553D01*
X47268864Y-17779582D01*
X47329130Y-17764141D01*
X47363082Y-17752695D01*
X47388189Y-17740604D01*
X47401058Y-17726147D01*
X47405767Y-17701205D01*
X47406400Y-17666430D01*
X47399123Y-17558868D01*
X47378001Y-17464403D01*
X47344094Y-17386317D01*
X47298461Y-17327892D01*
X47296438Y-17326038D01*
X47245070Y-17284457D01*
X47192315Y-17253247D01*
X47133545Y-17231142D01*
X47064132Y-17216876D01*
X46979448Y-17209185D01*
X46874865Y-17206804D01*
X46860300Y-17206816D01*
X46782495Y-17207413D01*
X46724653Y-17209090D01*
X46681341Y-17212453D01*
X46647127Y-17218107D01*
X46616577Y-17226656D01*
X46588281Y-17237106D01*
X46499744Y-17285522D01*
X46424391Y-17354903D01*
X46363422Y-17443819D01*
X46318031Y-17550842D01*
X46313704Y-17564780D01*
X46301460Y-17598417D01*
X46288558Y-17612462D01*
X46270987Y-17612570D01*
X46248308Y-17608609D01*
X46206483Y-17602266D01*
X46151556Y-17594428D01*
X46091950Y-17586298D01*
X46033030Y-17578263D01*
X45984250Y-17571280D01*
X45950567Y-17566083D01*
X45936944Y-17563405D01*
X45936892Y-17563367D01*
X45936889Y-17548155D01*
X45944692Y-17515281D01*
X45958372Y-17470542D01*
X45976005Y-17419739D01*
X45995664Y-17368670D01*
X46015422Y-17323134D01*
X46019568Y-17314481D01*
X46086102Y-17206453D01*
X46172226Y-17114155D01*
X46278056Y-17037524D01*
X46403708Y-16976494D01*
X46549299Y-16931001D01*
X46714944Y-16900980D01*
X46774855Y-16894379D01*
X46871556Y-16887308D01*
X46957819Y-16886160D01*
X47047907Y-16890942D01*
G36*
X49742572Y-16893807D02*
X49902159Y-16918847D01*
X50040476Y-16957115D01*
X50158139Y-17008953D01*
X50255767Y-17074703D01*
X50333978Y-17154709D01*
X50393389Y-17249312D01*
X50396829Y-17256426D01*
X50418712Y-17307572D01*
X50438215Y-17362257D01*
X50453750Y-17414701D01*
X50463727Y-17459124D01*
X50466559Y-17489746D01*
X50463690Y-17499642D01*
X50448312Y-17504599D01*
X50413503Y-17511457D01*
X50365018Y-17519433D01*
X50308611Y-17527746D01*
X50250036Y-17535612D01*
X50195045Y-17542250D01*
X50149395Y-17546876D01*
X50118838Y-17548708D01*
X50109359Y-17547827D01*
X50100955Y-17531336D01*
X50098800Y-17512794D01*
X50090197Y-17472369D01*
X50067287Y-17422120D01*
X50034412Y-17369464D01*
X49995916Y-17321818D01*
X49974988Y-17301370D01*
X49920184Y-17260682D01*
X49859112Y-17231417D01*
X49787425Y-17212499D01*
X49700778Y-17202850D01*
X49594821Y-17201395D01*
X49573352Y-17201921D01*
X49503675Y-17204286D01*
X49453092Y-17207405D01*
X49415300Y-17212449D01*
X49383995Y-17220582D01*
X49352874Y-17232975D01*
X49319282Y-17248997D01*
X49243244Y-17297255D01*
X49189641Y-17354011D01*
X49158299Y-17416194D01*
X49149042Y-17480735D01*
X49161692Y-17544561D01*
X49196074Y-17604604D01*
X49252011Y-17657791D01*
X49329329Y-17701053D01*
X49345588Y-17707581D01*
X49375564Y-17717690D01*
X49425605Y-17733115D01*
X49491256Y-17752546D01*
X49568061Y-17774675D01*
X49651566Y-17798191D01*
X49691064Y-17809132D01*
X49841631Y-17851516D01*
X49969648Y-17889750D01*
X50077437Y-17924844D01*
X50167321Y-17957803D01*
X50241620Y-17989636D01*
X50302656Y-18021350D01*
X50352752Y-18053954D01*
X50394228Y-18088453D01*
X50429406Y-18125857D01*
X50434173Y-18131645D01*
X50496537Y-18227462D01*
X50536621Y-18330976D01*
X50555226Y-18439286D01*
X50553154Y-18549492D01*
X50531208Y-18658691D01*
X50490190Y-18763983D01*
X50430903Y-18862467D01*
X50354149Y-18951242D01*
X50260729Y-19027406D01*
X50172342Y-19078374D01*
X50107941Y-19106212D01*
X50034854Y-19132843D01*
X49967489Y-19153079D01*
X49959100Y-19155163D01*
X49868740Y-19171690D01*
X49763513Y-19182754D01*
X49653465Y-19187828D01*
X49548643Y-19186386D01*
X49477238Y-19180431D01*
X49362086Y-19160462D01*
X49250953Y-19130820D01*
X49152482Y-19093996D01*
X49114995Y-19075954D01*
X49039128Y-19026406D01*
X48963049Y-18959590D01*
X48893708Y-18882608D01*
X48838057Y-18802560D01*
X48825829Y-18780477D01*
X48804540Y-18734946D01*
X48783090Y-18681419D01*
X48763214Y-18625363D01*
X48746647Y-18572244D01*
X48735126Y-18527529D01*
X48730386Y-18496684D01*
X48732314Y-18485952D01*
X48746848Y-18481457D01*
X48781742Y-18474112D01*
X48832238Y-18464827D01*
X48893575Y-18454509D01*
X48914349Y-18451195D01*
X49089150Y-18423673D01*
X49105392Y-18481711D01*
X49147776Y-18596708D01*
X49205181Y-18691399D01*
X49278237Y-18766410D01*
X49367572Y-18822362D01*
X49473813Y-18859879D01*
X49490618Y-18863816D01*
X49551824Y-18872434D01*
X49627375Y-18875799D01*
X49709698Y-18874302D01*
X49791218Y-18868333D01*
X49864361Y-18858285D01*
X49921554Y-18844548D01*
X49931275Y-18841057D01*
X50014227Y-18798516D01*
X50081079Y-18743924D01*
X50130604Y-18680467D01*
X50161573Y-18611328D01*
X50172759Y-18539692D01*
X50162933Y-18468745D01*
X50130867Y-18401670D01*
X50110726Y-18375709D01*
X50085794Y-18352209D01*
X50052191Y-18329998D01*
X50007172Y-18308006D01*
X49947990Y-18285164D01*
X49871897Y-18260401D01*
X49776148Y-18232647D01*
X49669910Y-18203967D01*
X49542783Y-18169971D01*
X49436958Y-18140507D01*
X49348969Y-18114477D01*
X49275349Y-18090787D01*
X49212632Y-18068339D01*
X49157350Y-18046039D01*
X49125303Y-18031813D01*
X49019472Y-17970540D01*
X48932076Y-17893346D01*
X48864454Y-17802258D01*
X48817945Y-17699303D01*
X48793890Y-17586508D01*
X48790700Y-17525488D01*
X48802522Y-17402956D01*
X48837234Y-17290121D01*
X48893702Y-17188429D01*
X48970793Y-17099326D01*
X49067373Y-17024260D01*
X49182309Y-16964676D01*
X49249320Y-16940174D01*
X49381769Y-16907844D01*
X49525597Y-16890273D01*
X49670875Y-16888395D01*
X49742572Y-16893807D01*
X49742572Y-16893807D01*
G37*
X49742572Y-16893807D02*
X49902159Y-16918847D01*
X50040476Y-16957115D01*
X50158139Y-17008953D01*
X50255767Y-17074703D01*
X50333978Y-17154709D01*
X50393389Y-17249312D01*
X50396829Y-17256426D01*
X50418712Y-17307572D01*
X50438215Y-17362257D01*
X50453750Y-17414701D01*
X50463727Y-17459124D01*
X50466559Y-17489746D01*
X50463690Y-17499642D01*
X50448312Y-17504599D01*
X50413503Y-17511457D01*
X50365018Y-17519433D01*
X50308611Y-17527746D01*
X50250036Y-17535612D01*
X50195045Y-17542250D01*
X50149395Y-17546876D01*
X50118838Y-17548708D01*
X50109359Y-17547827D01*
X50100955Y-17531336D01*
X50098800Y-17512794D01*
X50090197Y-17472369D01*
X50067287Y-17422120D01*
X50034412Y-17369464D01*
X49995916Y-17321818D01*
X49974988Y-17301370D01*
X49920184Y-17260682D01*
X49859112Y-17231417D01*
X49787425Y-17212499D01*
X49700778Y-17202850D01*
X49594821Y-17201395D01*
X49573352Y-17201921D01*
X49503675Y-17204286D01*
X49453092Y-17207405D01*
X49415300Y-17212449D01*
X49383995Y-17220582D01*
X49352874Y-17232975D01*
X49319282Y-17248997D01*
X49243244Y-17297255D01*
X49189641Y-17354011D01*
X49158299Y-17416194D01*
X49149042Y-17480735D01*
X49161692Y-17544561D01*
X49196074Y-17604604D01*
X49252011Y-17657791D01*
X49329329Y-17701053D01*
X49345588Y-17707581D01*
X49375564Y-17717690D01*
X49425605Y-17733115D01*
X49491256Y-17752546D01*
X49568061Y-17774675D01*
X49651566Y-17798191D01*
X49691064Y-17809132D01*
X49841631Y-17851516D01*
X49969648Y-17889750D01*
X50077437Y-17924844D01*
X50167321Y-17957803D01*
X50241620Y-17989636D01*
X50302656Y-18021350D01*
X50352752Y-18053954D01*
X50394228Y-18088453D01*
X50429406Y-18125857D01*
X50434173Y-18131645D01*
X50496537Y-18227462D01*
X50536621Y-18330976D01*
X50555226Y-18439286D01*
X50553154Y-18549492D01*
X50531208Y-18658691D01*
X50490190Y-18763983D01*
X50430903Y-18862467D01*
X50354149Y-18951242D01*
X50260729Y-19027406D01*
X50172342Y-19078374D01*
X50107941Y-19106212D01*
X50034854Y-19132843D01*
X49967489Y-19153079D01*
X49959100Y-19155163D01*
X49868740Y-19171690D01*
X49763513Y-19182754D01*
X49653465Y-19187828D01*
X49548643Y-19186386D01*
X49477238Y-19180431D01*
X49362086Y-19160462D01*
X49250953Y-19130820D01*
X49152482Y-19093996D01*
X49114995Y-19075954D01*
X49039128Y-19026406D01*
X48963049Y-18959590D01*
X48893708Y-18882608D01*
X48838057Y-18802560D01*
X48825829Y-18780477D01*
X48804540Y-18734946D01*
X48783090Y-18681419D01*
X48763214Y-18625363D01*
X48746647Y-18572244D01*
X48735126Y-18527529D01*
X48730386Y-18496684D01*
X48732314Y-18485952D01*
X48746848Y-18481457D01*
X48781742Y-18474112D01*
X48832238Y-18464827D01*
X48893575Y-18454509D01*
X48914349Y-18451195D01*
X49089150Y-18423673D01*
X49105392Y-18481711D01*
X49147776Y-18596708D01*
X49205181Y-18691399D01*
X49278237Y-18766410D01*
X49367572Y-18822362D01*
X49473813Y-18859879D01*
X49490618Y-18863816D01*
X49551824Y-18872434D01*
X49627375Y-18875799D01*
X49709698Y-18874302D01*
X49791218Y-18868333D01*
X49864361Y-18858285D01*
X49921554Y-18844548D01*
X49931275Y-18841057D01*
X50014227Y-18798516D01*
X50081079Y-18743924D01*
X50130604Y-18680467D01*
X50161573Y-18611328D01*
X50172759Y-18539692D01*
X50162933Y-18468745D01*
X50130867Y-18401670D01*
X50110726Y-18375709D01*
X50085794Y-18352209D01*
X50052191Y-18329998D01*
X50007172Y-18308006D01*
X49947990Y-18285164D01*
X49871897Y-18260401D01*
X49776148Y-18232647D01*
X49669910Y-18203967D01*
X49542783Y-18169971D01*
X49436958Y-18140507D01*
X49348969Y-18114477D01*
X49275349Y-18090787D01*
X49212632Y-18068339D01*
X49157350Y-18046039D01*
X49125303Y-18031813D01*
X49019472Y-17970540D01*
X48932076Y-17893346D01*
X48864454Y-17802258D01*
X48817945Y-17699303D01*
X48793890Y-17586508D01*
X48790700Y-17525488D01*
X48802522Y-17402956D01*
X48837234Y-17290121D01*
X48893702Y-17188429D01*
X48970793Y-17099326D01*
X49067373Y-17024260D01*
X49182309Y-16964676D01*
X49249320Y-16940174D01*
X49381769Y-16907844D01*
X49525597Y-16890273D01*
X49670875Y-16888395D01*
X49742572Y-16893807D01*
G36*
X48524000Y-19143000D02*
X48143000Y-19143000D01*
X48143000Y-16933200D01*
X48524000Y-16933200D01*
X48524000Y-19143000D01*
X48524000Y-19143000D01*
G37*
X48524000Y-19143000D02*
X48143000Y-19143000D01*
X48143000Y-16933200D01*
X48524000Y-16933200D01*
X48524000Y-19143000D01*
G36*
X43759245Y-18468837D02*
X43824497Y-18499155D01*
X43880097Y-18543891D01*
X43919221Y-18598505D01*
X43925792Y-18613601D01*
X43938051Y-18674326D01*
X43935335Y-18741946D01*
X43918391Y-18803410D01*
X43914456Y-18811708D01*
X43868383Y-18876440D01*
X43808152Y-18921609D01*
X43737476Y-18945701D01*
X43660069Y-18947203D01*
X43609699Y-18935927D01*
X43549802Y-18904298D01*
X43500459Y-18854128D01*
X43465210Y-18791286D01*
X43447596Y-18721644D01*
X43448145Y-18668062D01*
X43468842Y-18603153D01*
X43509415Y-18544928D01*
X43564415Y-18498107D01*
X43628395Y-18467413D01*
X43691165Y-18457478D01*
X43759245Y-18468837D01*
X43759245Y-18468837D01*
G37*
X43759245Y-18468837D02*
X43824497Y-18499155D01*
X43880097Y-18543891D01*
X43919221Y-18598505D01*
X43925792Y-18613601D01*
X43938051Y-18674326D01*
X43935335Y-18741946D01*
X43918391Y-18803410D01*
X43914456Y-18811708D01*
X43868383Y-18876440D01*
X43808152Y-18921609D01*
X43737476Y-18945701D01*
X43660069Y-18947203D01*
X43609699Y-18935927D01*
X43549802Y-18904298D01*
X43500459Y-18854128D01*
X43465210Y-18791286D01*
X43447596Y-18721644D01*
X43448145Y-18668062D01*
X43468842Y-18603153D01*
X43509415Y-18544928D01*
X43564415Y-18498107D01*
X43628395Y-18467413D01*
X43691165Y-18457478D01*
X43759245Y-18468837D01*
G36*
X44338836Y-18465457D02*
X44407526Y-18493021D01*
X44464994Y-18539290D01*
X44507132Y-18601006D01*
X44529209Y-18670914D01*
X44528455Y-18741210D01*
X44505243Y-18808670D01*
X44462413Y-18868164D01*
X44402803Y-18914562D01*
X44390831Y-18920966D01*
X44318107Y-18946887D01*
X44249274Y-18948675D01*
X44193300Y-18932252D01*
X44123444Y-18890196D01*
X44074542Y-18833977D01*
X44047098Y-18764350D01*
X44040900Y-18704034D01*
X44043445Y-18686204D01*
X44105455Y-18686204D01*
X44107032Y-18713593D01*
X44120101Y-18779763D01*
X44150172Y-18829067D01*
X44200031Y-18865690D01*
X44212350Y-18871735D01*
X44263888Y-18883758D01*
X44321352Y-18879611D01*
X44372387Y-18860571D01*
X44381915Y-18854220D01*
X44432038Y-18805934D01*
X44458641Y-18752253D01*
X44464233Y-18707703D01*
X44452692Y-18640615D01*
X44418915Y-18585278D01*
X44370514Y-18547297D01*
X44306927Y-18523875D01*
X44245317Y-18525580D01*
X44186865Y-18552151D01*
X44136322Y-18599011D01*
X44116441Y-18625865D01*
X44107027Y-18651504D01*
X44105455Y-18686204D01*
X44043445Y-18686204D01*
X44052169Y-18625096D01*
X44084266Y-18558296D01*
X44134625Y-18506457D01*
X44200679Y-18472399D01*
X44263034Y-18459856D01*
X44338836Y-18465457D01*
X44338836Y-18465457D01*
G37*
X44338836Y-18465457D02*
X44407526Y-18493021D01*
X44464994Y-18539290D01*
X44507132Y-18601006D01*
X44529209Y-18670914D01*
X44528455Y-18741210D01*
X44505243Y-18808670D01*
X44462413Y-18868164D01*
X44402803Y-18914562D01*
X44390831Y-18920966D01*
X44318107Y-18946887D01*
X44249274Y-18948675D01*
X44193300Y-18932252D01*
X44123444Y-18890196D01*
X44074542Y-18833977D01*
X44047098Y-18764350D01*
X44040900Y-18704034D01*
X44043445Y-18686204D01*
X44105455Y-18686204D01*
X44107032Y-18713593D01*
X44120101Y-18779763D01*
X44150172Y-18829067D01*
X44200031Y-18865690D01*
X44212350Y-18871735D01*
X44263888Y-18883758D01*
X44321352Y-18879611D01*
X44372387Y-18860571D01*
X44381915Y-18854220D01*
X44432038Y-18805934D01*
X44458641Y-18752253D01*
X44464233Y-18707703D01*
X44452692Y-18640615D01*
X44418915Y-18585278D01*
X44370514Y-18547297D01*
X44306927Y-18523875D01*
X44245317Y-18525580D01*
X44186865Y-18552151D01*
X44136322Y-18599011D01*
X44116441Y-18625865D01*
X44107027Y-18651504D01*
X44105455Y-18686204D01*
X44043445Y-18686204D01*
X44052169Y-18625096D01*
X44084266Y-18558296D01*
X44134625Y-18506457D01*
X44200679Y-18472399D01*
X44263034Y-18459856D01*
X44338836Y-18465457D01*
G36*
X44957357Y-18476263D02*
X45022370Y-18511000D01*
X45074161Y-18566504D01*
X45091825Y-18596585D01*
X45115728Y-18668043D01*
X45117208Y-18737644D01*
X45099214Y-18802339D01*
X45064695Y-18859080D01*
X45016599Y-18904820D01*
X44957876Y-18936508D01*
X44891474Y-18951098D01*
X44820342Y-18945540D01*
X44770624Y-18928628D01*
X44707370Y-18887225D01*
X44661544Y-18831213D01*
X44634474Y-18765418D01*
X44627490Y-18694667D01*
X44641922Y-18623788D01*
X44671326Y-18568022D01*
X44725296Y-18511496D01*
X44791972Y-18476897D01*
X44871660Y-18464072D01*
X44881803Y-18463987D01*
X44957357Y-18476263D01*
X44957357Y-18476263D01*
G37*
X44957357Y-18476263D02*
X45022370Y-18511000D01*
X45074161Y-18566504D01*
X45091825Y-18596585D01*
X45115728Y-18668043D01*
X45117208Y-18737644D01*
X45099214Y-18802339D01*
X45064695Y-18859080D01*
X45016599Y-18904820D01*
X44957876Y-18936508D01*
X44891474Y-18951098D01*
X44820342Y-18945540D01*
X44770624Y-18928628D01*
X44707370Y-18887225D01*
X44661544Y-18831213D01*
X44634474Y-18765418D01*
X44627490Y-18694667D01*
X44641922Y-18623788D01*
X44671326Y-18568022D01*
X44725296Y-18511496D01*
X44791972Y-18476897D01*
X44871660Y-18464072D01*
X44881803Y-18463987D01*
X44957357Y-18476263D01*
G36*
X43727187Y-17888128D02*
X43790521Y-17901947D01*
X43812791Y-17911350D01*
X43869548Y-17953679D01*
X43910261Y-18011500D01*
X43933230Y-18079346D01*
X43936756Y-18151749D01*
X43919138Y-18223238D01*
X43913578Y-18235614D01*
X43869999Y-18298468D01*
X43810851Y-18342235D01*
X43739321Y-18364955D01*
X43698688Y-18367802D01*
X43651066Y-18364392D01*
X43607714Y-18356241D01*
X43590050Y-18350299D01*
X43535058Y-18313262D01*
X43489100Y-18258966D01*
X43457188Y-18195181D01*
X43444332Y-18129677D01*
X43444278Y-18124232D01*
X43455918Y-18061751D01*
X43486527Y-17999618D01*
X43530853Y-17945407D01*
X43583642Y-17906691D01*
X43600401Y-17899207D01*
X43659582Y-17886974D01*
X43727187Y-17888128D01*
X43727187Y-17888128D01*
G37*
X43727187Y-17888128D02*
X43790521Y-17901947D01*
X43812791Y-17911350D01*
X43869548Y-17953679D01*
X43910261Y-18011500D01*
X43933230Y-18079346D01*
X43936756Y-18151749D01*
X43919138Y-18223238D01*
X43913578Y-18235614D01*
X43869999Y-18298468D01*
X43810851Y-18342235D01*
X43739321Y-18364955D01*
X43698688Y-18367802D01*
X43651066Y-18364392D01*
X43607714Y-18356241D01*
X43590050Y-18350299D01*
X43535058Y-18313262D01*
X43489100Y-18258966D01*
X43457188Y-18195181D01*
X43444332Y-18129677D01*
X43444278Y-18124232D01*
X43455918Y-18061751D01*
X43486527Y-17999618D01*
X43530853Y-17945407D01*
X43583642Y-17906691D01*
X43600401Y-17899207D01*
X43659582Y-17886974D01*
X43727187Y-17888128D01*
G36*
X44372455Y-17898213D02*
X44432202Y-17931272D01*
X44479642Y-17978428D01*
X44512519Y-18036209D01*
X44528580Y-18101144D01*
X44525568Y-18169763D01*
X44501231Y-18238595D01*
X44477143Y-18276342D01*
X44426035Y-18324080D01*
X44361269Y-18355170D01*
X44289510Y-18368200D01*
X44217424Y-18361757D01*
X44165406Y-18342385D01*
X44105807Y-18297414D01*
X44064667Y-18236779D01*
X44043245Y-18163506D01*
X44042802Y-18080619D01*
X44046488Y-18056743D01*
X44066936Y-18006936D01*
X44105635Y-17958657D01*
X44155888Y-17918221D01*
X44211001Y-17891947D01*
X44225056Y-17888266D01*
X44302655Y-17882721D01*
X44372455Y-17898213D01*
X44372455Y-17898213D01*
G37*
X44372455Y-17898213D02*
X44432202Y-17931272D01*
X44479642Y-17978428D01*
X44512519Y-18036209D01*
X44528580Y-18101144D01*
X44525568Y-18169763D01*
X44501231Y-18238595D01*
X44477143Y-18276342D01*
X44426035Y-18324080D01*
X44361269Y-18355170D01*
X44289510Y-18368200D01*
X44217424Y-18361757D01*
X44165406Y-18342385D01*
X44105807Y-18297414D01*
X44064667Y-18236779D01*
X44043245Y-18163506D01*
X44042802Y-18080619D01*
X44046488Y-18056743D01*
X44066936Y-18006936D01*
X44105635Y-17958657D01*
X44155888Y-17918221D01*
X44211001Y-17891947D01*
X44225056Y-17888266D01*
X44302655Y-17882721D01*
X44372455Y-17898213D01*
G36*
X44950492Y-17894644D02*
X45013308Y-17924296D01*
X45062635Y-17968908D01*
X45097299Y-18024545D01*
X45116123Y-18087275D01*
X45117932Y-18153162D01*
X45101550Y-18218272D01*
X45065802Y-18278672D01*
X45009512Y-18330428D01*
X45008914Y-18330839D01*
X44960870Y-18352347D01*
X44899877Y-18364219D01*
X44836708Y-18365540D01*
X44782138Y-18355398D01*
X44771150Y-18350987D01*
X44711954Y-18310816D01*
X44666532Y-18254825D01*
X44637248Y-18188832D01*
X44626471Y-18118654D01*
X44629185Y-18100226D01*
X44694068Y-18100226D01*
X44694768Y-18160591D01*
X44717345Y-18217603D01*
X44761457Y-18266638D01*
X44781365Y-18280713D01*
X44830909Y-18299371D01*
X44888399Y-18302678D01*
X44943997Y-18291348D01*
X44987867Y-18266098D01*
X44988354Y-18265647D01*
X45033932Y-18208917D01*
X45054978Y-18148733D01*
X45051572Y-18087910D01*
X45023795Y-18029262D01*
X44980181Y-17982462D01*
X44949068Y-17961295D01*
X44914579Y-17951397D01*
X44872217Y-17949200D01*
X44827191Y-17951656D01*
X44795302Y-17961783D01*
X44764535Y-17983716D01*
X44759667Y-17987934D01*
X44715586Y-18041132D01*
X44694068Y-18100226D01*
X44629185Y-18100226D01*
X44636568Y-18050107D01*
X44642371Y-18034517D01*
X44683054Y-17969104D01*
X44740762Y-17920567D01*
X44811541Y-17891461D01*
X44875362Y-17883885D01*
X44950492Y-17894644D01*
X44950492Y-17894644D01*
G37*
X44950492Y-17894644D02*
X45013308Y-17924296D01*
X45062635Y-17968908D01*
X45097299Y-18024545D01*
X45116123Y-18087275D01*
X45117932Y-18153162D01*
X45101550Y-18218272D01*
X45065802Y-18278672D01*
X45009512Y-18330428D01*
X45008914Y-18330839D01*
X44960870Y-18352347D01*
X44899877Y-18364219D01*
X44836708Y-18365540D01*
X44782138Y-18355398D01*
X44771150Y-18350987D01*
X44711954Y-18310816D01*
X44666532Y-18254825D01*
X44637248Y-18188832D01*
X44626471Y-18118654D01*
X44629185Y-18100226D01*
X44694068Y-18100226D01*
X44694768Y-18160591D01*
X44717345Y-18217603D01*
X44761457Y-18266638D01*
X44781365Y-18280713D01*
X44830909Y-18299371D01*
X44888399Y-18302678D01*
X44943997Y-18291348D01*
X44987867Y-18266098D01*
X44988354Y-18265647D01*
X45033932Y-18208917D01*
X45054978Y-18148733D01*
X45051572Y-18087910D01*
X45023795Y-18029262D01*
X44980181Y-17982462D01*
X44949068Y-17961295D01*
X44914579Y-17951397D01*
X44872217Y-17949200D01*
X44827191Y-17951656D01*
X44795302Y-17961783D01*
X44764535Y-17983716D01*
X44759667Y-17987934D01*
X44715586Y-18041132D01*
X44694068Y-18100226D01*
X44629185Y-18100226D01*
X44636568Y-18050107D01*
X44642371Y-18034517D01*
X44683054Y-17969104D01*
X44740762Y-17920567D01*
X44811541Y-17891461D01*
X44875362Y-17883885D01*
X44950492Y-17894644D01*
G36*
X43790482Y-17319035D02*
X43835350Y-17346998D01*
X43879592Y-17388543D01*
X43914238Y-17434464D01*
X43925821Y-17457901D01*
X43940528Y-17530320D01*
X43932618Y-17602100D01*
X43904551Y-17668559D01*
X43858785Y-17725015D01*
X43797782Y-17766786D01*
X43755150Y-17782782D01*
X43710746Y-17793036D01*
X43676980Y-17794349D01*
X43640769Y-17786867D01*
X43631503Y-17784154D01*
X43567008Y-17753264D01*
X43511776Y-17705149D01*
X43470345Y-17645568D01*
X43447253Y-17580280D01*
X43444000Y-17546248D01*
X43449052Y-17515194D01*
X43512386Y-17515194D01*
X43512800Y-17573233D01*
X43534379Y-17628649D01*
X43572985Y-17676618D01*
X43624479Y-17712312D01*
X43684721Y-17730906D01*
X43698484Y-17732208D01*
X43720732Y-17727397D01*
X43755228Y-17713940D01*
X43774684Y-17704725D01*
X43827460Y-17665804D01*
X43860825Y-17615367D01*
X43874631Y-17558452D01*
X43868731Y-17500094D01*
X43842979Y-17445332D01*
X43797227Y-17399202D01*
X43783841Y-17390331D01*
X43725164Y-17367954D01*
X43664797Y-17367683D01*
X43607869Y-17387158D01*
X43559514Y-17424018D01*
X43524861Y-17475903D01*
X43512386Y-17515194D01*
X43449052Y-17515194D01*
X43455643Y-17474686D01*
X43487718Y-17411798D01*
X43535943Y-17360392D01*
X43596038Y-17323274D01*
X43663721Y-17303253D01*
X43734711Y-17303136D01*
X43790482Y-17319035D01*
X43790482Y-17319035D01*
G37*
X43790482Y-17319035D02*
X43835350Y-17346998D01*
X43879592Y-17388543D01*
X43914238Y-17434464D01*
X43925821Y-17457901D01*
X43940528Y-17530320D01*
X43932618Y-17602100D01*
X43904551Y-17668559D01*
X43858785Y-17725015D01*
X43797782Y-17766786D01*
X43755150Y-17782782D01*
X43710746Y-17793036D01*
X43676980Y-17794349D01*
X43640769Y-17786867D01*
X43631503Y-17784154D01*
X43567008Y-17753264D01*
X43511776Y-17705149D01*
X43470345Y-17645568D01*
X43447253Y-17580280D01*
X43444000Y-17546248D01*
X43449052Y-17515194D01*
X43512386Y-17515194D01*
X43512800Y-17573233D01*
X43534379Y-17628649D01*
X43572985Y-17676618D01*
X43624479Y-17712312D01*
X43684721Y-17730906D01*
X43698484Y-17732208D01*
X43720732Y-17727397D01*
X43755228Y-17713940D01*
X43774684Y-17704725D01*
X43827460Y-17665804D01*
X43860825Y-17615367D01*
X43874631Y-17558452D01*
X43868731Y-17500094D01*
X43842979Y-17445332D01*
X43797227Y-17399202D01*
X43783841Y-17390331D01*
X43725164Y-17367954D01*
X43664797Y-17367683D01*
X43607869Y-17387158D01*
X43559514Y-17424018D01*
X43524861Y-17475903D01*
X43512386Y-17515194D01*
X43449052Y-17515194D01*
X43455643Y-17474686D01*
X43487718Y-17411798D01*
X43535943Y-17360392D01*
X43596038Y-17323274D01*
X43663721Y-17303253D01*
X43734711Y-17303136D01*
X43790482Y-17319035D01*
G36*
X44362634Y-17314424D02*
X44374682Y-17319035D01*
X44419550Y-17346998D01*
X44463792Y-17388543D01*
X44498438Y-17434464D01*
X44510021Y-17457901D01*
X44525018Y-17530980D01*
X44517251Y-17603008D01*
X44489112Y-17669429D01*
X44442992Y-17725689D01*
X44381285Y-17767236D01*
X44339350Y-17782782D01*
X44294982Y-17793215D01*
X44261774Y-17794699D01*
X44226998Y-17786917D01*
X44205001Y-17779437D01*
X44133839Y-17742643D01*
X44080826Y-17692254D01*
X44046270Y-17632310D01*
X44030476Y-17566853D01*
X44033753Y-17499927D01*
X44056407Y-17435572D01*
X44098744Y-17377831D01*
X44161070Y-17330746D01*
X44170569Y-17325664D01*
X44230518Y-17306607D01*
X44298688Y-17302726D01*
X44362634Y-17314424D01*
X44362634Y-17314424D01*
G37*
X44362634Y-17314424D02*
X44374682Y-17319035D01*
X44419550Y-17346998D01*
X44463792Y-17388543D01*
X44498438Y-17434464D01*
X44510021Y-17457901D01*
X44525018Y-17530980D01*
X44517251Y-17603008D01*
X44489112Y-17669429D01*
X44442992Y-17725689D01*
X44381285Y-17767236D01*
X44339350Y-17782782D01*
X44294982Y-17793215D01*
X44261774Y-17794699D01*
X44226998Y-17786917D01*
X44205001Y-17779437D01*
X44133839Y-17742643D01*
X44080826Y-17692254D01*
X44046270Y-17632310D01*
X44030476Y-17566853D01*
X44033753Y-17499927D01*
X44056407Y-17435572D01*
X44098744Y-17377831D01*
X44161070Y-17330746D01*
X44170569Y-17325664D01*
X44230518Y-17306607D01*
X44298688Y-17302726D01*
X44362634Y-17314424D01*
G36*
X44945831Y-17310596D02*
X44995209Y-17330034D01*
X45002360Y-17334894D01*
X45065294Y-17394360D01*
X45103878Y-17460710D01*
X45117587Y-17521762D01*
X45112660Y-17601414D01*
X45085559Y-17671432D01*
X45038546Y-17728557D01*
X44973886Y-17769533D01*
X44936250Y-17782782D01*
X44892116Y-17793182D01*
X44858793Y-17794617D01*
X44823156Y-17786623D01*
X44797284Y-17777850D01*
X44732669Y-17747268D01*
X44685506Y-17705362D01*
X44654169Y-17657276D01*
X44629438Y-17585705D01*
X44628272Y-17513576D01*
X44649258Y-17444941D01*
X44690985Y-17383855D01*
X44752041Y-17334373D01*
X44770152Y-17324295D01*
X44823466Y-17307278D01*
X44885305Y-17302861D01*
X44945831Y-17310596D01*
X44945831Y-17310596D01*
G37*
X44945831Y-17310596D02*
X44995209Y-17330034D01*
X45002360Y-17334894D01*
X45065294Y-17394360D01*
X45103878Y-17460710D01*
X45117587Y-17521762D01*
X45112660Y-17601414D01*
X45085559Y-17671432D01*
X45038546Y-17728557D01*
X44973886Y-17769533D01*
X44936250Y-17782782D01*
X44892116Y-17793182D01*
X44858793Y-17794617D01*
X44823156Y-17786623D01*
X44797284Y-17777850D01*
X44732669Y-17747268D01*
X44685506Y-17705362D01*
X44654169Y-17657276D01*
X44629438Y-17585705D01*
X44628272Y-17513576D01*
X44649258Y-17444941D01*
X44690985Y-17383855D01*
X44752041Y-17334373D01*
X44770152Y-17324295D01*
X44823466Y-17307278D01*
X44885305Y-17302861D01*
X44945831Y-17310596D01*
G36*
X48524000Y-16526800D02*
X48143000Y-16526800D01*
X48143000Y-16095000D01*
X48524000Y-16095000D01*
X48524000Y-16526800D01*
X48524000Y-16526800D01*
G37*
X48524000Y-16526800D02*
X48143000Y-16526800D01*
X48143000Y-16095000D01*
X48524000Y-16095000D01*
X48524000Y-16526800D01*
D13*
X65000000Y-28250000D02*
X65000000Y-27500000D01*
D16*
X70500000Y-31000000D02*
X66000000Y-31000000D01*
X66000000Y-31000000D02*
X65500000Y-31000000D01*
X65500000Y-31000000D02*
X65500000Y-22000000D01*
X65500000Y-22000000D02*
X70500000Y-22000000D01*
D17*
X64800000Y-21700000D02*
X64800000Y-23100000D01*
D14*
X64450000Y-23500000D02*
X61950000Y-23500000D01*
D17*
X52600000Y-7700000D02*
X52600000Y-9100000D01*
D14*
X52250000Y-9500000D02*
X49750000Y-9500000D01*
D17*
X52600000Y-12700000D02*
X52600000Y-14100000D01*
D14*
X52250000Y-14500000D02*
X49750000Y-14500000D01*
D13*
X48500000Y-27400000D02*
X48500000Y-28400000D01*
D14*
X35604000Y-19154000D02*
X35604000Y-20346000D01*
X35604000Y-20346000D02*
X35604000Y-19154000D01*
X36896000Y-19154000D02*
X36896000Y-20346000D01*
X36896000Y-20346000D02*
X36896000Y-19154000D01*
X39500000Y-18000000D02*
X40000000Y-18000000D01*
X40000000Y-18000000D02*
X40000000Y-21000000D01*
X40000000Y-21000000D02*
X39500000Y-21000000D01*
X39500000Y-21000000D02*
X39500000Y-18000000D01*
D13*
X31350000Y-21400000D02*
X32250000Y-21400000D01*
D14*
X32750000Y-21500000D02*
X32750000Y-23500000D01*
X36250000Y-16750000D02*
X36250000Y-17000000D01*
X36250000Y-17000000D02*
X35750000Y-17000000D01*
X35750000Y-15000000D02*
X36250000Y-15000000D01*
X36250000Y-15000000D02*
X36250000Y-15250000D01*
D13*
X48500000Y-30950000D02*
X49500000Y-30950000D01*
X52900000Y-6750000D02*
X52900000Y-5750000D01*
D14*
X49000000Y-23500000D02*
X49000000Y-21500000D01*
D13*
X40950000Y-13400000D02*
X41550000Y-13400000D01*
X40950000Y-13400000D02*
X41550000Y-13300000D01*
X40950000Y-13400000D02*
X41550000Y-13500000D01*
X41550000Y-13600000D02*
X40950000Y-13400000D01*
X41550000Y-13200000D02*
X41550000Y-13600000D01*
X40950000Y-13400000D02*
X41550000Y-13200000D01*
D14*
X34071000Y-11329000D02*
X33529000Y-11329000D01*
X33529000Y-11329000D02*
X34071000Y-11329000D01*
X34071000Y-12271000D02*
X33529000Y-12271000D01*
X33529000Y-12271000D02*
X34071000Y-12271000D01*
%LPC*%
D18*
X34800000Y-9400000D02*
X32800000Y-9400000D01*
D19*
X31700000Y-13500000D03*
X30800000Y-13500000D03*
D20*
X36000000Y-27600000D03*
D21*
X34000000Y-26250000D03*
X34000000Y-26700000D03*
X34000000Y-27150000D03*
X34000000Y-27600000D03*
X34000000Y-28050000D03*
X34000000Y-28500000D03*
X34000000Y-28950000D03*
X38000000Y-28950000D03*
X38000000Y-28500000D03*
X38000000Y-28050000D03*
X38000000Y-27600000D03*
X38000000Y-27150000D03*
X38000000Y-26700000D03*
X38000000Y-26250000D03*
D22*
X34650000Y-29600000D03*
X35100000Y-29600000D03*
X35550000Y-29600000D03*
X36000000Y-29600000D03*
X36450000Y-29600000D03*
X36900000Y-29600000D03*
X37350000Y-29600000D03*
X37350000Y-25600000D03*
X36900000Y-25600000D03*
X36450000Y-25600000D03*
X36000000Y-25600000D03*
X35550000Y-25600000D03*
X35100000Y-25600000D03*
X34650000Y-25600000D03*
D23*
X46040000Y-26206000D03*
D24*
X43500000Y-26206000D03*
X40960000Y-26206000D03*
X46040000Y-29254000D03*
X43500000Y-29254000D03*
X40960000Y-29254000D03*
D25*
X34800000Y-9400000D03*
X32800000Y-9400000D03*
D26*
X46850000Y-11000000D03*
X46850000Y-10500000D03*
X46850000Y-10000000D03*
X46850000Y-9500000D03*
X46850000Y-9000000D03*
X46850000Y-8500000D03*
X46850000Y-8000000D03*
X46850000Y-7500000D03*
X46850000Y-7000000D03*
D27*
X46000000Y-6150000D03*
X45500000Y-6150000D03*
X45000000Y-6150000D03*
X44500000Y-6150000D03*
X44000000Y-6150000D03*
X43500000Y-6150000D03*
X43000000Y-6150000D03*
X42500000Y-6150000D03*
X42000000Y-6150000D03*
D26*
X41150000Y-7000000D03*
X41150000Y-7500000D03*
X41150000Y-8000000D03*
X41150000Y-8500000D03*
X41150000Y-9000000D03*
X41150000Y-9500000D03*
X41150000Y-10000000D03*
X41150000Y-10500000D03*
X41150000Y-11000000D03*
D27*
X42000000Y-11850000D03*
X42500000Y-11850000D03*
X43000000Y-11850000D03*
X43500000Y-11850000D03*
X44000000Y-11850000D03*
X44500000Y-11850000D03*
X45000000Y-11850000D03*
X45500000Y-11850000D03*
X46000000Y-11850000D03*
D28*
X44000000Y-9000000D03*
D26*
X54400000Y-25250000D03*
X54400000Y-25750000D03*
X54400000Y-26250000D03*
X54400000Y-26750000D03*
X54400000Y-27250000D03*
X54400000Y-27750000D03*
X54400000Y-28250000D03*
X54400000Y-28750000D03*
X54400000Y-29250000D03*
D27*
X55250000Y-30100000D03*
X55750000Y-30100000D03*
X56250000Y-30100000D03*
X56750000Y-30100000D03*
X57250000Y-30100000D03*
X57750000Y-30100000D03*
X58250000Y-30100000D03*
X58750000Y-30100000D03*
X59250000Y-30100000D03*
D26*
X60100000Y-29250000D03*
X60100000Y-28750000D03*
X60100000Y-28250000D03*
X60100000Y-27750000D03*
X60100000Y-27250000D03*
X60100000Y-26750000D03*
X60100000Y-26250000D03*
X60100000Y-25750000D03*
X60100000Y-25250000D03*
D27*
X59250000Y-24400000D03*
X58750000Y-24400000D03*
X58250000Y-24400000D03*
X57750000Y-24400000D03*
X57250000Y-24400000D03*
X56750000Y-24400000D03*
X56250000Y-24400000D03*
X55750000Y-24400000D03*
X55250000Y-24400000D03*
D28*
X57250000Y-27250000D03*
D29*
X23950000Y-14750000D03*
X23950000Y-15250000D03*
X23950000Y-15750000D03*
X23950000Y-16250000D03*
X23950000Y-16750000D03*
X23950000Y-17250000D03*
X23950000Y-17750000D03*
X23950000Y-18250000D03*
X23950000Y-18750000D03*
X23950000Y-19250000D03*
D30*
X23950000Y-14175000D03*
X23950000Y-19825000D03*
D31*
X23400000Y-13487500D03*
D32*
X23150000Y-20512500D03*
D33*
X27300000Y-13325000D03*
D34*
X26900000Y-20825000D03*
D35*
X66800000Y-27800000D03*
X66800000Y-27150000D03*
X66800000Y-26500000D03*
X66800000Y-25850000D03*
X66800000Y-25200000D03*
D36*
X69500000Y-30000000D03*
X69500000Y-23000000D03*
D37*
X66800000Y-29000000D03*
X66800000Y-24000000D03*
D38*
X55380000Y-11750000D03*
X55380000Y-13750000D03*
X58000000Y-13750000D03*
X58000000Y-11750000D03*
D39*
X55380000Y-16250000D03*
X58000000Y-16250000D03*
X58000000Y-9250000D03*
D40*
X55380000Y-9250000D03*
D41*
X55030000Y-19320000D03*
X60710000Y-19320000D03*
X60710000Y-6180000D03*
X55030000Y-6180000D03*
D42*
X63950000Y-22400000D03*
D43*
X62250000Y-22400000D03*
X62250000Y-24600000D03*
X64150000Y-24600000D03*
D42*
X51750000Y-8400000D03*
D43*
X50050000Y-8400000D03*
X50050000Y-10600000D03*
X51950000Y-10600000D03*
D42*
X51750000Y-13400000D03*
D43*
X50050000Y-13400000D03*
X50050000Y-15600000D03*
X51950000Y-15600000D03*
D44*
X49175000Y-27775000D03*
X50825000Y-27775000D03*
X50825000Y-26225000D03*
X49175000Y-26225000D03*
D19*
X46450000Y-22000000D03*
X45550000Y-22000000D03*
X53800000Y-23000000D03*
X54700000Y-23000000D03*
X61750000Y-29300000D03*
X61750000Y-30200000D03*
X63300000Y-27500000D03*
X64200000Y-27500000D03*
X31700000Y-17500000D03*
X30800000Y-17500000D03*
X38450000Y-12000000D03*
X37550000Y-12000000D03*
X33950000Y-20250000D03*
X33050000Y-20250000D03*
X45550000Y-23400000D03*
X46450000Y-23400000D03*
X46500000Y-14950000D03*
X46500000Y-14050000D03*
X64250000Y-29300000D03*
X64250000Y-30200000D03*
X63000000Y-29300000D03*
X63000000Y-30200000D03*
X38450000Y-10750000D03*
X37550000Y-10750000D03*
X38450000Y-9500000D03*
X37550000Y-9500000D03*
X38450000Y-7000000D03*
X37550000Y-7000000D03*
X46650000Y-20600000D03*
X45750000Y-20600000D03*
D45*
X45250000Y-14950000D03*
X45250000Y-14050000D03*
D46*
X53800000Y-21750000D03*
X54700000Y-21750000D03*
X48800000Y-6250000D03*
X49700000Y-6250000D03*
D45*
X52500000Y-29300000D03*
X52500000Y-30200000D03*
X47750000Y-14900000D03*
X47750000Y-14000000D03*
D46*
X37550000Y-8250000D03*
X38450000Y-8250000D03*
X49950000Y-24750000D03*
X49050000Y-24750000D03*
D45*
X52250000Y-27900000D03*
X52250000Y-27000000D03*
X51000000Y-29300000D03*
X51000000Y-30200000D03*
X42500000Y-14900000D03*
X42500000Y-14000000D03*
D47*
X36250000Y-18300000D03*
X36250000Y-21200000D03*
D48*
X38650000Y-18550000D03*
X38650000Y-20450000D03*
X38650000Y-19500000D03*
X40850000Y-20450000D03*
X40850000Y-18550000D03*
D45*
X42500000Y-20950000D03*
X42500000Y-20050000D03*
X44000000Y-20950000D03*
X44000000Y-20050000D03*
D49*
X33700000Y-22500000D03*
X31800000Y-21850000D03*
X31800000Y-23150000D03*
X31800000Y-22500000D03*
X33700000Y-23150000D03*
X33700000Y-21850000D03*
D50*
X34800000Y-15350000D03*
X34800000Y-16650000D03*
X36700000Y-16000000D03*
D46*
X31550000Y-27500000D03*
X32450000Y-27500000D03*
D19*
X39750000Y-22300000D03*
X39750000Y-23200000D03*
X32450000Y-30500000D03*
X31550000Y-30500000D03*
X31550000Y-29050000D03*
X32450000Y-29050000D03*
X38250000Y-23200000D03*
X38250000Y-22300000D03*
D51*
X49000000Y-30350000D03*
X49000000Y-29250000D03*
D52*
X52300000Y-6250000D03*
X51200000Y-6250000D03*
D19*
X42800000Y-23450000D03*
X42800000Y-22550000D03*
X41200000Y-23250000D03*
X41200000Y-22350000D03*
X31550000Y-25750000D03*
X32450000Y-25750000D03*
D49*
X49950000Y-23150000D03*
X49950000Y-21850000D03*
X49950000Y-22500000D03*
X48050000Y-21850000D03*
X48050000Y-23150000D03*
D53*
X40450000Y-13800000D03*
X40050000Y-13800000D03*
X40050000Y-15200000D03*
X40450000Y-15200000D03*
D54*
X39350000Y-14100000D03*
X39350000Y-14500000D03*
X39350000Y-14900000D03*
X41150000Y-14500000D03*
X41150000Y-14100000D03*
X41150000Y-14900000D03*
D19*
X49450000Y-20600000D03*
X48550000Y-20600000D03*
D25*
X34800000Y-11800000D03*
X32800000Y-11800000D03*
D19*
X31700000Y-18750000D03*
X30800000Y-18750000D03*
X31700000Y-14750000D03*
X30800000Y-14750000D03*
D55*
G36*
X70123000Y-13123000D02*
X67877000Y-13123000D01*
X67877000Y-4877000D01*
X70123000Y-4877000D01*
X70123000Y-13123000D01*
X70123000Y-13123000D01*
G37*
X70123000Y-13123000D02*
X67877000Y-13123000D01*
X67877000Y-4877000D01*
X70123000Y-4877000D01*
X70123000Y-13123000D01*
M02*
