G04 #@! TF.FileFunction,Soldermask,Bot*
%FSLAX46Y46*%
G04 Gerber Fmt 4.6, Leading zero omitted, Abs format (unit mm)*
G04 Created by KiCad (PCBNEW (2016-06-03 BZR 6882, Git b4ad18a)-product) date Fri Jun  3 12:48:54 2016*
%MOMM*%
%LPD*%
G01*
G04 APERTURE LIST*
%ADD10C,0.100000*%
%ADD11R,4.400000X4.400000*%
%ADD12R,2.650000X2.650000*%
%ADD13R,2.400000X0.660000*%
%ADD14R,2.400000X0.810000*%
%ADD15R,2.700000X0.975000*%
%ADD16R,3.200000X0.975000*%
%ADD17R,2.400000X1.900000*%
%ADD18R,3.200000X1.400000*%
%ADD19R,1.924000X2.686000*%
%ADD20O,1.924000X2.686000*%
%ADD21O,1.950000X1.950000*%
%ADD22O,1.650000X1.650000*%
%ADD23C,1.800000*%
%ADD24C,2.400000*%
%ADD25O,2.400000X2.000000*%
%ADD26C,3.600000*%
%ADD27C,0.300000*%
%ADD28C,0.254000*%
G04 APERTURE END LIST*
D10*
D11*
X44000000Y-9000000D03*
X57250000Y-27250000D03*
D12*
X36000000Y-27000000D03*
D13*
X23950000Y-14750000D03*
X23950000Y-15250000D03*
X23950000Y-15750000D03*
X23950000Y-16250000D03*
X23950000Y-16750000D03*
X23950000Y-17250000D03*
X23950000Y-17750000D03*
X23950000Y-18250000D03*
X23950000Y-18750000D03*
X23950000Y-19250000D03*
D14*
X23950000Y-14175000D03*
X23950000Y-19825000D03*
D15*
X23150000Y-20512500D03*
D16*
X23400000Y-13487500D03*
D17*
X27300000Y-13325000D03*
D18*
X26900000Y-20825000D03*
D19*
X46040000Y-26206000D03*
D20*
X43500000Y-26206000D03*
X40960000Y-26206000D03*
X46040000Y-29254000D03*
X43500000Y-29254000D03*
X40960000Y-29254000D03*
D21*
X69500000Y-30000000D03*
X69500000Y-23000000D03*
D22*
X66800000Y-29000000D03*
X66800000Y-24000000D03*
D23*
X55380000Y-11750000D03*
X55380000Y-13750000D03*
X58000000Y-13750000D03*
X58000000Y-11750000D03*
D24*
X55380000Y-16250000D03*
X58000000Y-16250000D03*
X58000000Y-9250000D03*
D25*
X55380000Y-9250000D03*
D26*
X55030000Y-19320000D03*
X60710000Y-19320000D03*
X60710000Y-6180000D03*
X55030000Y-6180000D03*
D27*
G36*
X45350000Y-10350000D02*
X42650000Y-10350000D01*
X42650000Y-7650000D01*
X45350000Y-7650000D01*
X45350000Y-10350000D01*
X45350000Y-10350000D01*
G37*
X45350000Y-10350000D02*
X42650000Y-10350000D01*
X42650000Y-7650000D01*
X45350000Y-7650000D01*
X45350000Y-10350000D01*
G36*
X58600000Y-28600000D02*
X55900000Y-28600000D01*
X55900000Y-25900000D01*
X58600000Y-25900000D01*
X58600000Y-28600000D01*
X58600000Y-28600000D01*
G37*
X58600000Y-28600000D02*
X55900000Y-28600000D01*
X55900000Y-25900000D01*
X58600000Y-25900000D01*
X58600000Y-28600000D01*
G36*
X36850000Y-27850000D02*
X35150000Y-27850000D01*
X35150000Y-26150000D01*
X36850000Y-26150000D01*
X36850000Y-27850000D01*
X36850000Y-27850000D01*
G37*
X36850000Y-27850000D02*
X35150000Y-27850000D01*
X35150000Y-26150000D01*
X36850000Y-26150000D01*
X36850000Y-27850000D01*
D28*
G36*
X70123000Y-13123000D02*
X67877000Y-13123000D01*
X67877000Y-4877000D01*
X70123000Y-4877000D01*
X70123000Y-13123000D01*
X70123000Y-13123000D01*
G37*
X70123000Y-13123000D02*
X67877000Y-13123000D01*
X67877000Y-4877000D01*
X70123000Y-4877000D01*
X70123000Y-13123000D01*
M02*
