G04 #@! TF.FileFunction,Legend,Top*
%FSLAX46Y46*%
G04 Gerber Fmt 4.6, Leading zero omitted, Abs format (unit mm)*
G04 Created by KiCad (PCBNEW (2016-06-03 BZR 6882, Git b4ad18a)-product) date Fri Jun  3 12:29:47 2016*
%MOMM*%
%LPD*%
G01*
G04 APERTURE LIST*
%ADD10C,0.100000*%
%ADD11C,0.200000*%
%ADD12C,0.175000*%
%ADD13C,0.350000*%
%ADD14C,0.010000*%
%ADD15C,0.150000*%
%ADD16C,0.300000*%
%ADD17C,0.250000*%
%ADD18O,1.450000X0.700000*%
%ADD19O,0.700000X1.450000*%
%ADD20R,4.400000X4.400000*%
%ADD21O,0.700000X1.400000*%
%ADD22O,1.400000X0.700000*%
%ADD23R,2.650000X2.650000*%
%ADD24R,2.400000X0.660000*%
%ADD25R,2.400000X0.810000*%
%ADD26R,3.200000X0.975000*%
%ADD27R,2.700000X0.975000*%
%ADD28R,2.400000X1.900000*%
%ADD29R,3.200000X1.400000*%
%ADD30R,1.924000X2.686000*%
%ADD31O,1.924000X2.686000*%
%ADD32R,1.750000X0.800000*%
%ADD33O,1.950000X1.950000*%
%ADD34O,1.650000X1.650000*%
%ADD35R,0.600000X1.200000*%
%ADD36R,1.200000X0.600000*%
%ADD37C,1.800000*%
%ADD38C,2.400000*%
%ADD39O,2.400000X2.000000*%
%ADD40C,3.600000*%
%ADD41R,1.500000X1.700000*%
%ADD42R,1.300000X1.700000*%
%ADD43R,1.050000X1.250000*%
%ADD44R,1.000000X1.000000*%
%ADD45R,1.000000X1.050000*%
%ADD46R,1.050000X1.000000*%
%ADD47R,2.200000X1.600000*%
%ADD48R,1.500000X1.000000*%
%ADD49R,1.150000X0.800000*%
%ADD50R,1.250000X1.050000*%
%ADD51R,0.900000X1.100000*%
%ADD52R,1.100000X0.900000*%
%ADD53C,0.254000*%
G04 APERTURE END LIST*
D10*
D11*
X50750000Y-23250000D02*
X51500000Y-23250000D01*
X51500000Y-23500000D02*
X51500000Y-23000000D01*
X50750000Y-23250000D02*
X51500000Y-23500000D01*
X50750000Y-23250000D02*
X51500000Y-23000000D01*
X45200000Y-24200000D02*
X45200000Y-23600000D01*
X45400000Y-23600000D02*
X45200000Y-24200000D01*
X45000000Y-23600000D02*
X45400000Y-23600000D01*
X45200000Y-24200000D02*
X45000000Y-23600000D01*
X52300000Y-5600000D02*
X52300000Y-5200000D01*
X52400000Y-5200000D02*
X52300000Y-5600000D01*
X52200000Y-5200000D02*
X52400000Y-5200000D01*
X52300000Y-5600000D02*
X52200000Y-5200000D01*
X49800000Y-30800000D02*
X50100000Y-31100000D01*
X50000000Y-31200000D02*
X49800000Y-30800000D01*
X50300000Y-30900000D02*
X50000000Y-31200000D01*
X49800000Y-30800000D02*
X50300000Y-30900000D01*
X53200000Y-25200000D02*
X52600000Y-25200000D01*
X52600000Y-25400000D02*
X53200000Y-25200000D01*
X52600000Y-25000000D02*
X52600000Y-25400000D01*
X53200000Y-25200000D02*
X52600000Y-25000000D01*
X48000000Y-11600000D02*
X48600000Y-11600000D01*
X48600000Y-11800000D02*
X48000000Y-11600000D01*
X48600000Y-11400000D02*
X48600000Y-11800000D01*
X48000000Y-11600000D02*
X48600000Y-11400000D01*
X37000000Y-24000000D02*
X37000000Y-23400000D01*
X37200000Y-23400000D02*
X37000000Y-24000000D01*
X36800000Y-23400000D02*
X37200000Y-23400000D01*
X37000000Y-24000000D02*
X36800000Y-23400000D01*
X31400000Y-21200000D02*
X31400000Y-20600000D01*
X31600000Y-20600000D02*
X31400000Y-21200000D01*
X31200000Y-20600000D02*
X31600000Y-20600000D01*
X31400000Y-21200000D02*
X31200000Y-20600000D01*
D12*
X36316666Y-12350000D02*
X35616666Y-12350000D01*
X36116666Y-12116666D01*
X35616666Y-11883333D01*
X36316666Y-11883333D01*
X36316666Y-11550000D02*
X35616666Y-11550000D01*
X35616666Y-11383333D01*
X35650000Y-11283333D01*
X35716666Y-11216666D01*
X35783333Y-11183333D01*
X35916666Y-11150000D01*
X36016666Y-11150000D01*
X36150000Y-11183333D01*
X36216666Y-11216666D01*
X36283333Y-11283333D01*
X36316666Y-11383333D01*
X36316666Y-11550000D01*
X36283333Y-10883333D02*
X36316666Y-10783333D01*
X36316666Y-10616666D01*
X36283333Y-10550000D01*
X36250000Y-10516666D01*
X36183333Y-10483333D01*
X36116666Y-10483333D01*
X36050000Y-10516666D01*
X36016666Y-10550000D01*
X35983333Y-10616666D01*
X35950000Y-10750000D01*
X35916666Y-10816666D01*
X35883333Y-10850000D01*
X35816666Y-10883333D01*
X35750000Y-10883333D01*
X35683333Y-10850000D01*
X35650000Y-10816666D01*
X35616666Y-10750000D01*
X35616666Y-10583333D01*
X35650000Y-10483333D01*
X35583333Y-9683333D02*
X36483333Y-10283333D01*
X36250000Y-9050000D02*
X36283333Y-9083333D01*
X36316666Y-9183333D01*
X36316666Y-9250000D01*
X36283333Y-9350000D01*
X36216666Y-9416666D01*
X36150000Y-9450000D01*
X36016666Y-9483333D01*
X35916666Y-9483333D01*
X35783333Y-9450000D01*
X35716666Y-9416666D01*
X35650000Y-9350000D01*
X35616666Y-9250000D01*
X35616666Y-9183333D01*
X35650000Y-9083333D01*
X35683333Y-9050000D01*
X36316666Y-8750000D02*
X35616666Y-8750000D01*
X35616666Y-8483333D01*
X35650000Y-8416666D01*
X35683333Y-8383333D01*
X35750000Y-8350000D01*
X35850000Y-8350000D01*
X35916666Y-8383333D01*
X35950000Y-8416666D01*
X35983333Y-8483333D01*
X35983333Y-8750000D01*
X36283333Y-8016666D02*
X36316666Y-8016666D01*
X36383333Y-8050000D01*
X36416666Y-8083333D01*
X36316666Y-6783333D02*
X35983333Y-7016666D01*
X36316666Y-7183333D02*
X35616666Y-7183333D01*
X35616666Y-6916666D01*
X35650000Y-6850000D01*
X35683333Y-6816666D01*
X35750000Y-6783333D01*
X35850000Y-6783333D01*
X35916666Y-6816666D01*
X35950000Y-6850000D01*
X35983333Y-6916666D01*
X35983333Y-7183333D01*
X35683333Y-6516666D02*
X35650000Y-6483333D01*
X35616666Y-6416666D01*
X35616666Y-6250000D01*
X35650000Y-6183333D01*
X35683333Y-6150000D01*
X35750000Y-6116666D01*
X35816666Y-6116666D01*
X35916666Y-6150000D01*
X36316666Y-6550000D01*
X36316666Y-6116666D01*
X36250000Y-5816666D02*
X36283333Y-5783333D01*
X36316666Y-5816666D01*
X36283333Y-5850000D01*
X36250000Y-5816666D01*
X36316666Y-5816666D01*
X35616666Y-5350000D02*
X35616666Y-5283333D01*
X35650000Y-5216666D01*
X35683333Y-5183333D01*
X35750000Y-5150000D01*
X35883333Y-5116666D01*
X36050000Y-5116666D01*
X36183333Y-5150000D01*
X36250000Y-5183333D01*
X36283333Y-5216666D01*
X36316666Y-5283333D01*
X36316666Y-5350000D01*
X36283333Y-5416666D01*
X36250000Y-5450000D01*
X36183333Y-5483333D01*
X36050000Y-5516666D01*
X35883333Y-5516666D01*
X35750000Y-5483333D01*
X35683333Y-5450000D01*
X35650000Y-5416666D01*
X35616666Y-5350000D01*
X35066666Y-12350000D02*
X34366666Y-12350000D01*
X34366666Y-12083333D01*
X34400000Y-12016666D01*
X34433333Y-11983333D01*
X34500000Y-11950000D01*
X34600000Y-11950000D01*
X34666666Y-11983333D01*
X34700000Y-12016666D01*
X34733333Y-12083333D01*
X34733333Y-12350000D01*
X35066666Y-11650000D02*
X34600000Y-11650000D01*
X34366666Y-11650000D02*
X34400000Y-11683333D01*
X34433333Y-11650000D01*
X34400000Y-11616666D01*
X34366666Y-11650000D01*
X34433333Y-11650000D01*
X35066666Y-11383333D02*
X34600000Y-11016666D01*
X34600000Y-11383333D02*
X35066666Y-11016666D01*
X35033333Y-10483333D02*
X35066666Y-10550000D01*
X35066666Y-10683333D01*
X35033333Y-10750000D01*
X34966666Y-10783333D01*
X34700000Y-10783333D01*
X34633333Y-10750000D01*
X34600000Y-10683333D01*
X34600000Y-10550000D01*
X34633333Y-10483333D01*
X34700000Y-10450000D01*
X34766666Y-10450000D01*
X34833333Y-10783333D01*
X35066666Y-10050000D02*
X35033333Y-10116666D01*
X34966666Y-10150000D01*
X34366666Y-10150000D01*
X35000000Y-8850000D02*
X35033333Y-8883333D01*
X35066666Y-8983333D01*
X35066666Y-9050000D01*
X35033333Y-9150000D01*
X34966666Y-9216666D01*
X34900000Y-9250000D01*
X34766666Y-9283333D01*
X34666666Y-9283333D01*
X34533333Y-9250000D01*
X34466666Y-9216666D01*
X34400000Y-9150000D01*
X34366666Y-9050000D01*
X34366666Y-8983333D01*
X34400000Y-8883333D01*
X34433333Y-8850000D01*
X35066666Y-8016666D02*
X34366666Y-8016666D01*
X34366666Y-7850000D01*
X34400000Y-7750000D01*
X34466666Y-7683333D01*
X34533333Y-7650000D01*
X34666666Y-7616666D01*
X34766666Y-7616666D01*
X34900000Y-7650000D01*
X34966666Y-7683333D01*
X35033333Y-7750000D01*
X35066666Y-7850000D01*
X35066666Y-8016666D01*
X35033333Y-7050000D02*
X35066666Y-7116666D01*
X35066666Y-7250000D01*
X35033333Y-7316666D01*
X34966666Y-7350000D01*
X34700000Y-7350000D01*
X34633333Y-7316666D01*
X34600000Y-7250000D01*
X34600000Y-7116666D01*
X34633333Y-7050000D01*
X34700000Y-7016666D01*
X34766666Y-7016666D01*
X34833333Y-7350000D01*
X35066666Y-6716666D02*
X34366666Y-6716666D01*
X34633333Y-6716666D02*
X34600000Y-6650000D01*
X34600000Y-6516666D01*
X34633333Y-6450000D01*
X34666666Y-6416666D01*
X34733333Y-6383333D01*
X34933333Y-6383333D01*
X35000000Y-6416666D01*
X35033333Y-6450000D01*
X35066666Y-6516666D01*
X35066666Y-6650000D01*
X35033333Y-6716666D01*
X34600000Y-5783333D02*
X35066666Y-5783333D01*
X34600000Y-6083333D02*
X34966666Y-6083333D01*
X35033333Y-6050000D01*
X35066666Y-5983333D01*
X35066666Y-5883333D01*
X35033333Y-5816666D01*
X35000000Y-5783333D01*
X34600000Y-5150000D02*
X35166666Y-5150000D01*
X35233333Y-5183333D01*
X35266666Y-5216666D01*
X35300000Y-5283333D01*
X35300000Y-5383333D01*
X35266666Y-5450000D01*
X35033333Y-5150000D02*
X35066666Y-5216666D01*
X35066666Y-5350000D01*
X35033333Y-5416666D01*
X35000000Y-5450000D01*
X34933333Y-5483333D01*
X34733333Y-5483333D01*
X34666666Y-5450000D01*
X34633333Y-5416666D01*
X34600000Y-5350000D01*
X34600000Y-5216666D01*
X34633333Y-5150000D01*
D13*
X47127000Y-11404000D02*
X47127000Y-12127000D01*
X47127000Y-12127000D02*
X46404000Y-12127000D01*
X41596000Y-12127000D02*
X40873000Y-12127000D01*
X40873000Y-12127000D02*
X40873000Y-11404000D01*
X47127000Y-6596000D02*
X47127000Y-5873000D01*
X47127000Y-5873000D02*
X46404000Y-5873000D01*
X41596000Y-5873000D02*
X40873000Y-5873000D01*
X40873000Y-5873000D02*
X40873000Y-6596000D01*
X47635000Y-11658000D02*
X47508000Y-11785000D01*
X47508000Y-11785000D02*
X47381000Y-11658000D01*
X47381000Y-11658000D02*
X47508000Y-11531000D01*
X47508000Y-11531000D02*
X47635000Y-11658000D01*
X54123000Y-24846000D02*
X54123000Y-24123000D01*
X54123000Y-24123000D02*
X54846000Y-24123000D01*
X59654000Y-24123000D02*
X60377000Y-24123000D01*
X60377000Y-24123000D02*
X60377000Y-24846000D01*
X54123000Y-29654000D02*
X54123000Y-30377000D01*
X54123000Y-30377000D02*
X54846000Y-30377000D01*
X59654000Y-30377000D02*
X60377000Y-30377000D01*
X60377000Y-30377000D02*
X60377000Y-29654000D01*
X53615000Y-24592000D02*
X53742000Y-24465000D01*
X53742000Y-24465000D02*
X53869000Y-24592000D01*
X53869000Y-24592000D02*
X53742000Y-24719000D01*
X53742000Y-24719000D02*
X53615000Y-24592000D01*
X37404000Y-24873000D02*
X38127000Y-24873000D01*
X38127000Y-24873000D02*
X38127000Y-25596000D01*
X38127000Y-28404000D02*
X38127000Y-29127000D01*
X38127000Y-29127000D02*
X37404000Y-29127000D01*
X34596000Y-24873000D02*
X33873000Y-24873000D01*
X33873000Y-24873000D02*
X33873000Y-25596000D01*
X33873000Y-28404000D02*
X33873000Y-29127000D01*
X33873000Y-29127000D02*
X34596000Y-29127000D01*
X37658000Y-24365000D02*
X37785000Y-24492000D01*
X37785000Y-24492000D02*
X37658000Y-24619000D01*
X37658000Y-24619000D02*
X37531000Y-24492000D01*
X37531000Y-24492000D02*
X37658000Y-24365000D01*
X47945000Y-30905000D02*
X39055000Y-30905000D01*
X39055000Y-30905000D02*
X39055000Y-24555000D01*
X39055000Y-24555000D02*
X47945000Y-24555000D01*
X47945000Y-24555000D02*
X47945000Y-30905000D01*
X47945000Y-27730000D02*
X44770000Y-27730000D01*
X44770000Y-27730000D02*
X44770000Y-24555000D01*
D14*
G36*
X34155000Y-10172400D02*
X34155000Y-10235900D01*
X30395800Y-10235900D01*
X30395800Y-10172400D01*
X34155000Y-10172400D01*
X34155000Y-10172400D01*
G37*
X34155000Y-10172400D02*
X34155000Y-10235900D01*
X30395800Y-10235900D01*
X30395800Y-10172400D01*
X34155000Y-10172400D01*
G36*
X31140942Y-8702093D02*
X31144555Y-8661403D01*
X31167564Y-8504213D01*
X31204349Y-8368214D01*
X31255115Y-8253124D01*
X31320070Y-8158662D01*
X31399421Y-8084545D01*
X31493376Y-8030492D01*
X31602141Y-7996220D01*
X31638461Y-7989635D01*
X31667659Y-7986970D01*
X31719462Y-7984223D01*
X31791075Y-7981468D01*
X31879703Y-7978780D01*
X31982552Y-7976233D01*
X32096826Y-7973903D01*
X32219732Y-7971864D01*
X32348473Y-7970191D01*
X32377000Y-7969883D01*
X32537506Y-7968081D01*
X32674943Y-7966145D01*
X32791638Y-7963886D01*
X32889920Y-7961112D01*
X32972119Y-7957633D01*
X33040565Y-7953259D01*
X33097585Y-7947798D01*
X33145511Y-7941061D01*
X33186670Y-7932856D01*
X33223392Y-7922993D01*
X33258006Y-7911282D01*
X33292841Y-7897531D01*
X33300542Y-7894308D01*
X33341382Y-7877497D01*
X33372323Y-7865525D01*
X33386598Y-7861000D01*
X33388820Y-7872971D01*
X33390297Y-7905981D01*
X33390948Y-7955678D01*
X33390694Y-8017712D01*
X33390155Y-8054675D01*
X33386650Y-8248350D01*
X33297750Y-8275894D01*
X33247204Y-8291290D01*
X33200642Y-8305021D01*
X33168588Y-8313994D01*
X33128326Y-8324550D01*
X33198865Y-8419800D01*
X33263487Y-8517537D01*
X33322294Y-8626302D01*
X33370848Y-8736999D01*
X33404715Y-8840527D01*
X33405498Y-8843584D01*
X33420524Y-8920557D01*
X33431256Y-9011279D01*
X33437184Y-9106677D01*
X33437796Y-9197676D01*
X33432583Y-9275206D01*
X33430574Y-9289750D01*
X33398632Y-9431341D01*
X33349788Y-9553972D01*
X33284041Y-9657647D01*
X33201389Y-9742367D01*
X33101830Y-9808137D01*
X33081794Y-9818116D01*
X32965313Y-9860229D01*
X32846588Y-9878459D01*
X32794609Y-9876396D01*
X32794609Y-9478086D01*
X32876351Y-9469720D01*
X32953280Y-9441735D01*
X33020387Y-9394230D01*
X33038675Y-9375258D01*
X33090487Y-9297747D01*
X33125610Y-9204319D01*
X33143635Y-9098553D01*
X33144154Y-8984029D01*
X33126757Y-8864327D01*
X33105942Y-8786366D01*
X33056664Y-8667609D01*
X32989637Y-8565759D01*
X32905916Y-8482107D01*
X32806558Y-8417943D01*
X32802446Y-8415885D01*
X32752287Y-8394091D01*
X32698143Y-8377481D01*
X32634841Y-8365074D01*
X32557210Y-8355890D01*
X32460077Y-8348946D01*
X32445121Y-8348124D01*
X32378864Y-8344756D01*
X32334120Y-8343286D01*
X32307045Y-8344111D01*
X32293798Y-8347627D01*
X32290535Y-8354229D01*
X32293204Y-8363775D01*
X32314166Y-8426437D01*
X32336729Y-8508865D01*
X32359576Y-8605594D01*
X32381391Y-8711158D01*
X32395465Y-8788100D01*
X32417699Y-8915519D01*
X32436709Y-9020578D01*
X32453294Y-9105996D01*
X32468253Y-9174492D01*
X32482384Y-9228785D01*
X32496486Y-9271595D01*
X32511358Y-9305642D01*
X32527798Y-9333643D01*
X32546604Y-9358320D01*
X32568576Y-9382390D01*
X32570607Y-9384487D01*
X32636728Y-9435568D01*
X32713066Y-9466735D01*
X32794609Y-9478086D01*
X32794609Y-9876396D01*
X32728600Y-9873775D01*
X32614334Y-9847151D01*
X32506770Y-9799558D01*
X32408893Y-9731968D01*
X32323684Y-9645352D01*
X32259268Y-9550100D01*
X32225756Y-9481074D01*
X32196497Y-9400945D01*
X32170674Y-9306517D01*
X32147469Y-9194596D01*
X32126066Y-9061985D01*
X32116357Y-8991300D01*
X32099955Y-8873276D01*
X32082408Y-8759691D01*
X32064385Y-8654102D01*
X32046553Y-8560065D01*
X32029582Y-8481136D01*
X32014141Y-8420870D01*
X32002695Y-8386918D01*
X31990604Y-8361811D01*
X31976147Y-8348942D01*
X31951205Y-8344233D01*
X31916430Y-8343600D01*
X31808868Y-8350877D01*
X31714403Y-8371999D01*
X31636317Y-8405906D01*
X31577892Y-8451539D01*
X31576038Y-8453562D01*
X31534457Y-8504930D01*
X31503247Y-8557685D01*
X31481142Y-8616455D01*
X31466876Y-8685868D01*
X31459185Y-8770552D01*
X31456804Y-8875135D01*
X31456816Y-8889700D01*
X31457413Y-8967505D01*
X31459090Y-9025347D01*
X31462453Y-9068659D01*
X31468107Y-9102873D01*
X31476656Y-9133423D01*
X31487106Y-9161719D01*
X31535522Y-9250256D01*
X31604903Y-9325609D01*
X31693819Y-9386578D01*
X31800842Y-9431969D01*
X31814780Y-9436296D01*
X31848417Y-9448540D01*
X31862462Y-9461442D01*
X31862570Y-9479013D01*
X31858609Y-9501692D01*
X31852266Y-9543517D01*
X31844428Y-9598444D01*
X31836298Y-9658050D01*
X31828263Y-9716970D01*
X31821280Y-9765750D01*
X31816083Y-9799433D01*
X31813405Y-9813056D01*
X31813367Y-9813108D01*
X31798155Y-9813111D01*
X31765281Y-9805308D01*
X31720542Y-9791628D01*
X31669739Y-9773995D01*
X31618670Y-9754336D01*
X31573134Y-9734578D01*
X31564481Y-9730432D01*
X31456453Y-9663898D01*
X31364155Y-9577774D01*
X31287524Y-9471944D01*
X31226494Y-9346292D01*
X31181001Y-9200701D01*
X31150980Y-9035056D01*
X31144379Y-8975145D01*
X31137308Y-8878444D01*
X31136160Y-8792181D01*
X31140942Y-8702093D01*
X31140942Y-8702093D01*
G37*
X31140942Y-8702093D02*
X31144555Y-8661403D01*
X31167564Y-8504213D01*
X31204349Y-8368214D01*
X31255115Y-8253124D01*
X31320070Y-8158662D01*
X31399421Y-8084545D01*
X31493376Y-8030492D01*
X31602141Y-7996220D01*
X31638461Y-7989635D01*
X31667659Y-7986970D01*
X31719462Y-7984223D01*
X31791075Y-7981468D01*
X31879703Y-7978780D01*
X31982552Y-7976233D01*
X32096826Y-7973903D01*
X32219732Y-7971864D01*
X32348473Y-7970191D01*
X32377000Y-7969883D01*
X32537506Y-7968081D01*
X32674943Y-7966145D01*
X32791638Y-7963886D01*
X32889920Y-7961112D01*
X32972119Y-7957633D01*
X33040565Y-7953259D01*
X33097585Y-7947798D01*
X33145511Y-7941061D01*
X33186670Y-7932856D01*
X33223392Y-7922993D01*
X33258006Y-7911282D01*
X33292841Y-7897531D01*
X33300542Y-7894308D01*
X33341382Y-7877497D01*
X33372323Y-7865525D01*
X33386598Y-7861000D01*
X33388820Y-7872971D01*
X33390297Y-7905981D01*
X33390948Y-7955678D01*
X33390694Y-8017712D01*
X33390155Y-8054675D01*
X33386650Y-8248350D01*
X33297750Y-8275894D01*
X33247204Y-8291290D01*
X33200642Y-8305021D01*
X33168588Y-8313994D01*
X33128326Y-8324550D01*
X33198865Y-8419800D01*
X33263487Y-8517537D01*
X33322294Y-8626302D01*
X33370848Y-8736999D01*
X33404715Y-8840527D01*
X33405498Y-8843584D01*
X33420524Y-8920557D01*
X33431256Y-9011279D01*
X33437184Y-9106677D01*
X33437796Y-9197676D01*
X33432583Y-9275206D01*
X33430574Y-9289750D01*
X33398632Y-9431341D01*
X33349788Y-9553972D01*
X33284041Y-9657647D01*
X33201389Y-9742367D01*
X33101830Y-9808137D01*
X33081794Y-9818116D01*
X32965313Y-9860229D01*
X32846588Y-9878459D01*
X32794609Y-9876396D01*
X32794609Y-9478086D01*
X32876351Y-9469720D01*
X32953280Y-9441735D01*
X33020387Y-9394230D01*
X33038675Y-9375258D01*
X33090487Y-9297747D01*
X33125610Y-9204319D01*
X33143635Y-9098553D01*
X33144154Y-8984029D01*
X33126757Y-8864327D01*
X33105942Y-8786366D01*
X33056664Y-8667609D01*
X32989637Y-8565759D01*
X32905916Y-8482107D01*
X32806558Y-8417943D01*
X32802446Y-8415885D01*
X32752287Y-8394091D01*
X32698143Y-8377481D01*
X32634841Y-8365074D01*
X32557210Y-8355890D01*
X32460077Y-8348946D01*
X32445121Y-8348124D01*
X32378864Y-8344756D01*
X32334120Y-8343286D01*
X32307045Y-8344111D01*
X32293798Y-8347627D01*
X32290535Y-8354229D01*
X32293204Y-8363775D01*
X32314166Y-8426437D01*
X32336729Y-8508865D01*
X32359576Y-8605594D01*
X32381391Y-8711158D01*
X32395465Y-8788100D01*
X32417699Y-8915519D01*
X32436709Y-9020578D01*
X32453294Y-9105996D01*
X32468253Y-9174492D01*
X32482384Y-9228785D01*
X32496486Y-9271595D01*
X32511358Y-9305642D01*
X32527798Y-9333643D01*
X32546604Y-9358320D01*
X32568576Y-9382390D01*
X32570607Y-9384487D01*
X32636728Y-9435568D01*
X32713066Y-9466735D01*
X32794609Y-9478086D01*
X32794609Y-9876396D01*
X32728600Y-9873775D01*
X32614334Y-9847151D01*
X32506770Y-9799558D01*
X32408893Y-9731968D01*
X32323684Y-9645352D01*
X32259268Y-9550100D01*
X32225756Y-9481074D01*
X32196497Y-9400945D01*
X32170674Y-9306517D01*
X32147469Y-9194596D01*
X32126066Y-9061985D01*
X32116357Y-8991300D01*
X32099955Y-8873276D01*
X32082408Y-8759691D01*
X32064385Y-8654102D01*
X32046553Y-8560065D01*
X32029582Y-8481136D01*
X32014141Y-8420870D01*
X32002695Y-8386918D01*
X31990604Y-8361811D01*
X31976147Y-8348942D01*
X31951205Y-8344233D01*
X31916430Y-8343600D01*
X31808868Y-8350877D01*
X31714403Y-8371999D01*
X31636317Y-8405906D01*
X31577892Y-8451539D01*
X31576038Y-8453562D01*
X31534457Y-8504930D01*
X31503247Y-8557685D01*
X31481142Y-8616455D01*
X31466876Y-8685868D01*
X31459185Y-8770552D01*
X31456804Y-8875135D01*
X31456816Y-8889700D01*
X31457413Y-8967505D01*
X31459090Y-9025347D01*
X31462453Y-9068659D01*
X31468107Y-9102873D01*
X31476656Y-9133423D01*
X31487106Y-9161719D01*
X31535522Y-9250256D01*
X31604903Y-9325609D01*
X31693819Y-9386578D01*
X31800842Y-9431969D01*
X31814780Y-9436296D01*
X31848417Y-9448540D01*
X31862462Y-9461442D01*
X31862570Y-9479013D01*
X31858609Y-9501692D01*
X31852266Y-9543517D01*
X31844428Y-9598444D01*
X31836298Y-9658050D01*
X31828263Y-9716970D01*
X31821280Y-9765750D01*
X31816083Y-9799433D01*
X31813405Y-9813056D01*
X31813367Y-9813108D01*
X31798155Y-9813111D01*
X31765281Y-9805308D01*
X31720542Y-9791628D01*
X31669739Y-9773995D01*
X31618670Y-9754336D01*
X31573134Y-9734578D01*
X31564481Y-9730432D01*
X31456453Y-9663898D01*
X31364155Y-9577774D01*
X31287524Y-9471944D01*
X31226494Y-9346292D01*
X31181001Y-9200701D01*
X31150980Y-9035056D01*
X31144379Y-8975145D01*
X31137308Y-8878444D01*
X31136160Y-8792181D01*
X31140942Y-8702093D01*
G36*
X31143807Y-6007428D02*
X31168847Y-5847841D01*
X31207115Y-5709524D01*
X31258953Y-5591861D01*
X31324703Y-5494233D01*
X31404709Y-5416022D01*
X31499312Y-5356611D01*
X31506426Y-5353171D01*
X31557572Y-5331288D01*
X31612257Y-5311785D01*
X31664701Y-5296250D01*
X31709124Y-5286273D01*
X31739746Y-5283441D01*
X31749642Y-5286310D01*
X31754599Y-5301688D01*
X31761457Y-5336497D01*
X31769433Y-5384982D01*
X31777746Y-5441389D01*
X31785612Y-5499964D01*
X31792250Y-5554955D01*
X31796876Y-5600605D01*
X31798708Y-5631162D01*
X31797827Y-5640641D01*
X31781336Y-5649045D01*
X31762794Y-5651200D01*
X31722369Y-5659803D01*
X31672120Y-5682713D01*
X31619464Y-5715588D01*
X31571818Y-5754084D01*
X31551370Y-5775012D01*
X31510682Y-5829816D01*
X31481417Y-5890888D01*
X31462499Y-5962575D01*
X31452850Y-6049222D01*
X31451395Y-6155179D01*
X31451921Y-6176648D01*
X31454286Y-6246325D01*
X31457405Y-6296908D01*
X31462449Y-6334700D01*
X31470582Y-6366005D01*
X31482975Y-6397126D01*
X31498997Y-6430718D01*
X31547255Y-6506756D01*
X31604011Y-6560359D01*
X31666194Y-6591701D01*
X31730735Y-6600958D01*
X31794561Y-6588308D01*
X31854604Y-6553926D01*
X31907791Y-6497989D01*
X31951053Y-6420671D01*
X31957581Y-6404412D01*
X31967690Y-6374436D01*
X31983115Y-6324395D01*
X32002546Y-6258744D01*
X32024675Y-6181939D01*
X32048191Y-6098434D01*
X32059132Y-6058936D01*
X32101516Y-5908369D01*
X32139750Y-5780352D01*
X32174844Y-5672563D01*
X32207803Y-5582679D01*
X32239636Y-5508380D01*
X32271350Y-5447344D01*
X32303954Y-5397248D01*
X32338453Y-5355772D01*
X32375857Y-5320594D01*
X32381645Y-5315827D01*
X32477462Y-5253463D01*
X32580976Y-5213379D01*
X32689286Y-5194774D01*
X32799492Y-5196846D01*
X32908691Y-5218792D01*
X33013983Y-5259810D01*
X33112467Y-5319097D01*
X33201242Y-5395851D01*
X33277406Y-5489271D01*
X33328374Y-5577658D01*
X33356212Y-5642059D01*
X33382843Y-5715146D01*
X33403079Y-5782511D01*
X33405163Y-5790900D01*
X33421690Y-5881260D01*
X33432754Y-5986487D01*
X33437828Y-6096535D01*
X33436386Y-6201357D01*
X33430431Y-6272762D01*
X33410462Y-6387914D01*
X33380820Y-6499047D01*
X33343996Y-6597518D01*
X33325954Y-6635005D01*
X33276406Y-6710872D01*
X33209590Y-6786951D01*
X33132608Y-6856292D01*
X33052560Y-6911943D01*
X33030477Y-6924171D01*
X32984946Y-6945460D01*
X32931419Y-6966910D01*
X32875363Y-6986786D01*
X32822244Y-7003353D01*
X32777529Y-7014874D01*
X32746684Y-7019614D01*
X32735952Y-7017686D01*
X32731457Y-7003152D01*
X32724112Y-6968258D01*
X32714827Y-6917762D01*
X32704509Y-6856425D01*
X32701195Y-6835651D01*
X32673673Y-6660850D01*
X32731711Y-6644608D01*
X32846708Y-6602224D01*
X32941399Y-6544819D01*
X33016410Y-6471763D01*
X33072362Y-6382428D01*
X33109879Y-6276187D01*
X33113816Y-6259382D01*
X33122434Y-6198176D01*
X33125799Y-6122625D01*
X33124302Y-6040302D01*
X33118333Y-5958782D01*
X33108285Y-5885639D01*
X33094548Y-5828446D01*
X33091057Y-5818725D01*
X33048516Y-5735773D01*
X32993924Y-5668921D01*
X32930467Y-5619396D01*
X32861328Y-5588427D01*
X32789692Y-5577241D01*
X32718745Y-5587067D01*
X32651670Y-5619133D01*
X32625709Y-5639274D01*
X32602209Y-5664206D01*
X32579998Y-5697809D01*
X32558006Y-5742828D01*
X32535164Y-5802010D01*
X32510401Y-5878103D01*
X32482647Y-5973852D01*
X32453967Y-6080090D01*
X32419971Y-6207217D01*
X32390507Y-6313042D01*
X32364477Y-6401031D01*
X32340787Y-6474651D01*
X32318339Y-6537368D01*
X32296039Y-6592650D01*
X32281813Y-6624697D01*
X32220540Y-6730528D01*
X32143346Y-6817924D01*
X32052258Y-6885546D01*
X31949303Y-6932055D01*
X31836508Y-6956110D01*
X31775488Y-6959300D01*
X31652956Y-6947478D01*
X31540121Y-6912766D01*
X31438429Y-6856298D01*
X31349326Y-6779207D01*
X31274260Y-6682627D01*
X31214676Y-6567691D01*
X31190174Y-6500680D01*
X31157844Y-6368231D01*
X31140273Y-6224403D01*
X31138395Y-6079125D01*
X31143807Y-6007428D01*
X31143807Y-6007428D01*
G37*
X31143807Y-6007428D02*
X31168847Y-5847841D01*
X31207115Y-5709524D01*
X31258953Y-5591861D01*
X31324703Y-5494233D01*
X31404709Y-5416022D01*
X31499312Y-5356611D01*
X31506426Y-5353171D01*
X31557572Y-5331288D01*
X31612257Y-5311785D01*
X31664701Y-5296250D01*
X31709124Y-5286273D01*
X31739746Y-5283441D01*
X31749642Y-5286310D01*
X31754599Y-5301688D01*
X31761457Y-5336497D01*
X31769433Y-5384982D01*
X31777746Y-5441389D01*
X31785612Y-5499964D01*
X31792250Y-5554955D01*
X31796876Y-5600605D01*
X31798708Y-5631162D01*
X31797827Y-5640641D01*
X31781336Y-5649045D01*
X31762794Y-5651200D01*
X31722369Y-5659803D01*
X31672120Y-5682713D01*
X31619464Y-5715588D01*
X31571818Y-5754084D01*
X31551370Y-5775012D01*
X31510682Y-5829816D01*
X31481417Y-5890888D01*
X31462499Y-5962575D01*
X31452850Y-6049222D01*
X31451395Y-6155179D01*
X31451921Y-6176648D01*
X31454286Y-6246325D01*
X31457405Y-6296908D01*
X31462449Y-6334700D01*
X31470582Y-6366005D01*
X31482975Y-6397126D01*
X31498997Y-6430718D01*
X31547255Y-6506756D01*
X31604011Y-6560359D01*
X31666194Y-6591701D01*
X31730735Y-6600958D01*
X31794561Y-6588308D01*
X31854604Y-6553926D01*
X31907791Y-6497989D01*
X31951053Y-6420671D01*
X31957581Y-6404412D01*
X31967690Y-6374436D01*
X31983115Y-6324395D01*
X32002546Y-6258744D01*
X32024675Y-6181939D01*
X32048191Y-6098434D01*
X32059132Y-6058936D01*
X32101516Y-5908369D01*
X32139750Y-5780352D01*
X32174844Y-5672563D01*
X32207803Y-5582679D01*
X32239636Y-5508380D01*
X32271350Y-5447344D01*
X32303954Y-5397248D01*
X32338453Y-5355772D01*
X32375857Y-5320594D01*
X32381645Y-5315827D01*
X32477462Y-5253463D01*
X32580976Y-5213379D01*
X32689286Y-5194774D01*
X32799492Y-5196846D01*
X32908691Y-5218792D01*
X33013983Y-5259810D01*
X33112467Y-5319097D01*
X33201242Y-5395851D01*
X33277406Y-5489271D01*
X33328374Y-5577658D01*
X33356212Y-5642059D01*
X33382843Y-5715146D01*
X33403079Y-5782511D01*
X33405163Y-5790900D01*
X33421690Y-5881260D01*
X33432754Y-5986487D01*
X33437828Y-6096535D01*
X33436386Y-6201357D01*
X33430431Y-6272762D01*
X33410462Y-6387914D01*
X33380820Y-6499047D01*
X33343996Y-6597518D01*
X33325954Y-6635005D01*
X33276406Y-6710872D01*
X33209590Y-6786951D01*
X33132608Y-6856292D01*
X33052560Y-6911943D01*
X33030477Y-6924171D01*
X32984946Y-6945460D01*
X32931419Y-6966910D01*
X32875363Y-6986786D01*
X32822244Y-7003353D01*
X32777529Y-7014874D01*
X32746684Y-7019614D01*
X32735952Y-7017686D01*
X32731457Y-7003152D01*
X32724112Y-6968258D01*
X32714827Y-6917762D01*
X32704509Y-6856425D01*
X32701195Y-6835651D01*
X32673673Y-6660850D01*
X32731711Y-6644608D01*
X32846708Y-6602224D01*
X32941399Y-6544819D01*
X33016410Y-6471763D01*
X33072362Y-6382428D01*
X33109879Y-6276187D01*
X33113816Y-6259382D01*
X33122434Y-6198176D01*
X33125799Y-6122625D01*
X33124302Y-6040302D01*
X33118333Y-5958782D01*
X33108285Y-5885639D01*
X33094548Y-5828446D01*
X33091057Y-5818725D01*
X33048516Y-5735773D01*
X32993924Y-5668921D01*
X32930467Y-5619396D01*
X32861328Y-5588427D01*
X32789692Y-5577241D01*
X32718745Y-5587067D01*
X32651670Y-5619133D01*
X32625709Y-5639274D01*
X32602209Y-5664206D01*
X32579998Y-5697809D01*
X32558006Y-5742828D01*
X32535164Y-5802010D01*
X32510401Y-5878103D01*
X32482647Y-5973852D01*
X32453967Y-6080090D01*
X32419971Y-6207217D01*
X32390507Y-6313042D01*
X32364477Y-6401031D01*
X32340787Y-6474651D01*
X32318339Y-6537368D01*
X32296039Y-6592650D01*
X32281813Y-6624697D01*
X32220540Y-6730528D01*
X32143346Y-6817924D01*
X32052258Y-6885546D01*
X31949303Y-6932055D01*
X31836508Y-6956110D01*
X31775488Y-6959300D01*
X31652956Y-6947478D01*
X31540121Y-6912766D01*
X31438429Y-6856298D01*
X31349326Y-6779207D01*
X31274260Y-6682627D01*
X31214676Y-6567691D01*
X31190174Y-6500680D01*
X31157844Y-6368231D01*
X31140273Y-6224403D01*
X31138395Y-6079125D01*
X31143807Y-6007428D01*
G36*
X33393000Y-7226000D02*
X33393000Y-7607000D01*
X31183200Y-7607000D01*
X31183200Y-7226000D01*
X33393000Y-7226000D01*
X33393000Y-7226000D01*
G37*
X33393000Y-7226000D02*
X33393000Y-7607000D01*
X31183200Y-7607000D01*
X31183200Y-7226000D01*
X33393000Y-7226000D01*
G36*
X32718837Y-11990755D02*
X32749155Y-11925503D01*
X32793891Y-11869903D01*
X32848505Y-11830779D01*
X32863601Y-11824208D01*
X32924326Y-11811949D01*
X32991946Y-11814665D01*
X33053410Y-11831609D01*
X33061708Y-11835544D01*
X33126440Y-11881617D01*
X33171609Y-11941848D01*
X33195701Y-12012524D01*
X33197203Y-12089931D01*
X33185927Y-12140301D01*
X33154298Y-12200198D01*
X33104128Y-12249541D01*
X33041286Y-12284790D01*
X32971644Y-12302404D01*
X32918062Y-12301855D01*
X32853153Y-12281158D01*
X32794928Y-12240585D01*
X32748107Y-12185585D01*
X32717413Y-12121605D01*
X32707478Y-12058835D01*
X32718837Y-11990755D01*
X32718837Y-11990755D01*
G37*
X32718837Y-11990755D02*
X32749155Y-11925503D01*
X32793891Y-11869903D01*
X32848505Y-11830779D01*
X32863601Y-11824208D01*
X32924326Y-11811949D01*
X32991946Y-11814665D01*
X33053410Y-11831609D01*
X33061708Y-11835544D01*
X33126440Y-11881617D01*
X33171609Y-11941848D01*
X33195701Y-12012524D01*
X33197203Y-12089931D01*
X33185927Y-12140301D01*
X33154298Y-12200198D01*
X33104128Y-12249541D01*
X33041286Y-12284790D01*
X32971644Y-12302404D01*
X32918062Y-12301855D01*
X32853153Y-12281158D01*
X32794928Y-12240585D01*
X32748107Y-12185585D01*
X32717413Y-12121605D01*
X32707478Y-12058835D01*
X32718837Y-11990755D01*
G36*
X32715457Y-11411164D02*
X32743021Y-11342474D01*
X32789290Y-11285006D01*
X32851006Y-11242868D01*
X32920914Y-11220791D01*
X32991210Y-11221545D01*
X33058670Y-11244757D01*
X33118164Y-11287587D01*
X33164562Y-11347197D01*
X33170966Y-11359169D01*
X33196887Y-11431893D01*
X33198675Y-11500726D01*
X33182252Y-11556700D01*
X33140196Y-11626556D01*
X33083977Y-11675458D01*
X33014350Y-11702902D01*
X32954034Y-11709100D01*
X32936204Y-11706555D01*
X32936204Y-11644545D01*
X32963593Y-11642968D01*
X33029763Y-11629899D01*
X33079067Y-11599828D01*
X33115690Y-11549969D01*
X33121735Y-11537650D01*
X33133758Y-11486112D01*
X33129611Y-11428648D01*
X33110571Y-11377613D01*
X33104220Y-11368085D01*
X33055934Y-11317962D01*
X33002253Y-11291359D01*
X32957703Y-11285767D01*
X32890615Y-11297308D01*
X32835278Y-11331085D01*
X32797297Y-11379486D01*
X32773875Y-11443073D01*
X32775580Y-11504683D01*
X32802151Y-11563135D01*
X32849011Y-11613678D01*
X32875865Y-11633559D01*
X32901504Y-11642973D01*
X32936204Y-11644545D01*
X32936204Y-11706555D01*
X32875096Y-11697831D01*
X32808296Y-11665734D01*
X32756457Y-11615375D01*
X32722399Y-11549321D01*
X32709856Y-11486966D01*
X32715457Y-11411164D01*
X32715457Y-11411164D01*
G37*
X32715457Y-11411164D02*
X32743021Y-11342474D01*
X32789290Y-11285006D01*
X32851006Y-11242868D01*
X32920914Y-11220791D01*
X32991210Y-11221545D01*
X33058670Y-11244757D01*
X33118164Y-11287587D01*
X33164562Y-11347197D01*
X33170966Y-11359169D01*
X33196887Y-11431893D01*
X33198675Y-11500726D01*
X33182252Y-11556700D01*
X33140196Y-11626556D01*
X33083977Y-11675458D01*
X33014350Y-11702902D01*
X32954034Y-11709100D01*
X32936204Y-11706555D01*
X32936204Y-11644545D01*
X32963593Y-11642968D01*
X33029763Y-11629899D01*
X33079067Y-11599828D01*
X33115690Y-11549969D01*
X33121735Y-11537650D01*
X33133758Y-11486112D01*
X33129611Y-11428648D01*
X33110571Y-11377613D01*
X33104220Y-11368085D01*
X33055934Y-11317962D01*
X33002253Y-11291359D01*
X32957703Y-11285767D01*
X32890615Y-11297308D01*
X32835278Y-11331085D01*
X32797297Y-11379486D01*
X32773875Y-11443073D01*
X32775580Y-11504683D01*
X32802151Y-11563135D01*
X32849011Y-11613678D01*
X32875865Y-11633559D01*
X32901504Y-11642973D01*
X32936204Y-11644545D01*
X32936204Y-11706555D01*
X32875096Y-11697831D01*
X32808296Y-11665734D01*
X32756457Y-11615375D01*
X32722399Y-11549321D01*
X32709856Y-11486966D01*
X32715457Y-11411164D01*
G36*
X32726263Y-10792643D02*
X32761000Y-10727630D01*
X32816504Y-10675839D01*
X32846585Y-10658175D01*
X32918043Y-10634272D01*
X32987644Y-10632792D01*
X33052339Y-10650786D01*
X33109080Y-10685305D01*
X33154820Y-10733401D01*
X33186508Y-10792124D01*
X33201098Y-10858526D01*
X33195540Y-10929658D01*
X33178628Y-10979376D01*
X33137225Y-11042630D01*
X33081213Y-11088456D01*
X33015418Y-11115526D01*
X32944667Y-11122510D01*
X32873788Y-11108078D01*
X32818022Y-11078674D01*
X32761496Y-11024704D01*
X32726897Y-10958028D01*
X32714072Y-10878340D01*
X32713987Y-10868197D01*
X32726263Y-10792643D01*
X32726263Y-10792643D01*
G37*
X32726263Y-10792643D02*
X32761000Y-10727630D01*
X32816504Y-10675839D01*
X32846585Y-10658175D01*
X32918043Y-10634272D01*
X32987644Y-10632792D01*
X33052339Y-10650786D01*
X33109080Y-10685305D01*
X33154820Y-10733401D01*
X33186508Y-10792124D01*
X33201098Y-10858526D01*
X33195540Y-10929658D01*
X33178628Y-10979376D01*
X33137225Y-11042630D01*
X33081213Y-11088456D01*
X33015418Y-11115526D01*
X32944667Y-11122510D01*
X32873788Y-11108078D01*
X32818022Y-11078674D01*
X32761496Y-11024704D01*
X32726897Y-10958028D01*
X32714072Y-10878340D01*
X32713987Y-10868197D01*
X32726263Y-10792643D01*
G36*
X32138128Y-12022813D02*
X32151947Y-11959479D01*
X32161350Y-11937209D01*
X32203679Y-11880452D01*
X32261500Y-11839739D01*
X32329346Y-11816770D01*
X32401749Y-11813244D01*
X32473238Y-11830862D01*
X32485614Y-11836422D01*
X32548468Y-11880001D01*
X32592235Y-11939149D01*
X32614955Y-12010679D01*
X32617802Y-12051312D01*
X32614392Y-12098934D01*
X32606241Y-12142286D01*
X32600299Y-12159950D01*
X32563262Y-12214942D01*
X32508966Y-12260900D01*
X32445181Y-12292812D01*
X32379677Y-12305668D01*
X32374232Y-12305722D01*
X32311751Y-12294082D01*
X32249618Y-12263473D01*
X32195407Y-12219147D01*
X32156691Y-12166358D01*
X32149207Y-12149599D01*
X32136974Y-12090418D01*
X32138128Y-12022813D01*
X32138128Y-12022813D01*
G37*
X32138128Y-12022813D02*
X32151947Y-11959479D01*
X32161350Y-11937209D01*
X32203679Y-11880452D01*
X32261500Y-11839739D01*
X32329346Y-11816770D01*
X32401749Y-11813244D01*
X32473238Y-11830862D01*
X32485614Y-11836422D01*
X32548468Y-11880001D01*
X32592235Y-11939149D01*
X32614955Y-12010679D01*
X32617802Y-12051312D01*
X32614392Y-12098934D01*
X32606241Y-12142286D01*
X32600299Y-12159950D01*
X32563262Y-12214942D01*
X32508966Y-12260900D01*
X32445181Y-12292812D01*
X32379677Y-12305668D01*
X32374232Y-12305722D01*
X32311751Y-12294082D01*
X32249618Y-12263473D01*
X32195407Y-12219147D01*
X32156691Y-12166358D01*
X32149207Y-12149599D01*
X32136974Y-12090418D01*
X32138128Y-12022813D01*
G36*
X32148213Y-11377545D02*
X32181272Y-11317798D01*
X32228428Y-11270358D01*
X32286209Y-11237481D01*
X32351144Y-11221420D01*
X32419763Y-11224432D01*
X32488595Y-11248769D01*
X32526342Y-11272857D01*
X32574080Y-11323965D01*
X32605170Y-11388731D01*
X32618200Y-11460490D01*
X32611757Y-11532576D01*
X32592385Y-11584594D01*
X32547414Y-11644193D01*
X32486779Y-11685333D01*
X32413506Y-11706755D01*
X32330619Y-11707198D01*
X32306743Y-11703512D01*
X32256936Y-11683064D01*
X32208657Y-11644365D01*
X32168221Y-11594112D01*
X32141947Y-11538999D01*
X32138266Y-11524944D01*
X32132721Y-11447345D01*
X32148213Y-11377545D01*
X32148213Y-11377545D01*
G37*
X32148213Y-11377545D02*
X32181272Y-11317798D01*
X32228428Y-11270358D01*
X32286209Y-11237481D01*
X32351144Y-11221420D01*
X32419763Y-11224432D01*
X32488595Y-11248769D01*
X32526342Y-11272857D01*
X32574080Y-11323965D01*
X32605170Y-11388731D01*
X32618200Y-11460490D01*
X32611757Y-11532576D01*
X32592385Y-11584594D01*
X32547414Y-11644193D01*
X32486779Y-11685333D01*
X32413506Y-11706755D01*
X32330619Y-11707198D01*
X32306743Y-11703512D01*
X32256936Y-11683064D01*
X32208657Y-11644365D01*
X32168221Y-11594112D01*
X32141947Y-11538999D01*
X32138266Y-11524944D01*
X32132721Y-11447345D01*
X32148213Y-11377545D01*
G36*
X32144644Y-10799508D02*
X32174296Y-10736692D01*
X32218908Y-10687365D01*
X32274545Y-10652701D01*
X32337275Y-10633877D01*
X32403162Y-10632068D01*
X32468272Y-10648450D01*
X32528672Y-10684198D01*
X32580428Y-10740488D01*
X32580839Y-10741086D01*
X32602347Y-10789130D01*
X32614219Y-10850123D01*
X32615540Y-10913292D01*
X32605398Y-10967862D01*
X32600987Y-10978850D01*
X32560816Y-11038046D01*
X32504825Y-11083468D01*
X32438832Y-11112752D01*
X32368654Y-11123529D01*
X32350226Y-11120815D01*
X32350226Y-11055932D01*
X32410591Y-11055232D01*
X32467603Y-11032655D01*
X32516638Y-10988543D01*
X32530713Y-10968635D01*
X32549371Y-10919091D01*
X32552678Y-10861601D01*
X32541348Y-10806003D01*
X32516098Y-10762133D01*
X32515647Y-10761646D01*
X32458917Y-10716068D01*
X32398733Y-10695022D01*
X32337910Y-10698428D01*
X32279262Y-10726205D01*
X32232462Y-10769819D01*
X32211295Y-10800932D01*
X32201397Y-10835421D01*
X32199200Y-10877783D01*
X32201656Y-10922809D01*
X32211783Y-10954698D01*
X32233716Y-10985465D01*
X32237934Y-10990333D01*
X32291132Y-11034414D01*
X32350226Y-11055932D01*
X32350226Y-11120815D01*
X32300107Y-11113432D01*
X32284517Y-11107629D01*
X32219104Y-11066946D01*
X32170567Y-11009238D01*
X32141461Y-10938459D01*
X32133885Y-10874638D01*
X32144644Y-10799508D01*
X32144644Y-10799508D01*
G37*
X32144644Y-10799508D02*
X32174296Y-10736692D01*
X32218908Y-10687365D01*
X32274545Y-10652701D01*
X32337275Y-10633877D01*
X32403162Y-10632068D01*
X32468272Y-10648450D01*
X32528672Y-10684198D01*
X32580428Y-10740488D01*
X32580839Y-10741086D01*
X32602347Y-10789130D01*
X32614219Y-10850123D01*
X32615540Y-10913292D01*
X32605398Y-10967862D01*
X32600987Y-10978850D01*
X32560816Y-11038046D01*
X32504825Y-11083468D01*
X32438832Y-11112752D01*
X32368654Y-11123529D01*
X32350226Y-11120815D01*
X32350226Y-11055932D01*
X32410591Y-11055232D01*
X32467603Y-11032655D01*
X32516638Y-10988543D01*
X32530713Y-10968635D01*
X32549371Y-10919091D01*
X32552678Y-10861601D01*
X32541348Y-10806003D01*
X32516098Y-10762133D01*
X32515647Y-10761646D01*
X32458917Y-10716068D01*
X32398733Y-10695022D01*
X32337910Y-10698428D01*
X32279262Y-10726205D01*
X32232462Y-10769819D01*
X32211295Y-10800932D01*
X32201397Y-10835421D01*
X32199200Y-10877783D01*
X32201656Y-10922809D01*
X32211783Y-10954698D01*
X32233716Y-10985465D01*
X32237934Y-10990333D01*
X32291132Y-11034414D01*
X32350226Y-11055932D01*
X32350226Y-11120815D01*
X32300107Y-11113432D01*
X32284517Y-11107629D01*
X32219104Y-11066946D01*
X32170567Y-11009238D01*
X32141461Y-10938459D01*
X32133885Y-10874638D01*
X32144644Y-10799508D01*
G36*
X31569035Y-11959518D02*
X31596998Y-11914650D01*
X31638543Y-11870408D01*
X31684464Y-11835762D01*
X31707901Y-11824179D01*
X31780320Y-11809472D01*
X31852100Y-11817382D01*
X31918559Y-11845449D01*
X31975015Y-11891215D01*
X32016786Y-11952218D01*
X32032782Y-11994850D01*
X32043036Y-12039254D01*
X32044349Y-12073020D01*
X32036867Y-12109231D01*
X32034154Y-12118497D01*
X32003264Y-12182992D01*
X31955149Y-12238224D01*
X31895568Y-12279655D01*
X31830280Y-12302747D01*
X31796248Y-12306000D01*
X31765194Y-12300948D01*
X31765194Y-12237614D01*
X31823233Y-12237200D01*
X31878649Y-12215621D01*
X31926618Y-12177015D01*
X31962312Y-12125521D01*
X31980906Y-12065279D01*
X31982208Y-12051516D01*
X31977397Y-12029268D01*
X31963940Y-11994772D01*
X31954725Y-11975316D01*
X31915804Y-11922540D01*
X31865367Y-11889175D01*
X31808452Y-11875369D01*
X31750094Y-11881269D01*
X31695332Y-11907021D01*
X31649202Y-11952773D01*
X31640331Y-11966159D01*
X31617954Y-12024836D01*
X31617683Y-12085203D01*
X31637158Y-12142131D01*
X31674018Y-12190486D01*
X31725903Y-12225139D01*
X31765194Y-12237614D01*
X31765194Y-12300948D01*
X31724686Y-12294357D01*
X31661798Y-12262282D01*
X31610392Y-12214057D01*
X31573274Y-12153962D01*
X31553253Y-12086279D01*
X31553136Y-12015289D01*
X31569035Y-11959518D01*
X31569035Y-11959518D01*
G37*
X31569035Y-11959518D02*
X31596998Y-11914650D01*
X31638543Y-11870408D01*
X31684464Y-11835762D01*
X31707901Y-11824179D01*
X31780320Y-11809472D01*
X31852100Y-11817382D01*
X31918559Y-11845449D01*
X31975015Y-11891215D01*
X32016786Y-11952218D01*
X32032782Y-11994850D01*
X32043036Y-12039254D01*
X32044349Y-12073020D01*
X32036867Y-12109231D01*
X32034154Y-12118497D01*
X32003264Y-12182992D01*
X31955149Y-12238224D01*
X31895568Y-12279655D01*
X31830280Y-12302747D01*
X31796248Y-12306000D01*
X31765194Y-12300948D01*
X31765194Y-12237614D01*
X31823233Y-12237200D01*
X31878649Y-12215621D01*
X31926618Y-12177015D01*
X31962312Y-12125521D01*
X31980906Y-12065279D01*
X31982208Y-12051516D01*
X31977397Y-12029268D01*
X31963940Y-11994772D01*
X31954725Y-11975316D01*
X31915804Y-11922540D01*
X31865367Y-11889175D01*
X31808452Y-11875369D01*
X31750094Y-11881269D01*
X31695332Y-11907021D01*
X31649202Y-11952773D01*
X31640331Y-11966159D01*
X31617954Y-12024836D01*
X31617683Y-12085203D01*
X31637158Y-12142131D01*
X31674018Y-12190486D01*
X31725903Y-12225139D01*
X31765194Y-12237614D01*
X31765194Y-12300948D01*
X31724686Y-12294357D01*
X31661798Y-12262282D01*
X31610392Y-12214057D01*
X31573274Y-12153962D01*
X31553253Y-12086279D01*
X31553136Y-12015289D01*
X31569035Y-11959518D01*
G36*
X31564424Y-11387366D02*
X31569035Y-11375318D01*
X31596998Y-11330450D01*
X31638543Y-11286208D01*
X31684464Y-11251562D01*
X31707901Y-11239979D01*
X31780980Y-11224982D01*
X31853008Y-11232749D01*
X31919429Y-11260888D01*
X31975689Y-11307008D01*
X32017236Y-11368715D01*
X32032782Y-11410650D01*
X32043215Y-11455018D01*
X32044699Y-11488226D01*
X32036917Y-11523002D01*
X32029437Y-11544999D01*
X31992643Y-11616161D01*
X31942254Y-11669174D01*
X31882310Y-11703730D01*
X31816853Y-11719524D01*
X31749927Y-11716247D01*
X31685572Y-11693593D01*
X31627831Y-11651256D01*
X31580746Y-11588930D01*
X31575664Y-11579431D01*
X31556607Y-11519482D01*
X31552726Y-11451312D01*
X31564424Y-11387366D01*
X31564424Y-11387366D01*
G37*
X31564424Y-11387366D02*
X31569035Y-11375318D01*
X31596998Y-11330450D01*
X31638543Y-11286208D01*
X31684464Y-11251562D01*
X31707901Y-11239979D01*
X31780980Y-11224982D01*
X31853008Y-11232749D01*
X31919429Y-11260888D01*
X31975689Y-11307008D01*
X32017236Y-11368715D01*
X32032782Y-11410650D01*
X32043215Y-11455018D01*
X32044699Y-11488226D01*
X32036917Y-11523002D01*
X32029437Y-11544999D01*
X31992643Y-11616161D01*
X31942254Y-11669174D01*
X31882310Y-11703730D01*
X31816853Y-11719524D01*
X31749927Y-11716247D01*
X31685572Y-11693593D01*
X31627831Y-11651256D01*
X31580746Y-11588930D01*
X31575664Y-11579431D01*
X31556607Y-11519482D01*
X31552726Y-11451312D01*
X31564424Y-11387366D01*
G36*
X31560596Y-10804169D02*
X31580034Y-10754791D01*
X31584894Y-10747640D01*
X31644360Y-10684706D01*
X31710710Y-10646122D01*
X31771762Y-10632413D01*
X31851414Y-10637340D01*
X31921432Y-10664441D01*
X31978557Y-10711454D01*
X32019533Y-10776114D01*
X32032782Y-10813750D01*
X32043182Y-10857884D01*
X32044617Y-10891207D01*
X32036623Y-10926844D01*
X32027850Y-10952716D01*
X31997268Y-11017331D01*
X31955362Y-11064494D01*
X31907276Y-11095831D01*
X31835705Y-11120562D01*
X31763576Y-11121728D01*
X31694941Y-11100742D01*
X31633855Y-11059015D01*
X31584373Y-10997959D01*
X31574295Y-10979848D01*
X31557278Y-10926534D01*
X31552861Y-10864695D01*
X31560596Y-10804169D01*
X31560596Y-10804169D01*
G37*
X31560596Y-10804169D02*
X31580034Y-10754791D01*
X31584894Y-10747640D01*
X31644360Y-10684706D01*
X31710710Y-10646122D01*
X31771762Y-10632413D01*
X31851414Y-10637340D01*
X31921432Y-10664441D01*
X31978557Y-10711454D01*
X32019533Y-10776114D01*
X32032782Y-10813750D01*
X32043182Y-10857884D01*
X32044617Y-10891207D01*
X32036623Y-10926844D01*
X32027850Y-10952716D01*
X31997268Y-11017331D01*
X31955362Y-11064494D01*
X31907276Y-11095831D01*
X31835705Y-11120562D01*
X31763576Y-11121728D01*
X31694941Y-11100742D01*
X31633855Y-11059015D01*
X31584373Y-10997959D01*
X31574295Y-10979848D01*
X31557278Y-10926534D01*
X31552861Y-10864695D01*
X31560596Y-10804169D01*
G36*
X30776800Y-7226000D02*
X30776800Y-7607000D01*
X30345000Y-7607000D01*
X30345000Y-7226000D01*
X30776800Y-7226000D01*
X30776800Y-7226000D01*
G37*
X30776800Y-7226000D02*
X30776800Y-7607000D01*
X30345000Y-7607000D01*
X30345000Y-7226000D01*
X30776800Y-7226000D01*
D15*
X65000000Y-28250000D02*
X65000000Y-27500000D01*
D16*
X70500000Y-31000000D02*
X66000000Y-31000000D01*
X66000000Y-31000000D02*
X65500000Y-31000000D01*
X65500000Y-31000000D02*
X65500000Y-22000000D01*
X65500000Y-22000000D02*
X70500000Y-22000000D01*
D15*
X40950000Y-13400000D02*
X41550000Y-13400000D01*
X40950000Y-13400000D02*
X41550000Y-13300000D01*
X40950000Y-13400000D02*
X41550000Y-13500000D01*
X41550000Y-13600000D02*
X40950000Y-13400000D01*
X41550000Y-13200000D02*
X41550000Y-13600000D01*
X40950000Y-13400000D02*
X41550000Y-13200000D01*
D17*
X64800000Y-21700000D02*
X64800000Y-23100000D01*
D13*
X64450000Y-23500000D02*
X61950000Y-23500000D01*
D17*
X52600000Y-7700000D02*
X52600000Y-9100000D01*
D13*
X52250000Y-9500000D02*
X49750000Y-9500000D01*
D17*
X52600000Y-12700000D02*
X52600000Y-14100000D01*
D13*
X52250000Y-14500000D02*
X49750000Y-14500000D01*
D15*
X48500000Y-27400000D02*
X48500000Y-28400000D01*
D13*
X35604000Y-19154000D02*
X35604000Y-20346000D01*
X35604000Y-20346000D02*
X35604000Y-19154000D01*
X36896000Y-19154000D02*
X36896000Y-20346000D01*
X36896000Y-20346000D02*
X36896000Y-19154000D01*
X39500000Y-18000000D02*
X40000000Y-18000000D01*
X40000000Y-18000000D02*
X40000000Y-21000000D01*
X40000000Y-21000000D02*
X39500000Y-21000000D01*
X39500000Y-21000000D02*
X39500000Y-18000000D01*
D15*
X31350000Y-21400000D02*
X32250000Y-21400000D01*
D13*
X32750000Y-21500000D02*
X32750000Y-23500000D01*
X35750000Y-16750000D02*
X35750000Y-17000000D01*
X35750000Y-17000000D02*
X35250000Y-17000000D01*
X35250000Y-15000000D02*
X35750000Y-15000000D01*
X35750000Y-15000000D02*
X35750000Y-15250000D01*
D15*
X48500000Y-30950000D02*
X49500000Y-30950000D01*
X52900000Y-6750000D02*
X52900000Y-5750000D01*
D13*
X49000000Y-23500000D02*
X49000000Y-21500000D01*
%LPC*%
D18*
X46850000Y-11000000D03*
X46850000Y-10500000D03*
X46850000Y-10000000D03*
X46850000Y-9500000D03*
X46850000Y-9000000D03*
X46850000Y-8500000D03*
X46850000Y-8000000D03*
X46850000Y-7500000D03*
X46850000Y-7000000D03*
D19*
X46000000Y-6150000D03*
X45500000Y-6150000D03*
X45000000Y-6150000D03*
X44500000Y-6150000D03*
X44000000Y-6150000D03*
X43500000Y-6150000D03*
X43000000Y-6150000D03*
X42500000Y-6150000D03*
X42000000Y-6150000D03*
D18*
X41150000Y-7000000D03*
X41150000Y-7500000D03*
X41150000Y-8000000D03*
X41150000Y-8500000D03*
X41150000Y-9000000D03*
X41150000Y-9500000D03*
X41150000Y-10000000D03*
X41150000Y-10500000D03*
X41150000Y-11000000D03*
D19*
X42000000Y-11850000D03*
X42500000Y-11850000D03*
X43000000Y-11850000D03*
X43500000Y-11850000D03*
X44000000Y-11850000D03*
X44500000Y-11850000D03*
X45000000Y-11850000D03*
X45500000Y-11850000D03*
X46000000Y-11850000D03*
D20*
X44000000Y-9000000D03*
D18*
X54400000Y-25250000D03*
X54400000Y-25750000D03*
X54400000Y-26250000D03*
X54400000Y-26750000D03*
X54400000Y-27250000D03*
X54400000Y-27750000D03*
X54400000Y-28250000D03*
X54400000Y-28750000D03*
X54400000Y-29250000D03*
D19*
X55250000Y-30100000D03*
X55750000Y-30100000D03*
X56250000Y-30100000D03*
X56750000Y-30100000D03*
X57250000Y-30100000D03*
X57750000Y-30100000D03*
X58250000Y-30100000D03*
X58750000Y-30100000D03*
X59250000Y-30100000D03*
D18*
X60100000Y-29250000D03*
X60100000Y-28750000D03*
X60100000Y-28250000D03*
X60100000Y-27750000D03*
X60100000Y-27250000D03*
X60100000Y-26750000D03*
X60100000Y-26250000D03*
X60100000Y-25750000D03*
X60100000Y-25250000D03*
D19*
X59250000Y-24400000D03*
X58750000Y-24400000D03*
X58250000Y-24400000D03*
X57750000Y-24400000D03*
X57250000Y-24400000D03*
X56750000Y-24400000D03*
X56250000Y-24400000D03*
X55750000Y-24400000D03*
X55250000Y-24400000D03*
D20*
X57250000Y-27250000D03*
D21*
X37000000Y-25150000D03*
X36500000Y-25150000D03*
X36000000Y-25150000D03*
X35500000Y-25150000D03*
X35000000Y-25150000D03*
D22*
X34150000Y-26000000D03*
X34150000Y-26500000D03*
X34150000Y-27000000D03*
X34150000Y-27500000D03*
X34150000Y-28000000D03*
D21*
X35000000Y-28850000D03*
X35500000Y-28850000D03*
X36000000Y-28850000D03*
X36500000Y-28850000D03*
X37000000Y-28850000D03*
D22*
X37850000Y-28000000D03*
X37850000Y-27500000D03*
X37850000Y-27000000D03*
X37850000Y-26500000D03*
X37850000Y-26000000D03*
D23*
X36000000Y-27000000D03*
D24*
X23950000Y-14750000D03*
X23950000Y-15250000D03*
X23950000Y-15750000D03*
X23950000Y-16250000D03*
X23950000Y-16750000D03*
X23950000Y-17250000D03*
X23950000Y-17750000D03*
X23950000Y-18250000D03*
X23950000Y-18750000D03*
X23950000Y-19250000D03*
D25*
X23950000Y-14175000D03*
X23950000Y-19825000D03*
D26*
X23400000Y-13487500D03*
D27*
X23150000Y-20512500D03*
D28*
X27300000Y-13325000D03*
D29*
X26900000Y-20825000D03*
D30*
X46040000Y-26206000D03*
D31*
X43500000Y-26206000D03*
X40960000Y-26206000D03*
X46040000Y-29254000D03*
X43500000Y-29254000D03*
X40960000Y-29254000D03*
D32*
X66800000Y-27800000D03*
X66800000Y-27150000D03*
X66800000Y-26500000D03*
X66800000Y-25850000D03*
X66800000Y-25200000D03*
D33*
X69500000Y-30000000D03*
X69500000Y-23000000D03*
D34*
X66800000Y-29000000D03*
X66800000Y-24000000D03*
D35*
X40450000Y-13800000D03*
X40050000Y-13800000D03*
X40050000Y-15200000D03*
X40450000Y-15200000D03*
D36*
X39350000Y-14100000D03*
X39350000Y-14500000D03*
X39350000Y-14900000D03*
X41150000Y-14500000D03*
X41150000Y-14100000D03*
X41150000Y-14900000D03*
D37*
X55380000Y-11750000D03*
X55380000Y-13750000D03*
X58000000Y-13750000D03*
X58000000Y-11750000D03*
D38*
X55380000Y-16250000D03*
X58000000Y-16250000D03*
X58000000Y-9250000D03*
D39*
X55380000Y-9250000D03*
D40*
X55030000Y-19320000D03*
X60710000Y-19320000D03*
X60710000Y-6180000D03*
X55030000Y-6180000D03*
D41*
X63950000Y-22400000D03*
D42*
X62250000Y-22400000D03*
X62250000Y-24600000D03*
X64150000Y-24600000D03*
D41*
X51750000Y-8400000D03*
D42*
X50050000Y-8400000D03*
X50050000Y-10600000D03*
X51950000Y-10600000D03*
D41*
X51750000Y-13400000D03*
D42*
X50050000Y-13400000D03*
X50050000Y-15600000D03*
X51950000Y-15600000D03*
D43*
X49175000Y-27775000D03*
X50825000Y-27775000D03*
X50825000Y-26225000D03*
X49175000Y-26225000D03*
D44*
X46250000Y-20300000D03*
X46250000Y-21200000D03*
X53800000Y-23000000D03*
X54700000Y-23000000D03*
X61750000Y-29300000D03*
X61750000Y-30200000D03*
X63300000Y-27500000D03*
X64200000Y-27500000D03*
X31700000Y-17750000D03*
X30800000Y-17750000D03*
X38450000Y-12000000D03*
X37550000Y-12000000D03*
X33950000Y-20250000D03*
X33050000Y-20250000D03*
X46250000Y-22550000D03*
X46250000Y-23450000D03*
X46500000Y-14950000D03*
X46500000Y-14050000D03*
X64250000Y-29300000D03*
X64250000Y-30200000D03*
X63000000Y-29300000D03*
X63000000Y-30200000D03*
X38450000Y-10750000D03*
X37550000Y-10750000D03*
X38450000Y-9500000D03*
X37550000Y-9500000D03*
X31700000Y-14000000D03*
X30800000Y-14000000D03*
X38450000Y-7000000D03*
X37550000Y-7000000D03*
X48450000Y-20250000D03*
X47550000Y-20250000D03*
D45*
X45250000Y-14950000D03*
X45250000Y-14050000D03*
D46*
X53800000Y-21750000D03*
X54700000Y-21750000D03*
X48800000Y-6250000D03*
X49700000Y-6250000D03*
D45*
X52500000Y-29300000D03*
X52500000Y-30200000D03*
X47750000Y-14900000D03*
X47750000Y-14000000D03*
D46*
X37550000Y-8250000D03*
X38450000Y-8250000D03*
X49950000Y-24750000D03*
X49050000Y-24750000D03*
D45*
X52250000Y-27900000D03*
X52250000Y-27000000D03*
X51000000Y-29300000D03*
X51000000Y-30200000D03*
X42500000Y-14900000D03*
X42500000Y-14000000D03*
D47*
X36250000Y-18300000D03*
X36250000Y-21200000D03*
D48*
X38650000Y-18550000D03*
X38650000Y-20450000D03*
X38650000Y-19500000D03*
X40850000Y-20450000D03*
X40850000Y-18550000D03*
D45*
X42500000Y-20950000D03*
X42500000Y-20050000D03*
X44000000Y-20950000D03*
X44000000Y-20050000D03*
D49*
X33700000Y-22500000D03*
X31800000Y-21850000D03*
X31800000Y-23150000D03*
X31800000Y-22500000D03*
X33700000Y-23150000D03*
X33700000Y-21850000D03*
D50*
X34300000Y-15350000D03*
X34300000Y-16650000D03*
X36200000Y-16000000D03*
D46*
X31550000Y-27500000D03*
X32450000Y-27500000D03*
D44*
X39750000Y-22300000D03*
X39750000Y-23200000D03*
X32450000Y-30500000D03*
X31550000Y-30500000D03*
X31550000Y-29050000D03*
X32450000Y-29050000D03*
X38250000Y-23200000D03*
X38250000Y-22300000D03*
D51*
X49000000Y-30350000D03*
X49000000Y-29250000D03*
D52*
X52300000Y-6250000D03*
X51200000Y-6250000D03*
D44*
X42800000Y-23450000D03*
X42800000Y-22550000D03*
X41200000Y-23250000D03*
X41200000Y-22350000D03*
X31550000Y-25750000D03*
X32450000Y-25750000D03*
D49*
X49950000Y-23150000D03*
X49950000Y-21850000D03*
X49950000Y-22500000D03*
X48050000Y-21850000D03*
X48050000Y-23150000D03*
D53*
G36*
X70123000Y-13123000D02*
X67877000Y-13123000D01*
X67877000Y-4877000D01*
X70123000Y-4877000D01*
X70123000Y-13123000D01*
X70123000Y-13123000D01*
G37*
X70123000Y-13123000D02*
X67877000Y-13123000D01*
X67877000Y-4877000D01*
X70123000Y-4877000D01*
X70123000Y-13123000D01*
M02*
