G04 #@! TF.FileFunction,Copper,L3,Inr,Signal*
%FSLAX46Y46*%
G04 Gerber Fmt 4.6, Leading zero omitted, Abs format (unit mm)*
G04 Created by KiCad (PCBNEW (2016-06-03 BZR 6882, Git b4ad18a)-product) date Fri Jun  3 13:02:59 2016*
%MOMM*%
%LPD*%
G01*
G04 APERTURE LIST*
%ADD10C,0.100000*%
%ADD11C,0.300000*%
%ADD12R,4.000000X4.000000*%
%ADD13R,2.250000X2.250000*%
%ADD14R,1.524000X2.286000*%
%ADD15O,1.524000X2.286000*%
%ADD16O,1.550000X1.550000*%
%ADD17O,1.250000X1.250000*%
%ADD18C,1.400000*%
%ADD19C,2.000000*%
%ADD20O,2.000000X1.600000*%
%ADD21C,3.200000*%
%ADD22C,0.600000*%
%ADD23C,0.160000*%
G04 APERTURE END LIST*
D10*
D11*
X68178571Y-8500000D02*
X68178571Y-7571428D01*
X68750000Y-8071428D01*
X68750000Y-7857142D01*
X68821428Y-7714285D01*
X68892857Y-7642857D01*
X69035714Y-7571428D01*
X69392857Y-7571428D01*
X69535714Y-7642857D01*
X69607142Y-7714285D01*
X69678571Y-7857142D01*
X69678571Y-8285714D01*
X69607142Y-8428571D01*
X69535714Y-8500000D01*
D12*
X44000000Y-9000000D03*
X57250000Y-27250000D03*
D13*
X36000000Y-27000000D03*
D14*
X46040000Y-26206000D03*
D15*
X43500000Y-26206000D03*
X40960000Y-26206000D03*
X46040000Y-29254000D03*
X43500000Y-29254000D03*
X40960000Y-29254000D03*
D16*
X69500000Y-30000000D03*
X69500000Y-23000000D03*
D17*
X66800000Y-29000000D03*
X66800000Y-24000000D03*
D18*
X55380000Y-11750000D03*
X55380000Y-13750000D03*
X58000000Y-13750000D03*
X58000000Y-11750000D03*
D19*
X55380000Y-16250000D03*
X58000000Y-16250000D03*
X58000000Y-9250000D03*
D20*
X55380000Y-9250000D03*
D21*
X55030000Y-19320000D03*
X60710000Y-19320000D03*
X60710000Y-6180000D03*
X55030000Y-6180000D03*
D22*
X26500000Y-17000000D03*
X27750000Y-17000000D03*
X29047726Y-15339915D03*
X49000000Y-22000000D03*
X43250000Y-21000000D03*
X39800000Y-21400000D03*
X47622954Y-15877046D03*
X48500000Y-7250000D03*
X52250000Y-7250000D03*
X51250000Y-7250000D03*
X51750000Y-7250000D03*
X51250000Y-12250000D03*
X51750000Y-12250000D03*
X65000000Y-22500000D03*
X64750000Y-21250000D03*
X64000000Y-21250000D03*
X46537403Y-15712597D03*
X38434434Y-14500000D03*
X37000000Y-10750000D03*
X37000000Y-8250000D03*
X31860010Y-28300000D03*
X36600000Y-22200000D03*
X35800000Y-22200000D03*
X32000000Y-20800000D03*
X37800000Y-19400000D03*
X27200000Y-19400000D03*
X26600000Y-19400000D03*
X26000000Y-19400000D03*
X27364275Y-14929743D03*
X26421573Y-14967640D03*
X53050011Y-21800000D03*
X65200000Y-30200000D03*
X60800000Y-30200000D03*
X65124616Y-28071687D03*
X68200000Y-24400000D03*
X68000000Y-25200000D03*
X42500000Y-15687270D03*
X51000000Y-28500000D03*
X53000000Y-28250000D03*
X28370000Y-13330000D03*
X27300000Y-13325000D03*
X28340000Y-20820000D03*
X26900000Y-20825000D03*
X28538062Y-15936449D03*
X28280878Y-17543848D03*
X29015439Y-17348859D03*
X45000010Y-19400000D03*
X54400000Y-24000000D03*
X54250000Y-30250000D03*
X61250000Y-27250000D03*
X58722142Y-22980901D03*
X32600000Y-26800000D03*
X50300000Y-30300000D03*
X48250000Y-26250000D03*
X44750000Y-20000000D03*
X39476760Y-8511620D03*
X41000000Y-5250000D03*
X48250000Y-8750000D03*
X47000000Y-6000000D03*
X47000000Y-12750000D03*
X53250000Y-27250029D03*
X42500000Y-13000000D03*
X36800000Y-19200000D03*
X35600000Y-19200000D03*
X36200000Y-19200000D03*
X30200000Y-19400000D03*
X31400000Y-19400000D03*
X30800000Y-19400000D03*
X26600000Y-18540000D03*
X25968976Y-18523805D03*
X26994508Y-15593727D03*
X26000000Y-15600000D03*
X52750000Y-11250000D03*
X52750000Y-16250000D03*
X34284415Y-24365615D03*
X34250030Y-23800000D03*
X34402046Y-17997954D03*
X34402360Y-17402360D03*
X64400000Y-26000000D03*
X53250000Y-8500000D03*
X53250000Y-10250008D03*
X43500000Y-15250000D03*
X41537459Y-12987146D03*
X40316833Y-16471944D03*
X39750000Y-12750000D03*
X41165868Y-13650100D03*
X44000000Y-22600000D03*
X38400000Y-24400000D03*
X40089262Y-11446421D03*
X60250000Y-23289997D03*
X34600000Y-30000000D03*
X32800000Y-13200000D03*
X35400000Y-30000000D03*
X32530010Y-17800000D03*
X59968169Y-9331831D03*
X50000000Y-28840007D03*
X50000000Y-29600000D03*
X50500000Y-7100000D03*
X39400000Y-25000000D03*
X36200000Y-30000000D03*
X36200000Y-24000000D03*
X60250000Y-24250000D03*
X36960003Y-30000000D03*
X41000000Y-11750000D03*
X45500000Y-22600000D03*
X56822434Y-21963783D03*
X46000000Y-16250000D03*
D23*
X47250000Y-29000000D02*
X47750000Y-28500000D01*
X46040000Y-29000000D02*
X47250000Y-29000000D01*
X50300000Y-30300000D02*
X50800000Y-30300000D01*
D11*
G36*
X53208381Y-4960533D02*
X52880374Y-5750462D01*
X52879628Y-6605785D01*
X52930255Y-6728312D01*
X52732115Y-6529826D01*
X52419817Y-6400148D01*
X52081666Y-6399853D01*
X52000186Y-6433520D01*
X51919817Y-6400148D01*
X51581666Y-6399853D01*
X51500186Y-6433520D01*
X51419817Y-6400148D01*
X51081666Y-6399853D01*
X51025340Y-6423126D01*
X50982115Y-6379826D01*
X50669817Y-6250148D01*
X50331666Y-6249853D01*
X50019143Y-6378985D01*
X49779826Y-6617885D01*
X49650148Y-6930183D01*
X49649853Y-7268334D01*
X49778985Y-7580857D01*
X50017885Y-7820174D01*
X50330183Y-7949852D01*
X50668334Y-7950147D01*
X50724660Y-7926874D01*
X50767885Y-7970174D01*
X51080183Y-8099852D01*
X51418334Y-8100147D01*
X51499814Y-8066480D01*
X51580183Y-8099852D01*
X51918334Y-8100147D01*
X51999814Y-8066480D01*
X52080183Y-8099852D01*
X52418334Y-8100147D01*
X52511684Y-8061576D01*
X52400148Y-8330183D01*
X52399853Y-8668334D01*
X52528985Y-8980857D01*
X52767885Y-9220174D01*
X53080183Y-9349852D01*
X53418334Y-9350147D01*
X53730857Y-9221015D01*
X53823868Y-9128166D01*
X53799634Y-9250000D01*
X53885950Y-9683937D01*
X53732115Y-9529834D01*
X53419817Y-9400156D01*
X53081666Y-9399861D01*
X52769143Y-9528993D01*
X52529826Y-9767893D01*
X52400148Y-10080191D01*
X52399853Y-10418342D01*
X52419841Y-10466718D01*
X52269143Y-10528985D01*
X52029826Y-10767885D01*
X51900148Y-11080183D01*
X51899869Y-11400131D01*
X51581666Y-11399853D01*
X51500186Y-11433520D01*
X51419817Y-11400148D01*
X51081666Y-11399853D01*
X50769143Y-11528985D01*
X50529826Y-11767885D01*
X50400148Y-12080183D01*
X50399853Y-12418334D01*
X50528985Y-12730857D01*
X50767885Y-12970174D01*
X51080183Y-13099852D01*
X51418334Y-13100147D01*
X51499814Y-13066480D01*
X51580183Y-13099852D01*
X51918334Y-13100147D01*
X52230857Y-12971015D01*
X52470174Y-12732115D01*
X52599852Y-12419817D01*
X52600131Y-12099869D01*
X52918334Y-12100147D01*
X53230857Y-11971015D01*
X53470174Y-11732115D01*
X53599852Y-11419817D01*
X53600147Y-11081666D01*
X53580159Y-11033290D01*
X53730857Y-10971023D01*
X53970174Y-10732123D01*
X54099852Y-10419825D01*
X54100147Y-10081674D01*
X54079469Y-10031630D01*
X54195040Y-10204594D01*
X54633011Y-10497237D01*
X54974309Y-10565126D01*
X54672857Y-10689684D01*
X54320919Y-11041007D01*
X54130217Y-11500269D01*
X54129783Y-11997550D01*
X54319684Y-12457143D01*
X54612232Y-12750203D01*
X54320919Y-13041007D01*
X54130217Y-13500269D01*
X54129783Y-13997550D01*
X54319684Y-14457143D01*
X54671007Y-14809081D01*
X54739531Y-14837535D01*
X54503143Y-14935208D01*
X54066740Y-15370849D01*
X53830270Y-15940333D01*
X53829732Y-16556961D01*
X54065208Y-17126857D01*
X54252837Y-17314814D01*
X53813714Y-17496256D01*
X53208381Y-18100533D01*
X52880374Y-18890462D01*
X52879628Y-19745785D01*
X53206256Y-20536286D01*
X53810533Y-21141619D01*
X54600462Y-21469626D01*
X55455785Y-21470372D01*
X56246286Y-21143744D01*
X56851619Y-20539467D01*
X57179626Y-19749538D01*
X57179629Y-19745785D01*
X58559628Y-19745785D01*
X58886256Y-20536286D01*
X59490533Y-21141619D01*
X60280462Y-21469626D01*
X61135785Y-21470372D01*
X61261726Y-21418334D01*
X63149853Y-21418334D01*
X63278985Y-21730857D01*
X63517885Y-21970174D01*
X63830183Y-22099852D01*
X64168334Y-22100147D01*
X64261684Y-22061576D01*
X64150148Y-22330183D01*
X64149853Y-22668334D01*
X64278985Y-22980857D01*
X64517885Y-23220174D01*
X64830183Y-23349852D01*
X65168334Y-23350147D01*
X65480857Y-23221015D01*
X65720174Y-22982115D01*
X65849852Y-22669817D01*
X65850147Y-22331666D01*
X65721015Y-22019143D01*
X65482115Y-21779826D01*
X65439928Y-21762308D01*
X65470174Y-21732115D01*
X65599852Y-21419817D01*
X65600147Y-21081666D01*
X65471015Y-20769143D01*
X65232115Y-20529826D01*
X64919817Y-20400148D01*
X64581666Y-20399853D01*
X64374877Y-20485297D01*
X64169817Y-20400148D01*
X63831666Y-20399853D01*
X63519143Y-20528985D01*
X63279826Y-20767885D01*
X63150148Y-21080183D01*
X63149853Y-21418334D01*
X61261726Y-21418334D01*
X61926286Y-21143744D01*
X62531619Y-20539467D01*
X62859626Y-19749538D01*
X62860372Y-18894215D01*
X62533744Y-18103714D01*
X61929467Y-17498381D01*
X61139538Y-17170374D01*
X60284215Y-17169628D01*
X59493714Y-17496256D01*
X58888381Y-18100533D01*
X58560374Y-18890462D01*
X58559628Y-19745785D01*
X57179629Y-19745785D01*
X57180372Y-18894215D01*
X56853744Y-18103714D01*
X56286361Y-17535339D01*
X56690374Y-17132032D01*
X57120849Y-17563260D01*
X57690333Y-17799730D01*
X58306961Y-17800268D01*
X58876857Y-17564792D01*
X59313260Y-17129151D01*
X59549730Y-16559667D01*
X59550268Y-15943039D01*
X59314792Y-15373143D01*
X58879151Y-14936740D01*
X58640752Y-14837748D01*
X58707143Y-14810316D01*
X59059081Y-14458993D01*
X59249783Y-13999731D01*
X59250217Y-13502450D01*
X59060316Y-13042857D01*
X58767768Y-12749797D01*
X59059081Y-12458993D01*
X59249783Y-11999731D01*
X59250217Y-11502450D01*
X59060316Y-11042857D01*
X58708993Y-10690919D01*
X58640469Y-10662465D01*
X58876857Y-10564792D01*
X59313260Y-10129151D01*
X59386644Y-9952422D01*
X59486054Y-10052005D01*
X59798352Y-10181683D01*
X60136503Y-10181978D01*
X60449026Y-10052846D01*
X60688343Y-9813946D01*
X60818021Y-9501648D01*
X60818316Y-9163497D01*
X60689184Y-8850974D01*
X60450284Y-8611657D01*
X60137986Y-8481979D01*
X59799835Y-8481684D01*
X59487312Y-8610816D01*
X59434698Y-8663338D01*
X59314792Y-8373143D01*
X58879151Y-7936740D01*
X58309667Y-7700270D01*
X57693039Y-7699732D01*
X57123143Y-7935208D01*
X56686740Y-8370849D01*
X56659386Y-8436725D01*
X56564960Y-8295406D01*
X56173480Y-8033827D01*
X56246286Y-8003744D01*
X56851619Y-7399467D01*
X57179626Y-6609538D01*
X57180372Y-5754215D01*
X56853744Y-4963714D01*
X56540577Y-4650000D01*
X59199456Y-4650000D01*
X58888381Y-4960533D01*
X58560374Y-5750462D01*
X58559628Y-6605785D01*
X58886256Y-7396286D01*
X59490533Y-8001619D01*
X60280462Y-8329626D01*
X61135785Y-8330372D01*
X61926286Y-8003744D01*
X62531619Y-7399467D01*
X62859626Y-6609538D01*
X62860372Y-5754215D01*
X62533744Y-4963714D01*
X62220577Y-4650000D01*
X67350000Y-4650000D01*
X67350000Y-6585714D01*
X67295000Y-6585714D01*
X67295000Y-9414285D01*
X67350000Y-9414285D01*
X67350000Y-13500000D01*
X67361418Y-13557403D01*
X67393934Y-13606066D01*
X67442597Y-13638582D01*
X67500000Y-13650000D01*
X70350000Y-13650000D01*
X70350000Y-21979050D01*
X70007056Y-21749902D01*
X69500000Y-21649042D01*
X68992944Y-21749902D01*
X68563084Y-22037126D01*
X68275860Y-22466986D01*
X68175000Y-22974042D01*
X68175000Y-23025958D01*
X68275860Y-23533014D01*
X68287260Y-23550076D01*
X68031666Y-23549853D01*
X67900795Y-23603928D01*
X67885558Y-23527327D01*
X67630850Y-23146130D01*
X67249653Y-22891422D01*
X66800000Y-22801980D01*
X66350347Y-22891422D01*
X65969150Y-23146130D01*
X65714442Y-23527327D01*
X65625000Y-23976980D01*
X65625000Y-24023020D01*
X65714442Y-24472673D01*
X65969150Y-24853870D01*
X66350347Y-25108578D01*
X66800000Y-25198020D01*
X67150062Y-25128388D01*
X67149853Y-25368334D01*
X67278985Y-25680857D01*
X67517885Y-25920174D01*
X67830183Y-26049852D01*
X68168334Y-26050147D01*
X68480857Y-25921015D01*
X68720174Y-25682115D01*
X68849852Y-25369817D01*
X68850147Y-25031666D01*
X68826848Y-24975278D01*
X68920174Y-24882115D01*
X69049852Y-24569817D01*
X69050121Y-24261471D01*
X69500000Y-24350958D01*
X70007056Y-24250098D01*
X70350000Y-24020950D01*
X70350000Y-28979050D01*
X70007056Y-28749902D01*
X69500000Y-28649042D01*
X68992944Y-28749902D01*
X68563084Y-29037126D01*
X68275860Y-29466986D01*
X68175000Y-29974042D01*
X68175000Y-30025958D01*
X68275860Y-30533014D01*
X68563084Y-30962874D01*
X68992944Y-31250098D01*
X69495184Y-31350000D01*
X30935872Y-31350000D01*
X30861180Y-31335143D01*
X30743492Y-31256506D01*
X30664858Y-31138821D01*
X30650000Y-31064125D01*
X30650000Y-30168334D01*
X33749853Y-30168334D01*
X33878985Y-30480857D01*
X34117885Y-30720174D01*
X34430183Y-30849852D01*
X34768334Y-30850147D01*
X35000185Y-30754348D01*
X35230183Y-30849852D01*
X35568334Y-30850147D01*
X35800185Y-30754348D01*
X36030183Y-30849852D01*
X36368334Y-30850147D01*
X36580137Y-30762632D01*
X36790186Y-30849852D01*
X37128337Y-30850147D01*
X37440860Y-30721015D01*
X37680177Y-30482115D01*
X37809855Y-30169817D01*
X37810150Y-29831666D01*
X37681018Y-29519143D01*
X37442118Y-29279826D01*
X37129820Y-29150148D01*
X36791669Y-29149853D01*
X36579866Y-29237368D01*
X36369817Y-29150148D01*
X36031666Y-29149853D01*
X35799815Y-29245652D01*
X35569817Y-29150148D01*
X35231666Y-29149853D01*
X34999815Y-29245652D01*
X34769817Y-29150148D01*
X34431666Y-29149853D01*
X34119143Y-29278985D01*
X33879826Y-29517885D01*
X33750148Y-29830183D01*
X33749853Y-30168334D01*
X30650000Y-30168334D01*
X30650000Y-28468334D01*
X31009863Y-28468334D01*
X31138995Y-28780857D01*
X31377895Y-29020174D01*
X31690193Y-29149852D01*
X32028344Y-29150147D01*
X32340867Y-29021015D01*
X32580184Y-28782115D01*
X32709862Y-28469817D01*
X32710157Y-28131666D01*
X32581025Y-27819143D01*
X32342125Y-27579826D01*
X32029827Y-27450148D01*
X31691676Y-27449853D01*
X31379153Y-27578985D01*
X31139836Y-27817885D01*
X31010158Y-28130183D01*
X31009863Y-28468334D01*
X30650000Y-28468334D01*
X30650000Y-25875000D01*
X34314225Y-25875000D01*
X34314225Y-28125000D01*
X34356911Y-28339599D01*
X34478472Y-28521528D01*
X34660401Y-28643089D01*
X34875000Y-28685775D01*
X37125000Y-28685775D01*
X37339599Y-28643089D01*
X37521528Y-28521528D01*
X37643089Y-28339599D01*
X37685775Y-28125000D01*
X37685775Y-25875000D01*
X37643089Y-25660401D01*
X37521528Y-25478472D01*
X37339599Y-25356911D01*
X37125000Y-25314225D01*
X34875000Y-25314225D01*
X34660401Y-25356911D01*
X34478472Y-25478472D01*
X34356911Y-25660401D01*
X34314225Y-25875000D01*
X30650000Y-25875000D01*
X30650000Y-23968334D01*
X33399883Y-23968334D01*
X33464289Y-24124209D01*
X33434563Y-24195798D01*
X33434268Y-24533949D01*
X33563400Y-24846472D01*
X33802300Y-25085789D01*
X34114598Y-25215467D01*
X34452749Y-25215762D01*
X34765272Y-25086630D01*
X35004589Y-24847730D01*
X35134267Y-24535432D01*
X35134562Y-24197281D01*
X35122602Y-24168334D01*
X35349853Y-24168334D01*
X35478985Y-24480857D01*
X35717885Y-24720174D01*
X36030183Y-24849852D01*
X36368334Y-24850147D01*
X36680857Y-24721015D01*
X36833804Y-24568334D01*
X37549853Y-24568334D01*
X37678985Y-24880857D01*
X37917885Y-25120174D01*
X38230183Y-25249852D01*
X38568334Y-25250147D01*
X38581423Y-25244739D01*
X38678985Y-25480857D01*
X38917885Y-25720174D01*
X39230183Y-25849852D01*
X39568334Y-25850147D01*
X39648000Y-25817230D01*
X39648000Y-26620168D01*
X39747870Y-27122249D01*
X40032276Y-27547892D01*
X40304819Y-27730000D01*
X40032276Y-27912108D01*
X39747870Y-28337751D01*
X39648000Y-28839832D01*
X39648000Y-29668168D01*
X39747870Y-30170249D01*
X40032276Y-30595892D01*
X40457919Y-30880298D01*
X40960000Y-30980168D01*
X41462081Y-30880298D01*
X41887724Y-30595892D01*
X42172130Y-30170249D01*
X42230000Y-29879317D01*
X42287870Y-30170249D01*
X42572276Y-30595892D01*
X42997919Y-30880298D01*
X43500000Y-30980168D01*
X44002081Y-30880298D01*
X44427724Y-30595892D01*
X44712130Y-30170249D01*
X44723422Y-30113480D01*
X44767890Y-30274494D01*
X45109447Y-30712631D01*
X45592673Y-30986708D01*
X45715740Y-31017481D01*
X45936000Y-30886185D01*
X45936000Y-29358000D01*
X46144000Y-29358000D01*
X46144000Y-30886185D01*
X46364260Y-31017481D01*
X46487327Y-30986708D01*
X46970553Y-30712631D01*
X47312110Y-30274494D01*
X47460000Y-29739000D01*
X47460000Y-29358000D01*
X46144000Y-29358000D01*
X45936000Y-29358000D01*
X45916000Y-29358000D01*
X45916000Y-29150000D01*
X45936000Y-29150000D01*
X45936000Y-29130000D01*
X46144000Y-29130000D01*
X46144000Y-29150000D01*
X47460000Y-29150000D01*
X47460000Y-29008341D01*
X49149853Y-29008341D01*
X49237366Y-29220139D01*
X49150148Y-29430183D01*
X49149853Y-29768334D01*
X49278985Y-30080857D01*
X49517885Y-30320174D01*
X49830183Y-30449852D01*
X50168334Y-30450147D01*
X50366336Y-30368334D01*
X59949853Y-30368334D01*
X60078985Y-30680857D01*
X60317885Y-30920174D01*
X60630183Y-31049852D01*
X60968334Y-31050147D01*
X61280857Y-30921015D01*
X61520174Y-30682115D01*
X61649852Y-30369817D01*
X61650147Y-30031666D01*
X61521015Y-29719143D01*
X61282115Y-29479826D01*
X60969817Y-29350148D01*
X60631666Y-29349853D01*
X60319143Y-29478985D01*
X60079826Y-29717885D01*
X59950148Y-30030183D01*
X59949853Y-30368334D01*
X50366336Y-30368334D01*
X50480857Y-30321015D01*
X50720174Y-30082115D01*
X50849852Y-29769817D01*
X50850147Y-29431666D01*
X50813476Y-29342914D01*
X50830183Y-29349852D01*
X51168334Y-29350147D01*
X51480857Y-29221015D01*
X51720174Y-28982115D01*
X51849852Y-28669817D01*
X51850071Y-28418334D01*
X52149853Y-28418334D01*
X52278985Y-28730857D01*
X52517885Y-28970174D01*
X52830183Y-29099852D01*
X53168334Y-29100147D01*
X53480857Y-28971015D01*
X53720174Y-28732115D01*
X53849852Y-28419817D01*
X53850147Y-28081666D01*
X53721015Y-27769143D01*
X53482115Y-27529826D01*
X53169817Y-27400148D01*
X52831666Y-27399853D01*
X52519143Y-27528985D01*
X52279826Y-27767885D01*
X52150148Y-28080183D01*
X52149853Y-28418334D01*
X51850071Y-28418334D01*
X51850147Y-28331666D01*
X51721015Y-28019143D01*
X51482115Y-27779826D01*
X51169817Y-27650148D01*
X50831666Y-27649853D01*
X50519143Y-27778985D01*
X50279826Y-28017885D01*
X50273469Y-28033195D01*
X50169817Y-27990155D01*
X49831666Y-27989860D01*
X49519143Y-28118992D01*
X49279826Y-28357892D01*
X49150148Y-28670190D01*
X49149853Y-29008341D01*
X47460000Y-29008341D01*
X47460000Y-28769000D01*
X47312110Y-28233506D01*
X47023085Y-27862755D01*
X47198528Y-27745528D01*
X47320089Y-27563599D01*
X47362775Y-27349000D01*
X47362775Y-25250000D01*
X54689225Y-25250000D01*
X54689225Y-29250000D01*
X54731911Y-29464599D01*
X54853472Y-29646528D01*
X55035401Y-29768089D01*
X55250000Y-29810775D01*
X59250000Y-29810775D01*
X59464599Y-29768089D01*
X59646528Y-29646528D01*
X59768089Y-29464599D01*
X59810775Y-29250000D01*
X59810775Y-28240021D01*
X64274469Y-28240021D01*
X64403601Y-28552544D01*
X64642501Y-28791861D01*
X64954799Y-28921539D01*
X65292950Y-28921834D01*
X65605473Y-28792702D01*
X65675575Y-28722722D01*
X65625000Y-28976980D01*
X65625000Y-29023020D01*
X65714442Y-29472673D01*
X65794336Y-29592243D01*
X65682115Y-29479826D01*
X65369817Y-29350148D01*
X65031666Y-29349853D01*
X64719143Y-29478985D01*
X64479826Y-29717885D01*
X64350148Y-30030183D01*
X64349853Y-30368334D01*
X64478985Y-30680857D01*
X64717885Y-30920174D01*
X65030183Y-31049852D01*
X65368334Y-31050147D01*
X65680857Y-30921015D01*
X65920174Y-30682115D01*
X66049852Y-30369817D01*
X66050147Y-30031666D01*
X65979556Y-29860823D01*
X66350347Y-30108578D01*
X66800000Y-30198020D01*
X67249653Y-30108578D01*
X67630850Y-29853870D01*
X67885558Y-29472673D01*
X67975000Y-29023020D01*
X67975000Y-28976980D01*
X67885558Y-28527327D01*
X67630850Y-28146130D01*
X67249653Y-27891422D01*
X66800000Y-27801980D01*
X66350347Y-27891422D01*
X65974554Y-28142519D01*
X65974763Y-27903353D01*
X65845631Y-27590830D01*
X65606731Y-27351513D01*
X65294433Y-27221835D01*
X64956282Y-27221540D01*
X64643759Y-27350672D01*
X64404442Y-27589572D01*
X64274764Y-27901870D01*
X64274469Y-28240021D01*
X59810775Y-28240021D01*
X59810775Y-26168334D01*
X63549853Y-26168334D01*
X63678985Y-26480857D01*
X63917885Y-26720174D01*
X64230183Y-26849852D01*
X64568334Y-26850147D01*
X64880857Y-26721015D01*
X65120174Y-26482115D01*
X65249852Y-26169817D01*
X65250147Y-25831666D01*
X65121015Y-25519143D01*
X64882115Y-25279826D01*
X64569817Y-25150148D01*
X64231666Y-25149853D01*
X63919143Y-25278985D01*
X63679826Y-25517885D01*
X63550148Y-25830183D01*
X63549853Y-26168334D01*
X59810775Y-26168334D01*
X59810775Y-25250000D01*
X59768089Y-25035401D01*
X59646528Y-24853472D01*
X59464599Y-24731911D01*
X59250000Y-24689225D01*
X55250000Y-24689225D01*
X55035401Y-24731911D01*
X54853472Y-24853472D01*
X54731911Y-25035401D01*
X54689225Y-25250000D01*
X47362775Y-25250000D01*
X47362775Y-25063000D01*
X47320089Y-24848401D01*
X47198528Y-24666472D01*
X47016599Y-24544911D01*
X46802000Y-24502225D01*
X45278000Y-24502225D01*
X45063401Y-24544911D01*
X44881472Y-24666472D01*
X44759911Y-24848401D01*
X44717225Y-25063000D01*
X44717225Y-25315365D01*
X44712130Y-25289751D01*
X44427724Y-24864108D01*
X44002081Y-24579702D01*
X43500000Y-24479832D01*
X42997919Y-24579702D01*
X42572276Y-24864108D01*
X42287870Y-25289751D01*
X42230000Y-25580683D01*
X42172130Y-25289751D01*
X41887724Y-24864108D01*
X41462081Y-24579702D01*
X40960000Y-24479832D01*
X40457919Y-24579702D01*
X40213514Y-24743008D01*
X40121015Y-24519143D01*
X39882115Y-24279826D01*
X39569817Y-24150148D01*
X39231666Y-24149853D01*
X39218577Y-24155261D01*
X39121015Y-23919143D01*
X38882115Y-23679826D01*
X38569817Y-23550148D01*
X38231666Y-23549853D01*
X37919143Y-23678985D01*
X37679826Y-23917885D01*
X37550148Y-24230183D01*
X37549853Y-24568334D01*
X36833804Y-24568334D01*
X36920174Y-24482115D01*
X37049852Y-24169817D01*
X37050147Y-23831666D01*
X36921015Y-23519143D01*
X36860309Y-23458331D01*
X59399853Y-23458331D01*
X59528790Y-23770381D01*
X59400148Y-24080183D01*
X59399853Y-24418334D01*
X59528985Y-24730857D01*
X59767885Y-24970174D01*
X60080183Y-25099852D01*
X60418334Y-25100147D01*
X60730857Y-24971015D01*
X60970174Y-24732115D01*
X61099852Y-24419817D01*
X61100147Y-24081666D01*
X60971210Y-23769616D01*
X61099852Y-23459814D01*
X61100147Y-23121663D01*
X60971015Y-22809140D01*
X60732115Y-22569823D01*
X60419817Y-22440145D01*
X60081666Y-22439850D01*
X59769143Y-22568982D01*
X59529826Y-22807882D01*
X59400148Y-23120180D01*
X59399853Y-23458331D01*
X36860309Y-23458331D01*
X36682115Y-23279826D01*
X36369817Y-23150148D01*
X36031666Y-23149853D01*
X35719143Y-23278985D01*
X35479826Y-23517885D01*
X35350148Y-23830183D01*
X35349853Y-24168334D01*
X35122602Y-24168334D01*
X35070156Y-24041406D01*
X35099882Y-23969817D01*
X35100177Y-23631666D01*
X34971045Y-23319143D01*
X34732145Y-23079826D01*
X34419847Y-22950148D01*
X34081696Y-22949853D01*
X33769173Y-23078985D01*
X33529856Y-23317885D01*
X33400178Y-23630183D01*
X33399883Y-23968334D01*
X30650000Y-23968334D01*
X30650000Y-22368334D01*
X34949853Y-22368334D01*
X35078985Y-22680857D01*
X35317885Y-22920174D01*
X35630183Y-23049852D01*
X35968334Y-23050147D01*
X36200185Y-22954348D01*
X36430183Y-23049852D01*
X36768334Y-23050147D01*
X37080857Y-22921015D01*
X37233804Y-22768334D01*
X43149853Y-22768334D01*
X43278985Y-23080857D01*
X43517885Y-23320174D01*
X43830183Y-23449852D01*
X44168334Y-23450147D01*
X44480857Y-23321015D01*
X44720174Y-23082115D01*
X44749913Y-23010497D01*
X44778985Y-23080857D01*
X45017885Y-23320174D01*
X45330183Y-23449852D01*
X45668334Y-23450147D01*
X45980857Y-23321015D01*
X46220174Y-23082115D01*
X46349852Y-22769817D01*
X46350147Y-22431666D01*
X46241341Y-22168334D01*
X48149853Y-22168334D01*
X48278985Y-22480857D01*
X48517885Y-22720174D01*
X48830183Y-22849852D01*
X49168334Y-22850147D01*
X49480857Y-22721015D01*
X49720174Y-22482115D01*
X49849852Y-22169817D01*
X49850027Y-21968334D01*
X52199864Y-21968334D01*
X52328996Y-22280857D01*
X52567896Y-22520174D01*
X52880194Y-22649852D01*
X53218345Y-22650147D01*
X53530868Y-22521015D01*
X53770185Y-22282115D01*
X53832469Y-22132117D01*
X55972287Y-22132117D01*
X56101419Y-22444640D01*
X56340319Y-22683957D01*
X56652617Y-22813635D01*
X56990768Y-22813930D01*
X57303291Y-22684798D01*
X57542608Y-22445898D01*
X57672286Y-22133600D01*
X57672581Y-21795449D01*
X57543449Y-21482926D01*
X57304549Y-21243609D01*
X56992251Y-21113931D01*
X56654100Y-21113636D01*
X56341577Y-21242768D01*
X56102260Y-21481668D01*
X55972582Y-21793966D01*
X55972287Y-22132117D01*
X53832469Y-22132117D01*
X53899863Y-21969817D01*
X53900158Y-21631666D01*
X53771026Y-21319143D01*
X53532126Y-21079826D01*
X53219828Y-20950148D01*
X52881677Y-20949853D01*
X52569154Y-21078985D01*
X52329837Y-21317885D01*
X52200159Y-21630183D01*
X52199864Y-21968334D01*
X49850027Y-21968334D01*
X49850147Y-21831666D01*
X49721015Y-21519143D01*
X49482115Y-21279826D01*
X49169817Y-21150148D01*
X48831666Y-21149853D01*
X48519143Y-21278985D01*
X48279826Y-21517885D01*
X48150148Y-21830183D01*
X48149853Y-22168334D01*
X46241341Y-22168334D01*
X46221015Y-22119143D01*
X45982115Y-21879826D01*
X45669817Y-21750148D01*
X45331666Y-21749853D01*
X45019143Y-21878985D01*
X44779826Y-22117885D01*
X44750087Y-22189503D01*
X44721015Y-22119143D01*
X44482115Y-21879826D01*
X44169817Y-21750148D01*
X43831666Y-21749853D01*
X43519143Y-21878985D01*
X43279826Y-22117885D01*
X43150148Y-22430183D01*
X43149853Y-22768334D01*
X37233804Y-22768334D01*
X37320174Y-22682115D01*
X37449852Y-22369817D01*
X37450147Y-22031666D01*
X37321015Y-21719143D01*
X37170469Y-21568334D01*
X38949853Y-21568334D01*
X39078985Y-21880857D01*
X39317885Y-22120174D01*
X39630183Y-22249852D01*
X39968334Y-22250147D01*
X40280857Y-22121015D01*
X40520174Y-21882115D01*
X40649852Y-21569817D01*
X40650147Y-21231666D01*
X40623979Y-21168334D01*
X42399853Y-21168334D01*
X42528985Y-21480857D01*
X42767885Y-21720174D01*
X43080183Y-21849852D01*
X43418334Y-21850147D01*
X43730857Y-21721015D01*
X43970174Y-21482115D01*
X44099852Y-21169817D01*
X44100147Y-20831666D01*
X43971015Y-20519143D01*
X43732115Y-20279826D01*
X43419817Y-20150148D01*
X43081666Y-20149853D01*
X42769143Y-20278985D01*
X42529826Y-20517885D01*
X42400148Y-20830183D01*
X42399853Y-21168334D01*
X40623979Y-21168334D01*
X40521015Y-20919143D01*
X40282115Y-20679826D01*
X39969817Y-20550148D01*
X39631666Y-20549853D01*
X39319143Y-20678985D01*
X39079826Y-20917885D01*
X38950148Y-21230183D01*
X38949853Y-21568334D01*
X37170469Y-21568334D01*
X37082115Y-21479826D01*
X36769817Y-21350148D01*
X36431666Y-21349853D01*
X36199815Y-21445652D01*
X35969817Y-21350148D01*
X35631666Y-21349853D01*
X35319143Y-21478985D01*
X35079826Y-21717885D01*
X34950148Y-22030183D01*
X34949853Y-22368334D01*
X30650000Y-22368334D01*
X30650000Y-21000000D01*
X30638582Y-20942597D01*
X30606066Y-20893934D01*
X30557403Y-20861418D01*
X30500000Y-20850000D01*
X29189974Y-20850000D01*
X29190147Y-20651666D01*
X29061015Y-20339143D01*
X28822115Y-20099826D01*
X28509817Y-19970148D01*
X28171666Y-19969853D01*
X27859143Y-20098985D01*
X27619826Y-20337885D01*
X27618340Y-20341463D01*
X27480796Y-20203679D01*
X27680857Y-20121015D01*
X27920174Y-19882115D01*
X28049852Y-19569817D01*
X28049853Y-19568334D01*
X29349853Y-19568334D01*
X29478985Y-19880857D01*
X29717885Y-20120174D01*
X30030183Y-20249852D01*
X30368334Y-20250147D01*
X30499938Y-20195769D01*
X30630183Y-20249852D01*
X30968334Y-20250147D01*
X31099938Y-20195769D01*
X31230183Y-20249852D01*
X31347875Y-20249955D01*
X31279826Y-20317885D01*
X31150148Y-20630183D01*
X31149853Y-20968334D01*
X31278985Y-21280857D01*
X31517885Y-21520174D01*
X31830183Y-21649852D01*
X32168334Y-21650147D01*
X32480857Y-21521015D01*
X32720174Y-21282115D01*
X32849852Y-20969817D01*
X32850147Y-20631666D01*
X32721015Y-20319143D01*
X32482115Y-20079826D01*
X32169817Y-19950148D01*
X32052125Y-19950045D01*
X32120174Y-19882115D01*
X32249852Y-19569817D01*
X32250147Y-19231666D01*
X32121015Y-18919143D01*
X31882115Y-18679826D01*
X31569817Y-18550148D01*
X31231666Y-18549853D01*
X31100062Y-18604231D01*
X30969817Y-18550148D01*
X30631666Y-18549853D01*
X30500062Y-18604231D01*
X30369817Y-18550148D01*
X30031666Y-18549853D01*
X29719143Y-18678985D01*
X29479826Y-18917885D01*
X29350148Y-19230183D01*
X29349853Y-19568334D01*
X28049853Y-19568334D01*
X28050147Y-19231666D01*
X27921015Y-18919143D01*
X27682115Y-18679826D01*
X27449962Y-18583427D01*
X27450147Y-18371666D01*
X27321015Y-18059143D01*
X27082115Y-17819826D01*
X26912336Y-17749327D01*
X26980857Y-17721015D01*
X27125042Y-17577081D01*
X27267885Y-17720174D01*
X27468444Y-17803454D01*
X27559863Y-18024705D01*
X27798763Y-18264022D01*
X28111061Y-18393700D01*
X28449212Y-18393995D01*
X28761735Y-18264863D01*
X28833179Y-18193544D01*
X28845622Y-18198711D01*
X29183773Y-18199006D01*
X29496296Y-18069874D01*
X29598013Y-17968334D01*
X31679863Y-17968334D01*
X31808995Y-18280857D01*
X32047895Y-18520174D01*
X32360193Y-18649852D01*
X32698344Y-18650147D01*
X33010867Y-18521015D01*
X33250184Y-18282115D01*
X33298279Y-18166288D01*
X33551899Y-18166288D01*
X33681031Y-18478811D01*
X33919931Y-18718128D01*
X34232229Y-18847806D01*
X34570380Y-18848101D01*
X34878645Y-18720728D01*
X34750148Y-19030183D01*
X34749853Y-19368334D01*
X34878985Y-19680857D01*
X35117885Y-19920174D01*
X35430183Y-20049852D01*
X35768334Y-20050147D01*
X35899938Y-19995769D01*
X36030183Y-20049852D01*
X36368334Y-20050147D01*
X36499938Y-19995769D01*
X36630183Y-20049852D01*
X36968334Y-20050147D01*
X37166317Y-19968342D01*
X37317885Y-20120174D01*
X37630183Y-20249852D01*
X37968334Y-20250147D01*
X38280857Y-20121015D01*
X38520174Y-19882115D01*
X38649852Y-19569817D01*
X38650147Y-19231666D01*
X38521015Y-18919143D01*
X38282115Y-18679826D01*
X37969817Y-18550148D01*
X37631666Y-18549853D01*
X37433683Y-18631658D01*
X37282115Y-18479826D01*
X36969817Y-18350148D01*
X36631666Y-18349853D01*
X36500062Y-18404231D01*
X36369817Y-18350148D01*
X36031666Y-18349853D01*
X35900062Y-18404231D01*
X35769817Y-18350148D01*
X35431666Y-18349853D01*
X35123401Y-18477226D01*
X35251898Y-18167771D01*
X35252193Y-17829620D01*
X35198884Y-17700604D01*
X35252212Y-17572177D01*
X35252507Y-17234026D01*
X35123375Y-16921503D01*
X34884475Y-16682186D01*
X34783550Y-16640278D01*
X39466686Y-16640278D01*
X39595818Y-16952801D01*
X39834718Y-17192118D01*
X40147016Y-17321796D01*
X40485167Y-17322091D01*
X40797690Y-17192959D01*
X41037007Y-16954059D01*
X41166685Y-16641761D01*
X41166980Y-16303610D01*
X41037848Y-15991087D01*
X40902602Y-15855604D01*
X41649853Y-15855604D01*
X41778985Y-16168127D01*
X42017885Y-16407444D01*
X42330183Y-16537122D01*
X42668334Y-16537417D01*
X42956536Y-16418334D01*
X45149853Y-16418334D01*
X45278985Y-16730857D01*
X45517885Y-16970174D01*
X45830183Y-17099852D01*
X46168334Y-17100147D01*
X46480857Y-16971015D01*
X46720174Y-16732115D01*
X46808059Y-16520465D01*
X46989414Y-16445531D01*
X47140839Y-16597220D01*
X47453137Y-16726898D01*
X47791288Y-16727193D01*
X48103811Y-16598061D01*
X48283851Y-16418334D01*
X51899853Y-16418334D01*
X52028985Y-16730857D01*
X52267885Y-16970174D01*
X52580183Y-17099852D01*
X52918334Y-17100147D01*
X53230857Y-16971015D01*
X53470174Y-16732115D01*
X53599852Y-16419817D01*
X53600147Y-16081666D01*
X53471015Y-15769143D01*
X53232115Y-15529826D01*
X52919817Y-15400148D01*
X52581666Y-15399853D01*
X52269143Y-15528985D01*
X52029826Y-15767885D01*
X51900148Y-16080183D01*
X51899853Y-16418334D01*
X48283851Y-16418334D01*
X48343128Y-16359161D01*
X48472806Y-16046863D01*
X48473101Y-15708712D01*
X48343969Y-15396189D01*
X48105069Y-15156872D01*
X47792771Y-15027194D01*
X47454620Y-15026899D01*
X47170943Y-15144112D01*
X47019518Y-14992423D01*
X46707220Y-14862745D01*
X46369069Y-14862450D01*
X46056546Y-14991582D01*
X45817229Y-15230482D01*
X45729344Y-15442132D01*
X45519143Y-15528985D01*
X45279826Y-15767885D01*
X45150148Y-16080183D01*
X45149853Y-16418334D01*
X42956536Y-16418334D01*
X42980857Y-16408285D01*
X43220174Y-16169385D01*
X43260979Y-16071116D01*
X43330183Y-16099852D01*
X43668334Y-16100147D01*
X43980857Y-15971015D01*
X44220174Y-15732115D01*
X44349852Y-15419817D01*
X44350147Y-15081666D01*
X44221015Y-14769143D01*
X43982115Y-14529826D01*
X43669817Y-14400148D01*
X43331666Y-14399853D01*
X43019143Y-14528985D01*
X42779826Y-14767885D01*
X42739021Y-14866154D01*
X42669817Y-14837418D01*
X42331666Y-14837123D01*
X42019143Y-14966255D01*
X41779826Y-15205155D01*
X41650148Y-15517453D01*
X41649853Y-15855604D01*
X40902602Y-15855604D01*
X40798948Y-15751770D01*
X40486650Y-15622092D01*
X40148499Y-15621797D01*
X39835976Y-15750929D01*
X39596659Y-15989829D01*
X39466981Y-16302127D01*
X39466686Y-16640278D01*
X34783550Y-16640278D01*
X34572177Y-16552508D01*
X34234026Y-16552213D01*
X33921503Y-16681345D01*
X33682186Y-16920245D01*
X33552508Y-17232543D01*
X33552213Y-17570694D01*
X33605522Y-17699710D01*
X33552194Y-17828137D01*
X33551899Y-18166288D01*
X33298279Y-18166288D01*
X33379862Y-17969817D01*
X33380157Y-17631666D01*
X33251025Y-17319143D01*
X33012125Y-17079826D01*
X32699827Y-16950148D01*
X32361676Y-16949853D01*
X32049153Y-17078985D01*
X31809836Y-17317885D01*
X31680158Y-17630183D01*
X31679863Y-17968334D01*
X29598013Y-17968334D01*
X29735613Y-17830974D01*
X29865291Y-17518676D01*
X29865586Y-17180525D01*
X29736454Y-16868002D01*
X29497554Y-16628685D01*
X29185256Y-16499007D01*
X29177659Y-16499000D01*
X29258236Y-16418564D01*
X29381505Y-16121702D01*
X29528583Y-16060930D01*
X29767900Y-15822030D01*
X29897578Y-15509732D01*
X29897873Y-15171581D01*
X29768741Y-14859058D01*
X29578350Y-14668334D01*
X37584287Y-14668334D01*
X37713419Y-14980857D01*
X37952319Y-15220174D01*
X38264617Y-15349852D01*
X38602768Y-15350147D01*
X38915291Y-15221015D01*
X39154608Y-14982115D01*
X39284286Y-14669817D01*
X39284581Y-14331666D01*
X39155449Y-14019143D01*
X38916549Y-13779826D01*
X38604251Y-13650148D01*
X38266100Y-13649853D01*
X37953577Y-13778985D01*
X37714260Y-14017885D01*
X37584582Y-14330183D01*
X37584287Y-14668334D01*
X29578350Y-14668334D01*
X29529841Y-14619741D01*
X29217543Y-14490063D01*
X28879392Y-14489768D01*
X28566869Y-14618900D01*
X28327552Y-14857800D01*
X28204283Y-15154662D01*
X28188546Y-15161165D01*
X28214127Y-15099560D01*
X28214422Y-14761409D01*
X28085290Y-14448886D01*
X27846390Y-14209569D01*
X27616278Y-14114018D01*
X27780857Y-14046015D01*
X27832385Y-13994577D01*
X27887885Y-14050174D01*
X28200183Y-14179852D01*
X28538334Y-14180147D01*
X28850857Y-14051015D01*
X29090174Y-13812115D01*
X29219852Y-13499817D01*
X29219966Y-13368334D01*
X31949853Y-13368334D01*
X32078985Y-13680857D01*
X32317885Y-13920174D01*
X32630183Y-14049852D01*
X32968334Y-14050147D01*
X33280857Y-13921015D01*
X33520174Y-13682115D01*
X33649852Y-13369817D01*
X33650147Y-13031666D01*
X33603320Y-12918334D01*
X38899853Y-12918334D01*
X39028985Y-13230857D01*
X39267885Y-13470174D01*
X39580183Y-13599852D01*
X39918334Y-13600147D01*
X40230857Y-13471015D01*
X40382880Y-13319257D01*
X40316016Y-13480283D01*
X40315721Y-13818434D01*
X40444853Y-14130957D01*
X40683753Y-14370274D01*
X40996051Y-14499952D01*
X41334202Y-14500247D01*
X41646725Y-14371115D01*
X41886042Y-14132215D01*
X42015720Y-13819917D01*
X42015817Y-13709194D01*
X42018316Y-13708161D01*
X42257633Y-13469261D01*
X42387311Y-13156963D01*
X42387606Y-12818812D01*
X42258474Y-12506289D01*
X42019574Y-12266972D01*
X41751860Y-12155807D01*
X41849852Y-11919817D01*
X41850147Y-11581666D01*
X41827323Y-11526428D01*
X42000000Y-11560775D01*
X46000000Y-11560775D01*
X46214599Y-11518089D01*
X46396528Y-11396528D01*
X46518089Y-11214599D01*
X46560775Y-11000000D01*
X46560775Y-7418334D01*
X47649853Y-7418334D01*
X47778985Y-7730857D01*
X48017885Y-7970174D01*
X48330183Y-8099852D01*
X48668334Y-8100147D01*
X48980857Y-7971015D01*
X49220174Y-7732115D01*
X49349852Y-7419817D01*
X49350147Y-7081666D01*
X49221015Y-6769143D01*
X48982115Y-6529826D01*
X48669817Y-6400148D01*
X48331666Y-6399853D01*
X48019143Y-6528985D01*
X47779826Y-6767885D01*
X47650148Y-7080183D01*
X47649853Y-7418334D01*
X46560775Y-7418334D01*
X46560775Y-7000000D01*
X46518089Y-6785401D01*
X46396528Y-6603472D01*
X46214599Y-6481911D01*
X46000000Y-6439225D01*
X42000000Y-6439225D01*
X41785401Y-6481911D01*
X41603472Y-6603472D01*
X41481911Y-6785401D01*
X41439225Y-7000000D01*
X41439225Y-11000000D01*
X41441830Y-11013098D01*
X41169817Y-10900148D01*
X40831666Y-10899853D01*
X40770082Y-10925299D01*
X40571377Y-10726247D01*
X40259079Y-10596569D01*
X39920928Y-10596274D01*
X39608405Y-10725406D01*
X39369088Y-10964306D01*
X39239410Y-11276604D01*
X39239115Y-11614755D01*
X39368247Y-11927278D01*
X39411187Y-11970293D01*
X39269143Y-12028985D01*
X39029826Y-12267885D01*
X38900148Y-12580183D01*
X38899853Y-12918334D01*
X33603320Y-12918334D01*
X33521015Y-12719143D01*
X33282115Y-12479826D01*
X32969817Y-12350148D01*
X32631666Y-12349853D01*
X32319143Y-12478985D01*
X32079826Y-12717885D01*
X31950148Y-13030183D01*
X31949853Y-13368334D01*
X29219966Y-13368334D01*
X29220147Y-13161666D01*
X29215327Y-13150000D01*
X30500000Y-13150000D01*
X30557403Y-13138582D01*
X30606066Y-13106066D01*
X30638582Y-13057403D01*
X30650000Y-13000000D01*
X30650000Y-10918334D01*
X36149853Y-10918334D01*
X36278985Y-11230857D01*
X36517885Y-11470174D01*
X36830183Y-11599852D01*
X37168334Y-11600147D01*
X37480857Y-11471015D01*
X37720174Y-11232115D01*
X37849852Y-10919817D01*
X37850147Y-10581666D01*
X37721015Y-10269143D01*
X37482115Y-10029826D01*
X37169817Y-9900148D01*
X36831666Y-9899853D01*
X36519143Y-10028985D01*
X36279826Y-10267885D01*
X36150148Y-10580183D01*
X36149853Y-10918334D01*
X30650000Y-10918334D01*
X30650000Y-8418334D01*
X36149853Y-8418334D01*
X36278985Y-8730857D01*
X36517885Y-8970174D01*
X36830183Y-9099852D01*
X37168334Y-9100147D01*
X37480857Y-8971015D01*
X37720174Y-8732115D01*
X37849852Y-8419817D01*
X37850147Y-8081666D01*
X37721015Y-7769143D01*
X37482115Y-7529826D01*
X37169817Y-7400148D01*
X36831666Y-7399853D01*
X36519143Y-7528985D01*
X36279826Y-7767885D01*
X36150148Y-8080183D01*
X36149853Y-8418334D01*
X30650000Y-8418334D01*
X30650000Y-4935875D01*
X30664858Y-4861179D01*
X30743492Y-4743494D01*
X30861180Y-4664857D01*
X30935872Y-4650000D01*
X53519456Y-4650000D01*
X53208381Y-4960533D01*
X53208381Y-4960533D01*
G37*
X53208381Y-4960533D02*
X52880374Y-5750462D01*
X52879628Y-6605785D01*
X52930255Y-6728312D01*
X52732115Y-6529826D01*
X52419817Y-6400148D01*
X52081666Y-6399853D01*
X52000186Y-6433520D01*
X51919817Y-6400148D01*
X51581666Y-6399853D01*
X51500186Y-6433520D01*
X51419817Y-6400148D01*
X51081666Y-6399853D01*
X51025340Y-6423126D01*
X50982115Y-6379826D01*
X50669817Y-6250148D01*
X50331666Y-6249853D01*
X50019143Y-6378985D01*
X49779826Y-6617885D01*
X49650148Y-6930183D01*
X49649853Y-7268334D01*
X49778985Y-7580857D01*
X50017885Y-7820174D01*
X50330183Y-7949852D01*
X50668334Y-7950147D01*
X50724660Y-7926874D01*
X50767885Y-7970174D01*
X51080183Y-8099852D01*
X51418334Y-8100147D01*
X51499814Y-8066480D01*
X51580183Y-8099852D01*
X51918334Y-8100147D01*
X51999814Y-8066480D01*
X52080183Y-8099852D01*
X52418334Y-8100147D01*
X52511684Y-8061576D01*
X52400148Y-8330183D01*
X52399853Y-8668334D01*
X52528985Y-8980857D01*
X52767885Y-9220174D01*
X53080183Y-9349852D01*
X53418334Y-9350147D01*
X53730857Y-9221015D01*
X53823868Y-9128166D01*
X53799634Y-9250000D01*
X53885950Y-9683937D01*
X53732115Y-9529834D01*
X53419817Y-9400156D01*
X53081666Y-9399861D01*
X52769143Y-9528993D01*
X52529826Y-9767893D01*
X52400148Y-10080191D01*
X52399853Y-10418342D01*
X52419841Y-10466718D01*
X52269143Y-10528985D01*
X52029826Y-10767885D01*
X51900148Y-11080183D01*
X51899869Y-11400131D01*
X51581666Y-11399853D01*
X51500186Y-11433520D01*
X51419817Y-11400148D01*
X51081666Y-11399853D01*
X50769143Y-11528985D01*
X50529826Y-11767885D01*
X50400148Y-12080183D01*
X50399853Y-12418334D01*
X50528985Y-12730857D01*
X50767885Y-12970174D01*
X51080183Y-13099852D01*
X51418334Y-13100147D01*
X51499814Y-13066480D01*
X51580183Y-13099852D01*
X51918334Y-13100147D01*
X52230857Y-12971015D01*
X52470174Y-12732115D01*
X52599852Y-12419817D01*
X52600131Y-12099869D01*
X52918334Y-12100147D01*
X53230857Y-11971015D01*
X53470174Y-11732115D01*
X53599852Y-11419817D01*
X53600147Y-11081666D01*
X53580159Y-11033290D01*
X53730857Y-10971023D01*
X53970174Y-10732123D01*
X54099852Y-10419825D01*
X54100147Y-10081674D01*
X54079469Y-10031630D01*
X54195040Y-10204594D01*
X54633011Y-10497237D01*
X54974309Y-10565126D01*
X54672857Y-10689684D01*
X54320919Y-11041007D01*
X54130217Y-11500269D01*
X54129783Y-11997550D01*
X54319684Y-12457143D01*
X54612232Y-12750203D01*
X54320919Y-13041007D01*
X54130217Y-13500269D01*
X54129783Y-13997550D01*
X54319684Y-14457143D01*
X54671007Y-14809081D01*
X54739531Y-14837535D01*
X54503143Y-14935208D01*
X54066740Y-15370849D01*
X53830270Y-15940333D01*
X53829732Y-16556961D01*
X54065208Y-17126857D01*
X54252837Y-17314814D01*
X53813714Y-17496256D01*
X53208381Y-18100533D01*
X52880374Y-18890462D01*
X52879628Y-19745785D01*
X53206256Y-20536286D01*
X53810533Y-21141619D01*
X54600462Y-21469626D01*
X55455785Y-21470372D01*
X56246286Y-21143744D01*
X56851619Y-20539467D01*
X57179626Y-19749538D01*
X57179629Y-19745785D01*
X58559628Y-19745785D01*
X58886256Y-20536286D01*
X59490533Y-21141619D01*
X60280462Y-21469626D01*
X61135785Y-21470372D01*
X61261726Y-21418334D01*
X63149853Y-21418334D01*
X63278985Y-21730857D01*
X63517885Y-21970174D01*
X63830183Y-22099852D01*
X64168334Y-22100147D01*
X64261684Y-22061576D01*
X64150148Y-22330183D01*
X64149853Y-22668334D01*
X64278985Y-22980857D01*
X64517885Y-23220174D01*
X64830183Y-23349852D01*
X65168334Y-23350147D01*
X65480857Y-23221015D01*
X65720174Y-22982115D01*
X65849852Y-22669817D01*
X65850147Y-22331666D01*
X65721015Y-22019143D01*
X65482115Y-21779826D01*
X65439928Y-21762308D01*
X65470174Y-21732115D01*
X65599852Y-21419817D01*
X65600147Y-21081666D01*
X65471015Y-20769143D01*
X65232115Y-20529826D01*
X64919817Y-20400148D01*
X64581666Y-20399853D01*
X64374877Y-20485297D01*
X64169817Y-20400148D01*
X63831666Y-20399853D01*
X63519143Y-20528985D01*
X63279826Y-20767885D01*
X63150148Y-21080183D01*
X63149853Y-21418334D01*
X61261726Y-21418334D01*
X61926286Y-21143744D01*
X62531619Y-20539467D01*
X62859626Y-19749538D01*
X62860372Y-18894215D01*
X62533744Y-18103714D01*
X61929467Y-17498381D01*
X61139538Y-17170374D01*
X60284215Y-17169628D01*
X59493714Y-17496256D01*
X58888381Y-18100533D01*
X58560374Y-18890462D01*
X58559628Y-19745785D01*
X57179629Y-19745785D01*
X57180372Y-18894215D01*
X56853744Y-18103714D01*
X56286361Y-17535339D01*
X56690374Y-17132032D01*
X57120849Y-17563260D01*
X57690333Y-17799730D01*
X58306961Y-17800268D01*
X58876857Y-17564792D01*
X59313260Y-17129151D01*
X59549730Y-16559667D01*
X59550268Y-15943039D01*
X59314792Y-15373143D01*
X58879151Y-14936740D01*
X58640752Y-14837748D01*
X58707143Y-14810316D01*
X59059081Y-14458993D01*
X59249783Y-13999731D01*
X59250217Y-13502450D01*
X59060316Y-13042857D01*
X58767768Y-12749797D01*
X59059081Y-12458993D01*
X59249783Y-11999731D01*
X59250217Y-11502450D01*
X59060316Y-11042857D01*
X58708993Y-10690919D01*
X58640469Y-10662465D01*
X58876857Y-10564792D01*
X59313260Y-10129151D01*
X59386644Y-9952422D01*
X59486054Y-10052005D01*
X59798352Y-10181683D01*
X60136503Y-10181978D01*
X60449026Y-10052846D01*
X60688343Y-9813946D01*
X60818021Y-9501648D01*
X60818316Y-9163497D01*
X60689184Y-8850974D01*
X60450284Y-8611657D01*
X60137986Y-8481979D01*
X59799835Y-8481684D01*
X59487312Y-8610816D01*
X59434698Y-8663338D01*
X59314792Y-8373143D01*
X58879151Y-7936740D01*
X58309667Y-7700270D01*
X57693039Y-7699732D01*
X57123143Y-7935208D01*
X56686740Y-8370849D01*
X56659386Y-8436725D01*
X56564960Y-8295406D01*
X56173480Y-8033827D01*
X56246286Y-8003744D01*
X56851619Y-7399467D01*
X57179626Y-6609538D01*
X57180372Y-5754215D01*
X56853744Y-4963714D01*
X56540577Y-4650000D01*
X59199456Y-4650000D01*
X58888381Y-4960533D01*
X58560374Y-5750462D01*
X58559628Y-6605785D01*
X58886256Y-7396286D01*
X59490533Y-8001619D01*
X60280462Y-8329626D01*
X61135785Y-8330372D01*
X61926286Y-8003744D01*
X62531619Y-7399467D01*
X62859626Y-6609538D01*
X62860372Y-5754215D01*
X62533744Y-4963714D01*
X62220577Y-4650000D01*
X67350000Y-4650000D01*
X67350000Y-6585714D01*
X67295000Y-6585714D01*
X67295000Y-9414285D01*
X67350000Y-9414285D01*
X67350000Y-13500000D01*
X67361418Y-13557403D01*
X67393934Y-13606066D01*
X67442597Y-13638582D01*
X67500000Y-13650000D01*
X70350000Y-13650000D01*
X70350000Y-21979050D01*
X70007056Y-21749902D01*
X69500000Y-21649042D01*
X68992944Y-21749902D01*
X68563084Y-22037126D01*
X68275860Y-22466986D01*
X68175000Y-22974042D01*
X68175000Y-23025958D01*
X68275860Y-23533014D01*
X68287260Y-23550076D01*
X68031666Y-23549853D01*
X67900795Y-23603928D01*
X67885558Y-23527327D01*
X67630850Y-23146130D01*
X67249653Y-22891422D01*
X66800000Y-22801980D01*
X66350347Y-22891422D01*
X65969150Y-23146130D01*
X65714442Y-23527327D01*
X65625000Y-23976980D01*
X65625000Y-24023020D01*
X65714442Y-24472673D01*
X65969150Y-24853870D01*
X66350347Y-25108578D01*
X66800000Y-25198020D01*
X67150062Y-25128388D01*
X67149853Y-25368334D01*
X67278985Y-25680857D01*
X67517885Y-25920174D01*
X67830183Y-26049852D01*
X68168334Y-26050147D01*
X68480857Y-25921015D01*
X68720174Y-25682115D01*
X68849852Y-25369817D01*
X68850147Y-25031666D01*
X68826848Y-24975278D01*
X68920174Y-24882115D01*
X69049852Y-24569817D01*
X69050121Y-24261471D01*
X69500000Y-24350958D01*
X70007056Y-24250098D01*
X70350000Y-24020950D01*
X70350000Y-28979050D01*
X70007056Y-28749902D01*
X69500000Y-28649042D01*
X68992944Y-28749902D01*
X68563084Y-29037126D01*
X68275860Y-29466986D01*
X68175000Y-29974042D01*
X68175000Y-30025958D01*
X68275860Y-30533014D01*
X68563084Y-30962874D01*
X68992944Y-31250098D01*
X69495184Y-31350000D01*
X30935872Y-31350000D01*
X30861180Y-31335143D01*
X30743492Y-31256506D01*
X30664858Y-31138821D01*
X30650000Y-31064125D01*
X30650000Y-30168334D01*
X33749853Y-30168334D01*
X33878985Y-30480857D01*
X34117885Y-30720174D01*
X34430183Y-30849852D01*
X34768334Y-30850147D01*
X35000185Y-30754348D01*
X35230183Y-30849852D01*
X35568334Y-30850147D01*
X35800185Y-30754348D01*
X36030183Y-30849852D01*
X36368334Y-30850147D01*
X36580137Y-30762632D01*
X36790186Y-30849852D01*
X37128337Y-30850147D01*
X37440860Y-30721015D01*
X37680177Y-30482115D01*
X37809855Y-30169817D01*
X37810150Y-29831666D01*
X37681018Y-29519143D01*
X37442118Y-29279826D01*
X37129820Y-29150148D01*
X36791669Y-29149853D01*
X36579866Y-29237368D01*
X36369817Y-29150148D01*
X36031666Y-29149853D01*
X35799815Y-29245652D01*
X35569817Y-29150148D01*
X35231666Y-29149853D01*
X34999815Y-29245652D01*
X34769817Y-29150148D01*
X34431666Y-29149853D01*
X34119143Y-29278985D01*
X33879826Y-29517885D01*
X33750148Y-29830183D01*
X33749853Y-30168334D01*
X30650000Y-30168334D01*
X30650000Y-28468334D01*
X31009863Y-28468334D01*
X31138995Y-28780857D01*
X31377895Y-29020174D01*
X31690193Y-29149852D01*
X32028344Y-29150147D01*
X32340867Y-29021015D01*
X32580184Y-28782115D01*
X32709862Y-28469817D01*
X32710157Y-28131666D01*
X32581025Y-27819143D01*
X32342125Y-27579826D01*
X32029827Y-27450148D01*
X31691676Y-27449853D01*
X31379153Y-27578985D01*
X31139836Y-27817885D01*
X31010158Y-28130183D01*
X31009863Y-28468334D01*
X30650000Y-28468334D01*
X30650000Y-25875000D01*
X34314225Y-25875000D01*
X34314225Y-28125000D01*
X34356911Y-28339599D01*
X34478472Y-28521528D01*
X34660401Y-28643089D01*
X34875000Y-28685775D01*
X37125000Y-28685775D01*
X37339599Y-28643089D01*
X37521528Y-28521528D01*
X37643089Y-28339599D01*
X37685775Y-28125000D01*
X37685775Y-25875000D01*
X37643089Y-25660401D01*
X37521528Y-25478472D01*
X37339599Y-25356911D01*
X37125000Y-25314225D01*
X34875000Y-25314225D01*
X34660401Y-25356911D01*
X34478472Y-25478472D01*
X34356911Y-25660401D01*
X34314225Y-25875000D01*
X30650000Y-25875000D01*
X30650000Y-23968334D01*
X33399883Y-23968334D01*
X33464289Y-24124209D01*
X33434563Y-24195798D01*
X33434268Y-24533949D01*
X33563400Y-24846472D01*
X33802300Y-25085789D01*
X34114598Y-25215467D01*
X34452749Y-25215762D01*
X34765272Y-25086630D01*
X35004589Y-24847730D01*
X35134267Y-24535432D01*
X35134562Y-24197281D01*
X35122602Y-24168334D01*
X35349853Y-24168334D01*
X35478985Y-24480857D01*
X35717885Y-24720174D01*
X36030183Y-24849852D01*
X36368334Y-24850147D01*
X36680857Y-24721015D01*
X36833804Y-24568334D01*
X37549853Y-24568334D01*
X37678985Y-24880857D01*
X37917885Y-25120174D01*
X38230183Y-25249852D01*
X38568334Y-25250147D01*
X38581423Y-25244739D01*
X38678985Y-25480857D01*
X38917885Y-25720174D01*
X39230183Y-25849852D01*
X39568334Y-25850147D01*
X39648000Y-25817230D01*
X39648000Y-26620168D01*
X39747870Y-27122249D01*
X40032276Y-27547892D01*
X40304819Y-27730000D01*
X40032276Y-27912108D01*
X39747870Y-28337751D01*
X39648000Y-28839832D01*
X39648000Y-29668168D01*
X39747870Y-30170249D01*
X40032276Y-30595892D01*
X40457919Y-30880298D01*
X40960000Y-30980168D01*
X41462081Y-30880298D01*
X41887724Y-30595892D01*
X42172130Y-30170249D01*
X42230000Y-29879317D01*
X42287870Y-30170249D01*
X42572276Y-30595892D01*
X42997919Y-30880298D01*
X43500000Y-30980168D01*
X44002081Y-30880298D01*
X44427724Y-30595892D01*
X44712130Y-30170249D01*
X44723422Y-30113480D01*
X44767890Y-30274494D01*
X45109447Y-30712631D01*
X45592673Y-30986708D01*
X45715740Y-31017481D01*
X45936000Y-30886185D01*
X45936000Y-29358000D01*
X46144000Y-29358000D01*
X46144000Y-30886185D01*
X46364260Y-31017481D01*
X46487327Y-30986708D01*
X46970553Y-30712631D01*
X47312110Y-30274494D01*
X47460000Y-29739000D01*
X47460000Y-29358000D01*
X46144000Y-29358000D01*
X45936000Y-29358000D01*
X45916000Y-29358000D01*
X45916000Y-29150000D01*
X45936000Y-29150000D01*
X45936000Y-29130000D01*
X46144000Y-29130000D01*
X46144000Y-29150000D01*
X47460000Y-29150000D01*
X47460000Y-29008341D01*
X49149853Y-29008341D01*
X49237366Y-29220139D01*
X49150148Y-29430183D01*
X49149853Y-29768334D01*
X49278985Y-30080857D01*
X49517885Y-30320174D01*
X49830183Y-30449852D01*
X50168334Y-30450147D01*
X50366336Y-30368334D01*
X59949853Y-30368334D01*
X60078985Y-30680857D01*
X60317885Y-30920174D01*
X60630183Y-31049852D01*
X60968334Y-31050147D01*
X61280857Y-30921015D01*
X61520174Y-30682115D01*
X61649852Y-30369817D01*
X61650147Y-30031666D01*
X61521015Y-29719143D01*
X61282115Y-29479826D01*
X60969817Y-29350148D01*
X60631666Y-29349853D01*
X60319143Y-29478985D01*
X60079826Y-29717885D01*
X59950148Y-30030183D01*
X59949853Y-30368334D01*
X50366336Y-30368334D01*
X50480857Y-30321015D01*
X50720174Y-30082115D01*
X50849852Y-29769817D01*
X50850147Y-29431666D01*
X50813476Y-29342914D01*
X50830183Y-29349852D01*
X51168334Y-29350147D01*
X51480857Y-29221015D01*
X51720174Y-28982115D01*
X51849852Y-28669817D01*
X51850071Y-28418334D01*
X52149853Y-28418334D01*
X52278985Y-28730857D01*
X52517885Y-28970174D01*
X52830183Y-29099852D01*
X53168334Y-29100147D01*
X53480857Y-28971015D01*
X53720174Y-28732115D01*
X53849852Y-28419817D01*
X53850147Y-28081666D01*
X53721015Y-27769143D01*
X53482115Y-27529826D01*
X53169817Y-27400148D01*
X52831666Y-27399853D01*
X52519143Y-27528985D01*
X52279826Y-27767885D01*
X52150148Y-28080183D01*
X52149853Y-28418334D01*
X51850071Y-28418334D01*
X51850147Y-28331666D01*
X51721015Y-28019143D01*
X51482115Y-27779826D01*
X51169817Y-27650148D01*
X50831666Y-27649853D01*
X50519143Y-27778985D01*
X50279826Y-28017885D01*
X50273469Y-28033195D01*
X50169817Y-27990155D01*
X49831666Y-27989860D01*
X49519143Y-28118992D01*
X49279826Y-28357892D01*
X49150148Y-28670190D01*
X49149853Y-29008341D01*
X47460000Y-29008341D01*
X47460000Y-28769000D01*
X47312110Y-28233506D01*
X47023085Y-27862755D01*
X47198528Y-27745528D01*
X47320089Y-27563599D01*
X47362775Y-27349000D01*
X47362775Y-25250000D01*
X54689225Y-25250000D01*
X54689225Y-29250000D01*
X54731911Y-29464599D01*
X54853472Y-29646528D01*
X55035401Y-29768089D01*
X55250000Y-29810775D01*
X59250000Y-29810775D01*
X59464599Y-29768089D01*
X59646528Y-29646528D01*
X59768089Y-29464599D01*
X59810775Y-29250000D01*
X59810775Y-28240021D01*
X64274469Y-28240021D01*
X64403601Y-28552544D01*
X64642501Y-28791861D01*
X64954799Y-28921539D01*
X65292950Y-28921834D01*
X65605473Y-28792702D01*
X65675575Y-28722722D01*
X65625000Y-28976980D01*
X65625000Y-29023020D01*
X65714442Y-29472673D01*
X65794336Y-29592243D01*
X65682115Y-29479826D01*
X65369817Y-29350148D01*
X65031666Y-29349853D01*
X64719143Y-29478985D01*
X64479826Y-29717885D01*
X64350148Y-30030183D01*
X64349853Y-30368334D01*
X64478985Y-30680857D01*
X64717885Y-30920174D01*
X65030183Y-31049852D01*
X65368334Y-31050147D01*
X65680857Y-30921015D01*
X65920174Y-30682115D01*
X66049852Y-30369817D01*
X66050147Y-30031666D01*
X65979556Y-29860823D01*
X66350347Y-30108578D01*
X66800000Y-30198020D01*
X67249653Y-30108578D01*
X67630850Y-29853870D01*
X67885558Y-29472673D01*
X67975000Y-29023020D01*
X67975000Y-28976980D01*
X67885558Y-28527327D01*
X67630850Y-28146130D01*
X67249653Y-27891422D01*
X66800000Y-27801980D01*
X66350347Y-27891422D01*
X65974554Y-28142519D01*
X65974763Y-27903353D01*
X65845631Y-27590830D01*
X65606731Y-27351513D01*
X65294433Y-27221835D01*
X64956282Y-27221540D01*
X64643759Y-27350672D01*
X64404442Y-27589572D01*
X64274764Y-27901870D01*
X64274469Y-28240021D01*
X59810775Y-28240021D01*
X59810775Y-26168334D01*
X63549853Y-26168334D01*
X63678985Y-26480857D01*
X63917885Y-26720174D01*
X64230183Y-26849852D01*
X64568334Y-26850147D01*
X64880857Y-26721015D01*
X65120174Y-26482115D01*
X65249852Y-26169817D01*
X65250147Y-25831666D01*
X65121015Y-25519143D01*
X64882115Y-25279826D01*
X64569817Y-25150148D01*
X64231666Y-25149853D01*
X63919143Y-25278985D01*
X63679826Y-25517885D01*
X63550148Y-25830183D01*
X63549853Y-26168334D01*
X59810775Y-26168334D01*
X59810775Y-25250000D01*
X59768089Y-25035401D01*
X59646528Y-24853472D01*
X59464599Y-24731911D01*
X59250000Y-24689225D01*
X55250000Y-24689225D01*
X55035401Y-24731911D01*
X54853472Y-24853472D01*
X54731911Y-25035401D01*
X54689225Y-25250000D01*
X47362775Y-25250000D01*
X47362775Y-25063000D01*
X47320089Y-24848401D01*
X47198528Y-24666472D01*
X47016599Y-24544911D01*
X46802000Y-24502225D01*
X45278000Y-24502225D01*
X45063401Y-24544911D01*
X44881472Y-24666472D01*
X44759911Y-24848401D01*
X44717225Y-25063000D01*
X44717225Y-25315365D01*
X44712130Y-25289751D01*
X44427724Y-24864108D01*
X44002081Y-24579702D01*
X43500000Y-24479832D01*
X42997919Y-24579702D01*
X42572276Y-24864108D01*
X42287870Y-25289751D01*
X42230000Y-25580683D01*
X42172130Y-25289751D01*
X41887724Y-24864108D01*
X41462081Y-24579702D01*
X40960000Y-24479832D01*
X40457919Y-24579702D01*
X40213514Y-24743008D01*
X40121015Y-24519143D01*
X39882115Y-24279826D01*
X39569817Y-24150148D01*
X39231666Y-24149853D01*
X39218577Y-24155261D01*
X39121015Y-23919143D01*
X38882115Y-23679826D01*
X38569817Y-23550148D01*
X38231666Y-23549853D01*
X37919143Y-23678985D01*
X37679826Y-23917885D01*
X37550148Y-24230183D01*
X37549853Y-24568334D01*
X36833804Y-24568334D01*
X36920174Y-24482115D01*
X37049852Y-24169817D01*
X37050147Y-23831666D01*
X36921015Y-23519143D01*
X36860309Y-23458331D01*
X59399853Y-23458331D01*
X59528790Y-23770381D01*
X59400148Y-24080183D01*
X59399853Y-24418334D01*
X59528985Y-24730857D01*
X59767885Y-24970174D01*
X60080183Y-25099852D01*
X60418334Y-25100147D01*
X60730857Y-24971015D01*
X60970174Y-24732115D01*
X61099852Y-24419817D01*
X61100147Y-24081666D01*
X60971210Y-23769616D01*
X61099852Y-23459814D01*
X61100147Y-23121663D01*
X60971015Y-22809140D01*
X60732115Y-22569823D01*
X60419817Y-22440145D01*
X60081666Y-22439850D01*
X59769143Y-22568982D01*
X59529826Y-22807882D01*
X59400148Y-23120180D01*
X59399853Y-23458331D01*
X36860309Y-23458331D01*
X36682115Y-23279826D01*
X36369817Y-23150148D01*
X36031666Y-23149853D01*
X35719143Y-23278985D01*
X35479826Y-23517885D01*
X35350148Y-23830183D01*
X35349853Y-24168334D01*
X35122602Y-24168334D01*
X35070156Y-24041406D01*
X35099882Y-23969817D01*
X35100177Y-23631666D01*
X34971045Y-23319143D01*
X34732145Y-23079826D01*
X34419847Y-22950148D01*
X34081696Y-22949853D01*
X33769173Y-23078985D01*
X33529856Y-23317885D01*
X33400178Y-23630183D01*
X33399883Y-23968334D01*
X30650000Y-23968334D01*
X30650000Y-22368334D01*
X34949853Y-22368334D01*
X35078985Y-22680857D01*
X35317885Y-22920174D01*
X35630183Y-23049852D01*
X35968334Y-23050147D01*
X36200185Y-22954348D01*
X36430183Y-23049852D01*
X36768334Y-23050147D01*
X37080857Y-22921015D01*
X37233804Y-22768334D01*
X43149853Y-22768334D01*
X43278985Y-23080857D01*
X43517885Y-23320174D01*
X43830183Y-23449852D01*
X44168334Y-23450147D01*
X44480857Y-23321015D01*
X44720174Y-23082115D01*
X44749913Y-23010497D01*
X44778985Y-23080857D01*
X45017885Y-23320174D01*
X45330183Y-23449852D01*
X45668334Y-23450147D01*
X45980857Y-23321015D01*
X46220174Y-23082115D01*
X46349852Y-22769817D01*
X46350147Y-22431666D01*
X46241341Y-22168334D01*
X48149853Y-22168334D01*
X48278985Y-22480857D01*
X48517885Y-22720174D01*
X48830183Y-22849852D01*
X49168334Y-22850147D01*
X49480857Y-22721015D01*
X49720174Y-22482115D01*
X49849852Y-22169817D01*
X49850027Y-21968334D01*
X52199864Y-21968334D01*
X52328996Y-22280857D01*
X52567896Y-22520174D01*
X52880194Y-22649852D01*
X53218345Y-22650147D01*
X53530868Y-22521015D01*
X53770185Y-22282115D01*
X53832469Y-22132117D01*
X55972287Y-22132117D01*
X56101419Y-22444640D01*
X56340319Y-22683957D01*
X56652617Y-22813635D01*
X56990768Y-22813930D01*
X57303291Y-22684798D01*
X57542608Y-22445898D01*
X57672286Y-22133600D01*
X57672581Y-21795449D01*
X57543449Y-21482926D01*
X57304549Y-21243609D01*
X56992251Y-21113931D01*
X56654100Y-21113636D01*
X56341577Y-21242768D01*
X56102260Y-21481668D01*
X55972582Y-21793966D01*
X55972287Y-22132117D01*
X53832469Y-22132117D01*
X53899863Y-21969817D01*
X53900158Y-21631666D01*
X53771026Y-21319143D01*
X53532126Y-21079826D01*
X53219828Y-20950148D01*
X52881677Y-20949853D01*
X52569154Y-21078985D01*
X52329837Y-21317885D01*
X52200159Y-21630183D01*
X52199864Y-21968334D01*
X49850027Y-21968334D01*
X49850147Y-21831666D01*
X49721015Y-21519143D01*
X49482115Y-21279826D01*
X49169817Y-21150148D01*
X48831666Y-21149853D01*
X48519143Y-21278985D01*
X48279826Y-21517885D01*
X48150148Y-21830183D01*
X48149853Y-22168334D01*
X46241341Y-22168334D01*
X46221015Y-22119143D01*
X45982115Y-21879826D01*
X45669817Y-21750148D01*
X45331666Y-21749853D01*
X45019143Y-21878985D01*
X44779826Y-22117885D01*
X44750087Y-22189503D01*
X44721015Y-22119143D01*
X44482115Y-21879826D01*
X44169817Y-21750148D01*
X43831666Y-21749853D01*
X43519143Y-21878985D01*
X43279826Y-22117885D01*
X43150148Y-22430183D01*
X43149853Y-22768334D01*
X37233804Y-22768334D01*
X37320174Y-22682115D01*
X37449852Y-22369817D01*
X37450147Y-22031666D01*
X37321015Y-21719143D01*
X37170469Y-21568334D01*
X38949853Y-21568334D01*
X39078985Y-21880857D01*
X39317885Y-22120174D01*
X39630183Y-22249852D01*
X39968334Y-22250147D01*
X40280857Y-22121015D01*
X40520174Y-21882115D01*
X40649852Y-21569817D01*
X40650147Y-21231666D01*
X40623979Y-21168334D01*
X42399853Y-21168334D01*
X42528985Y-21480857D01*
X42767885Y-21720174D01*
X43080183Y-21849852D01*
X43418334Y-21850147D01*
X43730857Y-21721015D01*
X43970174Y-21482115D01*
X44099852Y-21169817D01*
X44100147Y-20831666D01*
X43971015Y-20519143D01*
X43732115Y-20279826D01*
X43419817Y-20150148D01*
X43081666Y-20149853D01*
X42769143Y-20278985D01*
X42529826Y-20517885D01*
X42400148Y-20830183D01*
X42399853Y-21168334D01*
X40623979Y-21168334D01*
X40521015Y-20919143D01*
X40282115Y-20679826D01*
X39969817Y-20550148D01*
X39631666Y-20549853D01*
X39319143Y-20678985D01*
X39079826Y-20917885D01*
X38950148Y-21230183D01*
X38949853Y-21568334D01*
X37170469Y-21568334D01*
X37082115Y-21479826D01*
X36769817Y-21350148D01*
X36431666Y-21349853D01*
X36199815Y-21445652D01*
X35969817Y-21350148D01*
X35631666Y-21349853D01*
X35319143Y-21478985D01*
X35079826Y-21717885D01*
X34950148Y-22030183D01*
X34949853Y-22368334D01*
X30650000Y-22368334D01*
X30650000Y-21000000D01*
X30638582Y-20942597D01*
X30606066Y-20893934D01*
X30557403Y-20861418D01*
X30500000Y-20850000D01*
X29189974Y-20850000D01*
X29190147Y-20651666D01*
X29061015Y-20339143D01*
X28822115Y-20099826D01*
X28509817Y-19970148D01*
X28171666Y-19969853D01*
X27859143Y-20098985D01*
X27619826Y-20337885D01*
X27618340Y-20341463D01*
X27480796Y-20203679D01*
X27680857Y-20121015D01*
X27920174Y-19882115D01*
X28049852Y-19569817D01*
X28049853Y-19568334D01*
X29349853Y-19568334D01*
X29478985Y-19880857D01*
X29717885Y-20120174D01*
X30030183Y-20249852D01*
X30368334Y-20250147D01*
X30499938Y-20195769D01*
X30630183Y-20249852D01*
X30968334Y-20250147D01*
X31099938Y-20195769D01*
X31230183Y-20249852D01*
X31347875Y-20249955D01*
X31279826Y-20317885D01*
X31150148Y-20630183D01*
X31149853Y-20968334D01*
X31278985Y-21280857D01*
X31517885Y-21520174D01*
X31830183Y-21649852D01*
X32168334Y-21650147D01*
X32480857Y-21521015D01*
X32720174Y-21282115D01*
X32849852Y-20969817D01*
X32850147Y-20631666D01*
X32721015Y-20319143D01*
X32482115Y-20079826D01*
X32169817Y-19950148D01*
X32052125Y-19950045D01*
X32120174Y-19882115D01*
X32249852Y-19569817D01*
X32250147Y-19231666D01*
X32121015Y-18919143D01*
X31882115Y-18679826D01*
X31569817Y-18550148D01*
X31231666Y-18549853D01*
X31100062Y-18604231D01*
X30969817Y-18550148D01*
X30631666Y-18549853D01*
X30500062Y-18604231D01*
X30369817Y-18550148D01*
X30031666Y-18549853D01*
X29719143Y-18678985D01*
X29479826Y-18917885D01*
X29350148Y-19230183D01*
X29349853Y-19568334D01*
X28049853Y-19568334D01*
X28050147Y-19231666D01*
X27921015Y-18919143D01*
X27682115Y-18679826D01*
X27449962Y-18583427D01*
X27450147Y-18371666D01*
X27321015Y-18059143D01*
X27082115Y-17819826D01*
X26912336Y-17749327D01*
X26980857Y-17721015D01*
X27125042Y-17577081D01*
X27267885Y-17720174D01*
X27468444Y-17803454D01*
X27559863Y-18024705D01*
X27798763Y-18264022D01*
X28111061Y-18393700D01*
X28449212Y-18393995D01*
X28761735Y-18264863D01*
X28833179Y-18193544D01*
X28845622Y-18198711D01*
X29183773Y-18199006D01*
X29496296Y-18069874D01*
X29598013Y-17968334D01*
X31679863Y-17968334D01*
X31808995Y-18280857D01*
X32047895Y-18520174D01*
X32360193Y-18649852D01*
X32698344Y-18650147D01*
X33010867Y-18521015D01*
X33250184Y-18282115D01*
X33298279Y-18166288D01*
X33551899Y-18166288D01*
X33681031Y-18478811D01*
X33919931Y-18718128D01*
X34232229Y-18847806D01*
X34570380Y-18848101D01*
X34878645Y-18720728D01*
X34750148Y-19030183D01*
X34749853Y-19368334D01*
X34878985Y-19680857D01*
X35117885Y-19920174D01*
X35430183Y-20049852D01*
X35768334Y-20050147D01*
X35899938Y-19995769D01*
X36030183Y-20049852D01*
X36368334Y-20050147D01*
X36499938Y-19995769D01*
X36630183Y-20049852D01*
X36968334Y-20050147D01*
X37166317Y-19968342D01*
X37317885Y-20120174D01*
X37630183Y-20249852D01*
X37968334Y-20250147D01*
X38280857Y-20121015D01*
X38520174Y-19882115D01*
X38649852Y-19569817D01*
X38650147Y-19231666D01*
X38521015Y-18919143D01*
X38282115Y-18679826D01*
X37969817Y-18550148D01*
X37631666Y-18549853D01*
X37433683Y-18631658D01*
X37282115Y-18479826D01*
X36969817Y-18350148D01*
X36631666Y-18349853D01*
X36500062Y-18404231D01*
X36369817Y-18350148D01*
X36031666Y-18349853D01*
X35900062Y-18404231D01*
X35769817Y-18350148D01*
X35431666Y-18349853D01*
X35123401Y-18477226D01*
X35251898Y-18167771D01*
X35252193Y-17829620D01*
X35198884Y-17700604D01*
X35252212Y-17572177D01*
X35252507Y-17234026D01*
X35123375Y-16921503D01*
X34884475Y-16682186D01*
X34783550Y-16640278D01*
X39466686Y-16640278D01*
X39595818Y-16952801D01*
X39834718Y-17192118D01*
X40147016Y-17321796D01*
X40485167Y-17322091D01*
X40797690Y-17192959D01*
X41037007Y-16954059D01*
X41166685Y-16641761D01*
X41166980Y-16303610D01*
X41037848Y-15991087D01*
X40902602Y-15855604D01*
X41649853Y-15855604D01*
X41778985Y-16168127D01*
X42017885Y-16407444D01*
X42330183Y-16537122D01*
X42668334Y-16537417D01*
X42956536Y-16418334D01*
X45149853Y-16418334D01*
X45278985Y-16730857D01*
X45517885Y-16970174D01*
X45830183Y-17099852D01*
X46168334Y-17100147D01*
X46480857Y-16971015D01*
X46720174Y-16732115D01*
X46808059Y-16520465D01*
X46989414Y-16445531D01*
X47140839Y-16597220D01*
X47453137Y-16726898D01*
X47791288Y-16727193D01*
X48103811Y-16598061D01*
X48283851Y-16418334D01*
X51899853Y-16418334D01*
X52028985Y-16730857D01*
X52267885Y-16970174D01*
X52580183Y-17099852D01*
X52918334Y-17100147D01*
X53230857Y-16971015D01*
X53470174Y-16732115D01*
X53599852Y-16419817D01*
X53600147Y-16081666D01*
X53471015Y-15769143D01*
X53232115Y-15529826D01*
X52919817Y-15400148D01*
X52581666Y-15399853D01*
X52269143Y-15528985D01*
X52029826Y-15767885D01*
X51900148Y-16080183D01*
X51899853Y-16418334D01*
X48283851Y-16418334D01*
X48343128Y-16359161D01*
X48472806Y-16046863D01*
X48473101Y-15708712D01*
X48343969Y-15396189D01*
X48105069Y-15156872D01*
X47792771Y-15027194D01*
X47454620Y-15026899D01*
X47170943Y-15144112D01*
X47019518Y-14992423D01*
X46707220Y-14862745D01*
X46369069Y-14862450D01*
X46056546Y-14991582D01*
X45817229Y-15230482D01*
X45729344Y-15442132D01*
X45519143Y-15528985D01*
X45279826Y-15767885D01*
X45150148Y-16080183D01*
X45149853Y-16418334D01*
X42956536Y-16418334D01*
X42980857Y-16408285D01*
X43220174Y-16169385D01*
X43260979Y-16071116D01*
X43330183Y-16099852D01*
X43668334Y-16100147D01*
X43980857Y-15971015D01*
X44220174Y-15732115D01*
X44349852Y-15419817D01*
X44350147Y-15081666D01*
X44221015Y-14769143D01*
X43982115Y-14529826D01*
X43669817Y-14400148D01*
X43331666Y-14399853D01*
X43019143Y-14528985D01*
X42779826Y-14767885D01*
X42739021Y-14866154D01*
X42669817Y-14837418D01*
X42331666Y-14837123D01*
X42019143Y-14966255D01*
X41779826Y-15205155D01*
X41650148Y-15517453D01*
X41649853Y-15855604D01*
X40902602Y-15855604D01*
X40798948Y-15751770D01*
X40486650Y-15622092D01*
X40148499Y-15621797D01*
X39835976Y-15750929D01*
X39596659Y-15989829D01*
X39466981Y-16302127D01*
X39466686Y-16640278D01*
X34783550Y-16640278D01*
X34572177Y-16552508D01*
X34234026Y-16552213D01*
X33921503Y-16681345D01*
X33682186Y-16920245D01*
X33552508Y-17232543D01*
X33552213Y-17570694D01*
X33605522Y-17699710D01*
X33552194Y-17828137D01*
X33551899Y-18166288D01*
X33298279Y-18166288D01*
X33379862Y-17969817D01*
X33380157Y-17631666D01*
X33251025Y-17319143D01*
X33012125Y-17079826D01*
X32699827Y-16950148D01*
X32361676Y-16949853D01*
X32049153Y-17078985D01*
X31809836Y-17317885D01*
X31680158Y-17630183D01*
X31679863Y-17968334D01*
X29598013Y-17968334D01*
X29735613Y-17830974D01*
X29865291Y-17518676D01*
X29865586Y-17180525D01*
X29736454Y-16868002D01*
X29497554Y-16628685D01*
X29185256Y-16499007D01*
X29177659Y-16499000D01*
X29258236Y-16418564D01*
X29381505Y-16121702D01*
X29528583Y-16060930D01*
X29767900Y-15822030D01*
X29897578Y-15509732D01*
X29897873Y-15171581D01*
X29768741Y-14859058D01*
X29578350Y-14668334D01*
X37584287Y-14668334D01*
X37713419Y-14980857D01*
X37952319Y-15220174D01*
X38264617Y-15349852D01*
X38602768Y-15350147D01*
X38915291Y-15221015D01*
X39154608Y-14982115D01*
X39284286Y-14669817D01*
X39284581Y-14331666D01*
X39155449Y-14019143D01*
X38916549Y-13779826D01*
X38604251Y-13650148D01*
X38266100Y-13649853D01*
X37953577Y-13778985D01*
X37714260Y-14017885D01*
X37584582Y-14330183D01*
X37584287Y-14668334D01*
X29578350Y-14668334D01*
X29529841Y-14619741D01*
X29217543Y-14490063D01*
X28879392Y-14489768D01*
X28566869Y-14618900D01*
X28327552Y-14857800D01*
X28204283Y-15154662D01*
X28188546Y-15161165D01*
X28214127Y-15099560D01*
X28214422Y-14761409D01*
X28085290Y-14448886D01*
X27846390Y-14209569D01*
X27616278Y-14114018D01*
X27780857Y-14046015D01*
X27832385Y-13994577D01*
X27887885Y-14050174D01*
X28200183Y-14179852D01*
X28538334Y-14180147D01*
X28850857Y-14051015D01*
X29090174Y-13812115D01*
X29219852Y-13499817D01*
X29219966Y-13368334D01*
X31949853Y-13368334D01*
X32078985Y-13680857D01*
X32317885Y-13920174D01*
X32630183Y-14049852D01*
X32968334Y-14050147D01*
X33280857Y-13921015D01*
X33520174Y-13682115D01*
X33649852Y-13369817D01*
X33650147Y-13031666D01*
X33603320Y-12918334D01*
X38899853Y-12918334D01*
X39028985Y-13230857D01*
X39267885Y-13470174D01*
X39580183Y-13599852D01*
X39918334Y-13600147D01*
X40230857Y-13471015D01*
X40382880Y-13319257D01*
X40316016Y-13480283D01*
X40315721Y-13818434D01*
X40444853Y-14130957D01*
X40683753Y-14370274D01*
X40996051Y-14499952D01*
X41334202Y-14500247D01*
X41646725Y-14371115D01*
X41886042Y-14132215D01*
X42015720Y-13819917D01*
X42015817Y-13709194D01*
X42018316Y-13708161D01*
X42257633Y-13469261D01*
X42387311Y-13156963D01*
X42387606Y-12818812D01*
X42258474Y-12506289D01*
X42019574Y-12266972D01*
X41751860Y-12155807D01*
X41849852Y-11919817D01*
X41850147Y-11581666D01*
X41827323Y-11526428D01*
X42000000Y-11560775D01*
X46000000Y-11560775D01*
X46214599Y-11518089D01*
X46396528Y-11396528D01*
X46518089Y-11214599D01*
X46560775Y-11000000D01*
X46560775Y-7418334D01*
X47649853Y-7418334D01*
X47778985Y-7730857D01*
X48017885Y-7970174D01*
X48330183Y-8099852D01*
X48668334Y-8100147D01*
X48980857Y-7971015D01*
X49220174Y-7732115D01*
X49349852Y-7419817D01*
X49350147Y-7081666D01*
X49221015Y-6769143D01*
X48982115Y-6529826D01*
X48669817Y-6400148D01*
X48331666Y-6399853D01*
X48019143Y-6528985D01*
X47779826Y-6767885D01*
X47650148Y-7080183D01*
X47649853Y-7418334D01*
X46560775Y-7418334D01*
X46560775Y-7000000D01*
X46518089Y-6785401D01*
X46396528Y-6603472D01*
X46214599Y-6481911D01*
X46000000Y-6439225D01*
X42000000Y-6439225D01*
X41785401Y-6481911D01*
X41603472Y-6603472D01*
X41481911Y-6785401D01*
X41439225Y-7000000D01*
X41439225Y-11000000D01*
X41441830Y-11013098D01*
X41169817Y-10900148D01*
X40831666Y-10899853D01*
X40770082Y-10925299D01*
X40571377Y-10726247D01*
X40259079Y-10596569D01*
X39920928Y-10596274D01*
X39608405Y-10725406D01*
X39369088Y-10964306D01*
X39239410Y-11276604D01*
X39239115Y-11614755D01*
X39368247Y-11927278D01*
X39411187Y-11970293D01*
X39269143Y-12028985D01*
X39029826Y-12267885D01*
X38900148Y-12580183D01*
X38899853Y-12918334D01*
X33603320Y-12918334D01*
X33521015Y-12719143D01*
X33282115Y-12479826D01*
X32969817Y-12350148D01*
X32631666Y-12349853D01*
X32319143Y-12478985D01*
X32079826Y-12717885D01*
X31950148Y-13030183D01*
X31949853Y-13368334D01*
X29219966Y-13368334D01*
X29220147Y-13161666D01*
X29215327Y-13150000D01*
X30500000Y-13150000D01*
X30557403Y-13138582D01*
X30606066Y-13106066D01*
X30638582Y-13057403D01*
X30650000Y-13000000D01*
X30650000Y-10918334D01*
X36149853Y-10918334D01*
X36278985Y-11230857D01*
X36517885Y-11470174D01*
X36830183Y-11599852D01*
X37168334Y-11600147D01*
X37480857Y-11471015D01*
X37720174Y-11232115D01*
X37849852Y-10919817D01*
X37850147Y-10581666D01*
X37721015Y-10269143D01*
X37482115Y-10029826D01*
X37169817Y-9900148D01*
X36831666Y-9899853D01*
X36519143Y-10028985D01*
X36279826Y-10267885D01*
X36150148Y-10580183D01*
X36149853Y-10918334D01*
X30650000Y-10918334D01*
X30650000Y-8418334D01*
X36149853Y-8418334D01*
X36278985Y-8730857D01*
X36517885Y-8970174D01*
X36830183Y-9099852D01*
X37168334Y-9100147D01*
X37480857Y-8971015D01*
X37720174Y-8732115D01*
X37849852Y-8419817D01*
X37850147Y-8081666D01*
X37721015Y-7769143D01*
X37482115Y-7529826D01*
X37169817Y-7400148D01*
X36831666Y-7399853D01*
X36519143Y-7528985D01*
X36279826Y-7767885D01*
X36150148Y-8080183D01*
X36149853Y-8418334D01*
X30650000Y-8418334D01*
X30650000Y-4935875D01*
X30664858Y-4861179D01*
X30743492Y-4743494D01*
X30861180Y-4664857D01*
X30935872Y-4650000D01*
X53519456Y-4650000D01*
X53208381Y-4960533D01*
M02*
