G04 #@! TF.FileFunction,Profile,NP*
%FSLAX46Y46*%
G04 Gerber Fmt 4.6, Leading zero omitted, Abs format (unit mm)*
G04 Created by KiCad (PCBNEW (2016-06-03 BZR 6882, Git b4ad18a)-product) date Fri Jun  3 12:48:54 2016*
%MOMM*%
%LPD*%
G01*
G04 APERTURE LIST*
%ADD10C,0.100000*%
%ADD11C,0.150000*%
G04 APERTURE END LIST*
D10*
D11*
X70500000Y-32000000D02*
G75*
G03X71000000Y-31500000I0J500000D01*
G01*
X71000000Y-4500000D02*
G75*
G03X70500000Y-4000000I-500000J0D01*
G01*
X31000000Y-4000000D02*
G75*
G03X30000000Y-5000000I0J-1000000D01*
G01*
X30000000Y-31000000D02*
G75*
G03X31000000Y-32000000I1000000J0D01*
G01*
X30000000Y-12400000D02*
X30000000Y-12000000D01*
X26100000Y-12400000D02*
X30000000Y-12400000D01*
X26100000Y-12625000D02*
X26100000Y-12400000D01*
X25900000Y-12825000D02*
G75*
G03X26100000Y-12625000I0J200000D01*
G01*
X22000000Y-12825000D02*
X25900000Y-12825000D01*
X22000000Y-12825000D02*
G75*
G03X21800000Y-13025000I0J-200000D01*
G01*
X21800000Y-20975000D02*
G75*
G03X22000000Y-21175000I200000J0D01*
G01*
X21800000Y-20975000D02*
X21800000Y-13025000D01*
X24350000Y-21175000D02*
X22000000Y-21175000D01*
X25150000Y-21175000D02*
G75*
G03X24350000Y-21175000I-400000J0D01*
G01*
X25150000Y-21600000D02*
X25150000Y-21175000D01*
X30000000Y-21600000D02*
X25150000Y-21600000D01*
X30000000Y-22000000D02*
X30000000Y-21600000D01*
X31000000Y-32000000D02*
X70500000Y-32000000D01*
X30000000Y-22000000D02*
X30000000Y-31000000D01*
X30000000Y-5000000D02*
X30000000Y-12000000D01*
X70500000Y-4000000D02*
X31000000Y-4000000D01*
X71000000Y-31500000D02*
X71000000Y-4500000D01*
M02*
